G04 #@! TF.FileFunction,Soldermask,Bot*
%FSLAX46Y46*%
G04 Gerber Fmt 4.6, Leading zero omitted, Abs format (unit mm)*
G04 Created by KiCad (PCBNEW 4.0.7) date 12/20/18 21:54:31*
%MOMM*%
%LPD*%
G01*
G04 APERTURE LIST*
%ADD10C,0.100000*%
%ADD11C,4.700000*%
%ADD12R,2.000000X2.000000*%
%ADD13C,2.000000*%
%ADD14C,2.600000*%
%ADD15R,2.100000X2.100000*%
%ADD16C,1.400000*%
%ADD17R,1.400000X1.400000*%
%ADD18O,1.300000X1.900000*%
%ADD19R,1.300000X1.900000*%
%ADD20R,2.127200X2.127200*%
%ADD21O,2.127200X2.127200*%
%ADD22O,2.000000X2.000000*%
G04 APERTURE END LIST*
D10*
D11*
X104000000Y-156000000D03*
X156000000Y-156000000D03*
X156000000Y-104000000D03*
D12*
X117576600Y-140030200D03*
D13*
X115076600Y-140030200D03*
D12*
X114884200Y-122275600D03*
D13*
X117384200Y-122275600D03*
D12*
X114884200Y-114046000D03*
D13*
X117384200Y-114046000D03*
D14*
X124251200Y-153974800D03*
X136251200Y-153974800D03*
D15*
X108813600Y-128905000D03*
X108813600Y-137388600D03*
X108813600Y-120218200D03*
D16*
X146939000Y-122174000D03*
X145669000Y-120904000D03*
D17*
X148209000Y-120904000D03*
D18*
X116382800Y-132105400D03*
X117652800Y-132105400D03*
D19*
X115112800Y-132105400D03*
D20*
X134315200Y-107619800D03*
D21*
X134315200Y-110159800D03*
X131775200Y-107619800D03*
X131775200Y-110159800D03*
X129235200Y-107619800D03*
X129235200Y-110159800D03*
X126695200Y-107619800D03*
X126695200Y-110159800D03*
D13*
X135102600Y-126492000D03*
D22*
X135102600Y-116332000D03*
D13*
X130911600Y-126492000D03*
D22*
X130911600Y-116332000D03*
D13*
X126695200Y-126517400D03*
D22*
X126695200Y-116357400D03*
D13*
X152196800Y-127482600D03*
D22*
X142036800Y-127482600D03*
D13*
X152374600Y-132816600D03*
D22*
X142214600Y-132816600D03*
D13*
X141986000Y-114147600D03*
D22*
X152146000Y-114147600D03*
D11*
X104000000Y-104000000D03*
M02*
