G04 #@! TF.FileFunction,Soldermask,Top*
%FSLAX46Y46*%
G04 Gerber Fmt 4.6, Leading zero omitted, Abs format (unit mm)*
G04 Created by KiCad (PCBNEW 4.0.7) date 12/21/18 01:01:40*
%MOMM*%
%LPD*%
G01*
G04 APERTURE LIST*
%ADD10C,0.100000*%
%ADD11C,2.600000*%
%ADD12C,2.000000*%
%ADD13R,2.127200X2.127200*%
%ADD14O,2.127200X2.127200*%
%ADD15R,1.150000X1.600000*%
%ADD16R,1.600000X1.150000*%
%ADD17R,1.200000X2.300000*%
%ADD18R,1.600000X1.300000*%
%ADD19R,1.300000X1.600000*%
%ADD20R,2.300000X1.200000*%
%ADD21C,2.400000*%
G04 APERTURE END LIST*
D10*
D11*
X104337600Y-154152600D03*
D12*
X112887600Y-149312600D03*
X111867600Y-151852600D03*
X110847600Y-149312600D03*
X109827600Y-151852600D03*
X108807600Y-149312600D03*
X107787600Y-151852600D03*
D11*
X116337600Y-154152600D03*
D13*
X113766600Y-114300000D03*
D14*
X113766600Y-116840000D03*
X111226600Y-114300000D03*
X111226600Y-116840000D03*
X108686600Y-114300000D03*
X108686600Y-116840000D03*
X106146600Y-114300000D03*
X106146600Y-116840000D03*
D15*
X102692200Y-145785800D03*
X102692200Y-147685800D03*
D16*
X103693000Y-133604000D03*
X101793000Y-133604000D03*
X103693000Y-127838200D03*
X101793000Y-127838200D03*
D17*
X117790000Y-131926200D03*
X115890000Y-131926200D03*
X116840000Y-134926200D03*
D18*
X111818600Y-136093200D03*
X109618600Y-136093200D03*
X109593200Y-139547600D03*
X111793200Y-139547600D03*
X114266800Y-127355600D03*
X116466800Y-127355600D03*
D19*
X114249200Y-123020000D03*
X114249200Y-120820000D03*
X109728000Y-123121600D03*
X109728000Y-120921600D03*
X105765600Y-123147000D03*
X105765600Y-120947000D03*
D20*
X102690800Y-141137600D03*
X102690800Y-143037600D03*
X105690800Y-142087600D03*
D21*
X115189000Y-142214600D03*
X115265200Y-145440400D03*
X115112800Y-139014200D03*
M02*
