G04 #@! TF.FileFunction,Copper,L1,Top,Signal*
%FSLAX46Y46*%
G04 Gerber Fmt 4.6, Leading zero omitted, Abs format (unit mm)*
G04 Created by KiCad (PCBNEW 4.0.7) date 12/21/18 01:01:40*
%MOMM*%
%LPD*%
G01*
G04 APERTURE LIST*
%ADD10C,0.100000*%
%ADD11C,1.600000*%
%ADD12R,1.727200X1.727200*%
%ADD13O,1.727200X1.727200*%
%ADD14R,0.750000X1.200000*%
%ADD15R,1.200000X0.750000*%
%ADD16R,0.800000X1.900000*%
%ADD17R,1.200000X0.900000*%
%ADD18R,0.900000X1.200000*%
%ADD19R,1.900000X0.800000*%
%ADD20C,2.000000*%
%ADD21C,0.250000*%
%ADD22C,0.254000*%
G04 APERTURE END LIST*
D10*
D11*
X112887600Y-149312600D03*
X111867600Y-151852600D03*
X110847600Y-149312600D03*
X109827600Y-151852600D03*
X108807600Y-149312600D03*
X107787600Y-151852600D03*
D12*
X113766600Y-114300000D03*
D13*
X113766600Y-116840000D03*
X111226600Y-114300000D03*
X111226600Y-116840000D03*
X108686600Y-114300000D03*
X108686600Y-116840000D03*
X106146600Y-114300000D03*
X106146600Y-116840000D03*
D14*
X102692200Y-145785800D03*
X102692200Y-147685800D03*
D15*
X103693000Y-133604000D03*
X101793000Y-133604000D03*
X103693000Y-127838200D03*
X101793000Y-127838200D03*
D16*
X117790000Y-131926200D03*
X115890000Y-131926200D03*
X116840000Y-134926200D03*
D17*
X111818600Y-136093200D03*
X109618600Y-136093200D03*
X109593200Y-139547600D03*
X111793200Y-139547600D03*
X114266800Y-127355600D03*
X116466800Y-127355600D03*
D18*
X114249200Y-123020000D03*
X114249200Y-120820000D03*
X109728000Y-123121600D03*
X109728000Y-120921600D03*
X105765600Y-123147000D03*
X105765600Y-120947000D03*
D19*
X102690800Y-141137600D03*
X102690800Y-143037600D03*
X105690800Y-142087600D03*
D20*
X115189000Y-142214600D03*
X115265200Y-145440400D03*
X115112800Y-139014200D03*
D21*
X115265200Y-145440400D02*
X112973800Y-145440400D01*
X112973800Y-145440400D02*
X112887600Y-145526600D01*
X102692200Y-145785800D02*
X103164600Y-145785800D01*
X107965400Y-150586600D02*
X112887600Y-150586600D01*
X103164600Y-145785800D02*
X107965400Y-150586600D01*
X102692200Y-145785800D02*
X102692200Y-143039000D01*
X102692200Y-143039000D02*
X102690800Y-143037600D01*
X111867600Y-151852600D02*
X111867600Y-151606600D01*
X111867600Y-151606600D02*
X112887600Y-150586600D01*
X112887600Y-149312600D02*
X112887600Y-150586600D01*
X112887600Y-149312600D02*
X112887600Y-145526600D01*
X112887600Y-145526600D02*
X112887600Y-140642000D01*
X112887600Y-140642000D02*
X111793200Y-139547600D01*
X114249200Y-123020000D02*
X114249200Y-127338000D01*
X114249200Y-127338000D02*
X114266800Y-127355600D01*
X115189000Y-142214600D02*
X115189000Y-141884400D01*
X115189000Y-141884400D02*
X113182400Y-139877800D01*
X113182400Y-139877800D02*
X113182400Y-138379200D01*
X113182400Y-138379200D02*
X112776000Y-137972800D01*
X112776000Y-137972800D02*
X111556800Y-137972800D01*
X111556800Y-137972800D02*
X110718600Y-137134600D01*
X110718600Y-137134600D02*
X110718600Y-135128000D01*
X110718600Y-135128000D02*
X110337600Y-134747000D01*
X110337600Y-134747000D02*
X107975400Y-134747000D01*
X105690800Y-142087600D02*
X107391200Y-142087600D01*
X107975400Y-141503400D02*
X107975400Y-134747000D01*
X107975400Y-134747000D02*
X107975400Y-134696200D01*
X107391200Y-142087600D02*
X107975400Y-141503400D01*
X106146600Y-114300000D02*
X104851200Y-114300000D01*
X103886000Y-121267400D02*
X105765600Y-123147000D01*
X103886000Y-115265200D02*
X103886000Y-121267400D01*
X104851200Y-114300000D02*
X103886000Y-115265200D01*
X103693000Y-133604000D02*
X106883200Y-133604000D01*
X106883200Y-133604000D02*
X107975400Y-134696200D01*
X103693000Y-127838200D02*
X103693000Y-133604000D01*
X105765600Y-123147000D02*
X105765600Y-125765600D01*
X105765600Y-125765600D02*
X103693000Y-127838200D01*
X109728000Y-123121600D02*
X105791000Y-123121600D01*
X105791000Y-123121600D02*
X105765600Y-123147000D01*
X114249200Y-123020000D02*
X109829600Y-123020000D01*
X109829600Y-123020000D02*
X109728000Y-123121600D01*
X109593200Y-139547600D02*
X109593200Y-136118600D01*
X109593200Y-136118600D02*
X109618600Y-136093200D01*
X108807600Y-149312600D02*
X108807600Y-140333200D01*
X108807600Y-140333200D02*
X109593200Y-139547600D01*
X111818600Y-136093200D02*
X111818600Y-135997600D01*
X111818600Y-135997600D02*
X115890000Y-131926200D01*
X106146600Y-116840000D02*
X106146600Y-116814600D01*
X106146600Y-116814600D02*
X107416600Y-115544600D01*
X116466800Y-113012400D02*
X116466800Y-127355600D01*
X115925600Y-112471200D02*
X116466800Y-113012400D01*
X108356400Y-112471200D02*
X115925600Y-112471200D01*
X107416600Y-113411000D02*
X108356400Y-112471200D01*
X107416600Y-115544600D02*
X107416600Y-113411000D01*
X117790000Y-131926200D02*
X117790000Y-128678800D01*
X117790000Y-128678800D02*
X116466800Y-127355600D01*
X106146600Y-116840000D02*
X106172000Y-116840000D01*
X114249200Y-120820000D02*
X114249200Y-119659400D01*
X112496600Y-115570000D02*
X111226600Y-114300000D01*
X112496600Y-117906800D02*
X112496600Y-115570000D01*
X114249200Y-119659400D02*
X112496600Y-117906800D01*
X109728000Y-120921600D02*
X109728000Y-118338600D01*
X109728000Y-118338600D02*
X111226600Y-116840000D01*
X105765600Y-120947000D02*
X105765600Y-119761000D01*
X105765600Y-119761000D02*
X108686600Y-116840000D01*
D22*
G36*
X118884200Y-159425000D02*
X100354200Y-159425000D01*
X100354200Y-154496199D01*
X102602299Y-154496199D01*
X102865881Y-155134115D01*
X103353518Y-155622604D01*
X103990973Y-155887299D01*
X104681199Y-155887901D01*
X105319115Y-155624319D01*
X105807604Y-155136682D01*
X106072299Y-154499227D01*
X106072301Y-154496199D01*
X114602299Y-154496199D01*
X114865881Y-155134115D01*
X115353518Y-155622604D01*
X115990973Y-155887299D01*
X116681199Y-155887901D01*
X117319115Y-155624319D01*
X117807604Y-155136682D01*
X118072299Y-154499227D01*
X118072901Y-153809001D01*
X117809319Y-153171085D01*
X117321682Y-152682596D01*
X116684227Y-152417901D01*
X115994001Y-152417299D01*
X115356085Y-152680881D01*
X114867596Y-153168518D01*
X114602901Y-153805973D01*
X114602299Y-154496199D01*
X106072301Y-154496199D01*
X106072901Y-153809001D01*
X105809319Y-153171085D01*
X105499121Y-152860345D01*
X106959461Y-152860345D01*
X107033595Y-153106464D01*
X107570823Y-153299565D01*
X108141054Y-153272378D01*
X108541605Y-153106464D01*
X108615739Y-152860345D01*
X107787600Y-152032205D01*
X106959461Y-152860345D01*
X105499121Y-152860345D01*
X105321682Y-152682596D01*
X104684227Y-152417901D01*
X103994001Y-152417299D01*
X103356085Y-152680881D01*
X102867596Y-153168518D01*
X102602901Y-153805973D01*
X102602299Y-154496199D01*
X100354200Y-154496199D01*
X100354200Y-151635823D01*
X106340635Y-151635823D01*
X106367822Y-152206054D01*
X106533736Y-152606605D01*
X106779855Y-152680739D01*
X107607995Y-151852600D01*
X106779855Y-151024461D01*
X106533736Y-151098595D01*
X106340635Y-151635823D01*
X100354200Y-151635823D01*
X100354200Y-147971550D01*
X101682200Y-147971550D01*
X101682200Y-148412109D01*
X101778873Y-148645498D01*
X101957501Y-148824127D01*
X102190890Y-148920800D01*
X102406450Y-148920800D01*
X102565200Y-148762050D01*
X102565200Y-147812800D01*
X102819200Y-147812800D01*
X102819200Y-148762050D01*
X102977950Y-148920800D01*
X103193510Y-148920800D01*
X103426899Y-148824127D01*
X103605527Y-148645498D01*
X103702200Y-148412109D01*
X103702200Y-147971550D01*
X103543450Y-147812800D01*
X102819200Y-147812800D01*
X102565200Y-147812800D01*
X101840950Y-147812800D01*
X101682200Y-147971550D01*
X100354200Y-147971550D01*
X100354200Y-142637600D01*
X101093360Y-142637600D01*
X101093360Y-143437600D01*
X101137638Y-143672917D01*
X101276710Y-143889041D01*
X101488910Y-144034031D01*
X101740800Y-144085040D01*
X101932200Y-144085040D01*
X101932200Y-144678956D01*
X101865759Y-144721710D01*
X101720769Y-144933910D01*
X101669760Y-145185800D01*
X101669760Y-146385800D01*
X101714038Y-146621117D01*
X101780529Y-146724446D01*
X101778873Y-146726102D01*
X101682200Y-146959491D01*
X101682200Y-147400050D01*
X101840950Y-147558800D01*
X102565200Y-147558800D01*
X102565200Y-147538800D01*
X102819200Y-147538800D01*
X102819200Y-147558800D01*
X103543450Y-147558800D01*
X103702200Y-147400050D01*
X103702200Y-147398202D01*
X107003303Y-150699305D01*
X106959461Y-150844855D01*
X107787600Y-151672995D01*
X107801743Y-151658853D01*
X107981348Y-151838458D01*
X107967205Y-151852600D01*
X108491606Y-152377000D01*
X108610357Y-152664400D01*
X109013677Y-153068424D01*
X109540909Y-153287350D01*
X110111787Y-153287848D01*
X110639400Y-153069843D01*
X110847609Y-152861997D01*
X111053677Y-153068424D01*
X111580909Y-153287350D01*
X112151787Y-153287848D01*
X112679400Y-153069843D01*
X113083424Y-152666523D01*
X113302350Y-152139291D01*
X113302848Y-151568413D01*
X113208625Y-151340377D01*
X113425001Y-151124001D01*
X113589748Y-150877439D01*
X113647600Y-150586600D01*
X113647600Y-150551246D01*
X113699400Y-150529843D01*
X114103424Y-150126523D01*
X114322350Y-149599291D01*
X114322848Y-149028413D01*
X114104843Y-148500800D01*
X113701523Y-148096776D01*
X113647600Y-148074385D01*
X113647600Y-146200400D01*
X113810153Y-146200400D01*
X113878306Y-146365343D01*
X114337837Y-146825678D01*
X114938552Y-147075116D01*
X115588995Y-147075684D01*
X116190143Y-146827294D01*
X116650478Y-146367763D01*
X116899916Y-145767048D01*
X116900484Y-145116605D01*
X116652094Y-144515457D01*
X116192563Y-144055122D01*
X115605773Y-143811466D01*
X116113943Y-143601494D01*
X116574278Y-143141963D01*
X116823716Y-142541248D01*
X116824284Y-141890805D01*
X116575894Y-141289657D01*
X116116363Y-140829322D01*
X115574687Y-140604399D01*
X115987064Y-140433587D01*
X116085727Y-140166732D01*
X115112800Y-139193805D01*
X115098658Y-139207948D01*
X114919053Y-139028343D01*
X114933195Y-139014200D01*
X115292405Y-139014200D01*
X116265332Y-139987127D01*
X116532187Y-139888464D01*
X116758708Y-139278739D01*
X116734656Y-138628740D01*
X116532187Y-138139936D01*
X116265332Y-138041273D01*
X115292405Y-139014200D01*
X114933195Y-139014200D01*
X113960268Y-138041273D01*
X113874319Y-138073051D01*
X113733078Y-137861668D01*
X114139873Y-137861668D01*
X115112800Y-138834595D01*
X116085727Y-137861668D01*
X115987064Y-137594813D01*
X115377339Y-137368292D01*
X114727340Y-137392344D01*
X114238536Y-137594813D01*
X114139873Y-137861668D01*
X113733078Y-137861668D01*
X113719801Y-137841799D01*
X113313401Y-137435399D01*
X113066839Y-137270652D01*
X112776000Y-137212800D01*
X111871602Y-137212800D01*
X111849442Y-137190640D01*
X112418600Y-137190640D01*
X112653917Y-137146362D01*
X112870041Y-137007290D01*
X113015031Y-136795090D01*
X113066040Y-136543200D01*
X113066040Y-135824962D01*
X113679052Y-135211950D01*
X115805000Y-135211950D01*
X115805000Y-136002509D01*
X115901673Y-136235898D01*
X116080301Y-136414527D01*
X116313690Y-136511200D01*
X116554250Y-136511200D01*
X116713000Y-136352450D01*
X116713000Y-135053200D01*
X116967000Y-135053200D01*
X116967000Y-136352450D01*
X117125750Y-136511200D01*
X117366310Y-136511200D01*
X117599699Y-136414527D01*
X117778327Y-136235898D01*
X117875000Y-136002509D01*
X117875000Y-135211950D01*
X117716250Y-135053200D01*
X116967000Y-135053200D01*
X116713000Y-135053200D01*
X115963750Y-135053200D01*
X115805000Y-135211950D01*
X113679052Y-135211950D01*
X115388015Y-133502987D01*
X115490000Y-133523640D01*
X115994534Y-133523640D01*
X115901673Y-133616502D01*
X115805000Y-133849891D01*
X115805000Y-134640450D01*
X115963750Y-134799200D01*
X116713000Y-134799200D01*
X116713000Y-133499950D01*
X116626988Y-133413938D01*
X116741441Y-133340290D01*
X116840633Y-133195117D01*
X116925910Y-133327641D01*
X117052686Y-133414264D01*
X116967000Y-133499950D01*
X116967000Y-134799200D01*
X117716250Y-134799200D01*
X117875000Y-134640450D01*
X117875000Y-133849891D01*
X117778327Y-133616502D01*
X117685466Y-133523640D01*
X118190000Y-133523640D01*
X118425317Y-133479362D01*
X118641441Y-133340290D01*
X118786431Y-133128090D01*
X118837440Y-132876200D01*
X118837440Y-130976200D01*
X118793162Y-130740883D01*
X118654090Y-130524759D01*
X118550000Y-130453637D01*
X118550000Y-128678800D01*
X118505093Y-128453040D01*
X118492148Y-128387960D01*
X118327401Y-128141399D01*
X117714240Y-127528238D01*
X117714240Y-126905600D01*
X117669962Y-126670283D01*
X117530890Y-126454159D01*
X117318690Y-126309169D01*
X117226800Y-126290561D01*
X117226800Y-113012400D01*
X117168948Y-112721561D01*
X117168948Y-112721560D01*
X117004201Y-112474999D01*
X116463001Y-111933799D01*
X116216439Y-111769052D01*
X115925600Y-111711200D01*
X108356400Y-111711200D01*
X108065561Y-111769052D01*
X107818999Y-111933799D01*
X106879199Y-112873599D01*
X106824307Y-112955751D01*
X106720089Y-112886115D01*
X106146600Y-112772041D01*
X105573111Y-112886115D01*
X105086930Y-113210971D01*
X104867080Y-113540000D01*
X104851200Y-113540000D01*
X104560361Y-113597852D01*
X104313799Y-113762599D01*
X103348599Y-114727799D01*
X103183852Y-114974361D01*
X103126000Y-115265200D01*
X103126000Y-121267400D01*
X103183852Y-121558239D01*
X103348599Y-121804801D01*
X104668160Y-123124362D01*
X104668160Y-123747000D01*
X104712438Y-123982317D01*
X104851510Y-124198441D01*
X105005600Y-124303726D01*
X105005600Y-125450798D01*
X103640638Y-126815760D01*
X103093000Y-126815760D01*
X102857683Y-126860038D01*
X102754354Y-126926529D01*
X102752698Y-126924873D01*
X102519309Y-126828200D01*
X102078750Y-126828200D01*
X101920000Y-126986950D01*
X101920000Y-127711200D01*
X101940000Y-127711200D01*
X101940000Y-127965200D01*
X101920000Y-127965200D01*
X101920000Y-128689450D01*
X102078750Y-128848200D01*
X102519309Y-128848200D01*
X102752698Y-128751527D01*
X102754068Y-128750157D01*
X102841110Y-128809631D01*
X102933000Y-128828239D01*
X102933000Y-132611666D01*
X102857683Y-132625838D01*
X102754354Y-132692329D01*
X102752698Y-132690673D01*
X102519309Y-132594000D01*
X102078750Y-132594000D01*
X101920000Y-132752750D01*
X101920000Y-133477000D01*
X101940000Y-133477000D01*
X101940000Y-133731000D01*
X101920000Y-133731000D01*
X101920000Y-134455250D01*
X102078750Y-134614000D01*
X102519309Y-134614000D01*
X102752698Y-134517327D01*
X102754068Y-134515957D01*
X102841110Y-134575431D01*
X103093000Y-134626440D01*
X104293000Y-134626440D01*
X104528317Y-134582162D01*
X104744441Y-134443090D01*
X104798481Y-134364000D01*
X106568398Y-134364000D01*
X107215400Y-135011002D01*
X107215400Y-141188598D01*
X107129537Y-141274461D01*
X107104890Y-141236159D01*
X106892690Y-141091169D01*
X106640800Y-141040160D01*
X104740800Y-141040160D01*
X104505483Y-141084438D01*
X104289359Y-141223510D01*
X104202736Y-141350286D01*
X104117050Y-141264600D01*
X102817800Y-141264600D01*
X102817800Y-141284600D01*
X102563800Y-141284600D01*
X102563800Y-141264600D01*
X101264550Y-141264600D01*
X101105800Y-141423350D01*
X101105800Y-141663910D01*
X101202473Y-141897299D01*
X101381102Y-142075927D01*
X101417547Y-142091023D01*
X101289359Y-142173510D01*
X101144369Y-142385710D01*
X101093360Y-142637600D01*
X100354200Y-142637600D01*
X100354200Y-140611290D01*
X101105800Y-140611290D01*
X101105800Y-140851850D01*
X101264550Y-141010600D01*
X102563800Y-141010600D01*
X102563800Y-140261350D01*
X102817800Y-140261350D01*
X102817800Y-141010600D01*
X104117050Y-141010600D01*
X104275800Y-140851850D01*
X104275800Y-140611290D01*
X104179127Y-140377901D01*
X104000498Y-140199273D01*
X103767109Y-140102600D01*
X102976550Y-140102600D01*
X102817800Y-140261350D01*
X102563800Y-140261350D01*
X102405050Y-140102600D01*
X101614491Y-140102600D01*
X101381102Y-140199273D01*
X101202473Y-140377901D01*
X101105800Y-140611290D01*
X100354200Y-140611290D01*
X100354200Y-133889750D01*
X100558000Y-133889750D01*
X100558000Y-134105310D01*
X100654673Y-134338699D01*
X100833302Y-134517327D01*
X101066691Y-134614000D01*
X101507250Y-134614000D01*
X101666000Y-134455250D01*
X101666000Y-133731000D01*
X100716750Y-133731000D01*
X100558000Y-133889750D01*
X100354200Y-133889750D01*
X100354200Y-133102690D01*
X100558000Y-133102690D01*
X100558000Y-133318250D01*
X100716750Y-133477000D01*
X101666000Y-133477000D01*
X101666000Y-132752750D01*
X101507250Y-132594000D01*
X101066691Y-132594000D01*
X100833302Y-132690673D01*
X100654673Y-132869301D01*
X100558000Y-133102690D01*
X100354200Y-133102690D01*
X100354200Y-128123950D01*
X100558000Y-128123950D01*
X100558000Y-128339510D01*
X100654673Y-128572899D01*
X100833302Y-128751527D01*
X101066691Y-128848200D01*
X101507250Y-128848200D01*
X101666000Y-128689450D01*
X101666000Y-127965200D01*
X100716750Y-127965200D01*
X100558000Y-128123950D01*
X100354200Y-128123950D01*
X100354200Y-127336890D01*
X100558000Y-127336890D01*
X100558000Y-127552450D01*
X100716750Y-127711200D01*
X101666000Y-127711200D01*
X101666000Y-126986950D01*
X101507250Y-126828200D01*
X101066691Y-126828200D01*
X100833302Y-126924873D01*
X100654673Y-127103501D01*
X100558000Y-127336890D01*
X100354200Y-127336890D01*
X100354200Y-110895000D01*
X118884200Y-110895000D01*
X118884200Y-159425000D01*
X118884200Y-159425000D01*
G37*
X118884200Y-159425000D02*
X100354200Y-159425000D01*
X100354200Y-154496199D01*
X102602299Y-154496199D01*
X102865881Y-155134115D01*
X103353518Y-155622604D01*
X103990973Y-155887299D01*
X104681199Y-155887901D01*
X105319115Y-155624319D01*
X105807604Y-155136682D01*
X106072299Y-154499227D01*
X106072301Y-154496199D01*
X114602299Y-154496199D01*
X114865881Y-155134115D01*
X115353518Y-155622604D01*
X115990973Y-155887299D01*
X116681199Y-155887901D01*
X117319115Y-155624319D01*
X117807604Y-155136682D01*
X118072299Y-154499227D01*
X118072901Y-153809001D01*
X117809319Y-153171085D01*
X117321682Y-152682596D01*
X116684227Y-152417901D01*
X115994001Y-152417299D01*
X115356085Y-152680881D01*
X114867596Y-153168518D01*
X114602901Y-153805973D01*
X114602299Y-154496199D01*
X106072301Y-154496199D01*
X106072901Y-153809001D01*
X105809319Y-153171085D01*
X105499121Y-152860345D01*
X106959461Y-152860345D01*
X107033595Y-153106464D01*
X107570823Y-153299565D01*
X108141054Y-153272378D01*
X108541605Y-153106464D01*
X108615739Y-152860345D01*
X107787600Y-152032205D01*
X106959461Y-152860345D01*
X105499121Y-152860345D01*
X105321682Y-152682596D01*
X104684227Y-152417901D01*
X103994001Y-152417299D01*
X103356085Y-152680881D01*
X102867596Y-153168518D01*
X102602901Y-153805973D01*
X102602299Y-154496199D01*
X100354200Y-154496199D01*
X100354200Y-151635823D01*
X106340635Y-151635823D01*
X106367822Y-152206054D01*
X106533736Y-152606605D01*
X106779855Y-152680739D01*
X107607995Y-151852600D01*
X106779855Y-151024461D01*
X106533736Y-151098595D01*
X106340635Y-151635823D01*
X100354200Y-151635823D01*
X100354200Y-147971550D01*
X101682200Y-147971550D01*
X101682200Y-148412109D01*
X101778873Y-148645498D01*
X101957501Y-148824127D01*
X102190890Y-148920800D01*
X102406450Y-148920800D01*
X102565200Y-148762050D01*
X102565200Y-147812800D01*
X102819200Y-147812800D01*
X102819200Y-148762050D01*
X102977950Y-148920800D01*
X103193510Y-148920800D01*
X103426899Y-148824127D01*
X103605527Y-148645498D01*
X103702200Y-148412109D01*
X103702200Y-147971550D01*
X103543450Y-147812800D01*
X102819200Y-147812800D01*
X102565200Y-147812800D01*
X101840950Y-147812800D01*
X101682200Y-147971550D01*
X100354200Y-147971550D01*
X100354200Y-142637600D01*
X101093360Y-142637600D01*
X101093360Y-143437600D01*
X101137638Y-143672917D01*
X101276710Y-143889041D01*
X101488910Y-144034031D01*
X101740800Y-144085040D01*
X101932200Y-144085040D01*
X101932200Y-144678956D01*
X101865759Y-144721710D01*
X101720769Y-144933910D01*
X101669760Y-145185800D01*
X101669760Y-146385800D01*
X101714038Y-146621117D01*
X101780529Y-146724446D01*
X101778873Y-146726102D01*
X101682200Y-146959491D01*
X101682200Y-147400050D01*
X101840950Y-147558800D01*
X102565200Y-147558800D01*
X102565200Y-147538800D01*
X102819200Y-147538800D01*
X102819200Y-147558800D01*
X103543450Y-147558800D01*
X103702200Y-147400050D01*
X103702200Y-147398202D01*
X107003303Y-150699305D01*
X106959461Y-150844855D01*
X107787600Y-151672995D01*
X107801743Y-151658853D01*
X107981348Y-151838458D01*
X107967205Y-151852600D01*
X108491606Y-152377000D01*
X108610357Y-152664400D01*
X109013677Y-153068424D01*
X109540909Y-153287350D01*
X110111787Y-153287848D01*
X110639400Y-153069843D01*
X110847609Y-152861997D01*
X111053677Y-153068424D01*
X111580909Y-153287350D01*
X112151787Y-153287848D01*
X112679400Y-153069843D01*
X113083424Y-152666523D01*
X113302350Y-152139291D01*
X113302848Y-151568413D01*
X113208625Y-151340377D01*
X113425001Y-151124001D01*
X113589748Y-150877439D01*
X113647600Y-150586600D01*
X113647600Y-150551246D01*
X113699400Y-150529843D01*
X114103424Y-150126523D01*
X114322350Y-149599291D01*
X114322848Y-149028413D01*
X114104843Y-148500800D01*
X113701523Y-148096776D01*
X113647600Y-148074385D01*
X113647600Y-146200400D01*
X113810153Y-146200400D01*
X113878306Y-146365343D01*
X114337837Y-146825678D01*
X114938552Y-147075116D01*
X115588995Y-147075684D01*
X116190143Y-146827294D01*
X116650478Y-146367763D01*
X116899916Y-145767048D01*
X116900484Y-145116605D01*
X116652094Y-144515457D01*
X116192563Y-144055122D01*
X115605773Y-143811466D01*
X116113943Y-143601494D01*
X116574278Y-143141963D01*
X116823716Y-142541248D01*
X116824284Y-141890805D01*
X116575894Y-141289657D01*
X116116363Y-140829322D01*
X115574687Y-140604399D01*
X115987064Y-140433587D01*
X116085727Y-140166732D01*
X115112800Y-139193805D01*
X115098658Y-139207948D01*
X114919053Y-139028343D01*
X114933195Y-139014200D01*
X115292405Y-139014200D01*
X116265332Y-139987127D01*
X116532187Y-139888464D01*
X116758708Y-139278739D01*
X116734656Y-138628740D01*
X116532187Y-138139936D01*
X116265332Y-138041273D01*
X115292405Y-139014200D01*
X114933195Y-139014200D01*
X113960268Y-138041273D01*
X113874319Y-138073051D01*
X113733078Y-137861668D01*
X114139873Y-137861668D01*
X115112800Y-138834595D01*
X116085727Y-137861668D01*
X115987064Y-137594813D01*
X115377339Y-137368292D01*
X114727340Y-137392344D01*
X114238536Y-137594813D01*
X114139873Y-137861668D01*
X113733078Y-137861668D01*
X113719801Y-137841799D01*
X113313401Y-137435399D01*
X113066839Y-137270652D01*
X112776000Y-137212800D01*
X111871602Y-137212800D01*
X111849442Y-137190640D01*
X112418600Y-137190640D01*
X112653917Y-137146362D01*
X112870041Y-137007290D01*
X113015031Y-136795090D01*
X113066040Y-136543200D01*
X113066040Y-135824962D01*
X113679052Y-135211950D01*
X115805000Y-135211950D01*
X115805000Y-136002509D01*
X115901673Y-136235898D01*
X116080301Y-136414527D01*
X116313690Y-136511200D01*
X116554250Y-136511200D01*
X116713000Y-136352450D01*
X116713000Y-135053200D01*
X116967000Y-135053200D01*
X116967000Y-136352450D01*
X117125750Y-136511200D01*
X117366310Y-136511200D01*
X117599699Y-136414527D01*
X117778327Y-136235898D01*
X117875000Y-136002509D01*
X117875000Y-135211950D01*
X117716250Y-135053200D01*
X116967000Y-135053200D01*
X116713000Y-135053200D01*
X115963750Y-135053200D01*
X115805000Y-135211950D01*
X113679052Y-135211950D01*
X115388015Y-133502987D01*
X115490000Y-133523640D01*
X115994534Y-133523640D01*
X115901673Y-133616502D01*
X115805000Y-133849891D01*
X115805000Y-134640450D01*
X115963750Y-134799200D01*
X116713000Y-134799200D01*
X116713000Y-133499950D01*
X116626988Y-133413938D01*
X116741441Y-133340290D01*
X116840633Y-133195117D01*
X116925910Y-133327641D01*
X117052686Y-133414264D01*
X116967000Y-133499950D01*
X116967000Y-134799200D01*
X117716250Y-134799200D01*
X117875000Y-134640450D01*
X117875000Y-133849891D01*
X117778327Y-133616502D01*
X117685466Y-133523640D01*
X118190000Y-133523640D01*
X118425317Y-133479362D01*
X118641441Y-133340290D01*
X118786431Y-133128090D01*
X118837440Y-132876200D01*
X118837440Y-130976200D01*
X118793162Y-130740883D01*
X118654090Y-130524759D01*
X118550000Y-130453637D01*
X118550000Y-128678800D01*
X118505093Y-128453040D01*
X118492148Y-128387960D01*
X118327401Y-128141399D01*
X117714240Y-127528238D01*
X117714240Y-126905600D01*
X117669962Y-126670283D01*
X117530890Y-126454159D01*
X117318690Y-126309169D01*
X117226800Y-126290561D01*
X117226800Y-113012400D01*
X117168948Y-112721561D01*
X117168948Y-112721560D01*
X117004201Y-112474999D01*
X116463001Y-111933799D01*
X116216439Y-111769052D01*
X115925600Y-111711200D01*
X108356400Y-111711200D01*
X108065561Y-111769052D01*
X107818999Y-111933799D01*
X106879199Y-112873599D01*
X106824307Y-112955751D01*
X106720089Y-112886115D01*
X106146600Y-112772041D01*
X105573111Y-112886115D01*
X105086930Y-113210971D01*
X104867080Y-113540000D01*
X104851200Y-113540000D01*
X104560361Y-113597852D01*
X104313799Y-113762599D01*
X103348599Y-114727799D01*
X103183852Y-114974361D01*
X103126000Y-115265200D01*
X103126000Y-121267400D01*
X103183852Y-121558239D01*
X103348599Y-121804801D01*
X104668160Y-123124362D01*
X104668160Y-123747000D01*
X104712438Y-123982317D01*
X104851510Y-124198441D01*
X105005600Y-124303726D01*
X105005600Y-125450798D01*
X103640638Y-126815760D01*
X103093000Y-126815760D01*
X102857683Y-126860038D01*
X102754354Y-126926529D01*
X102752698Y-126924873D01*
X102519309Y-126828200D01*
X102078750Y-126828200D01*
X101920000Y-126986950D01*
X101920000Y-127711200D01*
X101940000Y-127711200D01*
X101940000Y-127965200D01*
X101920000Y-127965200D01*
X101920000Y-128689450D01*
X102078750Y-128848200D01*
X102519309Y-128848200D01*
X102752698Y-128751527D01*
X102754068Y-128750157D01*
X102841110Y-128809631D01*
X102933000Y-128828239D01*
X102933000Y-132611666D01*
X102857683Y-132625838D01*
X102754354Y-132692329D01*
X102752698Y-132690673D01*
X102519309Y-132594000D01*
X102078750Y-132594000D01*
X101920000Y-132752750D01*
X101920000Y-133477000D01*
X101940000Y-133477000D01*
X101940000Y-133731000D01*
X101920000Y-133731000D01*
X101920000Y-134455250D01*
X102078750Y-134614000D01*
X102519309Y-134614000D01*
X102752698Y-134517327D01*
X102754068Y-134515957D01*
X102841110Y-134575431D01*
X103093000Y-134626440D01*
X104293000Y-134626440D01*
X104528317Y-134582162D01*
X104744441Y-134443090D01*
X104798481Y-134364000D01*
X106568398Y-134364000D01*
X107215400Y-135011002D01*
X107215400Y-141188598D01*
X107129537Y-141274461D01*
X107104890Y-141236159D01*
X106892690Y-141091169D01*
X106640800Y-141040160D01*
X104740800Y-141040160D01*
X104505483Y-141084438D01*
X104289359Y-141223510D01*
X104202736Y-141350286D01*
X104117050Y-141264600D01*
X102817800Y-141264600D01*
X102817800Y-141284600D01*
X102563800Y-141284600D01*
X102563800Y-141264600D01*
X101264550Y-141264600D01*
X101105800Y-141423350D01*
X101105800Y-141663910D01*
X101202473Y-141897299D01*
X101381102Y-142075927D01*
X101417547Y-142091023D01*
X101289359Y-142173510D01*
X101144369Y-142385710D01*
X101093360Y-142637600D01*
X100354200Y-142637600D01*
X100354200Y-140611290D01*
X101105800Y-140611290D01*
X101105800Y-140851850D01*
X101264550Y-141010600D01*
X102563800Y-141010600D01*
X102563800Y-140261350D01*
X102817800Y-140261350D01*
X102817800Y-141010600D01*
X104117050Y-141010600D01*
X104275800Y-140851850D01*
X104275800Y-140611290D01*
X104179127Y-140377901D01*
X104000498Y-140199273D01*
X103767109Y-140102600D01*
X102976550Y-140102600D01*
X102817800Y-140261350D01*
X102563800Y-140261350D01*
X102405050Y-140102600D01*
X101614491Y-140102600D01*
X101381102Y-140199273D01*
X101202473Y-140377901D01*
X101105800Y-140611290D01*
X100354200Y-140611290D01*
X100354200Y-133889750D01*
X100558000Y-133889750D01*
X100558000Y-134105310D01*
X100654673Y-134338699D01*
X100833302Y-134517327D01*
X101066691Y-134614000D01*
X101507250Y-134614000D01*
X101666000Y-134455250D01*
X101666000Y-133731000D01*
X100716750Y-133731000D01*
X100558000Y-133889750D01*
X100354200Y-133889750D01*
X100354200Y-133102690D01*
X100558000Y-133102690D01*
X100558000Y-133318250D01*
X100716750Y-133477000D01*
X101666000Y-133477000D01*
X101666000Y-132752750D01*
X101507250Y-132594000D01*
X101066691Y-132594000D01*
X100833302Y-132690673D01*
X100654673Y-132869301D01*
X100558000Y-133102690D01*
X100354200Y-133102690D01*
X100354200Y-128123950D01*
X100558000Y-128123950D01*
X100558000Y-128339510D01*
X100654673Y-128572899D01*
X100833302Y-128751527D01*
X101066691Y-128848200D01*
X101507250Y-128848200D01*
X101666000Y-128689450D01*
X101666000Y-127965200D01*
X100716750Y-127965200D01*
X100558000Y-128123950D01*
X100354200Y-128123950D01*
X100354200Y-127336890D01*
X100558000Y-127336890D01*
X100558000Y-127552450D01*
X100716750Y-127711200D01*
X101666000Y-127711200D01*
X101666000Y-126986950D01*
X101507250Y-126828200D01*
X101066691Y-126828200D01*
X100833302Y-126924873D01*
X100654673Y-127103501D01*
X100558000Y-127336890D01*
X100354200Y-127336890D01*
X100354200Y-110895000D01*
X118884200Y-110895000D01*
X118884200Y-159425000D01*
G36*
X110729110Y-140449041D02*
X110941310Y-140594031D01*
X111193200Y-140645040D01*
X111815838Y-140645040D01*
X112127600Y-140956802D01*
X112127600Y-148073954D01*
X112075800Y-148095357D01*
X111671776Y-148498677D01*
X111551520Y-148788286D01*
X111027205Y-149312600D01*
X111041348Y-149326742D01*
X110861743Y-149506348D01*
X110847600Y-149492205D01*
X110833458Y-149506348D01*
X110653852Y-149326742D01*
X110667995Y-149312600D01*
X110143594Y-148788200D01*
X110024843Y-148500800D01*
X109829240Y-148304855D01*
X110019461Y-148304855D01*
X110847600Y-149132995D01*
X111675739Y-148304855D01*
X111601605Y-148058736D01*
X111064377Y-147865635D01*
X110494146Y-147892822D01*
X110093595Y-148058736D01*
X110019461Y-148304855D01*
X109829240Y-148304855D01*
X109621523Y-148096776D01*
X109567600Y-148074385D01*
X109567600Y-140648002D01*
X109570562Y-140645040D01*
X110193200Y-140645040D01*
X110428517Y-140600762D01*
X110644641Y-140461690D01*
X110692334Y-140391889D01*
X110729110Y-140449041D01*
X110729110Y-140449041D01*
G37*
X110729110Y-140449041D02*
X110941310Y-140594031D01*
X111193200Y-140645040D01*
X111815838Y-140645040D01*
X112127600Y-140956802D01*
X112127600Y-148073954D01*
X112075800Y-148095357D01*
X111671776Y-148498677D01*
X111551520Y-148788286D01*
X111027205Y-149312600D01*
X111041348Y-149326742D01*
X110861743Y-149506348D01*
X110847600Y-149492205D01*
X110833458Y-149506348D01*
X110653852Y-149326742D01*
X110667995Y-149312600D01*
X110143594Y-148788200D01*
X110024843Y-148500800D01*
X109829240Y-148304855D01*
X110019461Y-148304855D01*
X110847600Y-149132995D01*
X111675739Y-148304855D01*
X111601605Y-148058736D01*
X111064377Y-147865635D01*
X110494146Y-147892822D01*
X110093595Y-148058736D01*
X110019461Y-148304855D01*
X109829240Y-148304855D01*
X109621523Y-148096776D01*
X109567600Y-148074385D01*
X109567600Y-140648002D01*
X109570562Y-140645040D01*
X110193200Y-140645040D01*
X110428517Y-140600762D01*
X110644641Y-140461690D01*
X110692334Y-140391889D01*
X110729110Y-140449041D01*
G36*
X115706800Y-113327202D02*
X115706800Y-126288266D01*
X115631483Y-126302438D01*
X115415359Y-126441510D01*
X115367666Y-126511311D01*
X115330890Y-126454159D01*
X115118690Y-126309169D01*
X115009200Y-126286997D01*
X115009200Y-124175105D01*
X115150641Y-124084090D01*
X115295631Y-123871890D01*
X115346640Y-123620000D01*
X115346640Y-122420000D01*
X115302362Y-122184683D01*
X115163290Y-121968559D01*
X115093489Y-121920866D01*
X115150641Y-121884090D01*
X115295631Y-121671890D01*
X115346640Y-121420000D01*
X115346640Y-120220000D01*
X115302362Y-119984683D01*
X115163290Y-119768559D01*
X115009200Y-119663274D01*
X115009200Y-119659400D01*
X114951348Y-119368561D01*
X114786601Y-119121999D01*
X113893602Y-118229000D01*
X113893602Y-118173818D01*
X114125626Y-118294958D01*
X114541547Y-118122688D01*
X114973421Y-117728490D01*
X115221568Y-117199027D01*
X115101069Y-116967000D01*
X113893600Y-116967000D01*
X113893600Y-116987000D01*
X113639600Y-116987000D01*
X113639600Y-116967000D01*
X113619600Y-116967000D01*
X113619600Y-116713000D01*
X113639600Y-116713000D01*
X113639600Y-116693000D01*
X113893600Y-116693000D01*
X113893600Y-116713000D01*
X115101069Y-116713000D01*
X115221568Y-116480973D01*
X114973421Y-115951510D01*
X114787167Y-115781505D01*
X114865517Y-115766762D01*
X115081641Y-115627690D01*
X115226631Y-115415490D01*
X115277640Y-115163600D01*
X115277640Y-113436400D01*
X115239029Y-113231200D01*
X115610798Y-113231200D01*
X115706800Y-113327202D01*
X115706800Y-113327202D01*
G37*
X115706800Y-113327202D02*
X115706800Y-126288266D01*
X115631483Y-126302438D01*
X115415359Y-126441510D01*
X115367666Y-126511311D01*
X115330890Y-126454159D01*
X115118690Y-126309169D01*
X115009200Y-126286997D01*
X115009200Y-124175105D01*
X115150641Y-124084090D01*
X115295631Y-123871890D01*
X115346640Y-123620000D01*
X115346640Y-122420000D01*
X115302362Y-122184683D01*
X115163290Y-121968559D01*
X115093489Y-121920866D01*
X115150641Y-121884090D01*
X115295631Y-121671890D01*
X115346640Y-121420000D01*
X115346640Y-120220000D01*
X115302362Y-119984683D01*
X115163290Y-119768559D01*
X115009200Y-119663274D01*
X115009200Y-119659400D01*
X114951348Y-119368561D01*
X114786601Y-119121999D01*
X113893602Y-118229000D01*
X113893602Y-118173818D01*
X114125626Y-118294958D01*
X114541547Y-118122688D01*
X114973421Y-117728490D01*
X115221568Y-117199027D01*
X115101069Y-116967000D01*
X113893600Y-116967000D01*
X113893600Y-116987000D01*
X113639600Y-116987000D01*
X113639600Y-116967000D01*
X113619600Y-116967000D01*
X113619600Y-116713000D01*
X113639600Y-116713000D01*
X113639600Y-116693000D01*
X113893600Y-116693000D01*
X113893600Y-116713000D01*
X115101069Y-116713000D01*
X115221568Y-116480973D01*
X114973421Y-115951510D01*
X114787167Y-115781505D01*
X114865517Y-115766762D01*
X115081641Y-115627690D01*
X115226631Y-115415490D01*
X115277640Y-115163600D01*
X115277640Y-113436400D01*
X115239029Y-113231200D01*
X115610798Y-113231200D01*
X115706800Y-113327202D01*
M02*
