G04 #@! TF.FileFunction,Legend,Top*
%FSLAX46Y46*%
G04 Gerber Fmt 4.6, Leading zero omitted, Abs format (unit mm)*
G04 Created by KiCad (PCBNEW 4.0.7) date 12/21/18 01:01:40*
%MOMM*%
%LPD*%
G01*
G04 APERTURE LIST*
%ADD10C,0.100000*%
%ADD11C,0.075000*%
%ADD12C,0.203200*%
%ADD13C,0.127000*%
%ADD14C,0.254000*%
%ADD15C,0.152400*%
%ADD16C,0.120000*%
%ADD17C,0.010000*%
%ADD18C,0.025400*%
%ADD19C,0.150000*%
G04 APERTURE END LIST*
D10*
D11*
X105408887Y-131792090D02*
X105408887Y-131292090D01*
X105527934Y-131292090D01*
X105599363Y-131315900D01*
X105646982Y-131363519D01*
X105670791Y-131411138D01*
X105694601Y-131506376D01*
X105694601Y-131577805D01*
X105670791Y-131673043D01*
X105646982Y-131720662D01*
X105599363Y-131768281D01*
X105527934Y-131792090D01*
X105408887Y-131792090D01*
X105885077Y-131768281D02*
X105956506Y-131792090D01*
X106075553Y-131792090D01*
X106123172Y-131768281D01*
X106146982Y-131744471D01*
X106170791Y-131696852D01*
X106170791Y-131649233D01*
X106146982Y-131601614D01*
X106123172Y-131577805D01*
X106075553Y-131553995D01*
X105980315Y-131530186D01*
X105932696Y-131506376D01*
X105908887Y-131482567D01*
X105885077Y-131434948D01*
X105885077Y-131387329D01*
X105908887Y-131339710D01*
X105932696Y-131315900D01*
X105980315Y-131292090D01*
X106099363Y-131292090D01*
X106170791Y-131315900D01*
X106385077Y-131792090D02*
X106385077Y-131292090D01*
X106551743Y-131649233D01*
X106718410Y-131292090D01*
X106718410Y-131792090D01*
X107242220Y-131792090D02*
X107075553Y-131553995D01*
X106956506Y-131792090D02*
X106956506Y-131292090D01*
X107146982Y-131292090D01*
X107194601Y-131315900D01*
X107218410Y-131339710D01*
X107242220Y-131387329D01*
X107242220Y-131458757D01*
X107218410Y-131506376D01*
X107194601Y-131530186D01*
X107146982Y-131553995D01*
X106956506Y-131553995D01*
X107527934Y-131792090D02*
X107480315Y-131768281D01*
X107456506Y-131720662D01*
X107456506Y-131292090D01*
X107789839Y-131792090D02*
X107742220Y-131768281D01*
X107718411Y-131744471D01*
X107694601Y-131696852D01*
X107694601Y-131553995D01*
X107718411Y-131506376D01*
X107742220Y-131482567D01*
X107789839Y-131458757D01*
X107861268Y-131458757D01*
X107908887Y-131482567D01*
X107932696Y-131506376D01*
X107956506Y-131553995D01*
X107956506Y-131696852D01*
X107932696Y-131744471D01*
X107908887Y-131768281D01*
X107861268Y-131792090D01*
X107789839Y-131792090D01*
X108385077Y-131458757D02*
X108385077Y-131863519D01*
X108361268Y-131911138D01*
X108337458Y-131934948D01*
X108289839Y-131958757D01*
X108218411Y-131958757D01*
X108170792Y-131934948D01*
X108385077Y-131768281D02*
X108337458Y-131792090D01*
X108242220Y-131792090D01*
X108194601Y-131768281D01*
X108170792Y-131744471D01*
X108146982Y-131696852D01*
X108146982Y-131553995D01*
X108170792Y-131506376D01*
X108194601Y-131482567D01*
X108242220Y-131458757D01*
X108337458Y-131458757D01*
X108385077Y-131482567D01*
X108837458Y-131458757D02*
X108837458Y-131863519D01*
X108813649Y-131911138D01*
X108789839Y-131934948D01*
X108742220Y-131958757D01*
X108670792Y-131958757D01*
X108623173Y-131934948D01*
X108837458Y-131768281D02*
X108789839Y-131792090D01*
X108694601Y-131792090D01*
X108646982Y-131768281D01*
X108623173Y-131744471D01*
X108599363Y-131696852D01*
X108599363Y-131553995D01*
X108623173Y-131506376D01*
X108646982Y-131482567D01*
X108694601Y-131458757D01*
X108789839Y-131458757D01*
X108837458Y-131482567D01*
X109266030Y-131768281D02*
X109218411Y-131792090D01*
X109123173Y-131792090D01*
X109075554Y-131768281D01*
X109051744Y-131720662D01*
X109051744Y-131530186D01*
X109075554Y-131482567D01*
X109123173Y-131458757D01*
X109218411Y-131458757D01*
X109266030Y-131482567D01*
X109289839Y-131530186D01*
X109289839Y-131577805D01*
X109051744Y-131625424D01*
X109504125Y-131792090D02*
X109504125Y-131458757D01*
X109504125Y-131553995D02*
X109527934Y-131506376D01*
X109551744Y-131482567D01*
X109599363Y-131458757D01*
X109646982Y-131458757D01*
X110146982Y-131458757D02*
X110266029Y-131792090D01*
X110385077Y-131458757D01*
X110527934Y-131292090D02*
X110837457Y-131292090D01*
X110670791Y-131482567D01*
X110742219Y-131482567D01*
X110789838Y-131506376D01*
X110813648Y-131530186D01*
X110837457Y-131577805D01*
X110837457Y-131696852D01*
X110813648Y-131744471D01*
X110789838Y-131768281D01*
X110742219Y-131792090D01*
X110599362Y-131792090D01*
X110551743Y-131768281D01*
X110527934Y-131744471D01*
X111051743Y-131601614D02*
X111432695Y-131601614D01*
X111646981Y-131768281D02*
X111718410Y-131792090D01*
X111837457Y-131792090D01*
X111885076Y-131768281D01*
X111908886Y-131744471D01*
X111932695Y-131696852D01*
X111932695Y-131649233D01*
X111908886Y-131601614D01*
X111885076Y-131577805D01*
X111837457Y-131553995D01*
X111742219Y-131530186D01*
X111694600Y-131506376D01*
X111670791Y-131482567D01*
X111646981Y-131434948D01*
X111646981Y-131387329D01*
X111670791Y-131339710D01*
X111694600Y-131315900D01*
X111742219Y-131292090D01*
X111861267Y-131292090D01*
X111932695Y-131315900D01*
X112146981Y-131792090D02*
X112146981Y-131292090D01*
X112313647Y-131649233D01*
X112480314Y-131292090D01*
X112480314Y-131792090D01*
X112718410Y-131792090D02*
X112718410Y-131292090D01*
X112837457Y-131292090D01*
X112908886Y-131315900D01*
X112956505Y-131363519D01*
X112980314Y-131411138D01*
X113004124Y-131506376D01*
X113004124Y-131577805D01*
X112980314Y-131673043D01*
X112956505Y-131720662D01*
X112908886Y-131768281D01*
X112837457Y-131792090D01*
X112718410Y-131792090D01*
X105230317Y-132617090D02*
X105063650Y-132378995D01*
X104944603Y-132617090D02*
X104944603Y-132117090D01*
X105135079Y-132117090D01*
X105182698Y-132140900D01*
X105206507Y-132164710D01*
X105230317Y-132212329D01*
X105230317Y-132283757D01*
X105206507Y-132331376D01*
X105182698Y-132355186D01*
X105135079Y-132378995D01*
X104944603Y-132378995D01*
X105516031Y-132617090D02*
X105468412Y-132593281D01*
X105444603Y-132569471D01*
X105420793Y-132521852D01*
X105420793Y-132378995D01*
X105444603Y-132331376D01*
X105468412Y-132307567D01*
X105516031Y-132283757D01*
X105587460Y-132283757D01*
X105635079Y-132307567D01*
X105658888Y-132331376D01*
X105682698Y-132378995D01*
X105682698Y-132521852D01*
X105658888Y-132569471D01*
X105635079Y-132593281D01*
X105587460Y-132617090D01*
X105516031Y-132617090D01*
X106111269Y-132283757D02*
X106111269Y-132688519D01*
X106087460Y-132736138D01*
X106063650Y-132759948D01*
X106016031Y-132783757D01*
X105944603Y-132783757D01*
X105896984Y-132759948D01*
X106111269Y-132593281D02*
X106063650Y-132617090D01*
X105968412Y-132617090D01*
X105920793Y-132593281D01*
X105896984Y-132569471D01*
X105873174Y-132521852D01*
X105873174Y-132378995D01*
X105896984Y-132331376D01*
X105920793Y-132307567D01*
X105968412Y-132283757D01*
X106063650Y-132283757D01*
X106111269Y-132307567D01*
X106349365Y-132617090D02*
X106349365Y-132283757D01*
X106349365Y-132117090D02*
X106325555Y-132140900D01*
X106349365Y-132164710D01*
X106373174Y-132140900D01*
X106349365Y-132117090D01*
X106349365Y-132164710D01*
X106777936Y-132593281D02*
X106730317Y-132617090D01*
X106635079Y-132617090D01*
X106587460Y-132593281D01*
X106563650Y-132545662D01*
X106563650Y-132355186D01*
X106587460Y-132307567D01*
X106635079Y-132283757D01*
X106730317Y-132283757D01*
X106777936Y-132307567D01*
X106801745Y-132355186D01*
X106801745Y-132402805D01*
X106563650Y-132450424D01*
X107016031Y-132617090D02*
X107016031Y-132283757D01*
X107016031Y-132378995D02*
X107039840Y-132331376D01*
X107063650Y-132307567D01*
X107111269Y-132283757D01*
X107158888Y-132283757D01*
X107992221Y-132617090D02*
X107825554Y-132378995D01*
X107706507Y-132617090D02*
X107706507Y-132117090D01*
X107896983Y-132117090D01*
X107944602Y-132140900D01*
X107968411Y-132164710D01*
X107992221Y-132212329D01*
X107992221Y-132283757D01*
X107968411Y-132331376D01*
X107944602Y-132355186D01*
X107896983Y-132378995D01*
X107706507Y-132378995D01*
X108396983Y-132593281D02*
X108349364Y-132617090D01*
X108254126Y-132617090D01*
X108206507Y-132593281D01*
X108182697Y-132545662D01*
X108182697Y-132355186D01*
X108206507Y-132307567D01*
X108254126Y-132283757D01*
X108349364Y-132283757D01*
X108396983Y-132307567D01*
X108420792Y-132355186D01*
X108420792Y-132402805D01*
X108182697Y-132450424D01*
X108825554Y-132593281D02*
X108777935Y-132617090D01*
X108682697Y-132617090D01*
X108635078Y-132593281D01*
X108611268Y-132545662D01*
X108611268Y-132355186D01*
X108635078Y-132307567D01*
X108682697Y-132283757D01*
X108777935Y-132283757D01*
X108825554Y-132307567D01*
X108849363Y-132355186D01*
X108849363Y-132402805D01*
X108611268Y-132450424D01*
X109277934Y-132617090D02*
X109277934Y-132117090D01*
X109277934Y-132593281D02*
X109230315Y-132617090D01*
X109135077Y-132617090D01*
X109087458Y-132593281D01*
X109063649Y-132569471D01*
X109039839Y-132521852D01*
X109039839Y-132378995D01*
X109063649Y-132331376D01*
X109087458Y-132307567D01*
X109135077Y-132283757D01*
X109230315Y-132283757D01*
X109277934Y-132307567D01*
X109516030Y-132617090D02*
X109516030Y-132283757D01*
X109516030Y-132117090D02*
X109492220Y-132140900D01*
X109516030Y-132164710D01*
X109539839Y-132140900D01*
X109516030Y-132117090D01*
X109516030Y-132164710D01*
X109754125Y-132283757D02*
X109754125Y-132712329D01*
X109730315Y-132759948D01*
X109682696Y-132783757D01*
X109658887Y-132783757D01*
X109754125Y-132117090D02*
X109730315Y-132140900D01*
X109754125Y-132164710D01*
X109777934Y-132140900D01*
X109754125Y-132117090D01*
X109754125Y-132164710D01*
X109992220Y-132617090D02*
X109992220Y-132117090D01*
X110039839Y-132426614D02*
X110182696Y-132617090D01*
X110182696Y-132283757D02*
X109992220Y-132474233D01*
X110777934Y-132426614D02*
X111158886Y-132426614D01*
X111754124Y-132164710D02*
X111777934Y-132140900D01*
X111825553Y-132117090D01*
X111944600Y-132117090D01*
X111992219Y-132140900D01*
X112016029Y-132164710D01*
X112039838Y-132212329D01*
X112039838Y-132259948D01*
X112016029Y-132331376D01*
X111730315Y-132617090D01*
X112039838Y-132617090D01*
X112349362Y-132117090D02*
X112396981Y-132117090D01*
X112444600Y-132140900D01*
X112468409Y-132164710D01*
X112492219Y-132212329D01*
X112516028Y-132307567D01*
X112516028Y-132426614D01*
X112492219Y-132521852D01*
X112468409Y-132569471D01*
X112444600Y-132593281D01*
X112396981Y-132617090D01*
X112349362Y-132617090D01*
X112301743Y-132593281D01*
X112277933Y-132569471D01*
X112254124Y-132521852D01*
X112230314Y-132426614D01*
X112230314Y-132307567D01*
X112254124Y-132212329D01*
X112277933Y-132164710D01*
X112301743Y-132140900D01*
X112349362Y-132117090D01*
X112992218Y-132617090D02*
X112706504Y-132617090D01*
X112849361Y-132617090D02*
X112849361Y-132117090D01*
X112801742Y-132188519D01*
X112754123Y-132236138D01*
X112706504Y-132259948D01*
X113277932Y-132331376D02*
X113230313Y-132307567D01*
X113206504Y-132283757D01*
X113182694Y-132236138D01*
X113182694Y-132212329D01*
X113206504Y-132164710D01*
X113230313Y-132140900D01*
X113277932Y-132117090D01*
X113373170Y-132117090D01*
X113420789Y-132140900D01*
X113444599Y-132164710D01*
X113468408Y-132212329D01*
X113468408Y-132236138D01*
X113444599Y-132283757D01*
X113420789Y-132307567D01*
X113373170Y-132331376D01*
X113277932Y-132331376D01*
X113230313Y-132355186D01*
X113206504Y-132378995D01*
X113182694Y-132426614D01*
X113182694Y-132521852D01*
X113206504Y-132569471D01*
X113230313Y-132593281D01*
X113277932Y-132617090D01*
X113373170Y-132617090D01*
X113420789Y-132593281D01*
X113444599Y-132569471D01*
X113468408Y-132521852D01*
X113468408Y-132426614D01*
X113444599Y-132378995D01*
X113420789Y-132355186D01*
X113373170Y-132331376D01*
D12*
X116537600Y-160352600D02*
X116537600Y-162152600D01*
X116537600Y-162152600D02*
X104137600Y-162152600D01*
X104137600Y-162152600D02*
X104137600Y-160352600D01*
D13*
X117442811Y-154152600D02*
G75*
G03X117442811Y-154152600I-1105211J0D01*
G01*
X117932200Y-154152600D02*
X114681000Y-154152600D01*
X116337600Y-152527000D02*
X116337600Y-155778200D01*
X105442811Y-154152600D02*
G75*
G03X105442811Y-154152600I-1105211J0D01*
G01*
X106019600Y-154178000D02*
X102768400Y-154178000D01*
X104337600Y-152527000D02*
X104337600Y-155778200D01*
D14*
X117068600Y-112522000D02*
X117068600Y-137160000D01*
X117068600Y-137160000D02*
X102844600Y-137160000D01*
X102844600Y-137160000D02*
X102844600Y-112522000D01*
X102844600Y-112522000D02*
X117068600Y-112522000D01*
D15*
X115036600Y-115570000D02*
X115036600Y-113030000D01*
X115036600Y-113030000D02*
X112496600Y-113030000D01*
X112496600Y-113030000D02*
X104876600Y-113030000D01*
X104876600Y-113030000D02*
X104876600Y-118110000D01*
X104876600Y-118110000D02*
X115036600Y-118110000D01*
X115036600Y-118110000D02*
X115036600Y-115570000D01*
D16*
X103292200Y-146385800D02*
X103292200Y-147085800D01*
X102092200Y-147085800D02*
X102092200Y-146385800D01*
X103093000Y-134204000D02*
X102393000Y-134204000D01*
X102393000Y-133004000D02*
X103093000Y-133004000D01*
X103093000Y-128438200D02*
X102393000Y-128438200D01*
X102393000Y-127238200D02*
X103093000Y-127238200D01*
X115260000Y-134186200D02*
X116190000Y-134186200D01*
X118420000Y-134186200D02*
X117490000Y-134186200D01*
X118420000Y-134186200D02*
X118420000Y-131026200D01*
X115260000Y-134186200D02*
X115260000Y-132726200D01*
X110218600Y-135413200D02*
X111218600Y-135413200D01*
X111218600Y-136773200D02*
X110218600Y-136773200D01*
X111193200Y-140227600D02*
X110193200Y-140227600D01*
X110193200Y-138867600D02*
X111193200Y-138867600D01*
X115866800Y-128035600D02*
X114866800Y-128035600D01*
X114866800Y-126675600D02*
X115866800Y-126675600D01*
X114929200Y-121420000D02*
X114929200Y-122420000D01*
X113569200Y-122420000D02*
X113569200Y-121420000D01*
X110408000Y-121521600D02*
X110408000Y-122521600D01*
X109048000Y-122521600D02*
X109048000Y-121521600D01*
X106445600Y-121547000D02*
X106445600Y-122547000D01*
X105085600Y-122547000D02*
X105085600Y-121547000D01*
X104950800Y-143667600D02*
X104950800Y-142737600D01*
X104950800Y-140507600D02*
X104950800Y-141437600D01*
X104950800Y-140507600D02*
X101790800Y-140507600D01*
X104950800Y-143667600D02*
X103490800Y-143667600D01*
X116389000Y-142214600D02*
G75*
G03X116389000Y-142214600I-1200000J0D01*
G01*
X116465200Y-145440400D02*
G75*
G03X116465200Y-145440400I-1200000J0D01*
G01*
X116312800Y-139014200D02*
G75*
G03X116312800Y-139014200I-1200000J0D01*
G01*
D17*
G36*
X107378544Y-129250118D02*
X107434001Y-129277768D01*
X107482948Y-129328680D01*
X107496429Y-129347538D01*
X107511114Y-129372215D01*
X107520642Y-129399016D01*
X107526093Y-129434787D01*
X107528547Y-129486369D01*
X107529086Y-129554467D01*
X107526652Y-129647788D01*
X107518194Y-129717857D01*
X107501974Y-129770131D01*
X107476254Y-129810069D01*
X107439297Y-129843129D01*
X107436582Y-129845086D01*
X107400160Y-129865108D01*
X107356302Y-129875015D01*
X107300524Y-129877457D01*
X107209848Y-129877457D01*
X107209810Y-129965483D01*
X107208966Y-130014508D01*
X107203824Y-130043265D01*
X107190387Y-130060511D01*
X107164658Y-130075008D01*
X107158479Y-130077969D01*
X107129564Y-130091848D01*
X107107176Y-130100614D01*
X107090529Y-130101371D01*
X107078836Y-130091223D01*
X107071310Y-130067273D01*
X107067166Y-130026626D01*
X107065615Y-129966386D01*
X107065871Y-129883655D01*
X107067149Y-129775539D01*
X107067548Y-129743200D01*
X107068985Y-129631724D01*
X107070272Y-129558803D01*
X107209771Y-129558803D01*
X107210555Y-129620699D01*
X107214040Y-129661197D01*
X107221924Y-129687908D01*
X107235905Y-129708444D01*
X107245397Y-129718460D01*
X107284204Y-129747767D01*
X107318563Y-129750152D01*
X107354016Y-129725950D01*
X107354914Y-129725057D01*
X107369339Y-129706353D01*
X107378113Y-129680932D01*
X107382539Y-129641784D01*
X107383918Y-129581897D01*
X107383943Y-129568630D01*
X107380612Y-129486101D01*
X107369769Y-129428891D01*
X107350140Y-129393966D01*
X107320450Y-129378294D01*
X107303291Y-129376714D01*
X107262566Y-129384126D01*
X107234632Y-129408530D01*
X107217817Y-129453180D01*
X107210450Y-129521330D01*
X107209771Y-129558803D01*
X107070272Y-129558803D01*
X107070508Y-129545445D01*
X107072477Y-129480533D01*
X107075250Y-129433158D01*
X107079188Y-129399490D01*
X107084649Y-129375698D01*
X107091992Y-129357953D01*
X107101577Y-129342424D01*
X107105687Y-129336581D01*
X107160205Y-129281385D01*
X107229136Y-129250090D01*
X107308872Y-129241365D01*
X107378544Y-129250118D01*
X107378544Y-129250118D01*
G37*
X107378544Y-129250118D02*
X107434001Y-129277768D01*
X107482948Y-129328680D01*
X107496429Y-129347538D01*
X107511114Y-129372215D01*
X107520642Y-129399016D01*
X107526093Y-129434787D01*
X107528547Y-129486369D01*
X107529086Y-129554467D01*
X107526652Y-129647788D01*
X107518194Y-129717857D01*
X107501974Y-129770131D01*
X107476254Y-129810069D01*
X107439297Y-129843129D01*
X107436582Y-129845086D01*
X107400160Y-129865108D01*
X107356302Y-129875015D01*
X107300524Y-129877457D01*
X107209848Y-129877457D01*
X107209810Y-129965483D01*
X107208966Y-130014508D01*
X107203824Y-130043265D01*
X107190387Y-130060511D01*
X107164658Y-130075008D01*
X107158479Y-130077969D01*
X107129564Y-130091848D01*
X107107176Y-130100614D01*
X107090529Y-130101371D01*
X107078836Y-130091223D01*
X107071310Y-130067273D01*
X107067166Y-130026626D01*
X107065615Y-129966386D01*
X107065871Y-129883655D01*
X107067149Y-129775539D01*
X107067548Y-129743200D01*
X107068985Y-129631724D01*
X107070272Y-129558803D01*
X107209771Y-129558803D01*
X107210555Y-129620699D01*
X107214040Y-129661197D01*
X107221924Y-129687908D01*
X107235905Y-129708444D01*
X107245397Y-129718460D01*
X107284204Y-129747767D01*
X107318563Y-129750152D01*
X107354016Y-129725950D01*
X107354914Y-129725057D01*
X107369339Y-129706353D01*
X107378113Y-129680932D01*
X107382539Y-129641784D01*
X107383918Y-129581897D01*
X107383943Y-129568630D01*
X107380612Y-129486101D01*
X107369769Y-129428891D01*
X107350140Y-129393966D01*
X107320450Y-129378294D01*
X107303291Y-129376714D01*
X107262566Y-129384126D01*
X107234632Y-129408530D01*
X107217817Y-129453180D01*
X107210450Y-129521330D01*
X107209771Y-129558803D01*
X107070272Y-129558803D01*
X107070508Y-129545445D01*
X107072477Y-129480533D01*
X107075250Y-129433158D01*
X107079188Y-129399490D01*
X107084649Y-129375698D01*
X107091992Y-129357953D01*
X107101577Y-129342424D01*
X107105687Y-129336581D01*
X107160205Y-129281385D01*
X107229136Y-129250090D01*
X107308872Y-129241365D01*
X107378544Y-129250118D01*
G36*
X108494893Y-129257980D02*
X108541472Y-129284923D01*
X108573857Y-129311666D01*
X108597542Y-129339684D01*
X108613859Y-129373948D01*
X108624139Y-129419427D01*
X108629714Y-129481092D01*
X108631916Y-129563911D01*
X108632171Y-129623446D01*
X108632171Y-129842591D01*
X108570486Y-129870244D01*
X108508800Y-129897897D01*
X108501543Y-129657870D01*
X108498544Y-129568228D01*
X108495398Y-129503162D01*
X108491501Y-129458226D01*
X108486247Y-129428970D01*
X108479031Y-129410948D01*
X108469250Y-129399711D01*
X108466112Y-129397279D01*
X108418561Y-129378283D01*
X108370497Y-129385800D01*
X108341886Y-129405743D01*
X108330247Y-129419875D01*
X108322191Y-129438420D01*
X108317071Y-129466534D01*
X108314241Y-129509373D01*
X108313056Y-129572095D01*
X108312857Y-129637461D01*
X108312818Y-129719468D01*
X108311414Y-129777516D01*
X108306714Y-129816665D01*
X108296787Y-129841980D01*
X108279703Y-129858523D01*
X108253532Y-129871356D01*
X108218575Y-129884691D01*
X108180396Y-129899207D01*
X108184941Y-129641589D01*
X108186771Y-129548719D01*
X108188912Y-129480089D01*
X108191981Y-129430911D01*
X108196594Y-129396398D01*
X108203368Y-129371762D01*
X108212919Y-129352216D01*
X108224434Y-129334970D01*
X108279990Y-129279880D01*
X108347780Y-129248022D01*
X108421513Y-129240391D01*
X108494893Y-129257980D01*
X108494893Y-129257980D01*
G37*
X108494893Y-129257980D02*
X108541472Y-129284923D01*
X108573857Y-129311666D01*
X108597542Y-129339684D01*
X108613859Y-129373948D01*
X108624139Y-129419427D01*
X108629714Y-129481092D01*
X108631916Y-129563911D01*
X108632171Y-129623446D01*
X108632171Y-129842591D01*
X108570486Y-129870244D01*
X108508800Y-129897897D01*
X108501543Y-129657870D01*
X108498544Y-129568228D01*
X108495398Y-129503162D01*
X108491501Y-129458226D01*
X108486247Y-129428970D01*
X108479031Y-129410948D01*
X108469250Y-129399711D01*
X108466112Y-129397279D01*
X108418561Y-129378283D01*
X108370497Y-129385800D01*
X108341886Y-129405743D01*
X108330247Y-129419875D01*
X108322191Y-129438420D01*
X108317071Y-129466534D01*
X108314241Y-129509373D01*
X108313056Y-129572095D01*
X108312857Y-129637461D01*
X108312818Y-129719468D01*
X108311414Y-129777516D01*
X108306714Y-129816665D01*
X108296787Y-129841980D01*
X108279703Y-129858523D01*
X108253532Y-129871356D01*
X108218575Y-129884691D01*
X108180396Y-129899207D01*
X108184941Y-129641589D01*
X108186771Y-129548719D01*
X108188912Y-129480089D01*
X108191981Y-129430911D01*
X108196594Y-129396398D01*
X108203368Y-129371762D01*
X108212919Y-129352216D01*
X108224434Y-129334970D01*
X108279990Y-129279880D01*
X108347780Y-129248022D01*
X108421513Y-129240391D01*
X108494893Y-129257980D01*
G36*
X106819915Y-129252162D02*
X106887945Y-129287933D01*
X106938151Y-129345501D01*
X106955985Y-129382512D01*
X106969863Y-129438082D01*
X106976967Y-129508296D01*
X106977640Y-129584927D01*
X106972227Y-129659752D01*
X106961070Y-129724542D01*
X106944514Y-129771073D01*
X106939426Y-129779087D01*
X106879155Y-129838907D01*
X106807569Y-129874735D01*
X106729892Y-129885220D01*
X106651348Y-129869010D01*
X106629489Y-129859292D01*
X106586922Y-129829343D01*
X106549563Y-129789633D01*
X106546032Y-129784597D01*
X106531681Y-129760324D01*
X106522194Y-129734378D01*
X106516590Y-129700222D01*
X106513886Y-129651319D01*
X106513099Y-129581135D01*
X106513086Y-129565400D01*
X106513122Y-129560392D01*
X106658229Y-129560392D01*
X106659073Y-129626630D01*
X106662396Y-129670586D01*
X106669383Y-129698979D01*
X106681216Y-129718525D01*
X106687257Y-129725057D01*
X106721986Y-129749880D01*
X106755703Y-129748748D01*
X106789795Y-129727216D01*
X106810129Y-129704229D01*
X106822171Y-129670678D01*
X106828934Y-129617769D01*
X106829398Y-129611599D01*
X106830552Y-129515713D01*
X106818488Y-129444499D01*
X106793370Y-129398394D01*
X106755360Y-129377835D01*
X106741792Y-129376714D01*
X106706164Y-129382352D01*
X106681794Y-129401886D01*
X106666893Y-129439242D01*
X106659675Y-129498350D01*
X106658229Y-129560392D01*
X106513122Y-129560392D01*
X106513626Y-129490613D01*
X106515896Y-129438359D01*
X106520868Y-129402149D01*
X106529513Y-129375499D01*
X106542805Y-129351922D01*
X106545743Y-129347538D01*
X106595113Y-129288449D01*
X106648909Y-129254147D01*
X106714402Y-129240531D01*
X106736642Y-129239865D01*
X106819915Y-129252162D01*
X106819915Y-129252162D01*
G37*
X106819915Y-129252162D02*
X106887945Y-129287933D01*
X106938151Y-129345501D01*
X106955985Y-129382512D01*
X106969863Y-129438082D01*
X106976967Y-129508296D01*
X106977640Y-129584927D01*
X106972227Y-129659752D01*
X106961070Y-129724542D01*
X106944514Y-129771073D01*
X106939426Y-129779087D01*
X106879155Y-129838907D01*
X106807569Y-129874735D01*
X106729892Y-129885220D01*
X106651348Y-129869010D01*
X106629489Y-129859292D01*
X106586922Y-129829343D01*
X106549563Y-129789633D01*
X106546032Y-129784597D01*
X106531681Y-129760324D01*
X106522194Y-129734378D01*
X106516590Y-129700222D01*
X106513886Y-129651319D01*
X106513099Y-129581135D01*
X106513086Y-129565400D01*
X106513122Y-129560392D01*
X106658229Y-129560392D01*
X106659073Y-129626630D01*
X106662396Y-129670586D01*
X106669383Y-129698979D01*
X106681216Y-129718525D01*
X106687257Y-129725057D01*
X106721986Y-129749880D01*
X106755703Y-129748748D01*
X106789795Y-129727216D01*
X106810129Y-129704229D01*
X106822171Y-129670678D01*
X106828934Y-129617769D01*
X106829398Y-129611599D01*
X106830552Y-129515713D01*
X106818488Y-129444499D01*
X106793370Y-129398394D01*
X106755360Y-129377835D01*
X106741792Y-129376714D01*
X106706164Y-129382352D01*
X106681794Y-129401886D01*
X106666893Y-129439242D01*
X106659675Y-129498350D01*
X106658229Y-129560392D01*
X106513122Y-129560392D01*
X106513626Y-129490613D01*
X106515896Y-129438359D01*
X106520868Y-129402149D01*
X106529513Y-129375499D01*
X106542805Y-129351922D01*
X106545743Y-129347538D01*
X106595113Y-129288449D01*
X106648909Y-129254147D01*
X106714402Y-129240531D01*
X106736642Y-129239865D01*
X106819915Y-129252162D01*
G36*
X107947103Y-129261439D02*
X108004327Y-129299935D01*
X108048549Y-129355535D01*
X108074967Y-129426286D01*
X108080310Y-129478362D01*
X108079703Y-129500093D01*
X108074622Y-129516731D01*
X108060655Y-129531637D01*
X108033389Y-129548173D01*
X107988412Y-129569698D01*
X107921311Y-129599574D01*
X107920971Y-129599724D01*
X107859207Y-129628013D01*
X107808559Y-129653133D01*
X107774204Y-129672379D01*
X107761318Y-129683048D01*
X107761314Y-129683134D01*
X107772672Y-129706366D01*
X107799231Y-129731974D01*
X107829723Y-129750421D01*
X107845170Y-129754086D01*
X107887315Y-129741412D01*
X107923608Y-129709671D01*
X107941317Y-129674772D01*
X107958352Y-129649045D01*
X107991722Y-129619746D01*
X108030949Y-129594435D01*
X108065556Y-129580671D01*
X108072793Y-129579914D01*
X108080939Y-129592360D01*
X108081430Y-129624172D01*
X108075443Y-129667066D01*
X108064157Y-129712758D01*
X108048750Y-129752961D01*
X108047971Y-129754522D01*
X108001604Y-129819262D01*
X107941511Y-129863297D01*
X107873265Y-129884911D01*
X107802438Y-129882385D01*
X107734604Y-129854004D01*
X107731588Y-129852008D01*
X107678227Y-129803648D01*
X107643140Y-129740552D01*
X107623722Y-129657587D01*
X107621116Y-129634278D01*
X107616501Y-129524255D01*
X107622033Y-129472948D01*
X107761314Y-129472948D01*
X107763124Y-129504953D01*
X107773022Y-129514293D01*
X107797698Y-129507305D01*
X107836595Y-129490787D01*
X107880075Y-129470081D01*
X107881156Y-129469533D01*
X107918009Y-129450149D01*
X107932800Y-129437213D01*
X107929153Y-129423651D01*
X107913795Y-129405832D01*
X107874723Y-129380045D01*
X107832646Y-129378150D01*
X107794903Y-129396917D01*
X107768834Y-129433115D01*
X107761314Y-129472948D01*
X107622033Y-129472948D01*
X107625994Y-129436227D01*
X107650350Y-129366412D01*
X107684256Y-129317502D01*
X107745453Y-129268078D01*
X107812863Y-129243559D01*
X107881680Y-129241997D01*
X107947103Y-129261439D01*
X107947103Y-129261439D01*
G37*
X107947103Y-129261439D02*
X108004327Y-129299935D01*
X108048549Y-129355535D01*
X108074967Y-129426286D01*
X108080310Y-129478362D01*
X108079703Y-129500093D01*
X108074622Y-129516731D01*
X108060655Y-129531637D01*
X108033389Y-129548173D01*
X107988412Y-129569698D01*
X107921311Y-129599574D01*
X107920971Y-129599724D01*
X107859207Y-129628013D01*
X107808559Y-129653133D01*
X107774204Y-129672379D01*
X107761318Y-129683048D01*
X107761314Y-129683134D01*
X107772672Y-129706366D01*
X107799231Y-129731974D01*
X107829723Y-129750421D01*
X107845170Y-129754086D01*
X107887315Y-129741412D01*
X107923608Y-129709671D01*
X107941317Y-129674772D01*
X107958352Y-129649045D01*
X107991722Y-129619746D01*
X108030949Y-129594435D01*
X108065556Y-129580671D01*
X108072793Y-129579914D01*
X108080939Y-129592360D01*
X108081430Y-129624172D01*
X108075443Y-129667066D01*
X108064157Y-129712758D01*
X108048750Y-129752961D01*
X108047971Y-129754522D01*
X108001604Y-129819262D01*
X107941511Y-129863297D01*
X107873265Y-129884911D01*
X107802438Y-129882385D01*
X107734604Y-129854004D01*
X107731588Y-129852008D01*
X107678227Y-129803648D01*
X107643140Y-129740552D01*
X107623722Y-129657587D01*
X107621116Y-129634278D01*
X107616501Y-129524255D01*
X107622033Y-129472948D01*
X107761314Y-129472948D01*
X107763124Y-129504953D01*
X107773022Y-129514293D01*
X107797698Y-129507305D01*
X107836595Y-129490787D01*
X107880075Y-129470081D01*
X107881156Y-129469533D01*
X107918009Y-129450149D01*
X107932800Y-129437213D01*
X107929153Y-129423651D01*
X107913795Y-129405832D01*
X107874723Y-129380045D01*
X107832646Y-129378150D01*
X107794903Y-129396917D01*
X107768834Y-129433115D01*
X107761314Y-129472948D01*
X107622033Y-129472948D01*
X107625994Y-129436227D01*
X107650350Y-129366412D01*
X107684256Y-129317502D01*
X107745453Y-129268078D01*
X107812863Y-129243559D01*
X107881680Y-129241997D01*
X107947103Y-129261439D01*
G36*
X109154686Y-129181489D02*
X109158939Y-129240813D01*
X109163825Y-129275772D01*
X109170595Y-129291020D01*
X109180502Y-129291215D01*
X109183714Y-129289395D01*
X109226444Y-129276215D01*
X109282027Y-129276985D01*
X109338537Y-129290533D01*
X109373882Y-129308061D01*
X109410121Y-129336061D01*
X109436613Y-129367749D01*
X109454799Y-129408013D01*
X109466122Y-129461743D01*
X109472022Y-129533826D01*
X109473943Y-129629151D01*
X109473977Y-129647437D01*
X109474000Y-129852846D01*
X109428291Y-129868780D01*
X109395827Y-129879620D01*
X109378015Y-129884668D01*
X109377491Y-129884714D01*
X109375737Y-129871028D01*
X109374244Y-129833276D01*
X109373126Y-129776424D01*
X109372497Y-129705434D01*
X109372400Y-129662273D01*
X109372198Y-129577173D01*
X109371158Y-129516181D01*
X109368631Y-129474377D01*
X109363964Y-129446842D01*
X109356507Y-129428656D01*
X109345611Y-129414898D01*
X109338807Y-129408273D01*
X109292072Y-129381575D01*
X109241072Y-129379575D01*
X109194801Y-129402155D01*
X109186244Y-129410307D01*
X109173693Y-129425636D01*
X109164988Y-129443818D01*
X109159431Y-129470109D01*
X109156326Y-129509762D01*
X109154976Y-129568032D01*
X109154686Y-129648373D01*
X109154686Y-129852846D01*
X109108977Y-129868780D01*
X109076513Y-129879620D01*
X109058701Y-129884668D01*
X109058177Y-129884714D01*
X109056837Y-129870823D01*
X109055628Y-129831639D01*
X109054601Y-129770900D01*
X109053802Y-129692341D01*
X109053281Y-129599698D01*
X109053086Y-129496709D01*
X109053086Y-129099542D01*
X109100257Y-129079644D01*
X109147429Y-129059747D01*
X109154686Y-129181489D01*
X109154686Y-129181489D01*
G37*
X109154686Y-129181489D02*
X109158939Y-129240813D01*
X109163825Y-129275772D01*
X109170595Y-129291020D01*
X109180502Y-129291215D01*
X109183714Y-129289395D01*
X109226444Y-129276215D01*
X109282027Y-129276985D01*
X109338537Y-129290533D01*
X109373882Y-129308061D01*
X109410121Y-129336061D01*
X109436613Y-129367749D01*
X109454799Y-129408013D01*
X109466122Y-129461743D01*
X109472022Y-129533826D01*
X109473943Y-129629151D01*
X109473977Y-129647437D01*
X109474000Y-129852846D01*
X109428291Y-129868780D01*
X109395827Y-129879620D01*
X109378015Y-129884668D01*
X109377491Y-129884714D01*
X109375737Y-129871028D01*
X109374244Y-129833276D01*
X109373126Y-129776424D01*
X109372497Y-129705434D01*
X109372400Y-129662273D01*
X109372198Y-129577173D01*
X109371158Y-129516181D01*
X109368631Y-129474377D01*
X109363964Y-129446842D01*
X109356507Y-129428656D01*
X109345611Y-129414898D01*
X109338807Y-129408273D01*
X109292072Y-129381575D01*
X109241072Y-129379575D01*
X109194801Y-129402155D01*
X109186244Y-129410307D01*
X109173693Y-129425636D01*
X109164988Y-129443818D01*
X109159431Y-129470109D01*
X109156326Y-129509762D01*
X109154976Y-129568032D01*
X109154686Y-129648373D01*
X109154686Y-129852846D01*
X109108977Y-129868780D01*
X109076513Y-129879620D01*
X109058701Y-129884668D01*
X109058177Y-129884714D01*
X109056837Y-129870823D01*
X109055628Y-129831639D01*
X109054601Y-129770900D01*
X109053802Y-129692341D01*
X109053281Y-129599698D01*
X109053086Y-129496709D01*
X109053086Y-129099542D01*
X109100257Y-129079644D01*
X109147429Y-129059747D01*
X109154686Y-129181489D01*
G36*
X109818544Y-129281168D02*
X109875416Y-129302287D01*
X109876067Y-129302693D01*
X109911240Y-129328580D01*
X109937207Y-129358833D01*
X109955470Y-129398258D01*
X109967532Y-129451662D01*
X109974896Y-129523851D01*
X109979064Y-129619632D01*
X109979429Y-129633278D01*
X109984676Y-129839042D01*
X109940516Y-129861878D01*
X109908563Y-129877310D01*
X109889270Y-129884623D01*
X109888378Y-129884714D01*
X109885039Y-129871222D01*
X109882387Y-129834826D01*
X109880756Y-129781652D01*
X109880400Y-129738593D01*
X109880392Y-129668841D01*
X109877203Y-129625037D01*
X109866088Y-129604144D01*
X109842301Y-129603125D01*
X109801096Y-129618941D01*
X109738886Y-129648015D01*
X109693141Y-129672163D01*
X109669613Y-129693113D01*
X109662696Y-129715947D01*
X109662686Y-129717077D01*
X109674099Y-129756412D01*
X109707892Y-129777662D01*
X109759609Y-129780739D01*
X109796861Y-129780206D01*
X109816503Y-129790935D01*
X109828752Y-129816705D01*
X109835802Y-129849537D01*
X109825642Y-129868166D01*
X109821817Y-129870832D01*
X109785801Y-129881540D01*
X109735366Y-129883056D01*
X109683426Y-129875959D01*
X109646622Y-129862988D01*
X109595738Y-129819785D01*
X109566814Y-129759646D01*
X109561086Y-129712662D01*
X109565457Y-129670282D01*
X109581275Y-129635688D01*
X109612597Y-129604963D01*
X109663478Y-129574190D01*
X109737976Y-129539452D01*
X109742514Y-129537488D01*
X109809621Y-129506487D01*
X109851032Y-129481062D01*
X109868781Y-129458214D01*
X109864907Y-129434945D01*
X109841443Y-129408256D01*
X109834427Y-129402114D01*
X109787430Y-129378300D01*
X109738733Y-129379303D01*
X109696322Y-129402651D01*
X109668184Y-129445875D01*
X109665569Y-129454360D01*
X109640108Y-129495508D01*
X109607801Y-129515328D01*
X109561086Y-129534970D01*
X109561086Y-129484150D01*
X109575296Y-129410282D01*
X109617475Y-129342527D01*
X109639424Y-129319861D01*
X109689317Y-129290769D01*
X109752767Y-129277600D01*
X109818544Y-129281168D01*
X109818544Y-129281168D01*
G37*
X109818544Y-129281168D02*
X109875416Y-129302287D01*
X109876067Y-129302693D01*
X109911240Y-129328580D01*
X109937207Y-129358833D01*
X109955470Y-129398258D01*
X109967532Y-129451662D01*
X109974896Y-129523851D01*
X109979064Y-129619632D01*
X109979429Y-129633278D01*
X109984676Y-129839042D01*
X109940516Y-129861878D01*
X109908563Y-129877310D01*
X109889270Y-129884623D01*
X109888378Y-129884714D01*
X109885039Y-129871222D01*
X109882387Y-129834826D01*
X109880756Y-129781652D01*
X109880400Y-129738593D01*
X109880392Y-129668841D01*
X109877203Y-129625037D01*
X109866088Y-129604144D01*
X109842301Y-129603125D01*
X109801096Y-129618941D01*
X109738886Y-129648015D01*
X109693141Y-129672163D01*
X109669613Y-129693113D01*
X109662696Y-129715947D01*
X109662686Y-129717077D01*
X109674099Y-129756412D01*
X109707892Y-129777662D01*
X109759609Y-129780739D01*
X109796861Y-129780206D01*
X109816503Y-129790935D01*
X109828752Y-129816705D01*
X109835802Y-129849537D01*
X109825642Y-129868166D01*
X109821817Y-129870832D01*
X109785801Y-129881540D01*
X109735366Y-129883056D01*
X109683426Y-129875959D01*
X109646622Y-129862988D01*
X109595738Y-129819785D01*
X109566814Y-129759646D01*
X109561086Y-129712662D01*
X109565457Y-129670282D01*
X109581275Y-129635688D01*
X109612597Y-129604963D01*
X109663478Y-129574190D01*
X109737976Y-129539452D01*
X109742514Y-129537488D01*
X109809621Y-129506487D01*
X109851032Y-129481062D01*
X109868781Y-129458214D01*
X109864907Y-129434945D01*
X109841443Y-129408256D01*
X109834427Y-129402114D01*
X109787430Y-129378300D01*
X109738733Y-129379303D01*
X109696322Y-129402651D01*
X109668184Y-129445875D01*
X109665569Y-129454360D01*
X109640108Y-129495508D01*
X109607801Y-129515328D01*
X109561086Y-129534970D01*
X109561086Y-129484150D01*
X109575296Y-129410282D01*
X109617475Y-129342527D01*
X109639424Y-129319861D01*
X109689317Y-129290769D01*
X109752767Y-129277600D01*
X109818544Y-129281168D01*
G36*
X110308726Y-129279955D02*
X110374658Y-129304284D01*
X110428073Y-129347317D01*
X110448964Y-129377609D01*
X110471739Y-129433194D01*
X110471266Y-129473386D01*
X110447362Y-129500417D01*
X110438517Y-129505013D01*
X110400330Y-129519344D01*
X110380828Y-129515672D01*
X110374222Y-129491607D01*
X110373886Y-129478314D01*
X110361792Y-129429410D01*
X110330271Y-129395199D01*
X110286459Y-129378676D01*
X110237495Y-129382834D01*
X110197694Y-129404427D01*
X110184250Y-129416744D01*
X110174721Y-129431687D01*
X110168285Y-129454275D01*
X110164117Y-129489528D01*
X110161397Y-129542466D01*
X110159302Y-129618107D01*
X110158760Y-129642057D01*
X110156781Y-129723990D01*
X110154531Y-129781655D01*
X110151157Y-129819808D01*
X110145806Y-129843204D01*
X110137624Y-129856598D01*
X110125759Y-129864745D01*
X110118162Y-129868344D01*
X110085902Y-129880652D01*
X110066911Y-129884714D01*
X110060636Y-129871148D01*
X110056806Y-129830134D01*
X110055400Y-129761199D01*
X110056398Y-129663869D01*
X110056708Y-129648857D01*
X110058901Y-129560059D01*
X110061493Y-129495219D01*
X110065182Y-129449267D01*
X110070664Y-129417135D01*
X110078635Y-129393753D01*
X110089793Y-129374052D01*
X110095630Y-129365610D01*
X110129096Y-129328257D01*
X110166527Y-129299203D01*
X110171109Y-129296667D01*
X110238226Y-129276643D01*
X110308726Y-129279955D01*
X110308726Y-129279955D01*
G37*
X110308726Y-129279955D02*
X110374658Y-129304284D01*
X110428073Y-129347317D01*
X110448964Y-129377609D01*
X110471739Y-129433194D01*
X110471266Y-129473386D01*
X110447362Y-129500417D01*
X110438517Y-129505013D01*
X110400330Y-129519344D01*
X110380828Y-129515672D01*
X110374222Y-129491607D01*
X110373886Y-129478314D01*
X110361792Y-129429410D01*
X110330271Y-129395199D01*
X110286459Y-129378676D01*
X110237495Y-129382834D01*
X110197694Y-129404427D01*
X110184250Y-129416744D01*
X110174721Y-129431687D01*
X110168285Y-129454275D01*
X110164117Y-129489528D01*
X110161397Y-129542466D01*
X110159302Y-129618107D01*
X110158760Y-129642057D01*
X110156781Y-129723990D01*
X110154531Y-129781655D01*
X110151157Y-129819808D01*
X110145806Y-129843204D01*
X110137624Y-129856598D01*
X110125759Y-129864745D01*
X110118162Y-129868344D01*
X110085902Y-129880652D01*
X110066911Y-129884714D01*
X110060636Y-129871148D01*
X110056806Y-129830134D01*
X110055400Y-129761199D01*
X110056398Y-129663869D01*
X110056708Y-129648857D01*
X110058901Y-129560059D01*
X110061493Y-129495219D01*
X110065182Y-129449267D01*
X110070664Y-129417135D01*
X110078635Y-129393753D01*
X110089793Y-129374052D01*
X110095630Y-129365610D01*
X110129096Y-129328257D01*
X110166527Y-129299203D01*
X110171109Y-129296667D01*
X110238226Y-129276643D01*
X110308726Y-129279955D01*
G36*
X110968917Y-129395558D02*
X110968733Y-129504037D01*
X110968019Y-129587487D01*
X110966475Y-129649904D01*
X110963801Y-129695285D01*
X110959694Y-129727629D01*
X110953855Y-129750933D01*
X110945982Y-129769195D01*
X110940021Y-129779618D01*
X110890655Y-129836145D01*
X110828064Y-129871577D01*
X110758813Y-129884290D01*
X110689468Y-129872663D01*
X110648175Y-129851768D01*
X110604825Y-129815622D01*
X110575281Y-129771476D01*
X110557455Y-129713662D01*
X110549263Y-129636513D01*
X110548102Y-129579914D01*
X110548258Y-129575847D01*
X110649657Y-129575847D01*
X110650276Y-129640750D01*
X110653114Y-129683714D01*
X110659640Y-129711822D01*
X110671323Y-129732153D01*
X110685283Y-129747488D01*
X110732165Y-129777090D01*
X110782501Y-129779619D01*
X110830076Y-129754905D01*
X110833779Y-129751556D01*
X110849583Y-129734135D01*
X110859493Y-129713409D01*
X110864858Y-129682562D01*
X110867028Y-129634777D01*
X110867371Y-129581948D01*
X110866627Y-129515581D01*
X110863548Y-129471306D01*
X110856861Y-129442209D01*
X110845296Y-129421373D01*
X110835813Y-129410307D01*
X110791760Y-129382398D01*
X110741024Y-129379043D01*
X110692596Y-129400359D01*
X110683250Y-129408273D01*
X110667340Y-129425847D01*
X110657410Y-129446787D01*
X110652078Y-129477982D01*
X110649963Y-129526322D01*
X110649657Y-129575847D01*
X110548258Y-129575847D01*
X110551610Y-129488768D01*
X110563526Y-129420286D01*
X110585935Y-129368800D01*
X110620924Y-129328643D01*
X110648175Y-129308061D01*
X110697707Y-129285825D01*
X110755116Y-129275504D01*
X110808482Y-129278267D01*
X110838343Y-129289412D01*
X110850061Y-129292583D01*
X110857837Y-129280757D01*
X110863265Y-129249066D01*
X110867371Y-129200793D01*
X110871867Y-129147029D01*
X110878113Y-129114682D01*
X110889476Y-129096185D01*
X110909328Y-129083970D01*
X110921800Y-129078562D01*
X110968971Y-129058801D01*
X110968917Y-129395558D01*
X110968917Y-129395558D01*
G37*
X110968917Y-129395558D02*
X110968733Y-129504037D01*
X110968019Y-129587487D01*
X110966475Y-129649904D01*
X110963801Y-129695285D01*
X110959694Y-129727629D01*
X110953855Y-129750933D01*
X110945982Y-129769195D01*
X110940021Y-129779618D01*
X110890655Y-129836145D01*
X110828064Y-129871577D01*
X110758813Y-129884290D01*
X110689468Y-129872663D01*
X110648175Y-129851768D01*
X110604825Y-129815622D01*
X110575281Y-129771476D01*
X110557455Y-129713662D01*
X110549263Y-129636513D01*
X110548102Y-129579914D01*
X110548258Y-129575847D01*
X110649657Y-129575847D01*
X110650276Y-129640750D01*
X110653114Y-129683714D01*
X110659640Y-129711822D01*
X110671323Y-129732153D01*
X110685283Y-129747488D01*
X110732165Y-129777090D01*
X110782501Y-129779619D01*
X110830076Y-129754905D01*
X110833779Y-129751556D01*
X110849583Y-129734135D01*
X110859493Y-129713409D01*
X110864858Y-129682562D01*
X110867028Y-129634777D01*
X110867371Y-129581948D01*
X110866627Y-129515581D01*
X110863548Y-129471306D01*
X110856861Y-129442209D01*
X110845296Y-129421373D01*
X110835813Y-129410307D01*
X110791760Y-129382398D01*
X110741024Y-129379043D01*
X110692596Y-129400359D01*
X110683250Y-129408273D01*
X110667340Y-129425847D01*
X110657410Y-129446787D01*
X110652078Y-129477982D01*
X110649963Y-129526322D01*
X110649657Y-129575847D01*
X110548258Y-129575847D01*
X110551610Y-129488768D01*
X110563526Y-129420286D01*
X110585935Y-129368800D01*
X110620924Y-129328643D01*
X110648175Y-129308061D01*
X110697707Y-129285825D01*
X110755116Y-129275504D01*
X110808482Y-129278267D01*
X110838343Y-129289412D01*
X110850061Y-129292583D01*
X110857837Y-129280757D01*
X110863265Y-129249066D01*
X110867371Y-129200793D01*
X110871867Y-129147029D01*
X110878113Y-129114682D01*
X110889476Y-129096185D01*
X110909328Y-129083970D01*
X110921800Y-129078562D01*
X110968971Y-129058801D01*
X110968917Y-129395558D01*
G36*
X111558633Y-129288863D02*
X111560848Y-129327050D01*
X111562584Y-129385086D01*
X111563699Y-129458380D01*
X111564057Y-129535255D01*
X111564057Y-129795396D01*
X111518126Y-129841327D01*
X111486475Y-129869629D01*
X111458690Y-129881093D01*
X111420715Y-129880368D01*
X111405640Y-129878521D01*
X111358526Y-129873148D01*
X111319556Y-129870069D01*
X111310057Y-129869785D01*
X111278033Y-129871645D01*
X111232232Y-129876314D01*
X111214474Y-129878521D01*
X111170857Y-129881935D01*
X111141545Y-129874520D01*
X111112480Y-129851627D01*
X111101988Y-129841327D01*
X111056057Y-129795396D01*
X111056057Y-129308802D01*
X111093026Y-129291958D01*
X111124859Y-129279482D01*
X111143483Y-129275114D01*
X111148258Y-129288918D01*
X111152721Y-129327486D01*
X111156575Y-129386556D01*
X111159522Y-129461863D01*
X111160943Y-129525486D01*
X111164914Y-129775857D01*
X111199559Y-129780756D01*
X111231068Y-129777331D01*
X111246508Y-129766241D01*
X111250823Y-129745508D01*
X111254508Y-129701345D01*
X111257269Y-129639346D01*
X111258812Y-129565109D01*
X111259035Y-129526906D01*
X111259257Y-129306983D01*
X111304966Y-129291049D01*
X111337318Y-129280215D01*
X111354915Y-129275162D01*
X111355423Y-129275114D01*
X111357188Y-129288848D01*
X111359129Y-129326930D01*
X111361082Y-129384682D01*
X111362884Y-129457427D01*
X111364143Y-129525486D01*
X111368114Y-129775857D01*
X111455200Y-129775857D01*
X111459196Y-129547440D01*
X111463192Y-129319022D01*
X111505647Y-129297068D01*
X111536992Y-129281993D01*
X111555544Y-129275151D01*
X111556079Y-129275114D01*
X111558633Y-129288863D01*
X111558633Y-129288863D01*
G37*
X111558633Y-129288863D02*
X111560848Y-129327050D01*
X111562584Y-129385086D01*
X111563699Y-129458380D01*
X111564057Y-129535255D01*
X111564057Y-129795396D01*
X111518126Y-129841327D01*
X111486475Y-129869629D01*
X111458690Y-129881093D01*
X111420715Y-129880368D01*
X111405640Y-129878521D01*
X111358526Y-129873148D01*
X111319556Y-129870069D01*
X111310057Y-129869785D01*
X111278033Y-129871645D01*
X111232232Y-129876314D01*
X111214474Y-129878521D01*
X111170857Y-129881935D01*
X111141545Y-129874520D01*
X111112480Y-129851627D01*
X111101988Y-129841327D01*
X111056057Y-129795396D01*
X111056057Y-129308802D01*
X111093026Y-129291958D01*
X111124859Y-129279482D01*
X111143483Y-129275114D01*
X111148258Y-129288918D01*
X111152721Y-129327486D01*
X111156575Y-129386556D01*
X111159522Y-129461863D01*
X111160943Y-129525486D01*
X111164914Y-129775857D01*
X111199559Y-129780756D01*
X111231068Y-129777331D01*
X111246508Y-129766241D01*
X111250823Y-129745508D01*
X111254508Y-129701345D01*
X111257269Y-129639346D01*
X111258812Y-129565109D01*
X111259035Y-129526906D01*
X111259257Y-129306983D01*
X111304966Y-129291049D01*
X111337318Y-129280215D01*
X111354915Y-129275162D01*
X111355423Y-129275114D01*
X111357188Y-129288848D01*
X111359129Y-129326930D01*
X111361082Y-129384682D01*
X111362884Y-129457427D01*
X111364143Y-129525486D01*
X111368114Y-129775857D01*
X111455200Y-129775857D01*
X111459196Y-129547440D01*
X111463192Y-129319022D01*
X111505647Y-129297068D01*
X111536992Y-129281993D01*
X111555544Y-129275151D01*
X111556079Y-129275114D01*
X111558633Y-129288863D01*
G36*
X111923676Y-129286535D02*
X111965467Y-129305544D01*
X111998269Y-129328578D01*
X112022303Y-129354333D01*
X112038897Y-129387558D01*
X112049377Y-129433000D01*
X112055071Y-129495407D01*
X112057307Y-129579527D01*
X112057543Y-129634921D01*
X112057543Y-129851026D01*
X112020574Y-129867870D01*
X111991456Y-129880181D01*
X111977031Y-129884714D01*
X111974272Y-129871225D01*
X111972082Y-129834853D01*
X111970742Y-129781742D01*
X111970457Y-129739572D01*
X111969234Y-129678647D01*
X111965936Y-129630315D01*
X111961121Y-129600718D01*
X111957296Y-129594429D01*
X111931583Y-129600852D01*
X111891218Y-129617325D01*
X111844479Y-129639658D01*
X111799645Y-129663657D01*
X111764993Y-129685130D01*
X111748802Y-129699885D01*
X111748738Y-129700045D01*
X111750130Y-129727352D01*
X111762618Y-129753419D01*
X111784543Y-129774592D01*
X111816543Y-129781674D01*
X111843892Y-129780849D01*
X111882626Y-129780242D01*
X111902958Y-129789316D01*
X111915169Y-129813292D01*
X111916709Y-129817813D01*
X111922003Y-129852006D01*
X111907847Y-129872768D01*
X111870948Y-129882662D01*
X111831089Y-129884492D01*
X111759362Y-129870927D01*
X111722232Y-129851555D01*
X111676376Y-129806045D01*
X111652056Y-129750183D01*
X111649873Y-129691157D01*
X111670429Y-129636153D01*
X111701349Y-129601686D01*
X111732220Y-129582389D01*
X111780742Y-129557959D01*
X111837285Y-129533185D01*
X111846710Y-129529399D01*
X111908819Y-129501991D01*
X111944622Y-129477834D01*
X111956137Y-129453819D01*
X111945380Y-129426835D01*
X111926914Y-129405743D01*
X111883269Y-129379772D01*
X111835246Y-129377824D01*
X111791206Y-129397837D01*
X111759509Y-129437751D01*
X111755349Y-129448048D01*
X111731127Y-129485924D01*
X111695765Y-129514042D01*
X111651143Y-129537117D01*
X111651143Y-129471685D01*
X111653769Y-129431706D01*
X111665030Y-129400197D01*
X111689999Y-129366578D01*
X111713969Y-129340684D01*
X111751241Y-129304017D01*
X111780201Y-129284321D01*
X111811305Y-129276420D01*
X111846513Y-129275114D01*
X111923676Y-129286535D01*
X111923676Y-129286535D01*
G37*
X111923676Y-129286535D02*
X111965467Y-129305544D01*
X111998269Y-129328578D01*
X112022303Y-129354333D01*
X112038897Y-129387558D01*
X112049377Y-129433000D01*
X112055071Y-129495407D01*
X112057307Y-129579527D01*
X112057543Y-129634921D01*
X112057543Y-129851026D01*
X112020574Y-129867870D01*
X111991456Y-129880181D01*
X111977031Y-129884714D01*
X111974272Y-129871225D01*
X111972082Y-129834853D01*
X111970742Y-129781742D01*
X111970457Y-129739572D01*
X111969234Y-129678647D01*
X111965936Y-129630315D01*
X111961121Y-129600718D01*
X111957296Y-129594429D01*
X111931583Y-129600852D01*
X111891218Y-129617325D01*
X111844479Y-129639658D01*
X111799645Y-129663657D01*
X111764993Y-129685130D01*
X111748802Y-129699885D01*
X111748738Y-129700045D01*
X111750130Y-129727352D01*
X111762618Y-129753419D01*
X111784543Y-129774592D01*
X111816543Y-129781674D01*
X111843892Y-129780849D01*
X111882626Y-129780242D01*
X111902958Y-129789316D01*
X111915169Y-129813292D01*
X111916709Y-129817813D01*
X111922003Y-129852006D01*
X111907847Y-129872768D01*
X111870948Y-129882662D01*
X111831089Y-129884492D01*
X111759362Y-129870927D01*
X111722232Y-129851555D01*
X111676376Y-129806045D01*
X111652056Y-129750183D01*
X111649873Y-129691157D01*
X111670429Y-129636153D01*
X111701349Y-129601686D01*
X111732220Y-129582389D01*
X111780742Y-129557959D01*
X111837285Y-129533185D01*
X111846710Y-129529399D01*
X111908819Y-129501991D01*
X111944622Y-129477834D01*
X111956137Y-129453819D01*
X111945380Y-129426835D01*
X111926914Y-129405743D01*
X111883269Y-129379772D01*
X111835246Y-129377824D01*
X111791206Y-129397837D01*
X111759509Y-129437751D01*
X111755349Y-129448048D01*
X111731127Y-129485924D01*
X111695765Y-129514042D01*
X111651143Y-129537117D01*
X111651143Y-129471685D01*
X111653769Y-129431706D01*
X111665030Y-129400197D01*
X111689999Y-129366578D01*
X111713969Y-129340684D01*
X111751241Y-129304017D01*
X111780201Y-129284321D01*
X111811305Y-129276420D01*
X111846513Y-129275114D01*
X111923676Y-129286535D01*
G36*
X112431400Y-129288952D02*
X112448748Y-129296534D01*
X112490156Y-129329328D01*
X112525565Y-129376747D01*
X112547464Y-129427351D01*
X112551029Y-129452298D01*
X112539079Y-129487127D01*
X112512867Y-129505557D01*
X112484764Y-129516716D01*
X112471895Y-129518772D01*
X112465629Y-129503849D01*
X112453256Y-129471375D01*
X112447828Y-129456702D01*
X112417390Y-129405944D01*
X112373320Y-129380627D01*
X112316810Y-129381406D01*
X112312625Y-129382403D01*
X112282455Y-129396707D01*
X112260276Y-129424593D01*
X112245127Y-129469487D01*
X112236050Y-129534815D01*
X112232086Y-129624004D01*
X112231714Y-129671461D01*
X112231530Y-129746271D01*
X112230322Y-129797269D01*
X112227109Y-129829671D01*
X112220909Y-129848695D01*
X112210740Y-129859556D01*
X112195619Y-129867472D01*
X112194746Y-129867870D01*
X112165628Y-129880181D01*
X112151203Y-129884714D01*
X112148986Y-129871009D01*
X112147089Y-129833125D01*
X112145647Y-129775915D01*
X112144798Y-129704227D01*
X112144629Y-129651765D01*
X112145492Y-129550247D01*
X112148870Y-129473232D01*
X112155942Y-129416223D01*
X112167888Y-129374726D01*
X112185890Y-129344243D01*
X112211127Y-129320280D01*
X112236047Y-129303555D01*
X112295971Y-129281297D01*
X112365711Y-129276276D01*
X112431400Y-129288952D01*
X112431400Y-129288952D01*
G37*
X112431400Y-129288952D02*
X112448748Y-129296534D01*
X112490156Y-129329328D01*
X112525565Y-129376747D01*
X112547464Y-129427351D01*
X112551029Y-129452298D01*
X112539079Y-129487127D01*
X112512867Y-129505557D01*
X112484764Y-129516716D01*
X112471895Y-129518772D01*
X112465629Y-129503849D01*
X112453256Y-129471375D01*
X112447828Y-129456702D01*
X112417390Y-129405944D01*
X112373320Y-129380627D01*
X112316810Y-129381406D01*
X112312625Y-129382403D01*
X112282455Y-129396707D01*
X112260276Y-129424593D01*
X112245127Y-129469487D01*
X112236050Y-129534815D01*
X112232086Y-129624004D01*
X112231714Y-129671461D01*
X112231530Y-129746271D01*
X112230322Y-129797269D01*
X112227109Y-129829671D01*
X112220909Y-129848695D01*
X112210740Y-129859556D01*
X112195619Y-129867472D01*
X112194746Y-129867870D01*
X112165628Y-129880181D01*
X112151203Y-129884714D01*
X112148986Y-129871009D01*
X112147089Y-129833125D01*
X112145647Y-129775915D01*
X112144798Y-129704227D01*
X112144629Y-129651765D01*
X112145492Y-129550247D01*
X112148870Y-129473232D01*
X112155942Y-129416223D01*
X112167888Y-129374726D01*
X112185890Y-129344243D01*
X112211127Y-129320280D01*
X112236047Y-129303555D01*
X112295971Y-129281297D01*
X112365711Y-129276276D01*
X112431400Y-129288952D01*
G36*
X112932395Y-129297166D02*
X112989821Y-129334697D01*
X113017519Y-129368296D01*
X113039462Y-129429264D01*
X113041205Y-129477508D01*
X113037257Y-129542016D01*
X112888486Y-129607134D01*
X112816149Y-129640402D01*
X112768884Y-129667164D01*
X112744307Y-129690344D01*
X112740037Y-129712867D01*
X112753689Y-129737655D01*
X112768743Y-129754086D01*
X112812546Y-129780435D01*
X112860189Y-129782281D01*
X112903945Y-129761746D01*
X112936089Y-129720952D01*
X112941838Y-129706547D01*
X112969376Y-129661556D01*
X113001058Y-129642382D01*
X113044514Y-129625979D01*
X113044514Y-129688166D01*
X113040672Y-129730483D01*
X113025623Y-129766169D01*
X112994080Y-129807143D01*
X112989392Y-129812467D01*
X112954306Y-129848920D01*
X112924147Y-129868483D01*
X112886415Y-129877483D01*
X112855135Y-129880430D01*
X112799185Y-129881165D01*
X112759355Y-129871860D01*
X112734508Y-129858046D01*
X112695456Y-129827667D01*
X112668425Y-129794813D01*
X112651317Y-129753494D01*
X112642038Y-129697721D01*
X112638493Y-129621505D01*
X112638210Y-129582822D01*
X112639172Y-129536447D01*
X112726807Y-129536447D01*
X112727823Y-129561326D01*
X112730356Y-129565400D01*
X112747074Y-129559865D01*
X112783049Y-129545217D01*
X112831131Y-129524390D01*
X112841186Y-129519914D01*
X112901952Y-129489014D01*
X112935432Y-129461857D01*
X112942790Y-129436420D01*
X112925191Y-129410681D01*
X112910656Y-129399309D01*
X112858210Y-129376564D01*
X112809122Y-129380322D01*
X112768027Y-129408084D01*
X112739558Y-129457352D01*
X112730431Y-129496457D01*
X112726807Y-129536447D01*
X112639172Y-129536447D01*
X112640085Y-129492449D01*
X112646996Y-129425584D01*
X112660684Y-129376895D01*
X112682896Y-129341049D01*
X112715374Y-129312713D01*
X112729533Y-129303555D01*
X112793853Y-129279707D01*
X112864273Y-129278206D01*
X112932395Y-129297166D01*
X112932395Y-129297166D01*
G37*
X112932395Y-129297166D02*
X112989821Y-129334697D01*
X113017519Y-129368296D01*
X113039462Y-129429264D01*
X113041205Y-129477508D01*
X113037257Y-129542016D01*
X112888486Y-129607134D01*
X112816149Y-129640402D01*
X112768884Y-129667164D01*
X112744307Y-129690344D01*
X112740037Y-129712867D01*
X112753689Y-129737655D01*
X112768743Y-129754086D01*
X112812546Y-129780435D01*
X112860189Y-129782281D01*
X112903945Y-129761746D01*
X112936089Y-129720952D01*
X112941838Y-129706547D01*
X112969376Y-129661556D01*
X113001058Y-129642382D01*
X113044514Y-129625979D01*
X113044514Y-129688166D01*
X113040672Y-129730483D01*
X113025623Y-129766169D01*
X112994080Y-129807143D01*
X112989392Y-129812467D01*
X112954306Y-129848920D01*
X112924147Y-129868483D01*
X112886415Y-129877483D01*
X112855135Y-129880430D01*
X112799185Y-129881165D01*
X112759355Y-129871860D01*
X112734508Y-129858046D01*
X112695456Y-129827667D01*
X112668425Y-129794813D01*
X112651317Y-129753494D01*
X112642038Y-129697721D01*
X112638493Y-129621505D01*
X112638210Y-129582822D01*
X112639172Y-129536447D01*
X112726807Y-129536447D01*
X112727823Y-129561326D01*
X112730356Y-129565400D01*
X112747074Y-129559865D01*
X112783049Y-129545217D01*
X112831131Y-129524390D01*
X112841186Y-129519914D01*
X112901952Y-129489014D01*
X112935432Y-129461857D01*
X112942790Y-129436420D01*
X112925191Y-129410681D01*
X112910656Y-129399309D01*
X112858210Y-129376564D01*
X112809122Y-129380322D01*
X112768027Y-129408084D01*
X112739558Y-129457352D01*
X112730431Y-129496457D01*
X112726807Y-129536447D01*
X112639172Y-129536447D01*
X112640085Y-129492449D01*
X112646996Y-129425584D01*
X112660684Y-129376895D01*
X112682896Y-129341049D01*
X112715374Y-129312713D01*
X112729533Y-129303555D01*
X112793853Y-129279707D01*
X112864273Y-129278206D01*
X112932395Y-129297166D01*
G36*
X109882710Y-124572548D02*
X109961254Y-124572978D01*
X110018098Y-124574142D01*
X110056905Y-124576407D01*
X110081338Y-124580140D01*
X110095062Y-124585706D01*
X110101740Y-124593473D01*
X110105036Y-124603805D01*
X110105356Y-124605143D01*
X110110362Y-124629279D01*
X110119629Y-124676901D01*
X110132192Y-124742941D01*
X110147087Y-124822328D01*
X110163351Y-124909996D01*
X110163919Y-124913075D01*
X110180210Y-124998989D01*
X110195452Y-125074896D01*
X110208661Y-125136245D01*
X110218854Y-125178482D01*
X110225048Y-125197055D01*
X110225343Y-125197384D01*
X110243588Y-125206453D01*
X110281205Y-125221567D01*
X110330071Y-125239462D01*
X110330343Y-125239558D01*
X110391893Y-125262693D01*
X110464457Y-125292165D01*
X110532857Y-125321797D01*
X110536094Y-125323262D01*
X110647502Y-125373826D01*
X110894199Y-125205360D01*
X110969877Y-125154003D01*
X111038431Y-125108089D01*
X111095888Y-125070230D01*
X111138276Y-125043037D01*
X111161625Y-125029121D01*
X111163842Y-125028089D01*
X111180810Y-125032684D01*
X111212501Y-125054855D01*
X111260152Y-125095647D01*
X111324998Y-125156105D01*
X111391197Y-125220427D01*
X111455014Y-125283812D01*
X111512129Y-125341651D01*
X111559105Y-125390375D01*
X111592503Y-125426410D01*
X111608885Y-125446184D01*
X111609494Y-125447202D01*
X111611305Y-125460772D01*
X111604483Y-125482933D01*
X111587340Y-125516678D01*
X111558193Y-125565000D01*
X111515355Y-125630892D01*
X111458248Y-125715717D01*
X111407566Y-125790377D01*
X111362261Y-125857340D01*
X111324950Y-125912716D01*
X111298252Y-125952620D01*
X111284785Y-125973162D01*
X111283937Y-125974556D01*
X111285581Y-125994238D01*
X111298045Y-126032493D01*
X111318848Y-126082089D01*
X111326262Y-126097928D01*
X111358614Y-126168490D01*
X111393128Y-126248553D01*
X111421165Y-126317829D01*
X111441368Y-126369245D01*
X111457415Y-126408319D01*
X111466688Y-126428741D01*
X111467841Y-126430314D01*
X111484896Y-126432921D01*
X111525098Y-126440063D01*
X111583102Y-126450723D01*
X111653563Y-126463885D01*
X111731135Y-126478533D01*
X111810472Y-126493649D01*
X111886231Y-126508218D01*
X111953064Y-126521222D01*
X112005628Y-126531645D01*
X112038576Y-126538470D01*
X112046657Y-126540399D01*
X112055005Y-126545162D01*
X112061306Y-126555918D01*
X112065845Y-126576298D01*
X112068904Y-126609934D01*
X112070767Y-126660455D01*
X112071718Y-126731492D01*
X112072040Y-126826676D01*
X112072057Y-126865692D01*
X112072057Y-127182999D01*
X111995857Y-127198039D01*
X111953463Y-127206195D01*
X111890200Y-127218099D01*
X111813762Y-127232316D01*
X111731843Y-127247410D01*
X111709200Y-127251555D01*
X111633606Y-127266253D01*
X111567753Y-127280705D01*
X111517166Y-127293575D01*
X111487374Y-127303522D01*
X111482412Y-127306487D01*
X111470226Y-127327483D01*
X111452753Y-127368167D01*
X111433377Y-127420522D01*
X111429534Y-127431800D01*
X111404139Y-127501723D01*
X111372617Y-127580618D01*
X111341769Y-127651466D01*
X111341617Y-127651795D01*
X111290247Y-127762933D01*
X111459199Y-128011453D01*
X111628152Y-128259972D01*
X111411229Y-128477258D01*
X111345619Y-128541926D01*
X111285779Y-128598933D01*
X111235067Y-128645233D01*
X111196846Y-128677784D01*
X111174475Y-128693543D01*
X111171266Y-128694543D01*
X111152426Y-128686669D01*
X111113980Y-128664778D01*
X111060130Y-128631467D01*
X110995076Y-128589331D01*
X110924740Y-128542143D01*
X110853355Y-128494010D01*
X110789708Y-128452128D01*
X110737841Y-128419071D01*
X110701795Y-128397418D01*
X110685667Y-128389743D01*
X110665989Y-128396237D01*
X110628675Y-128413350D01*
X110581421Y-128437526D01*
X110576412Y-128440213D01*
X110512777Y-128472127D01*
X110469141Y-128487779D01*
X110442002Y-128487945D01*
X110427857Y-128473404D01*
X110427775Y-128473200D01*
X110420705Y-128455979D01*
X110403842Y-128415099D01*
X110378495Y-128353725D01*
X110345971Y-128275019D01*
X110307578Y-128182147D01*
X110264622Y-128078272D01*
X110223022Y-127977702D01*
X110177304Y-127866716D01*
X110135326Y-127763903D01*
X110098348Y-127672415D01*
X110067627Y-127595401D01*
X110044422Y-127536015D01*
X110029990Y-127497409D01*
X110025543Y-127483000D01*
X110036696Y-127466472D01*
X110065869Y-127440130D01*
X110104771Y-127411087D01*
X110215557Y-127319239D01*
X110302151Y-127213959D01*
X110363516Y-127097466D01*
X110398615Y-126971976D01*
X110406408Y-126839707D01*
X110400743Y-126778657D01*
X110369878Y-126651995D01*
X110316720Y-126540141D01*
X110244567Y-126444201D01*
X110156717Y-126365276D01*
X110056465Y-126304470D01*
X109947110Y-126262887D01*
X109831947Y-126241628D01*
X109714275Y-126241799D01*
X109597390Y-126264501D01*
X109484589Y-126310838D01*
X109379169Y-126381913D01*
X109335168Y-126422111D01*
X109250779Y-126525329D01*
X109192022Y-126638125D01*
X109158504Y-126757210D01*
X109149835Y-126879295D01*
X109165623Y-127001093D01*
X109205478Y-127119316D01*
X109269007Y-127230675D01*
X109355821Y-127331884D01*
X109452829Y-127411087D01*
X109493237Y-127441362D01*
X109521782Y-127467419D01*
X109532057Y-127483025D01*
X109526677Y-127500043D01*
X109511375Y-127540700D01*
X109487412Y-127601842D01*
X109456044Y-127680319D01*
X109418532Y-127772980D01*
X109376133Y-127876672D01*
X109334463Y-127977726D01*
X109288490Y-128088807D01*
X109245907Y-128191741D01*
X109208021Y-128283365D01*
X109176140Y-128360516D01*
X109151571Y-128420031D01*
X109135620Y-128458744D01*
X109129710Y-128473200D01*
X109115748Y-128487885D01*
X109088740Y-128487842D01*
X109045213Y-128472299D01*
X108981690Y-128440484D01*
X108981188Y-128440213D01*
X108933360Y-128415523D01*
X108894697Y-128397538D01*
X108872895Y-128389814D01*
X108871933Y-128389743D01*
X108855521Y-128397578D01*
X108819287Y-128419365D01*
X108767274Y-128452528D01*
X108703525Y-128494491D01*
X108632860Y-128542143D01*
X108560916Y-128590391D01*
X108496074Y-128632351D01*
X108442535Y-128665427D01*
X108404497Y-128687021D01*
X108386333Y-128694543D01*
X108369608Y-128684657D01*
X108335980Y-128657026D01*
X108288810Y-128614695D01*
X108231458Y-128560705D01*
X108167284Y-128498099D01*
X108146297Y-128477183D01*
X107929299Y-128259823D01*
X108094468Y-128017420D01*
X108144664Y-127942981D01*
X108188719Y-127876172D01*
X108224162Y-127820865D01*
X108248519Y-127780929D01*
X108259322Y-127760236D01*
X108259638Y-127758763D01*
X108253943Y-127739258D01*
X108238626Y-127700022D01*
X108216337Y-127647630D01*
X108200693Y-127612555D01*
X108171441Y-127545401D01*
X108143894Y-127477558D01*
X108122537Y-127420234D01*
X108116735Y-127402772D01*
X108100252Y-127356138D01*
X108084140Y-127320105D01*
X108075290Y-127306487D01*
X108055760Y-127298152D01*
X108013134Y-127286337D01*
X107952945Y-127272381D01*
X107880722Y-127257622D01*
X107848400Y-127251555D01*
X107766322Y-127236473D01*
X107687595Y-127221869D01*
X107619909Y-127209180D01*
X107570960Y-127199842D01*
X107561743Y-127198039D01*
X107485543Y-127182999D01*
X107485543Y-126865692D01*
X107485714Y-126761354D01*
X107486416Y-126682413D01*
X107487934Y-126625238D01*
X107490549Y-126586199D01*
X107494546Y-126561665D01*
X107500209Y-126548005D01*
X107507820Y-126541589D01*
X107510943Y-126540399D01*
X107529778Y-126536180D01*
X107571388Y-126527762D01*
X107630430Y-126516161D01*
X107701557Y-126502395D01*
X107779425Y-126487480D01*
X107858687Y-126472432D01*
X107933998Y-126458269D01*
X108000013Y-126446006D01*
X108051387Y-126436661D01*
X108082775Y-126431250D01*
X108089759Y-126430314D01*
X108096085Y-126417796D01*
X108110090Y-126384446D01*
X108129155Y-126336577D01*
X108136434Y-126317829D01*
X108165796Y-126245395D01*
X108200371Y-126165370D01*
X108231337Y-126097928D01*
X108254123Y-126046359D01*
X108269282Y-126003985D01*
X108274342Y-125978034D01*
X108273536Y-125974556D01*
X108262841Y-125958136D01*
X108238420Y-125921617D01*
X108202895Y-125868887D01*
X108158887Y-125803835D01*
X108109017Y-125730351D01*
X108099156Y-125715845D01*
X108041292Y-125629904D01*
X107998756Y-125564461D01*
X107969854Y-125516504D01*
X107952890Y-125483020D01*
X107946167Y-125460995D01*
X107947990Y-125447417D01*
X107948036Y-125447331D01*
X107962386Y-125429497D01*
X107994123Y-125395017D01*
X108039810Y-125347468D01*
X108096004Y-125290422D01*
X108159268Y-125227455D01*
X108166402Y-125220427D01*
X108246130Y-125143220D01*
X108307657Y-125086530D01*
X108352221Y-125049310D01*
X108381057Y-125030515D01*
X108393758Y-125028089D01*
X108412294Y-125038671D01*
X108450761Y-125063116D01*
X108505186Y-125098812D01*
X108571598Y-125143147D01*
X108646025Y-125193511D01*
X108663401Y-125205360D01*
X108910097Y-125373826D01*
X109021506Y-125323262D01*
X109089257Y-125293795D01*
X109161983Y-125264159D01*
X109224503Y-125240530D01*
X109227257Y-125239558D01*
X109276160Y-125221657D01*
X109313857Y-125206520D01*
X109332225Y-125197410D01*
X109332256Y-125197384D01*
X109338085Y-125180917D01*
X109347992Y-125140419D01*
X109360995Y-125080442D01*
X109376109Y-125005540D01*
X109392352Y-124920264D01*
X109393681Y-124913075D01*
X109409975Y-124825214D01*
X109424933Y-124745460D01*
X109437591Y-124678881D01*
X109446986Y-124630547D01*
X109452154Y-124605525D01*
X109452244Y-124605143D01*
X109455389Y-124594499D01*
X109461504Y-124586462D01*
X109474253Y-124580667D01*
X109497300Y-124576747D01*
X109534309Y-124574335D01*
X109588944Y-124573065D01*
X109664867Y-124572571D01*
X109765744Y-124572486D01*
X109778800Y-124572486D01*
X109882710Y-124572548D01*
X109882710Y-124572548D01*
G37*
X109882710Y-124572548D02*
X109961254Y-124572978D01*
X110018098Y-124574142D01*
X110056905Y-124576407D01*
X110081338Y-124580140D01*
X110095062Y-124585706D01*
X110101740Y-124593473D01*
X110105036Y-124603805D01*
X110105356Y-124605143D01*
X110110362Y-124629279D01*
X110119629Y-124676901D01*
X110132192Y-124742941D01*
X110147087Y-124822328D01*
X110163351Y-124909996D01*
X110163919Y-124913075D01*
X110180210Y-124998989D01*
X110195452Y-125074896D01*
X110208661Y-125136245D01*
X110218854Y-125178482D01*
X110225048Y-125197055D01*
X110225343Y-125197384D01*
X110243588Y-125206453D01*
X110281205Y-125221567D01*
X110330071Y-125239462D01*
X110330343Y-125239558D01*
X110391893Y-125262693D01*
X110464457Y-125292165D01*
X110532857Y-125321797D01*
X110536094Y-125323262D01*
X110647502Y-125373826D01*
X110894199Y-125205360D01*
X110969877Y-125154003D01*
X111038431Y-125108089D01*
X111095888Y-125070230D01*
X111138276Y-125043037D01*
X111161625Y-125029121D01*
X111163842Y-125028089D01*
X111180810Y-125032684D01*
X111212501Y-125054855D01*
X111260152Y-125095647D01*
X111324998Y-125156105D01*
X111391197Y-125220427D01*
X111455014Y-125283812D01*
X111512129Y-125341651D01*
X111559105Y-125390375D01*
X111592503Y-125426410D01*
X111608885Y-125446184D01*
X111609494Y-125447202D01*
X111611305Y-125460772D01*
X111604483Y-125482933D01*
X111587340Y-125516678D01*
X111558193Y-125565000D01*
X111515355Y-125630892D01*
X111458248Y-125715717D01*
X111407566Y-125790377D01*
X111362261Y-125857340D01*
X111324950Y-125912716D01*
X111298252Y-125952620D01*
X111284785Y-125973162D01*
X111283937Y-125974556D01*
X111285581Y-125994238D01*
X111298045Y-126032493D01*
X111318848Y-126082089D01*
X111326262Y-126097928D01*
X111358614Y-126168490D01*
X111393128Y-126248553D01*
X111421165Y-126317829D01*
X111441368Y-126369245D01*
X111457415Y-126408319D01*
X111466688Y-126428741D01*
X111467841Y-126430314D01*
X111484896Y-126432921D01*
X111525098Y-126440063D01*
X111583102Y-126450723D01*
X111653563Y-126463885D01*
X111731135Y-126478533D01*
X111810472Y-126493649D01*
X111886231Y-126508218D01*
X111953064Y-126521222D01*
X112005628Y-126531645D01*
X112038576Y-126538470D01*
X112046657Y-126540399D01*
X112055005Y-126545162D01*
X112061306Y-126555918D01*
X112065845Y-126576298D01*
X112068904Y-126609934D01*
X112070767Y-126660455D01*
X112071718Y-126731492D01*
X112072040Y-126826676D01*
X112072057Y-126865692D01*
X112072057Y-127182999D01*
X111995857Y-127198039D01*
X111953463Y-127206195D01*
X111890200Y-127218099D01*
X111813762Y-127232316D01*
X111731843Y-127247410D01*
X111709200Y-127251555D01*
X111633606Y-127266253D01*
X111567753Y-127280705D01*
X111517166Y-127293575D01*
X111487374Y-127303522D01*
X111482412Y-127306487D01*
X111470226Y-127327483D01*
X111452753Y-127368167D01*
X111433377Y-127420522D01*
X111429534Y-127431800D01*
X111404139Y-127501723D01*
X111372617Y-127580618D01*
X111341769Y-127651466D01*
X111341617Y-127651795D01*
X111290247Y-127762933D01*
X111459199Y-128011453D01*
X111628152Y-128259972D01*
X111411229Y-128477258D01*
X111345619Y-128541926D01*
X111285779Y-128598933D01*
X111235067Y-128645233D01*
X111196846Y-128677784D01*
X111174475Y-128693543D01*
X111171266Y-128694543D01*
X111152426Y-128686669D01*
X111113980Y-128664778D01*
X111060130Y-128631467D01*
X110995076Y-128589331D01*
X110924740Y-128542143D01*
X110853355Y-128494010D01*
X110789708Y-128452128D01*
X110737841Y-128419071D01*
X110701795Y-128397418D01*
X110685667Y-128389743D01*
X110665989Y-128396237D01*
X110628675Y-128413350D01*
X110581421Y-128437526D01*
X110576412Y-128440213D01*
X110512777Y-128472127D01*
X110469141Y-128487779D01*
X110442002Y-128487945D01*
X110427857Y-128473404D01*
X110427775Y-128473200D01*
X110420705Y-128455979D01*
X110403842Y-128415099D01*
X110378495Y-128353725D01*
X110345971Y-128275019D01*
X110307578Y-128182147D01*
X110264622Y-128078272D01*
X110223022Y-127977702D01*
X110177304Y-127866716D01*
X110135326Y-127763903D01*
X110098348Y-127672415D01*
X110067627Y-127595401D01*
X110044422Y-127536015D01*
X110029990Y-127497409D01*
X110025543Y-127483000D01*
X110036696Y-127466472D01*
X110065869Y-127440130D01*
X110104771Y-127411087D01*
X110215557Y-127319239D01*
X110302151Y-127213959D01*
X110363516Y-127097466D01*
X110398615Y-126971976D01*
X110406408Y-126839707D01*
X110400743Y-126778657D01*
X110369878Y-126651995D01*
X110316720Y-126540141D01*
X110244567Y-126444201D01*
X110156717Y-126365276D01*
X110056465Y-126304470D01*
X109947110Y-126262887D01*
X109831947Y-126241628D01*
X109714275Y-126241799D01*
X109597390Y-126264501D01*
X109484589Y-126310838D01*
X109379169Y-126381913D01*
X109335168Y-126422111D01*
X109250779Y-126525329D01*
X109192022Y-126638125D01*
X109158504Y-126757210D01*
X109149835Y-126879295D01*
X109165623Y-127001093D01*
X109205478Y-127119316D01*
X109269007Y-127230675D01*
X109355821Y-127331884D01*
X109452829Y-127411087D01*
X109493237Y-127441362D01*
X109521782Y-127467419D01*
X109532057Y-127483025D01*
X109526677Y-127500043D01*
X109511375Y-127540700D01*
X109487412Y-127601842D01*
X109456044Y-127680319D01*
X109418532Y-127772980D01*
X109376133Y-127876672D01*
X109334463Y-127977726D01*
X109288490Y-128088807D01*
X109245907Y-128191741D01*
X109208021Y-128283365D01*
X109176140Y-128360516D01*
X109151571Y-128420031D01*
X109135620Y-128458744D01*
X109129710Y-128473200D01*
X109115748Y-128487885D01*
X109088740Y-128487842D01*
X109045213Y-128472299D01*
X108981690Y-128440484D01*
X108981188Y-128440213D01*
X108933360Y-128415523D01*
X108894697Y-128397538D01*
X108872895Y-128389814D01*
X108871933Y-128389743D01*
X108855521Y-128397578D01*
X108819287Y-128419365D01*
X108767274Y-128452528D01*
X108703525Y-128494491D01*
X108632860Y-128542143D01*
X108560916Y-128590391D01*
X108496074Y-128632351D01*
X108442535Y-128665427D01*
X108404497Y-128687021D01*
X108386333Y-128694543D01*
X108369608Y-128684657D01*
X108335980Y-128657026D01*
X108288810Y-128614695D01*
X108231458Y-128560705D01*
X108167284Y-128498099D01*
X108146297Y-128477183D01*
X107929299Y-128259823D01*
X108094468Y-128017420D01*
X108144664Y-127942981D01*
X108188719Y-127876172D01*
X108224162Y-127820865D01*
X108248519Y-127780929D01*
X108259322Y-127760236D01*
X108259638Y-127758763D01*
X108253943Y-127739258D01*
X108238626Y-127700022D01*
X108216337Y-127647630D01*
X108200693Y-127612555D01*
X108171441Y-127545401D01*
X108143894Y-127477558D01*
X108122537Y-127420234D01*
X108116735Y-127402772D01*
X108100252Y-127356138D01*
X108084140Y-127320105D01*
X108075290Y-127306487D01*
X108055760Y-127298152D01*
X108013134Y-127286337D01*
X107952945Y-127272381D01*
X107880722Y-127257622D01*
X107848400Y-127251555D01*
X107766322Y-127236473D01*
X107687595Y-127221869D01*
X107619909Y-127209180D01*
X107570960Y-127199842D01*
X107561743Y-127198039D01*
X107485543Y-127182999D01*
X107485543Y-126865692D01*
X107485714Y-126761354D01*
X107486416Y-126682413D01*
X107487934Y-126625238D01*
X107490549Y-126586199D01*
X107494546Y-126561665D01*
X107500209Y-126548005D01*
X107507820Y-126541589D01*
X107510943Y-126540399D01*
X107529778Y-126536180D01*
X107571388Y-126527762D01*
X107630430Y-126516161D01*
X107701557Y-126502395D01*
X107779425Y-126487480D01*
X107858687Y-126472432D01*
X107933998Y-126458269D01*
X108000013Y-126446006D01*
X108051387Y-126436661D01*
X108082775Y-126431250D01*
X108089759Y-126430314D01*
X108096085Y-126417796D01*
X108110090Y-126384446D01*
X108129155Y-126336577D01*
X108136434Y-126317829D01*
X108165796Y-126245395D01*
X108200371Y-126165370D01*
X108231337Y-126097928D01*
X108254123Y-126046359D01*
X108269282Y-126003985D01*
X108274342Y-125978034D01*
X108273536Y-125974556D01*
X108262841Y-125958136D01*
X108238420Y-125921617D01*
X108202895Y-125868887D01*
X108158887Y-125803835D01*
X108109017Y-125730351D01*
X108099156Y-125715845D01*
X108041292Y-125629904D01*
X107998756Y-125564461D01*
X107969854Y-125516504D01*
X107952890Y-125483020D01*
X107946167Y-125460995D01*
X107947990Y-125447417D01*
X107948036Y-125447331D01*
X107962386Y-125429497D01*
X107994123Y-125395017D01*
X108039810Y-125347468D01*
X108096004Y-125290422D01*
X108159268Y-125227455D01*
X108166402Y-125220427D01*
X108246130Y-125143220D01*
X108307657Y-125086530D01*
X108352221Y-125049310D01*
X108381057Y-125030515D01*
X108393758Y-125028089D01*
X108412294Y-125038671D01*
X108450761Y-125063116D01*
X108505186Y-125098812D01*
X108571598Y-125143147D01*
X108646025Y-125193511D01*
X108663401Y-125205360D01*
X108910097Y-125373826D01*
X109021506Y-125323262D01*
X109089257Y-125293795D01*
X109161983Y-125264159D01*
X109224503Y-125240530D01*
X109227257Y-125239558D01*
X109276160Y-125221657D01*
X109313857Y-125206520D01*
X109332225Y-125197410D01*
X109332256Y-125197384D01*
X109338085Y-125180917D01*
X109347992Y-125140419D01*
X109360995Y-125080442D01*
X109376109Y-125005540D01*
X109392352Y-124920264D01*
X109393681Y-124913075D01*
X109409975Y-124825214D01*
X109424933Y-124745460D01*
X109437591Y-124678881D01*
X109446986Y-124630547D01*
X109452154Y-124605525D01*
X109452244Y-124605143D01*
X109455389Y-124594499D01*
X109461504Y-124586462D01*
X109474253Y-124580667D01*
X109497300Y-124576747D01*
X109534309Y-124574335D01*
X109588944Y-124573065D01*
X109664867Y-124572571D01*
X109765744Y-124572486D01*
X109778800Y-124572486D01*
X109882710Y-124572548D01*
D18*
X110202133Y-158248048D02*
X110202133Y-158538333D01*
X110182781Y-158596390D01*
X110144076Y-158635095D01*
X110086019Y-158654448D01*
X110047314Y-158654448D01*
X110608533Y-158654448D02*
X110376305Y-158654448D01*
X110492419Y-158654448D02*
X110492419Y-158248048D01*
X110453714Y-158306105D01*
X110415009Y-158344810D01*
X110376305Y-158364162D01*
X109476418Y-157359048D02*
X109340952Y-157165524D01*
X109244190Y-157359048D02*
X109244190Y-156952648D01*
X109399009Y-156952648D01*
X109437714Y-156972000D01*
X109457066Y-156991352D01*
X109476418Y-157030057D01*
X109476418Y-157088114D01*
X109457066Y-157126819D01*
X109437714Y-157146171D01*
X109399009Y-157165524D01*
X109244190Y-157165524D01*
X109766704Y-156952648D02*
X109766704Y-157242933D01*
X109747352Y-157300990D01*
X109708647Y-157339695D01*
X109650590Y-157359048D01*
X109611885Y-157359048D01*
X110173104Y-157359048D02*
X109940876Y-157359048D01*
X110056990Y-157359048D02*
X110056990Y-156952648D01*
X110018285Y-157010705D01*
X109979580Y-157049410D01*
X109940876Y-157068762D01*
X110560152Y-157359048D02*
X110327924Y-157359048D01*
X110444038Y-157359048D02*
X110444038Y-156952648D01*
X110405333Y-157010705D01*
X110366628Y-157049410D01*
X110327924Y-157068762D01*
X110734324Y-157204229D02*
X111043962Y-157204229D01*
X111411657Y-156952648D02*
X111334248Y-156952648D01*
X111295543Y-156972000D01*
X111276191Y-156991352D01*
X111237486Y-157049410D01*
X111218134Y-157126819D01*
X111218134Y-157281638D01*
X111237486Y-157320343D01*
X111256838Y-157339695D01*
X111295543Y-157359048D01*
X111372953Y-157359048D01*
X111411657Y-157339695D01*
X111431010Y-157320343D01*
X111450362Y-157281638D01*
X111450362Y-157184876D01*
X111431010Y-157146171D01*
X111411657Y-157126819D01*
X111372953Y-157107467D01*
X111295543Y-157107467D01*
X111256838Y-157126819D01*
X111237486Y-157146171D01*
X111218134Y-157184876D01*
D19*
X104546495Y-110831381D02*
X104546495Y-111640905D01*
X104594114Y-111736143D01*
X104641733Y-111783762D01*
X104736971Y-111831381D01*
X104927448Y-111831381D01*
X105022686Y-111783762D01*
X105070305Y-111736143D01*
X105117924Y-111640905D01*
X105117924Y-110831381D01*
X105546495Y-110926619D02*
X105594114Y-110879000D01*
X105689352Y-110831381D01*
X105927448Y-110831381D01*
X106022686Y-110879000D01*
X106070305Y-110926619D01*
X106117924Y-111021857D01*
X106117924Y-111117095D01*
X106070305Y-111259952D01*
X105498876Y-111831381D01*
X106117924Y-111831381D01*
X107347095Y-111332971D02*
X107680429Y-111332971D01*
X107823286Y-111856781D02*
X107347095Y-111856781D01*
X107347095Y-110856781D01*
X107823286Y-110856781D01*
X108204238Y-111809162D02*
X108347095Y-111856781D01*
X108585191Y-111856781D01*
X108680429Y-111809162D01*
X108728048Y-111761543D01*
X108775667Y-111666305D01*
X108775667Y-111571067D01*
X108728048Y-111475829D01*
X108680429Y-111428210D01*
X108585191Y-111380590D01*
X108394714Y-111332971D01*
X108299476Y-111285352D01*
X108251857Y-111237733D01*
X108204238Y-111142495D01*
X108204238Y-111047257D01*
X108251857Y-110952019D01*
X108299476Y-110904400D01*
X108394714Y-110856781D01*
X108632810Y-110856781D01*
X108775667Y-110904400D01*
X109204238Y-111856781D02*
X109204238Y-110856781D01*
X109585191Y-110856781D01*
X109680429Y-110904400D01*
X109728048Y-110952019D01*
X109775667Y-111047257D01*
X109775667Y-111190114D01*
X109728048Y-111285352D01*
X109680429Y-111332971D01*
X109585191Y-111380590D01*
X109204238Y-111380590D01*
X110204238Y-111475829D02*
X110966143Y-111475829D01*
X111632809Y-110856781D02*
X111728048Y-110856781D01*
X111823286Y-110904400D01*
X111870905Y-110952019D01*
X111918524Y-111047257D01*
X111966143Y-111237733D01*
X111966143Y-111475829D01*
X111918524Y-111666305D01*
X111870905Y-111761543D01*
X111823286Y-111809162D01*
X111728048Y-111856781D01*
X111632809Y-111856781D01*
X111537571Y-111809162D01*
X111489952Y-111761543D01*
X111442333Y-111666305D01*
X111394714Y-111475829D01*
X111394714Y-111237733D01*
X111442333Y-111047257D01*
X111489952Y-110952019D01*
X111537571Y-110904400D01*
X111632809Y-110856781D01*
X112918524Y-111856781D02*
X112347095Y-111856781D01*
X112632809Y-111856781D02*
X112632809Y-110856781D01*
X112537571Y-110999638D01*
X112442333Y-111094876D01*
X112347095Y-111142495D01*
X104420943Y-146216666D02*
X104468562Y-146264285D01*
X104516181Y-146407142D01*
X104516181Y-146502380D01*
X104468562Y-146645238D01*
X104373324Y-146740476D01*
X104278086Y-146788095D01*
X104087610Y-146835714D01*
X103944752Y-146835714D01*
X103754276Y-146788095D01*
X103659038Y-146740476D01*
X103563800Y-146645238D01*
X103516181Y-146502380D01*
X103516181Y-146407142D01*
X103563800Y-146264285D01*
X103611419Y-146216666D01*
X104516181Y-145264285D02*
X104516181Y-145835714D01*
X104516181Y-145550000D02*
X103516181Y-145550000D01*
X103659038Y-145645238D01*
X103754276Y-145740476D01*
X103801895Y-145835714D01*
X101644581Y-147331038D02*
X101644581Y-147902467D01*
X101644581Y-147616753D02*
X100644581Y-147616753D01*
X100787438Y-147711991D01*
X100882676Y-147807229D01*
X100930295Y-147902467D01*
X100977914Y-146473895D02*
X101644581Y-146473895D01*
X100977914Y-146902467D02*
X101501724Y-146902467D01*
X101596962Y-146854848D01*
X101644581Y-146759610D01*
X101644581Y-146616752D01*
X101596962Y-146521514D01*
X101549343Y-146473895D01*
X101120771Y-145664371D02*
X101120771Y-145997705D01*
X101644581Y-145997705D02*
X100644581Y-145997705D01*
X100644581Y-145521514D01*
X101230134Y-132640343D02*
X101182515Y-132687962D01*
X101039658Y-132735581D01*
X100944420Y-132735581D01*
X100801562Y-132687962D01*
X100706324Y-132592724D01*
X100658705Y-132497486D01*
X100611086Y-132307010D01*
X100611086Y-132164152D01*
X100658705Y-131973676D01*
X100706324Y-131878438D01*
X100801562Y-131783200D01*
X100944420Y-131735581D01*
X101039658Y-131735581D01*
X101182515Y-131783200D01*
X101230134Y-131830819D01*
X101611086Y-131830819D02*
X101658705Y-131783200D01*
X101753943Y-131735581D01*
X101992039Y-131735581D01*
X102087277Y-131783200D01*
X102134896Y-131830819D01*
X102182515Y-131926057D01*
X102182515Y-132021295D01*
X102134896Y-132164152D01*
X101563467Y-132735581D01*
X102182515Y-132735581D01*
X101065248Y-134624819D02*
X101112867Y-134577200D01*
X101208105Y-134529581D01*
X101446201Y-134529581D01*
X101541439Y-134577200D01*
X101589058Y-134624819D01*
X101636677Y-134720057D01*
X101636677Y-134815295D01*
X101589058Y-134958152D01*
X101017629Y-135529581D01*
X101636677Y-135529581D01*
X102065248Y-135434343D02*
X102112867Y-135481962D01*
X102065248Y-135529581D01*
X102017629Y-135481962D01*
X102065248Y-135434343D01*
X102065248Y-135529581D01*
X102493819Y-134624819D02*
X102541438Y-134577200D01*
X102636676Y-134529581D01*
X102874772Y-134529581D01*
X102970010Y-134577200D01*
X103017629Y-134624819D01*
X103065248Y-134720057D01*
X103065248Y-134815295D01*
X103017629Y-134958152D01*
X102446200Y-135529581D01*
X103065248Y-135529581D01*
X103922391Y-134862914D02*
X103922391Y-135529581D01*
X103493819Y-134862914D02*
X103493819Y-135386724D01*
X103541438Y-135481962D01*
X103636676Y-135529581D01*
X103779534Y-135529581D01*
X103874772Y-135481962D01*
X103922391Y-135434343D01*
X104731915Y-135005771D02*
X104398581Y-135005771D01*
X104398581Y-135529581D02*
X104398581Y-134529581D01*
X104874772Y-134529581D01*
X102576334Y-129445343D02*
X102528715Y-129492962D01*
X102385858Y-129540581D01*
X102290620Y-129540581D01*
X102147762Y-129492962D01*
X102052524Y-129397724D01*
X102004905Y-129302486D01*
X101957286Y-129112010D01*
X101957286Y-128969152D01*
X102004905Y-128778676D01*
X102052524Y-128683438D01*
X102147762Y-128588200D01*
X102290620Y-128540581D01*
X102385858Y-128540581D01*
X102528715Y-128588200D01*
X102576334Y-128635819D01*
X102909667Y-128540581D02*
X103528715Y-128540581D01*
X103195381Y-128921533D01*
X103338239Y-128921533D01*
X103433477Y-128969152D01*
X103481096Y-129016771D01*
X103528715Y-129112010D01*
X103528715Y-129350105D01*
X103481096Y-129445343D01*
X103433477Y-129492962D01*
X103338239Y-129540581D01*
X103052524Y-129540581D01*
X102957286Y-129492962D01*
X102909667Y-129445343D01*
X100719191Y-126790581D02*
X100147762Y-126790581D01*
X100433476Y-126790581D02*
X100433476Y-125790581D01*
X100338238Y-125933438D01*
X100243000Y-126028676D01*
X100147762Y-126076295D01*
X101338238Y-125790581D02*
X101433477Y-125790581D01*
X101528715Y-125838200D01*
X101576334Y-125885819D01*
X101623953Y-125981057D01*
X101671572Y-126171533D01*
X101671572Y-126409629D01*
X101623953Y-126600105D01*
X101576334Y-126695343D01*
X101528715Y-126742962D01*
X101433477Y-126790581D01*
X101338238Y-126790581D01*
X101243000Y-126742962D01*
X101195381Y-126695343D01*
X101147762Y-126600105D01*
X101100143Y-126409629D01*
X101100143Y-126171533D01*
X101147762Y-125981057D01*
X101195381Y-125885819D01*
X101243000Y-125838200D01*
X101338238Y-125790581D01*
X102290619Y-125790581D02*
X102385858Y-125790581D01*
X102481096Y-125838200D01*
X102528715Y-125885819D01*
X102576334Y-125981057D01*
X102623953Y-126171533D01*
X102623953Y-126409629D01*
X102576334Y-126600105D01*
X102528715Y-126695343D01*
X102481096Y-126742962D01*
X102385858Y-126790581D01*
X102290619Y-126790581D01*
X102195381Y-126742962D01*
X102147762Y-126695343D01*
X102100143Y-126600105D01*
X102052524Y-126409629D01*
X102052524Y-126171533D01*
X102100143Y-125981057D01*
X102147762Y-125885819D01*
X102195381Y-125838200D01*
X102290619Y-125790581D01*
X103243000Y-125790581D02*
X103338239Y-125790581D01*
X103433477Y-125838200D01*
X103481096Y-125885819D01*
X103528715Y-125981057D01*
X103576334Y-126171533D01*
X103576334Y-126409629D01*
X103528715Y-126600105D01*
X103481096Y-126695343D01*
X103433477Y-126742962D01*
X103338239Y-126790581D01*
X103243000Y-126790581D01*
X103147762Y-126742962D01*
X103100143Y-126695343D01*
X103052524Y-126600105D01*
X103004905Y-126409629D01*
X103004905Y-126171533D01*
X103052524Y-125981057D01*
X103100143Y-125885819D01*
X103147762Y-125838200D01*
X103243000Y-125790581D01*
X104433477Y-126123914D02*
X104433477Y-126790581D01*
X104004905Y-126123914D02*
X104004905Y-126647724D01*
X104052524Y-126742962D01*
X104147762Y-126790581D01*
X104290620Y-126790581D01*
X104385858Y-126742962D01*
X104433477Y-126695343D01*
X105243001Y-126266771D02*
X104909667Y-126266771D01*
X104909667Y-126790581D02*
X104909667Y-125790581D01*
X105385858Y-125790581D01*
X118759219Y-135451838D02*
X118711600Y-135547076D01*
X118616362Y-135642314D01*
X118473505Y-135785171D01*
X118425886Y-135880410D01*
X118425886Y-135975648D01*
X118663981Y-135928029D02*
X118616362Y-136023267D01*
X118521124Y-136118505D01*
X118330648Y-136166124D01*
X117997314Y-136166124D01*
X117806838Y-136118505D01*
X117711600Y-136023267D01*
X117663981Y-135928029D01*
X117663981Y-135737552D01*
X117711600Y-135642314D01*
X117806838Y-135547076D01*
X117997314Y-135499457D01*
X118330648Y-135499457D01*
X118521124Y-135547076D01*
X118616362Y-135642314D01*
X118663981Y-135737552D01*
X118663981Y-135928029D01*
X118663981Y-134547076D02*
X118663981Y-135118505D01*
X118663981Y-134832791D02*
X117663981Y-134832791D01*
X117806838Y-134928029D01*
X117902076Y-135023267D01*
X117949695Y-135118505D01*
X114482571Y-135384942D02*
X114530190Y-135242085D01*
X114577810Y-135194466D01*
X114673048Y-135146847D01*
X114815905Y-135146847D01*
X114911143Y-135194466D01*
X114958762Y-135242085D01*
X115006381Y-135337323D01*
X115006381Y-135718276D01*
X114006381Y-135718276D01*
X114006381Y-135384942D01*
X114054000Y-135289704D01*
X114101619Y-135242085D01*
X114196857Y-135194466D01*
X114292095Y-135194466D01*
X114387333Y-135242085D01*
X114434952Y-135289704D01*
X114482571Y-135384942D01*
X114482571Y-135718276D01*
X114911143Y-134146847D02*
X114958762Y-134194466D01*
X115006381Y-134337323D01*
X115006381Y-134432561D01*
X114958762Y-134575419D01*
X114863524Y-134670657D01*
X114768286Y-134718276D01*
X114577810Y-134765895D01*
X114434952Y-134765895D01*
X114244476Y-134718276D01*
X114149238Y-134670657D01*
X114054000Y-134575419D01*
X114006381Y-134432561D01*
X114006381Y-134337323D01*
X114054000Y-134194466D01*
X114101619Y-134146847D01*
X114434952Y-133575419D02*
X114387333Y-133670657D01*
X114339714Y-133718276D01*
X114244476Y-133765895D01*
X114196857Y-133765895D01*
X114101619Y-133718276D01*
X114054000Y-133670657D01*
X114006381Y-133575419D01*
X114006381Y-133384942D01*
X114054000Y-133289704D01*
X114101619Y-133242085D01*
X114196857Y-133194466D01*
X114244476Y-133194466D01*
X114339714Y-133242085D01*
X114387333Y-133289704D01*
X114434952Y-133384942D01*
X114434952Y-133575419D01*
X114482571Y-133670657D01*
X114530190Y-133718276D01*
X114625429Y-133765895D01*
X114815905Y-133765895D01*
X114911143Y-133718276D01*
X114958762Y-133670657D01*
X115006381Y-133575419D01*
X115006381Y-133384942D01*
X114958762Y-133289704D01*
X114911143Y-133242085D01*
X114815905Y-133194466D01*
X114625429Y-133194466D01*
X114530190Y-133242085D01*
X114482571Y-133289704D01*
X114434952Y-133384942D01*
X114339714Y-132337323D02*
X115006381Y-132337323D01*
X113958762Y-132575419D02*
X114673048Y-132813514D01*
X114673048Y-132194466D01*
X114006381Y-131908752D02*
X114006381Y-131242085D01*
X115006381Y-131670657D01*
D11*
X116792381Y-133700010D02*
X116744762Y-133676200D01*
X116697143Y-133628581D01*
X116625714Y-133557152D01*
X116578095Y-133533343D01*
X116530476Y-133533343D01*
X116554286Y-133652390D02*
X116506667Y-133628581D01*
X116459048Y-133580962D01*
X116435238Y-133485724D01*
X116435238Y-133319057D01*
X116459048Y-133223819D01*
X116506667Y-133176200D01*
X116554286Y-133152390D01*
X116649524Y-133152390D01*
X116697143Y-133176200D01*
X116744762Y-133223819D01*
X116768571Y-133319057D01*
X116768571Y-133485724D01*
X116744762Y-133580962D01*
X116697143Y-133628581D01*
X116649524Y-133652390D01*
X116554286Y-133652390D01*
X117244762Y-133652390D02*
X116959048Y-133652390D01*
X117101905Y-133652390D02*
X117101905Y-133152390D01*
X117054286Y-133223819D01*
X117006667Y-133271438D01*
X116959048Y-133295248D01*
D19*
X109383534Y-135275581D02*
X109050200Y-134799390D01*
X108812105Y-135275581D02*
X108812105Y-134275581D01*
X109193058Y-134275581D01*
X109288296Y-134323200D01*
X109335915Y-134370819D01*
X109383534Y-134466057D01*
X109383534Y-134608914D01*
X109335915Y-134704152D01*
X109288296Y-134751771D01*
X109193058Y-134799390D01*
X108812105Y-134799390D01*
X110335915Y-135275581D02*
X109764486Y-135275581D01*
X110050200Y-135275581D02*
X110050200Y-134275581D01*
X109954962Y-134418438D01*
X109859724Y-134513676D01*
X109764486Y-134561295D01*
X111818753Y-135250181D02*
X111247324Y-135250181D01*
X111533038Y-135250181D02*
X111533038Y-134250181D01*
X111437800Y-134393038D01*
X111342562Y-134488276D01*
X111247324Y-134535895D01*
X112247324Y-135250181D02*
X112247324Y-134250181D01*
X112342562Y-134869229D02*
X112628277Y-135250181D01*
X112628277Y-134583514D02*
X112247324Y-134964467D01*
D11*
X110651934Y-136274152D02*
X110518600Y-136083676D01*
X110423362Y-136274152D02*
X110423362Y-135874152D01*
X110575743Y-135874152D01*
X110613838Y-135893200D01*
X110632886Y-135912248D01*
X110651934Y-135950343D01*
X110651934Y-136007486D01*
X110632886Y-136045581D01*
X110613838Y-136064629D01*
X110575743Y-136083676D01*
X110423362Y-136083676D01*
X111032886Y-136274152D02*
X110804314Y-136274152D01*
X110918600Y-136274152D02*
X110918600Y-135874152D01*
X110880505Y-135931295D01*
X110842410Y-135969390D01*
X110804314Y-135988438D01*
D19*
X109358134Y-138729981D02*
X109024800Y-138253790D01*
X108786705Y-138729981D02*
X108786705Y-137729981D01*
X109167658Y-137729981D01*
X109262896Y-137777600D01*
X109310515Y-137825219D01*
X109358134Y-137920457D01*
X109358134Y-138063314D01*
X109310515Y-138158552D01*
X109262896Y-138206171D01*
X109167658Y-138253790D01*
X108786705Y-138253790D01*
X109739086Y-137825219D02*
X109786705Y-137777600D01*
X109881943Y-137729981D01*
X110120039Y-137729981D01*
X110215277Y-137777600D01*
X110262896Y-137825219D01*
X110310515Y-137920457D01*
X110310515Y-138015695D01*
X110262896Y-138158552D01*
X109691467Y-138729981D01*
X110310515Y-138729981D01*
X111152133Y-137825219D02*
X111199752Y-137777600D01*
X111294990Y-137729981D01*
X111533086Y-137729981D01*
X111628324Y-137777600D01*
X111675943Y-137825219D01*
X111723562Y-137920457D01*
X111723562Y-138015695D01*
X111675943Y-138158552D01*
X111104514Y-138729981D01*
X111723562Y-138729981D01*
X112152133Y-138729981D02*
X112152133Y-137729981D01*
X112247371Y-138349029D02*
X112533086Y-138729981D01*
X112533086Y-138063314D02*
X112152133Y-138444267D01*
X112914038Y-137825219D02*
X112961657Y-137777600D01*
X113056895Y-137729981D01*
X113294991Y-137729981D01*
X113390229Y-137777600D01*
X113437848Y-137825219D01*
X113485467Y-137920457D01*
X113485467Y-138015695D01*
X113437848Y-138158552D01*
X112866419Y-138729981D01*
X113485467Y-138729981D01*
D11*
X110626534Y-139728552D02*
X110493200Y-139538076D01*
X110397962Y-139728552D02*
X110397962Y-139328552D01*
X110550343Y-139328552D01*
X110588438Y-139347600D01*
X110607486Y-139366648D01*
X110626534Y-139404743D01*
X110626534Y-139461886D01*
X110607486Y-139499981D01*
X110588438Y-139519029D01*
X110550343Y-139538076D01*
X110397962Y-139538076D01*
X110778914Y-139366648D02*
X110797962Y-139347600D01*
X110836057Y-139328552D01*
X110931295Y-139328552D01*
X110969391Y-139347600D01*
X110988438Y-139366648D01*
X111007486Y-139404743D01*
X111007486Y-139442838D01*
X110988438Y-139499981D01*
X110759867Y-139728552D01*
X111007486Y-139728552D01*
D19*
X115200134Y-126357981D02*
X114866800Y-125881790D01*
X114628705Y-126357981D02*
X114628705Y-125357981D01*
X115009658Y-125357981D01*
X115104896Y-125405600D01*
X115152515Y-125453219D01*
X115200134Y-125548457D01*
X115200134Y-125691314D01*
X115152515Y-125786552D01*
X115104896Y-125834171D01*
X115009658Y-125881790D01*
X114628705Y-125881790D01*
X115533467Y-125357981D02*
X116152515Y-125357981D01*
X115819181Y-125738933D01*
X115962039Y-125738933D01*
X116057277Y-125786552D01*
X116104896Y-125834171D01*
X116152515Y-125929410D01*
X116152515Y-126167505D01*
X116104896Y-126262743D01*
X116057277Y-126310362D01*
X115962039Y-126357981D01*
X115676324Y-126357981D01*
X115581086Y-126310362D01*
X115533467Y-126262743D01*
X113962038Y-128453219D02*
X114009657Y-128405600D01*
X114104895Y-128357981D01*
X114342991Y-128357981D01*
X114438229Y-128405600D01*
X114485848Y-128453219D01*
X114533467Y-128548457D01*
X114533467Y-128643695D01*
X114485848Y-128786552D01*
X113914419Y-129357981D01*
X114533467Y-129357981D01*
X114962038Y-129262743D02*
X115009657Y-129310362D01*
X114962038Y-129357981D01*
X114914419Y-129310362D01*
X114962038Y-129262743D01*
X114962038Y-129357981D01*
X115390609Y-128453219D02*
X115438228Y-128405600D01*
X115533466Y-128357981D01*
X115771562Y-128357981D01*
X115866800Y-128405600D01*
X115914419Y-128453219D01*
X115962038Y-128548457D01*
X115962038Y-128643695D01*
X115914419Y-128786552D01*
X115342990Y-129357981D01*
X115962038Y-129357981D01*
X116390609Y-129357981D02*
X116390609Y-128357981D01*
X116485847Y-128977029D02*
X116771562Y-129357981D01*
X116771562Y-128691314D02*
X116390609Y-129072267D01*
D11*
X115300134Y-127536552D02*
X115166800Y-127346076D01*
X115071562Y-127536552D02*
X115071562Y-127136552D01*
X115223943Y-127136552D01*
X115262038Y-127155600D01*
X115281086Y-127174648D01*
X115300134Y-127212743D01*
X115300134Y-127269886D01*
X115281086Y-127307981D01*
X115262038Y-127327029D01*
X115223943Y-127346076D01*
X115071562Y-127346076D01*
X115433467Y-127136552D02*
X115681086Y-127136552D01*
X115547753Y-127288933D01*
X115604895Y-127288933D01*
X115642991Y-127307981D01*
X115662038Y-127327029D01*
X115681086Y-127365124D01*
X115681086Y-127460362D01*
X115662038Y-127498457D01*
X115642991Y-127517505D01*
X115604895Y-127536552D01*
X115490610Y-127536552D01*
X115452514Y-127517505D01*
X115433467Y-127498457D01*
D19*
X113329981Y-123255066D02*
X112853790Y-123588400D01*
X113329981Y-123826495D02*
X112329981Y-123826495D01*
X112329981Y-123445542D01*
X112377600Y-123350304D01*
X112425219Y-123302685D01*
X112520457Y-123255066D01*
X112663314Y-123255066D01*
X112758552Y-123302685D01*
X112806171Y-123350304D01*
X112853790Y-123445542D01*
X112853790Y-123826495D01*
X112663314Y-122397923D02*
X113329981Y-122397923D01*
X112282362Y-122636019D02*
X112996648Y-122874114D01*
X112996648Y-122255066D01*
X113380781Y-120534038D02*
X113380781Y-121105467D01*
X113380781Y-120819753D02*
X112380781Y-120819753D01*
X112523638Y-120914991D01*
X112618876Y-121010229D01*
X112666495Y-121105467D01*
X112380781Y-119914991D02*
X112380781Y-119819752D01*
X112428400Y-119724514D01*
X112476019Y-119676895D01*
X112571257Y-119629276D01*
X112761733Y-119581657D01*
X112999829Y-119581657D01*
X113190305Y-119629276D01*
X113285543Y-119676895D01*
X113333162Y-119724514D01*
X113380781Y-119819752D01*
X113380781Y-119914991D01*
X113333162Y-120010229D01*
X113285543Y-120057848D01*
X113190305Y-120105467D01*
X112999829Y-120153086D01*
X112761733Y-120153086D01*
X112571257Y-120105467D01*
X112476019Y-120057848D01*
X112428400Y-120010229D01*
X112380781Y-119914991D01*
X113380781Y-119153086D02*
X112380781Y-119153086D01*
X112999829Y-119057848D02*
X113380781Y-118772133D01*
X112714114Y-118772133D02*
X113095067Y-119153086D01*
X108783381Y-123280466D02*
X108307190Y-123613800D01*
X108783381Y-123851895D02*
X107783381Y-123851895D01*
X107783381Y-123470942D01*
X107831000Y-123375704D01*
X107878619Y-123328085D01*
X107973857Y-123280466D01*
X108116714Y-123280466D01*
X108211952Y-123328085D01*
X108259571Y-123375704D01*
X108307190Y-123470942D01*
X108307190Y-123851895D01*
X107783381Y-122375704D02*
X107783381Y-122851895D01*
X108259571Y-122899514D01*
X108211952Y-122851895D01*
X108164333Y-122756657D01*
X108164333Y-122518561D01*
X108211952Y-122423323D01*
X108259571Y-122375704D01*
X108354810Y-122328085D01*
X108592905Y-122328085D01*
X108688143Y-122375704D01*
X108735762Y-122423323D01*
X108783381Y-122518561D01*
X108783381Y-122756657D01*
X108735762Y-122851895D01*
X108688143Y-122899514D01*
X108707181Y-120610238D02*
X108707181Y-121181667D01*
X108707181Y-120895953D02*
X107707181Y-120895953D01*
X107850038Y-120991191D01*
X107945276Y-121086429D01*
X107992895Y-121181667D01*
X107707181Y-119991191D02*
X107707181Y-119895952D01*
X107754800Y-119800714D01*
X107802419Y-119753095D01*
X107897657Y-119705476D01*
X108088133Y-119657857D01*
X108326229Y-119657857D01*
X108516705Y-119705476D01*
X108611943Y-119753095D01*
X108659562Y-119800714D01*
X108707181Y-119895952D01*
X108707181Y-119991191D01*
X108659562Y-120086429D01*
X108611943Y-120134048D01*
X108516705Y-120181667D01*
X108326229Y-120229286D01*
X108088133Y-120229286D01*
X107897657Y-120181667D01*
X107802419Y-120134048D01*
X107754800Y-120086429D01*
X107707181Y-119991191D01*
X108707181Y-119229286D02*
X107707181Y-119229286D01*
X108326229Y-119134048D02*
X108707181Y-118848333D01*
X108040514Y-118848333D02*
X108421467Y-119229286D01*
X104820981Y-123280466D02*
X104344790Y-123613800D01*
X104820981Y-123851895D02*
X103820981Y-123851895D01*
X103820981Y-123470942D01*
X103868600Y-123375704D01*
X103916219Y-123328085D01*
X104011457Y-123280466D01*
X104154314Y-123280466D01*
X104249552Y-123328085D01*
X104297171Y-123375704D01*
X104344790Y-123470942D01*
X104344790Y-123851895D01*
X103820981Y-122423323D02*
X103820981Y-122613800D01*
X103868600Y-122709038D01*
X103916219Y-122756657D01*
X104059076Y-122851895D01*
X104249552Y-122899514D01*
X104630505Y-122899514D01*
X104725743Y-122851895D01*
X104773362Y-122804276D01*
X104820981Y-122709038D01*
X104820981Y-122518561D01*
X104773362Y-122423323D01*
X104725743Y-122375704D01*
X104630505Y-122328085D01*
X104392410Y-122328085D01*
X104297171Y-122375704D01*
X104249552Y-122423323D01*
X104201933Y-122518561D01*
X104201933Y-122709038D01*
X104249552Y-122804276D01*
X104297171Y-122851895D01*
X104392410Y-122899514D01*
X104795581Y-120686438D02*
X104795581Y-121257867D01*
X104795581Y-120972153D02*
X103795581Y-120972153D01*
X103938438Y-121067391D01*
X104033676Y-121162629D01*
X104081295Y-121257867D01*
X103795581Y-120067391D02*
X103795581Y-119972152D01*
X103843200Y-119876914D01*
X103890819Y-119829295D01*
X103986057Y-119781676D01*
X104176533Y-119734057D01*
X104414629Y-119734057D01*
X104605105Y-119781676D01*
X104700343Y-119829295D01*
X104747962Y-119876914D01*
X104795581Y-119972152D01*
X104795581Y-120067391D01*
X104747962Y-120162629D01*
X104700343Y-120210248D01*
X104605105Y-120257867D01*
X104414629Y-120305486D01*
X104176533Y-120305486D01*
X103986057Y-120257867D01*
X103890819Y-120210248D01*
X103843200Y-120162629D01*
X103795581Y-120067391D01*
X104795581Y-119305486D02*
X103795581Y-119305486D01*
X104414629Y-119210248D02*
X104795581Y-118924533D01*
X104128914Y-118924533D02*
X104509867Y-119305486D01*
X101054305Y-139999981D02*
X101054305Y-138999981D01*
X101387639Y-139714267D01*
X101720972Y-138999981D01*
X101720972Y-139999981D01*
X102768591Y-139904743D02*
X102720972Y-139952362D01*
X102578115Y-139999981D01*
X102482877Y-139999981D01*
X102340019Y-139952362D01*
X102244781Y-139857124D01*
X102197162Y-139761886D01*
X102149543Y-139571410D01*
X102149543Y-139428552D01*
X102197162Y-139238076D01*
X102244781Y-139142838D01*
X102340019Y-139047600D01*
X102482877Y-138999981D01*
X102578115Y-138999981D01*
X102720972Y-139047600D01*
X102768591Y-139095219D01*
X103197162Y-139999981D02*
X103197162Y-138999981D01*
X103578115Y-138999981D01*
X103673353Y-139047600D01*
X103720972Y-139095219D01*
X103768591Y-139190457D01*
X103768591Y-139333314D01*
X103720972Y-139428552D01*
X103673353Y-139476171D01*
X103578115Y-139523790D01*
X103197162Y-139523790D01*
X104720972Y-139999981D02*
X104149543Y-139999981D01*
X104435257Y-139999981D02*
X104435257Y-138999981D01*
X104340019Y-139142838D01*
X104244781Y-139238076D01*
X104149543Y-139285695D01*
X105054305Y-138999981D02*
X105720972Y-138999981D01*
X105292400Y-139999981D01*
X106292400Y-138999981D02*
X106387639Y-138999981D01*
X106482877Y-139047600D01*
X106530496Y-139095219D01*
X106578115Y-139190457D01*
X106625734Y-139380933D01*
X106625734Y-139619029D01*
X106578115Y-139809505D01*
X106530496Y-139904743D01*
X106482877Y-139952362D01*
X106387639Y-139999981D01*
X106292400Y-139999981D01*
X106197162Y-139952362D01*
X106149543Y-139904743D01*
X106101924Y-139809505D01*
X106054305Y-139619029D01*
X106054305Y-139380933D01*
X106101924Y-139190457D01*
X106149543Y-139095219D01*
X106197162Y-139047600D01*
X106292400Y-138999981D01*
X107244781Y-138999981D02*
X107340020Y-138999981D01*
X107435258Y-139047600D01*
X107482877Y-139095219D01*
X107530496Y-139190457D01*
X107578115Y-139380933D01*
X107578115Y-139619029D01*
X107530496Y-139809505D01*
X107482877Y-139904743D01*
X107435258Y-139952362D01*
X107340020Y-139999981D01*
X107244781Y-139999981D01*
X107149543Y-139952362D01*
X107101924Y-139904743D01*
X107054305Y-139809505D01*
X107006686Y-139619029D01*
X107006686Y-139380933D01*
X107054305Y-139190457D01*
X107101924Y-139095219D01*
X107149543Y-139047600D01*
X107244781Y-138999981D01*
X116952781Y-143427295D02*
X116952781Y-142808247D01*
X117333733Y-143141581D01*
X117333733Y-142998723D01*
X117381352Y-142903485D01*
X117428971Y-142855866D01*
X117524210Y-142808247D01*
X117762305Y-142808247D01*
X117857543Y-142855866D01*
X117905162Y-142903485D01*
X117952781Y-142998723D01*
X117952781Y-143284438D01*
X117905162Y-143379676D01*
X117857543Y-143427295D01*
X116952781Y-142522533D02*
X117952781Y-142189200D01*
X116952781Y-141855866D01*
X116952781Y-141617771D02*
X116952781Y-140998723D01*
X117333733Y-141332057D01*
X117333733Y-141189199D01*
X117381352Y-141093961D01*
X117428971Y-141046342D01*
X117524210Y-140998723D01*
X117762305Y-140998723D01*
X117857543Y-141046342D01*
X117905162Y-141093961D01*
X117952781Y-141189199D01*
X117952781Y-141474914D01*
X117905162Y-141570152D01*
X117857543Y-141617771D01*
X116927381Y-145605476D02*
X116927381Y-146081667D01*
X117403571Y-146129286D01*
X117355952Y-146081667D01*
X117308333Y-145986429D01*
X117308333Y-145748333D01*
X117355952Y-145653095D01*
X117403571Y-145605476D01*
X117498810Y-145557857D01*
X117736905Y-145557857D01*
X117832143Y-145605476D01*
X117879762Y-145653095D01*
X117927381Y-145748333D01*
X117927381Y-145986429D01*
X117879762Y-146081667D01*
X117832143Y-146129286D01*
X116927381Y-145272143D02*
X117927381Y-144938810D01*
X116927381Y-144605476D01*
X116924200Y-139826904D02*
X116876581Y-139922142D01*
X116876581Y-140064999D01*
X116924200Y-140207857D01*
X117019438Y-140303095D01*
X117114676Y-140350714D01*
X117305152Y-140398333D01*
X117448010Y-140398333D01*
X117638486Y-140350714D01*
X117733724Y-140303095D01*
X117828962Y-140207857D01*
X117876581Y-140064999D01*
X117876581Y-139969761D01*
X117828962Y-139826904D01*
X117781343Y-139779285D01*
X117448010Y-139779285D01*
X117448010Y-139969761D01*
X117876581Y-139350714D02*
X116876581Y-139350714D01*
X117876581Y-138779285D01*
X116876581Y-138779285D01*
X117876581Y-138303095D02*
X116876581Y-138303095D01*
X116876581Y-138065000D01*
X116924200Y-137922142D01*
X117019438Y-137826904D01*
X117114676Y-137779285D01*
X117305152Y-137731666D01*
X117448010Y-137731666D01*
X117638486Y-137779285D01*
X117733724Y-137826904D01*
X117828962Y-137922142D01*
X117876581Y-138065000D01*
X117876581Y-138303095D01*
M02*
