%FSLAX45Y45*%
G04 Gerber Fmt 4.5, Leading zero omitted, Abs format (unit mm)*
G04 Created by KiCad (PCBNEW 4.0.7) date 12/21/18 01:01:43*
%MOMM*%
%LPD*%
G01*
G04 APERTURE LIST*
%ADD10C,0.127000*%
%ADD11C,0.200000*%
%ADD12C,0.300000*%
G04 APERTURE END LIST*
D10*
D11*
X9961920Y-16016000D02*
X11961920Y-16016000D01*
X11961920Y-11016000D02*
X11961920Y-16016000D01*
X9961920Y-11016000D02*
X11961920Y-11016000D01*
X9961920Y-11016000D02*
X9961920Y-16016000D01*
D11*
X10733760Y-15140260D02*
X10823760Y-15230260D01*
X10823760Y-15140260D02*
X10733760Y-15230260D01*
X10835760Y-14886260D02*
X10925760Y-14976260D01*
X10925760Y-14886260D02*
X10835760Y-14976260D01*
X10937760Y-15140260D02*
X11027760Y-15230260D01*
X11027760Y-15140260D02*
X10937760Y-15230260D01*
X11039760Y-14886260D02*
X11129760Y-14976260D01*
X11129760Y-14886260D02*
X11039760Y-14976260D01*
X11141760Y-15140260D02*
X11231760Y-15230260D01*
X11231760Y-15140260D02*
X11141760Y-15230260D01*
X11243760Y-14886260D02*
X11333760Y-14976260D01*
X11333760Y-14886260D02*
X11243760Y-14976260D01*
X10665460Y-11430000D02*
G75*
G03X10665460Y-11430000I-50800J0D01*
G01*
X10665460Y-11684000D02*
G75*
G03X10665460Y-11684000I-50800J0D01*
G01*
X10919460Y-11430000D02*
G75*
G03X10919460Y-11430000I-50800J0D01*
G01*
X10919460Y-11684000D02*
G75*
G03X10919460Y-11684000I-50800J0D01*
G01*
X11173460Y-11430000D02*
G75*
G03X11173460Y-11430000I-50800J0D01*
G01*
X11173460Y-11684000D02*
G75*
G03X11173460Y-11684000I-50800J0D01*
G01*
X11427460Y-11430000D02*
G75*
G03X11427460Y-11430000I-50800J0D01*
G01*
X11427460Y-11684000D02*
G75*
G03X11427460Y-11684000I-50800J0D01*
G01*
D12*
X10223349Y-16491714D02*
X10223349Y-16191714D01*
X10294777Y-16191714D01*
X10337634Y-16206000D01*
X10366206Y-16234571D01*
X10380491Y-16263143D01*
X10394777Y-16320286D01*
X10394777Y-16363143D01*
X10380491Y-16420286D01*
X10366206Y-16448857D01*
X10337634Y-16477429D01*
X10294777Y-16491714D01*
X10223349Y-16491714D01*
X10523349Y-16491714D02*
X10523349Y-16291714D01*
X10523349Y-16348857D02*
X10537634Y-16320286D01*
X10551920Y-16306000D01*
X10580491Y-16291714D01*
X10609063Y-16291714D01*
X10709063Y-16491714D02*
X10709063Y-16291714D01*
X10709063Y-16191714D02*
X10694777Y-16206000D01*
X10709063Y-16220286D01*
X10723349Y-16206000D01*
X10709063Y-16191714D01*
X10709063Y-16220286D01*
X10894777Y-16491714D02*
X10866206Y-16477429D01*
X10851920Y-16448857D01*
X10851920Y-16191714D01*
X11051920Y-16491714D02*
X11023349Y-16477429D01*
X11009063Y-16448857D01*
X11009063Y-16191714D01*
X11394777Y-16491714D02*
X11394777Y-16191714D01*
X11494777Y-16406000D01*
X11594777Y-16191714D01*
X11594777Y-16491714D01*
X11866206Y-16491714D02*
X11866206Y-16334571D01*
X11851920Y-16306000D01*
X11823348Y-16291714D01*
X11766206Y-16291714D01*
X11737634Y-16306000D01*
X11866206Y-16477429D02*
X11837634Y-16491714D01*
X11766206Y-16491714D01*
X11737634Y-16477429D01*
X11723348Y-16448857D01*
X11723348Y-16420286D01*
X11737634Y-16391714D01*
X11766206Y-16377429D01*
X11837634Y-16377429D01*
X11866206Y-16363143D01*
X12009063Y-16291714D02*
X12009063Y-16591714D01*
X12009063Y-16306000D02*
X12037634Y-16291714D01*
X12094777Y-16291714D01*
X12123348Y-16306000D01*
X12137634Y-16320286D01*
X12151920Y-16348857D01*
X12151920Y-16434571D01*
X12137634Y-16463143D01*
X12123348Y-16477429D01*
X12094777Y-16491714D01*
X12037634Y-16491714D01*
X12009063Y-16477429D01*
X12280491Y-16463143D02*
X12294777Y-16477429D01*
X12280491Y-16491714D01*
X12266206Y-16477429D01*
X12280491Y-16463143D01*
X12280491Y-16491714D01*
X12280491Y-16306000D02*
X12294777Y-16320286D01*
X12280491Y-16334571D01*
X12266206Y-16320286D01*
X12280491Y-16306000D01*
X12280491Y-16334571D01*
X9861920Y-16941000D02*
X9951920Y-17031000D01*
X9951920Y-16941000D02*
X9861920Y-17031000D01*
X10280491Y-16821714D02*
X10309063Y-16821714D01*
X10337634Y-16836000D01*
X10351920Y-16850286D01*
X10366206Y-16878857D01*
X10380491Y-16936000D01*
X10380491Y-17007429D01*
X10366206Y-17064572D01*
X10351920Y-17093143D01*
X10337634Y-17107429D01*
X10309063Y-17121714D01*
X10280491Y-17121714D01*
X10251920Y-17107429D01*
X10237634Y-17093143D01*
X10223349Y-17064572D01*
X10209063Y-17007429D01*
X10209063Y-16936000D01*
X10223349Y-16878857D01*
X10237634Y-16850286D01*
X10251920Y-16836000D01*
X10280491Y-16821714D01*
X10509063Y-17093143D02*
X10523349Y-17107429D01*
X10509063Y-17121714D01*
X10494777Y-17107429D01*
X10509063Y-17093143D01*
X10509063Y-17121714D01*
X10666206Y-17121714D02*
X10723348Y-17121714D01*
X10751920Y-17107429D01*
X10766206Y-17093143D01*
X10794777Y-17050286D01*
X10809063Y-16993143D01*
X10809063Y-16878857D01*
X10794777Y-16850286D01*
X10780491Y-16836000D01*
X10751920Y-16821714D01*
X10694777Y-16821714D01*
X10666206Y-16836000D01*
X10651920Y-16850286D01*
X10637634Y-16878857D01*
X10637634Y-16950286D01*
X10651920Y-16978857D01*
X10666206Y-16993143D01*
X10694777Y-17007429D01*
X10751920Y-17007429D01*
X10780491Y-16993143D01*
X10794777Y-16978857D01*
X10809063Y-16950286D01*
X10994777Y-16821714D02*
X11023349Y-16821714D01*
X11051920Y-16836000D01*
X11066206Y-16850286D01*
X11080491Y-16878857D01*
X11094777Y-16936000D01*
X11094777Y-17007429D01*
X11080491Y-17064572D01*
X11066206Y-17093143D01*
X11051920Y-17107429D01*
X11023349Y-17121714D01*
X10994777Y-17121714D01*
X10966206Y-17107429D01*
X10951920Y-17093143D01*
X10937634Y-17064572D01*
X10923349Y-17007429D01*
X10923349Y-16936000D01*
X10937634Y-16878857D01*
X10951920Y-16850286D01*
X10966206Y-16836000D01*
X10994777Y-16821714D01*
X11223348Y-17121714D02*
X11223348Y-16921714D01*
X11223348Y-16950286D02*
X11237634Y-16936000D01*
X11266206Y-16921714D01*
X11309063Y-16921714D01*
X11337634Y-16936000D01*
X11351920Y-16964572D01*
X11351920Y-17121714D01*
X11351920Y-16964572D02*
X11366206Y-16936000D01*
X11394777Y-16921714D01*
X11437634Y-16921714D01*
X11466206Y-16936000D01*
X11480491Y-16964572D01*
X11480491Y-17121714D01*
X11623348Y-17121714D02*
X11623348Y-16921714D01*
X11623348Y-16950286D02*
X11637634Y-16936000D01*
X11666206Y-16921714D01*
X11709063Y-16921714D01*
X11737634Y-16936000D01*
X11751920Y-16964572D01*
X11751920Y-17121714D01*
X11751920Y-16964572D02*
X11766206Y-16936000D01*
X11794777Y-16921714D01*
X11837634Y-16921714D01*
X11866206Y-16936000D01*
X11880491Y-16964572D01*
X11880491Y-17121714D01*
X12466206Y-16807429D02*
X12209063Y-17193143D01*
X12851920Y-16821714D02*
X12880491Y-16821714D01*
X12909063Y-16836000D01*
X12923348Y-16850286D01*
X12937634Y-16878857D01*
X12951920Y-16936000D01*
X12951920Y-17007429D01*
X12937634Y-17064572D01*
X12923348Y-17093143D01*
X12909063Y-17107429D01*
X12880491Y-17121714D01*
X12851920Y-17121714D01*
X12823348Y-17107429D01*
X12809063Y-17093143D01*
X12794777Y-17064572D01*
X12780491Y-17007429D01*
X12780491Y-16936000D01*
X12794777Y-16878857D01*
X12809063Y-16850286D01*
X12823348Y-16836000D01*
X12851920Y-16821714D01*
X13080491Y-17093143D02*
X13094777Y-17107429D01*
X13080491Y-17121714D01*
X13066206Y-17107429D01*
X13080491Y-17093143D01*
X13080491Y-17121714D01*
X13280491Y-16821714D02*
X13309063Y-16821714D01*
X13337634Y-16836000D01*
X13351920Y-16850286D01*
X13366205Y-16878857D01*
X13380491Y-16936000D01*
X13380491Y-17007429D01*
X13366205Y-17064572D01*
X13351920Y-17093143D01*
X13337634Y-17107429D01*
X13309063Y-17121714D01*
X13280491Y-17121714D01*
X13251920Y-17107429D01*
X13237634Y-17093143D01*
X13223348Y-17064572D01*
X13209063Y-17007429D01*
X13209063Y-16936000D01*
X13223348Y-16878857D01*
X13237634Y-16850286D01*
X13251920Y-16836000D01*
X13280491Y-16821714D01*
X13480491Y-16821714D02*
X13666205Y-16821714D01*
X13566205Y-16936000D01*
X13609063Y-16936000D01*
X13637634Y-16950286D01*
X13651920Y-16964572D01*
X13666205Y-16993143D01*
X13666205Y-17064572D01*
X13651920Y-17093143D01*
X13637634Y-17107429D01*
X13609063Y-17121714D01*
X13523348Y-17121714D01*
X13494777Y-17107429D01*
X13480491Y-17093143D01*
X13937634Y-16821714D02*
X13794777Y-16821714D01*
X13780491Y-16964572D01*
X13794777Y-16950286D01*
X13823348Y-16936000D01*
X13894777Y-16936000D01*
X13923348Y-16950286D01*
X13937634Y-16964572D01*
X13951920Y-16993143D01*
X13951920Y-17064572D01*
X13937634Y-17093143D01*
X13923348Y-17107429D01*
X13894777Y-17121714D01*
X13823348Y-17121714D01*
X13794777Y-17107429D01*
X13780491Y-17093143D01*
X14066206Y-16821714D02*
X14066206Y-16878857D01*
X14180491Y-16821714D02*
X14180491Y-16878857D01*
X14623348Y-17236000D02*
X14609063Y-17221714D01*
X14580491Y-17178857D01*
X14566205Y-17150286D01*
X14551920Y-17107429D01*
X14537634Y-17036000D01*
X14537634Y-16978857D01*
X14551920Y-16907429D01*
X14566205Y-16864572D01*
X14580491Y-16836000D01*
X14609063Y-16793143D01*
X14623348Y-16778857D01*
X14866205Y-16821714D02*
X14809063Y-16821714D01*
X14780491Y-16836000D01*
X14766205Y-16850286D01*
X14737634Y-16893143D01*
X14723348Y-16950286D01*
X14723348Y-17064572D01*
X14737634Y-17093143D01*
X14751920Y-17107429D01*
X14780491Y-17121714D01*
X14837634Y-17121714D01*
X14866205Y-17107429D01*
X14880491Y-17093143D01*
X14894777Y-17064572D01*
X14894777Y-16993143D01*
X14880491Y-16964572D01*
X14866205Y-16950286D01*
X14837634Y-16936000D01*
X14780491Y-16936000D01*
X14751920Y-16950286D01*
X14737634Y-16964572D01*
X14723348Y-16993143D01*
X15251920Y-17121714D02*
X15251920Y-16821714D01*
X15380491Y-17121714D02*
X15380491Y-16964572D01*
X15366205Y-16936000D01*
X15337634Y-16921714D01*
X15294777Y-16921714D01*
X15266205Y-16936000D01*
X15251920Y-16950286D01*
X15566205Y-17121714D02*
X15537634Y-17107429D01*
X15523348Y-17093143D01*
X15509063Y-17064572D01*
X15509063Y-16978857D01*
X15523348Y-16950286D01*
X15537634Y-16936000D01*
X15566205Y-16921714D01*
X15609063Y-16921714D01*
X15637634Y-16936000D01*
X15651920Y-16950286D01*
X15666205Y-16978857D01*
X15666205Y-17064572D01*
X15651920Y-17093143D01*
X15637634Y-17107429D01*
X15609063Y-17121714D01*
X15566205Y-17121714D01*
X15837634Y-17121714D02*
X15809063Y-17107429D01*
X15794777Y-17078857D01*
X15794777Y-16821714D01*
X16066206Y-17107429D02*
X16037634Y-17121714D01*
X15980491Y-17121714D01*
X15951920Y-17107429D01*
X15937634Y-17078857D01*
X15937634Y-16964572D01*
X15951920Y-16936000D01*
X15980491Y-16921714D01*
X16037634Y-16921714D01*
X16066206Y-16936000D01*
X16080491Y-16964572D01*
X16080491Y-16993143D01*
X15937634Y-17021714D01*
X16194777Y-17107429D02*
X16223348Y-17121714D01*
X16280491Y-17121714D01*
X16309063Y-17107429D01*
X16323348Y-17078857D01*
X16323348Y-17064572D01*
X16309063Y-17036000D01*
X16280491Y-17021714D01*
X16237634Y-17021714D01*
X16209063Y-17007429D01*
X16194777Y-16978857D01*
X16194777Y-16964572D01*
X16209063Y-16936000D01*
X16237634Y-16921714D01*
X16280491Y-16921714D01*
X16309063Y-16936000D01*
X16423348Y-17236000D02*
X16437634Y-17221714D01*
X16466206Y-17178857D01*
X16480491Y-17150286D01*
X16494777Y-17107429D01*
X16509063Y-17036000D01*
X16509063Y-16978857D01*
X16494777Y-16907429D01*
X16480491Y-16864572D01*
X16466206Y-16836000D01*
X16437634Y-16793143D01*
X16423348Y-16778857D01*
X9951920Y-17382000D02*
G75*
G03X9951920Y-17382000I-50800J0D01*
G01*
X10380491Y-17517714D02*
X10209063Y-17517714D01*
X10294777Y-17517714D02*
X10294777Y-17217714D01*
X10266206Y-17260572D01*
X10237634Y-17289143D01*
X10209063Y-17303429D01*
X10509063Y-17489143D02*
X10523349Y-17503429D01*
X10509063Y-17517714D01*
X10494777Y-17503429D01*
X10509063Y-17489143D01*
X10509063Y-17517714D01*
X10709063Y-17217714D02*
X10737634Y-17217714D01*
X10766206Y-17232000D01*
X10780491Y-17246286D01*
X10794777Y-17274857D01*
X10809063Y-17332000D01*
X10809063Y-17403429D01*
X10794777Y-17460572D01*
X10780491Y-17489143D01*
X10766206Y-17503429D01*
X10737634Y-17517714D01*
X10709063Y-17517714D01*
X10680491Y-17503429D01*
X10666206Y-17489143D01*
X10651920Y-17460572D01*
X10637634Y-17403429D01*
X10637634Y-17332000D01*
X10651920Y-17274857D01*
X10666206Y-17246286D01*
X10680491Y-17232000D01*
X10709063Y-17217714D01*
X10923349Y-17246286D02*
X10937634Y-17232000D01*
X10966206Y-17217714D01*
X11037634Y-17217714D01*
X11066206Y-17232000D01*
X11080491Y-17246286D01*
X11094777Y-17274857D01*
X11094777Y-17303429D01*
X11080491Y-17346286D01*
X10909063Y-17517714D01*
X11094777Y-17517714D01*
X11223348Y-17517714D02*
X11223348Y-17317714D01*
X11223348Y-17346286D02*
X11237634Y-17332000D01*
X11266206Y-17317714D01*
X11309063Y-17317714D01*
X11337634Y-17332000D01*
X11351920Y-17360572D01*
X11351920Y-17517714D01*
X11351920Y-17360572D02*
X11366206Y-17332000D01*
X11394777Y-17317714D01*
X11437634Y-17317714D01*
X11466206Y-17332000D01*
X11480491Y-17360572D01*
X11480491Y-17517714D01*
X11623348Y-17517714D02*
X11623348Y-17317714D01*
X11623348Y-17346286D02*
X11637634Y-17332000D01*
X11666206Y-17317714D01*
X11709063Y-17317714D01*
X11737634Y-17332000D01*
X11751920Y-17360572D01*
X11751920Y-17517714D01*
X11751920Y-17360572D02*
X11766206Y-17332000D01*
X11794777Y-17317714D01*
X11837634Y-17317714D01*
X11866206Y-17332000D01*
X11880491Y-17360572D01*
X11880491Y-17517714D01*
X12466206Y-17203429D02*
X12209063Y-17589143D01*
X12851920Y-17217714D02*
X12880491Y-17217714D01*
X12909063Y-17232000D01*
X12923348Y-17246286D01*
X12937634Y-17274857D01*
X12951920Y-17332000D01*
X12951920Y-17403429D01*
X12937634Y-17460572D01*
X12923348Y-17489143D01*
X12909063Y-17503429D01*
X12880491Y-17517714D01*
X12851920Y-17517714D01*
X12823348Y-17503429D01*
X12809063Y-17489143D01*
X12794777Y-17460572D01*
X12780491Y-17403429D01*
X12780491Y-17332000D01*
X12794777Y-17274857D01*
X12809063Y-17246286D01*
X12823348Y-17232000D01*
X12851920Y-17217714D01*
X13080491Y-17489143D02*
X13094777Y-17503429D01*
X13080491Y-17517714D01*
X13066206Y-17503429D01*
X13080491Y-17489143D01*
X13080491Y-17517714D01*
X13280491Y-17217714D02*
X13309063Y-17217714D01*
X13337634Y-17232000D01*
X13351920Y-17246286D01*
X13366205Y-17274857D01*
X13380491Y-17332000D01*
X13380491Y-17403429D01*
X13366205Y-17460572D01*
X13351920Y-17489143D01*
X13337634Y-17503429D01*
X13309063Y-17517714D01*
X13280491Y-17517714D01*
X13251920Y-17503429D01*
X13237634Y-17489143D01*
X13223348Y-17460572D01*
X13209063Y-17403429D01*
X13209063Y-17332000D01*
X13223348Y-17274857D01*
X13237634Y-17246286D01*
X13251920Y-17232000D01*
X13280491Y-17217714D01*
X13637634Y-17317714D02*
X13637634Y-17517714D01*
X13566205Y-17203429D02*
X13494777Y-17417714D01*
X13680491Y-17417714D01*
X13851920Y-17217714D02*
X13880491Y-17217714D01*
X13909063Y-17232000D01*
X13923348Y-17246286D01*
X13937634Y-17274857D01*
X13951920Y-17332000D01*
X13951920Y-17403429D01*
X13937634Y-17460572D01*
X13923348Y-17489143D01*
X13909063Y-17503429D01*
X13880491Y-17517714D01*
X13851920Y-17517714D01*
X13823348Y-17503429D01*
X13809063Y-17489143D01*
X13794777Y-17460572D01*
X13780491Y-17403429D01*
X13780491Y-17332000D01*
X13794777Y-17274857D01*
X13809063Y-17246286D01*
X13823348Y-17232000D01*
X13851920Y-17217714D01*
X14066206Y-17217714D02*
X14066206Y-17274857D01*
X14180491Y-17217714D02*
X14180491Y-17274857D01*
X14623348Y-17632000D02*
X14609063Y-17617714D01*
X14580491Y-17574857D01*
X14566205Y-17546286D01*
X14551920Y-17503429D01*
X14537634Y-17432000D01*
X14537634Y-17374857D01*
X14551920Y-17303429D01*
X14566205Y-17260572D01*
X14580491Y-17232000D01*
X14609063Y-17189143D01*
X14623348Y-17174857D01*
X14780491Y-17346286D02*
X14751920Y-17332000D01*
X14737634Y-17317714D01*
X14723348Y-17289143D01*
X14723348Y-17274857D01*
X14737634Y-17246286D01*
X14751920Y-17232000D01*
X14780491Y-17217714D01*
X14837634Y-17217714D01*
X14866205Y-17232000D01*
X14880491Y-17246286D01*
X14894777Y-17274857D01*
X14894777Y-17289143D01*
X14880491Y-17317714D01*
X14866205Y-17332000D01*
X14837634Y-17346286D01*
X14780491Y-17346286D01*
X14751920Y-17360572D01*
X14737634Y-17374857D01*
X14723348Y-17403429D01*
X14723348Y-17460572D01*
X14737634Y-17489143D01*
X14751920Y-17503429D01*
X14780491Y-17517714D01*
X14837634Y-17517714D01*
X14866205Y-17503429D01*
X14880491Y-17489143D01*
X14894777Y-17460572D01*
X14894777Y-17403429D01*
X14880491Y-17374857D01*
X14866205Y-17360572D01*
X14837634Y-17346286D01*
X15251920Y-17517714D02*
X15251920Y-17217714D01*
X15380491Y-17517714D02*
X15380491Y-17360572D01*
X15366205Y-17332000D01*
X15337634Y-17317714D01*
X15294777Y-17317714D01*
X15266205Y-17332000D01*
X15251920Y-17346286D01*
X15566205Y-17517714D02*
X15537634Y-17503429D01*
X15523348Y-17489143D01*
X15509063Y-17460572D01*
X15509063Y-17374857D01*
X15523348Y-17346286D01*
X15537634Y-17332000D01*
X15566205Y-17317714D01*
X15609063Y-17317714D01*
X15637634Y-17332000D01*
X15651920Y-17346286D01*
X15666205Y-17374857D01*
X15666205Y-17460572D01*
X15651920Y-17489143D01*
X15637634Y-17503429D01*
X15609063Y-17517714D01*
X15566205Y-17517714D01*
X15837634Y-17517714D02*
X15809063Y-17503429D01*
X15794777Y-17474857D01*
X15794777Y-17217714D01*
X16066206Y-17503429D02*
X16037634Y-17517714D01*
X15980491Y-17517714D01*
X15951920Y-17503429D01*
X15937634Y-17474857D01*
X15937634Y-17360572D01*
X15951920Y-17332000D01*
X15980491Y-17317714D01*
X16037634Y-17317714D01*
X16066206Y-17332000D01*
X16080491Y-17360572D01*
X16080491Y-17389143D01*
X15937634Y-17417714D01*
X16194777Y-17503429D02*
X16223348Y-17517714D01*
X16280491Y-17517714D01*
X16309063Y-17503429D01*
X16323348Y-17474857D01*
X16323348Y-17460572D01*
X16309063Y-17432000D01*
X16280491Y-17417714D01*
X16237634Y-17417714D01*
X16209063Y-17403429D01*
X16194777Y-17374857D01*
X16194777Y-17360572D01*
X16209063Y-17332000D01*
X16237634Y-17317714D01*
X16280491Y-17317714D01*
X16309063Y-17332000D01*
X16423348Y-17632000D02*
X16437634Y-17617714D01*
X16466206Y-17574857D01*
X16480491Y-17546286D01*
X16494777Y-17503429D01*
X16509063Y-17432000D01*
X16509063Y-17374857D01*
X16494777Y-17303429D01*
X16480491Y-17260572D01*
X16466206Y-17232000D01*
X16437634Y-17189143D01*
X16423348Y-17174857D01*
M02*
