%FSLAX45Y45*%
G04 Gerber Fmt 4.5, Leading zero omitted, Abs format (unit mm)*
G04 Created by KiCad (PCBNEW 4.0.7) date 12/20/18 21:54:41*
%MOMM*%
%LPD*%
G01*
G04 APERTURE LIST*
%ADD10C,0.127000*%
%ADD11C,0.200000*%
%ADD12C,0.300000*%
G04 APERTURE END LIST*
D10*
D11*
X16000000Y-16000000D02*
X10000000Y-16000000D01*
X16000000Y-10000000D02*
X16000000Y-16000000D01*
X10000000Y-10000000D02*
X16000000Y-10000000D01*
X10000000Y-16000000D02*
X10000000Y-10000000D01*
D11*
X12315120Y-15287480D02*
X12535120Y-15507480D01*
X12535120Y-15287480D02*
X12315120Y-15507480D01*
X13515120Y-15287480D02*
X13735120Y-15507480D01*
X13735120Y-15287480D02*
X13515120Y-15507480D01*
X10615000Y-10400000D02*
G75*
G03X10615000Y-10400000I-215000J0D01*
G01*
X10615000Y-15600000D02*
G75*
G03X10615000Y-15600000I-215000J0D01*
G01*
X15815000Y-10400000D02*
G75*
G03X15815000Y-10400000I-215000J0D01*
G01*
X15815000Y-15600000D02*
G75*
G03X15815000Y-15600000I-215000J0D01*
G01*
D12*
X10261429Y-16475714D02*
X10261429Y-16175714D01*
X10332857Y-16175714D01*
X10375714Y-16190000D01*
X10404286Y-16218571D01*
X10418571Y-16247143D01*
X10432857Y-16304286D01*
X10432857Y-16347143D01*
X10418571Y-16404286D01*
X10404286Y-16432857D01*
X10375714Y-16461429D01*
X10332857Y-16475714D01*
X10261429Y-16475714D01*
X10561429Y-16475714D02*
X10561429Y-16275714D01*
X10561429Y-16332857D02*
X10575714Y-16304286D01*
X10590000Y-16290000D01*
X10618571Y-16275714D01*
X10647143Y-16275714D01*
X10747143Y-16475714D02*
X10747143Y-16275714D01*
X10747143Y-16175714D02*
X10732857Y-16190000D01*
X10747143Y-16204286D01*
X10761429Y-16190000D01*
X10747143Y-16175714D01*
X10747143Y-16204286D01*
X10932857Y-16475714D02*
X10904286Y-16461429D01*
X10890000Y-16432857D01*
X10890000Y-16175714D01*
X11090000Y-16475714D02*
X11061429Y-16461429D01*
X11047143Y-16432857D01*
X11047143Y-16175714D01*
X11432857Y-16475714D02*
X11432857Y-16175714D01*
X11532857Y-16390000D01*
X11632857Y-16175714D01*
X11632857Y-16475714D01*
X11904286Y-16475714D02*
X11904286Y-16318571D01*
X11890000Y-16290000D01*
X11861428Y-16275714D01*
X11804286Y-16275714D01*
X11775714Y-16290000D01*
X11904286Y-16461429D02*
X11875714Y-16475714D01*
X11804286Y-16475714D01*
X11775714Y-16461429D01*
X11761428Y-16432857D01*
X11761428Y-16404286D01*
X11775714Y-16375714D01*
X11804286Y-16361429D01*
X11875714Y-16361429D01*
X11904286Y-16347143D01*
X12047143Y-16275714D02*
X12047143Y-16575714D01*
X12047143Y-16290000D02*
X12075714Y-16275714D01*
X12132857Y-16275714D01*
X12161428Y-16290000D01*
X12175714Y-16304286D01*
X12190000Y-16332857D01*
X12190000Y-16418571D01*
X12175714Y-16447143D01*
X12161428Y-16461429D01*
X12132857Y-16475714D01*
X12075714Y-16475714D01*
X12047143Y-16461429D01*
X12318571Y-16447143D02*
X12332857Y-16461429D01*
X12318571Y-16475714D01*
X12304286Y-16461429D01*
X12318571Y-16447143D01*
X12318571Y-16475714D01*
X12318571Y-16290000D02*
X12332857Y-16304286D01*
X12318571Y-16318571D01*
X12304286Y-16304286D01*
X12318571Y-16290000D01*
X12318571Y-16318571D01*
X9770000Y-16860000D02*
X9990000Y-17080000D01*
X9990000Y-16860000D02*
X9770000Y-17080000D01*
X10247143Y-16834286D02*
X10261429Y-16820000D01*
X10290000Y-16805714D01*
X10361429Y-16805714D01*
X10390000Y-16820000D01*
X10404286Y-16834286D01*
X10418571Y-16862857D01*
X10418571Y-16891429D01*
X10404286Y-16934286D01*
X10232857Y-17105714D01*
X10418571Y-17105714D01*
X10547143Y-17077143D02*
X10561429Y-17091429D01*
X10547143Y-17105714D01*
X10532857Y-17091429D01*
X10547143Y-17077143D01*
X10547143Y-17105714D01*
X10675714Y-16834286D02*
X10690000Y-16820000D01*
X10718571Y-16805714D01*
X10790000Y-16805714D01*
X10818571Y-16820000D01*
X10832857Y-16834286D01*
X10847143Y-16862857D01*
X10847143Y-16891429D01*
X10832857Y-16934286D01*
X10661428Y-17105714D01*
X10847143Y-17105714D01*
X11032857Y-16805714D02*
X11061429Y-16805714D01*
X11090000Y-16820000D01*
X11104286Y-16834286D01*
X11118571Y-16862857D01*
X11132857Y-16920000D01*
X11132857Y-16991429D01*
X11118571Y-17048572D01*
X11104286Y-17077143D01*
X11090000Y-17091429D01*
X11061429Y-17105714D01*
X11032857Y-17105714D01*
X11004286Y-17091429D01*
X10990000Y-17077143D01*
X10975714Y-17048572D01*
X10961429Y-16991429D01*
X10961429Y-16920000D01*
X10975714Y-16862857D01*
X10990000Y-16834286D01*
X11004286Y-16820000D01*
X11032857Y-16805714D01*
X11261428Y-17105714D02*
X11261428Y-16905714D01*
X11261428Y-16934286D02*
X11275714Y-16920000D01*
X11304286Y-16905714D01*
X11347143Y-16905714D01*
X11375714Y-16920000D01*
X11390000Y-16948572D01*
X11390000Y-17105714D01*
X11390000Y-16948572D02*
X11404286Y-16920000D01*
X11432857Y-16905714D01*
X11475714Y-16905714D01*
X11504286Y-16920000D01*
X11518571Y-16948572D01*
X11518571Y-17105714D01*
X11661428Y-17105714D02*
X11661428Y-16905714D01*
X11661428Y-16934286D02*
X11675714Y-16920000D01*
X11704286Y-16905714D01*
X11747143Y-16905714D01*
X11775714Y-16920000D01*
X11790000Y-16948572D01*
X11790000Y-17105714D01*
X11790000Y-16948572D02*
X11804286Y-16920000D01*
X11832857Y-16905714D01*
X11875714Y-16905714D01*
X11904286Y-16920000D01*
X11918571Y-16948572D01*
X11918571Y-17105714D01*
X12504286Y-16791429D02*
X12247143Y-17177143D01*
X12890000Y-16805714D02*
X12918571Y-16805714D01*
X12947143Y-16820000D01*
X12961428Y-16834286D01*
X12975714Y-16862857D01*
X12990000Y-16920000D01*
X12990000Y-16991429D01*
X12975714Y-17048572D01*
X12961428Y-17077143D01*
X12947143Y-17091429D01*
X12918571Y-17105714D01*
X12890000Y-17105714D01*
X12861428Y-17091429D01*
X12847143Y-17077143D01*
X12832857Y-17048572D01*
X12818571Y-16991429D01*
X12818571Y-16920000D01*
X12832857Y-16862857D01*
X12847143Y-16834286D01*
X12861428Y-16820000D01*
X12890000Y-16805714D01*
X13118571Y-17077143D02*
X13132857Y-17091429D01*
X13118571Y-17105714D01*
X13104286Y-17091429D01*
X13118571Y-17077143D01*
X13118571Y-17105714D01*
X13318571Y-16805714D02*
X13347143Y-16805714D01*
X13375714Y-16820000D01*
X13390000Y-16834286D01*
X13404285Y-16862857D01*
X13418571Y-16920000D01*
X13418571Y-16991429D01*
X13404285Y-17048572D01*
X13390000Y-17077143D01*
X13375714Y-17091429D01*
X13347143Y-17105714D01*
X13318571Y-17105714D01*
X13290000Y-17091429D01*
X13275714Y-17077143D01*
X13261428Y-17048572D01*
X13247143Y-16991429D01*
X13247143Y-16920000D01*
X13261428Y-16862857D01*
X13275714Y-16834286D01*
X13290000Y-16820000D01*
X13318571Y-16805714D01*
X13590000Y-16934286D02*
X13561428Y-16920000D01*
X13547143Y-16905714D01*
X13532857Y-16877143D01*
X13532857Y-16862857D01*
X13547143Y-16834286D01*
X13561428Y-16820000D01*
X13590000Y-16805714D01*
X13647143Y-16805714D01*
X13675714Y-16820000D01*
X13690000Y-16834286D01*
X13704285Y-16862857D01*
X13704285Y-16877143D01*
X13690000Y-16905714D01*
X13675714Y-16920000D01*
X13647143Y-16934286D01*
X13590000Y-16934286D01*
X13561428Y-16948572D01*
X13547143Y-16962857D01*
X13532857Y-16991429D01*
X13532857Y-17048572D01*
X13547143Y-17077143D01*
X13561428Y-17091429D01*
X13590000Y-17105714D01*
X13647143Y-17105714D01*
X13675714Y-17091429D01*
X13690000Y-17077143D01*
X13704285Y-17048572D01*
X13704285Y-16991429D01*
X13690000Y-16962857D01*
X13675714Y-16948572D01*
X13647143Y-16934286D01*
X13804285Y-16805714D02*
X14004285Y-16805714D01*
X13875714Y-17105714D01*
X14104286Y-16805714D02*
X14104286Y-16862857D01*
X14218571Y-16805714D02*
X14218571Y-16862857D01*
X14661428Y-17220000D02*
X14647143Y-17205714D01*
X14618571Y-17162857D01*
X14604285Y-17134286D01*
X14590000Y-17091429D01*
X14575714Y-17020000D01*
X14575714Y-16962857D01*
X14590000Y-16891429D01*
X14604285Y-16848572D01*
X14618571Y-16820000D01*
X14647143Y-16777143D01*
X14661428Y-16762857D01*
X14761428Y-16834286D02*
X14775714Y-16820000D01*
X14804285Y-16805714D01*
X14875714Y-16805714D01*
X14904285Y-16820000D01*
X14918571Y-16834286D01*
X14932857Y-16862857D01*
X14932857Y-16891429D01*
X14918571Y-16934286D01*
X14747143Y-17105714D01*
X14932857Y-17105714D01*
X15290000Y-17105714D02*
X15290000Y-16805714D01*
X15418571Y-17105714D02*
X15418571Y-16948572D01*
X15404285Y-16920000D01*
X15375714Y-16905714D01*
X15332857Y-16905714D01*
X15304285Y-16920000D01*
X15290000Y-16934286D01*
X15604285Y-17105714D02*
X15575714Y-17091429D01*
X15561428Y-17077143D01*
X15547143Y-17048572D01*
X15547143Y-16962857D01*
X15561428Y-16934286D01*
X15575714Y-16920000D01*
X15604285Y-16905714D01*
X15647143Y-16905714D01*
X15675714Y-16920000D01*
X15690000Y-16934286D01*
X15704285Y-16962857D01*
X15704285Y-17048572D01*
X15690000Y-17077143D01*
X15675714Y-17091429D01*
X15647143Y-17105714D01*
X15604285Y-17105714D01*
X15875714Y-17105714D02*
X15847143Y-17091429D01*
X15832857Y-17062857D01*
X15832857Y-16805714D01*
X16104286Y-17091429D02*
X16075714Y-17105714D01*
X16018571Y-17105714D01*
X15990000Y-17091429D01*
X15975714Y-17062857D01*
X15975714Y-16948572D01*
X15990000Y-16920000D01*
X16018571Y-16905714D01*
X16075714Y-16905714D01*
X16104286Y-16920000D01*
X16118571Y-16948572D01*
X16118571Y-16977143D01*
X15975714Y-17005714D01*
X16232857Y-17091429D02*
X16261428Y-17105714D01*
X16318571Y-17105714D01*
X16347143Y-17091429D01*
X16361428Y-17062857D01*
X16361428Y-17048572D01*
X16347143Y-17020000D01*
X16318571Y-17005714D01*
X16275714Y-17005714D01*
X16247143Y-16991429D01*
X16232857Y-16962857D01*
X16232857Y-16948572D01*
X16247143Y-16920000D01*
X16275714Y-16905714D01*
X16318571Y-16905714D01*
X16347143Y-16920000D01*
X16461428Y-17220000D02*
X16475714Y-17205714D01*
X16504286Y-17162857D01*
X16518571Y-17134286D01*
X16532857Y-17091429D01*
X16547143Y-17020000D01*
X16547143Y-16962857D01*
X16532857Y-16891429D01*
X16518571Y-16848572D01*
X16504286Y-16820000D01*
X16475714Y-16777143D01*
X16461428Y-16762857D01*
X17004286Y-17220000D02*
X16990000Y-17205714D01*
X16961428Y-17162857D01*
X16947143Y-17134286D01*
X16932857Y-17091429D01*
X16918571Y-17020000D01*
X16918571Y-16962857D01*
X16932857Y-16891429D01*
X16947143Y-16848572D01*
X16961428Y-16820000D01*
X16990000Y-16777143D01*
X17004286Y-16762857D01*
X17118571Y-16905714D02*
X17118571Y-17105714D01*
X17118571Y-16934286D02*
X17132857Y-16920000D01*
X17161428Y-16905714D01*
X17204286Y-16905714D01*
X17232857Y-16920000D01*
X17247143Y-16948572D01*
X17247143Y-17105714D01*
X17432857Y-17105714D02*
X17404286Y-17091429D01*
X17390000Y-17077143D01*
X17375714Y-17048572D01*
X17375714Y-16962857D01*
X17390000Y-16934286D01*
X17404286Y-16920000D01*
X17432857Y-16905714D01*
X17475714Y-16905714D01*
X17504286Y-16920000D01*
X17518571Y-16934286D01*
X17532857Y-16962857D01*
X17532857Y-17048572D01*
X17518571Y-17077143D01*
X17504286Y-17091429D01*
X17475714Y-17105714D01*
X17432857Y-17105714D01*
X17618571Y-16905714D02*
X17732857Y-16905714D01*
X17661429Y-16805714D02*
X17661429Y-17062857D01*
X17675714Y-17091429D01*
X17704286Y-17105714D01*
X17732857Y-17105714D01*
X18061429Y-16905714D02*
X18061429Y-17205714D01*
X18061429Y-16920000D02*
X18090000Y-16905714D01*
X18147143Y-16905714D01*
X18175714Y-16920000D01*
X18190000Y-16934286D01*
X18204286Y-16962857D01*
X18204286Y-17048572D01*
X18190000Y-17077143D01*
X18175714Y-17091429D01*
X18147143Y-17105714D01*
X18090000Y-17105714D01*
X18061429Y-17091429D01*
X18375714Y-17105714D02*
X18347143Y-17091429D01*
X18332857Y-17062857D01*
X18332857Y-16805714D01*
X18618571Y-17105714D02*
X18618571Y-16948572D01*
X18604286Y-16920000D01*
X18575714Y-16905714D01*
X18518571Y-16905714D01*
X18490000Y-16920000D01*
X18618571Y-17091429D02*
X18590000Y-17105714D01*
X18518571Y-17105714D01*
X18490000Y-17091429D01*
X18475714Y-17062857D01*
X18475714Y-17034286D01*
X18490000Y-17005714D01*
X18518571Y-16991429D01*
X18590000Y-16991429D01*
X18618571Y-16977143D01*
X18718571Y-16905714D02*
X18832857Y-16905714D01*
X18761429Y-16805714D02*
X18761429Y-17062857D01*
X18775714Y-17091429D01*
X18804286Y-17105714D01*
X18832857Y-17105714D01*
X19047143Y-17091429D02*
X19018572Y-17105714D01*
X18961429Y-17105714D01*
X18932857Y-17091429D01*
X18918572Y-17062857D01*
X18918572Y-16948572D01*
X18932857Y-16920000D01*
X18961429Y-16905714D01*
X19018572Y-16905714D01*
X19047143Y-16920000D01*
X19061429Y-16948572D01*
X19061429Y-16977143D01*
X18918572Y-17005714D01*
X19318572Y-17105714D02*
X19318572Y-16805714D01*
X19318572Y-17091429D02*
X19290000Y-17105714D01*
X19232857Y-17105714D01*
X19204286Y-17091429D01*
X19190000Y-17077143D01*
X19175714Y-17048572D01*
X19175714Y-16962857D01*
X19190000Y-16934286D01*
X19204286Y-16920000D01*
X19232857Y-16905714D01*
X19290000Y-16905714D01*
X19318572Y-16920000D01*
X19432857Y-17220000D02*
X19447143Y-17205714D01*
X19475714Y-17162857D01*
X19490000Y-17134286D01*
X19504286Y-17091429D01*
X19518572Y-17020000D01*
X19518572Y-16962857D01*
X19504286Y-16891429D01*
X19490000Y-16848572D01*
X19475714Y-16820000D01*
X19447143Y-16777143D01*
X19432857Y-16762857D01*
X9990000Y-17366000D02*
G75*
G03X9990000Y-17366000I-215000J0D01*
G01*
X10390000Y-17301714D02*
X10390000Y-17501714D01*
X10318571Y-17187429D02*
X10247143Y-17401714D01*
X10432857Y-17401714D01*
X10547143Y-17473143D02*
X10561429Y-17487429D01*
X10547143Y-17501714D01*
X10532857Y-17487429D01*
X10547143Y-17473143D01*
X10547143Y-17501714D01*
X10661428Y-17201714D02*
X10847143Y-17201714D01*
X10747143Y-17316000D01*
X10790000Y-17316000D01*
X10818571Y-17330286D01*
X10832857Y-17344572D01*
X10847143Y-17373143D01*
X10847143Y-17444572D01*
X10832857Y-17473143D01*
X10818571Y-17487429D01*
X10790000Y-17501714D01*
X10704286Y-17501714D01*
X10675714Y-17487429D01*
X10661428Y-17473143D01*
X11032857Y-17201714D02*
X11061429Y-17201714D01*
X11090000Y-17216000D01*
X11104286Y-17230286D01*
X11118571Y-17258857D01*
X11132857Y-17316000D01*
X11132857Y-17387429D01*
X11118571Y-17444572D01*
X11104286Y-17473143D01*
X11090000Y-17487429D01*
X11061429Y-17501714D01*
X11032857Y-17501714D01*
X11004286Y-17487429D01*
X10990000Y-17473143D01*
X10975714Y-17444572D01*
X10961429Y-17387429D01*
X10961429Y-17316000D01*
X10975714Y-17258857D01*
X10990000Y-17230286D01*
X11004286Y-17216000D01*
X11032857Y-17201714D01*
X11261428Y-17501714D02*
X11261428Y-17301714D01*
X11261428Y-17330286D02*
X11275714Y-17316000D01*
X11304286Y-17301714D01*
X11347143Y-17301714D01*
X11375714Y-17316000D01*
X11390000Y-17344572D01*
X11390000Y-17501714D01*
X11390000Y-17344572D02*
X11404286Y-17316000D01*
X11432857Y-17301714D01*
X11475714Y-17301714D01*
X11504286Y-17316000D01*
X11518571Y-17344572D01*
X11518571Y-17501714D01*
X11661428Y-17501714D02*
X11661428Y-17301714D01*
X11661428Y-17330286D02*
X11675714Y-17316000D01*
X11704286Y-17301714D01*
X11747143Y-17301714D01*
X11775714Y-17316000D01*
X11790000Y-17344572D01*
X11790000Y-17501714D01*
X11790000Y-17344572D02*
X11804286Y-17316000D01*
X11832857Y-17301714D01*
X11875714Y-17301714D01*
X11904286Y-17316000D01*
X11918571Y-17344572D01*
X11918571Y-17501714D01*
X12504286Y-17187429D02*
X12247143Y-17573143D01*
X12890000Y-17201714D02*
X12918571Y-17201714D01*
X12947143Y-17216000D01*
X12961428Y-17230286D01*
X12975714Y-17258857D01*
X12990000Y-17316000D01*
X12990000Y-17387429D01*
X12975714Y-17444572D01*
X12961428Y-17473143D01*
X12947143Y-17487429D01*
X12918571Y-17501714D01*
X12890000Y-17501714D01*
X12861428Y-17487429D01*
X12847143Y-17473143D01*
X12832857Y-17444572D01*
X12818571Y-17387429D01*
X12818571Y-17316000D01*
X12832857Y-17258857D01*
X12847143Y-17230286D01*
X12861428Y-17216000D01*
X12890000Y-17201714D01*
X13118571Y-17473143D02*
X13132857Y-17487429D01*
X13118571Y-17501714D01*
X13104286Y-17487429D01*
X13118571Y-17473143D01*
X13118571Y-17501714D01*
X13418571Y-17501714D02*
X13247143Y-17501714D01*
X13332857Y-17501714D02*
X13332857Y-17201714D01*
X13304285Y-17244572D01*
X13275714Y-17273143D01*
X13247143Y-17287429D01*
X13675714Y-17201714D02*
X13618571Y-17201714D01*
X13590000Y-17216000D01*
X13575714Y-17230286D01*
X13547143Y-17273143D01*
X13532857Y-17330286D01*
X13532857Y-17444572D01*
X13547143Y-17473143D01*
X13561428Y-17487429D01*
X13590000Y-17501714D01*
X13647143Y-17501714D01*
X13675714Y-17487429D01*
X13690000Y-17473143D01*
X13704285Y-17444572D01*
X13704285Y-17373143D01*
X13690000Y-17344572D01*
X13675714Y-17330286D01*
X13647143Y-17316000D01*
X13590000Y-17316000D01*
X13561428Y-17330286D01*
X13547143Y-17344572D01*
X13532857Y-17373143D01*
X13847143Y-17501714D02*
X13904285Y-17501714D01*
X13932857Y-17487429D01*
X13947143Y-17473143D01*
X13975714Y-17430286D01*
X13990000Y-17373143D01*
X13990000Y-17258857D01*
X13975714Y-17230286D01*
X13961428Y-17216000D01*
X13932857Y-17201714D01*
X13875714Y-17201714D01*
X13847143Y-17216000D01*
X13832857Y-17230286D01*
X13818571Y-17258857D01*
X13818571Y-17330286D01*
X13832857Y-17358857D01*
X13847143Y-17373143D01*
X13875714Y-17387429D01*
X13932857Y-17387429D01*
X13961428Y-17373143D01*
X13975714Y-17358857D01*
X13990000Y-17330286D01*
X14104286Y-17201714D02*
X14104286Y-17258857D01*
X14218571Y-17201714D02*
X14218571Y-17258857D01*
X14661428Y-17616000D02*
X14647143Y-17601714D01*
X14618571Y-17558857D01*
X14604285Y-17530286D01*
X14590000Y-17487429D01*
X14575714Y-17416000D01*
X14575714Y-17358857D01*
X14590000Y-17287429D01*
X14604285Y-17244572D01*
X14618571Y-17216000D01*
X14647143Y-17173143D01*
X14661428Y-17158857D01*
X14904285Y-17301714D02*
X14904285Y-17501714D01*
X14832857Y-17187429D02*
X14761428Y-17401714D01*
X14947143Y-17401714D01*
X15290000Y-17501714D02*
X15290000Y-17201714D01*
X15418571Y-17501714D02*
X15418571Y-17344572D01*
X15404285Y-17316000D01*
X15375714Y-17301714D01*
X15332857Y-17301714D01*
X15304285Y-17316000D01*
X15290000Y-17330286D01*
X15604285Y-17501714D02*
X15575714Y-17487429D01*
X15561428Y-17473143D01*
X15547143Y-17444572D01*
X15547143Y-17358857D01*
X15561428Y-17330286D01*
X15575714Y-17316000D01*
X15604285Y-17301714D01*
X15647143Y-17301714D01*
X15675714Y-17316000D01*
X15690000Y-17330286D01*
X15704285Y-17358857D01*
X15704285Y-17444572D01*
X15690000Y-17473143D01*
X15675714Y-17487429D01*
X15647143Y-17501714D01*
X15604285Y-17501714D01*
X15875714Y-17501714D02*
X15847143Y-17487429D01*
X15832857Y-17458857D01*
X15832857Y-17201714D01*
X16104286Y-17487429D02*
X16075714Y-17501714D01*
X16018571Y-17501714D01*
X15990000Y-17487429D01*
X15975714Y-17458857D01*
X15975714Y-17344572D01*
X15990000Y-17316000D01*
X16018571Y-17301714D01*
X16075714Y-17301714D01*
X16104286Y-17316000D01*
X16118571Y-17344572D01*
X16118571Y-17373143D01*
X15975714Y-17401714D01*
X16232857Y-17487429D02*
X16261428Y-17501714D01*
X16318571Y-17501714D01*
X16347143Y-17487429D01*
X16361428Y-17458857D01*
X16361428Y-17444572D01*
X16347143Y-17416000D01*
X16318571Y-17401714D01*
X16275714Y-17401714D01*
X16247143Y-17387429D01*
X16232857Y-17358857D01*
X16232857Y-17344572D01*
X16247143Y-17316000D01*
X16275714Y-17301714D01*
X16318571Y-17301714D01*
X16347143Y-17316000D01*
X16461428Y-17616000D02*
X16475714Y-17601714D01*
X16504286Y-17558857D01*
X16518571Y-17530286D01*
X16532857Y-17487429D01*
X16547143Y-17416000D01*
X16547143Y-17358857D01*
X16532857Y-17287429D01*
X16518571Y-17244572D01*
X16504286Y-17216000D01*
X16475714Y-17173143D01*
X16461428Y-17158857D01*
X17004286Y-17616000D02*
X16990000Y-17601714D01*
X16961428Y-17558857D01*
X16947143Y-17530286D01*
X16932857Y-17487429D01*
X16918571Y-17416000D01*
X16918571Y-17358857D01*
X16932857Y-17287429D01*
X16947143Y-17244572D01*
X16961428Y-17216000D01*
X16990000Y-17173143D01*
X17004286Y-17158857D01*
X17118571Y-17301714D02*
X17118571Y-17501714D01*
X17118571Y-17330286D02*
X17132857Y-17316000D01*
X17161428Y-17301714D01*
X17204286Y-17301714D01*
X17232857Y-17316000D01*
X17247143Y-17344572D01*
X17247143Y-17501714D01*
X17432857Y-17501714D02*
X17404286Y-17487429D01*
X17390000Y-17473143D01*
X17375714Y-17444572D01*
X17375714Y-17358857D01*
X17390000Y-17330286D01*
X17404286Y-17316000D01*
X17432857Y-17301714D01*
X17475714Y-17301714D01*
X17504286Y-17316000D01*
X17518571Y-17330286D01*
X17532857Y-17358857D01*
X17532857Y-17444572D01*
X17518571Y-17473143D01*
X17504286Y-17487429D01*
X17475714Y-17501714D01*
X17432857Y-17501714D01*
X17618571Y-17301714D02*
X17732857Y-17301714D01*
X17661429Y-17201714D02*
X17661429Y-17458857D01*
X17675714Y-17487429D01*
X17704286Y-17501714D01*
X17732857Y-17501714D01*
X18061429Y-17301714D02*
X18061429Y-17601714D01*
X18061429Y-17316000D02*
X18090000Y-17301714D01*
X18147143Y-17301714D01*
X18175714Y-17316000D01*
X18190000Y-17330286D01*
X18204286Y-17358857D01*
X18204286Y-17444572D01*
X18190000Y-17473143D01*
X18175714Y-17487429D01*
X18147143Y-17501714D01*
X18090000Y-17501714D01*
X18061429Y-17487429D01*
X18375714Y-17501714D02*
X18347143Y-17487429D01*
X18332857Y-17458857D01*
X18332857Y-17201714D01*
X18618571Y-17501714D02*
X18618571Y-17344572D01*
X18604286Y-17316000D01*
X18575714Y-17301714D01*
X18518571Y-17301714D01*
X18490000Y-17316000D01*
X18618571Y-17487429D02*
X18590000Y-17501714D01*
X18518571Y-17501714D01*
X18490000Y-17487429D01*
X18475714Y-17458857D01*
X18475714Y-17430286D01*
X18490000Y-17401714D01*
X18518571Y-17387429D01*
X18590000Y-17387429D01*
X18618571Y-17373143D01*
X18718571Y-17301714D02*
X18832857Y-17301714D01*
X18761429Y-17201714D02*
X18761429Y-17458857D01*
X18775714Y-17487429D01*
X18804286Y-17501714D01*
X18832857Y-17501714D01*
X19047143Y-17487429D02*
X19018572Y-17501714D01*
X18961429Y-17501714D01*
X18932857Y-17487429D01*
X18918572Y-17458857D01*
X18918572Y-17344572D01*
X18932857Y-17316000D01*
X18961429Y-17301714D01*
X19018572Y-17301714D01*
X19047143Y-17316000D01*
X19061429Y-17344572D01*
X19061429Y-17373143D01*
X18918572Y-17401714D01*
X19318572Y-17501714D02*
X19318572Y-17201714D01*
X19318572Y-17487429D02*
X19290000Y-17501714D01*
X19232857Y-17501714D01*
X19204286Y-17487429D01*
X19190000Y-17473143D01*
X19175714Y-17444572D01*
X19175714Y-17358857D01*
X19190000Y-17330286D01*
X19204286Y-17316000D01*
X19232857Y-17301714D01*
X19290000Y-17301714D01*
X19318572Y-17316000D01*
X19432857Y-17616000D02*
X19447143Y-17601714D01*
X19475714Y-17558857D01*
X19490000Y-17530286D01*
X19504286Y-17487429D01*
X19518572Y-17416000D01*
X19518572Y-17358857D01*
X19504286Y-17287429D01*
X19490000Y-17244572D01*
X19475714Y-17216000D01*
X19447143Y-17173143D01*
X19432857Y-17158857D01*
M02*
