M48
;DRILL file {KiCad 4.0.7} date 12/20/18 21:54:38
;FORMAT={-:-/ absolute / metric / decimal}
FMAT,2
METRIC,TZ
T1C0.600
T2C0.800
T3C0.900
T4C1.000
T5C1.016
%
G90
G05
M71
T1
X115.113Y-132.105
X116.383Y-132.105
X117.653Y-132.105
X145.669Y-120.904
X146.939Y-122.174
X148.209Y-120.904
T2
X114.884Y-114.046
X114.884Y-122.276
X115.077Y-140.03
X117.384Y-114.046
X117.384Y-122.276
X117.577Y-140.03
X126.695Y-116.357
X126.695Y-126.517
X130.912Y-116.332
X130.912Y-126.492
X135.103Y-116.332
X135.103Y-126.492
X141.986Y-114.148
X142.037Y-127.483
X142.215Y-132.817
X152.146Y-114.148
X152.197Y-127.483
X152.375Y-132.817
T3
X127.701Y-151.675
X128.721Y-149.135
X129.741Y-151.675
X130.761Y-149.135
X131.781Y-151.675
X132.801Y-149.135
T4
X108.814Y-120.218
X108.814Y-128.905
X108.814Y-137.389
T5
X126.695Y-107.62
X126.695Y-110.16
X129.235Y-107.62
X129.235Y-110.16
X131.775Y-107.62
X131.775Y-110.16
X134.315Y-107.62
X134.315Y-110.16
T0
M30
