G04 #@! TF.FileFunction,Copper,L1,Top,Signal*
%FSLAX46Y46*%
G04 Gerber Fmt 4.6, Leading zero omitted, Abs format (unit mm)*
G04 Created by KiCad (PCBNEW 4.0.7) date 12/15/18 01:51:04*
%MOMM*%
%LPD*%
G01*
G04 APERTURE LIST*
%ADD10C,0.100000*%
%ADD11R,1.600000X1.600000*%
%ADD12C,1.600000*%
%ADD13R,1.700000X1.700000*%
%ADD14C,1.000000*%
%ADD15R,1.000000X1.000000*%
%ADD16O,0.900000X1.500000*%
%ADD17R,0.900000X1.500000*%
%ADD18R,1.727200X1.727200*%
%ADD19O,1.727200X1.727200*%
%ADD20O,1.600000X1.600000*%
%ADD21C,0.250000*%
%ADD22C,0.254000*%
G04 APERTURE END LIST*
D10*
D11*
X117576600Y-140030200D03*
D12*
X115076600Y-140030200D03*
D11*
X114884200Y-122275600D03*
D12*
X117384200Y-122275600D03*
D11*
X114884200Y-114046000D03*
D12*
X117384200Y-114046000D03*
X132801200Y-149134800D03*
X131781200Y-151674800D03*
X130761200Y-149134800D03*
X129741200Y-151674800D03*
X128721200Y-149134800D03*
X127701200Y-151674800D03*
D13*
X108813600Y-128905000D03*
X108813600Y-137388600D03*
X108813600Y-120218200D03*
D14*
X146939000Y-122174000D03*
X145669000Y-120904000D03*
D15*
X148209000Y-120904000D03*
D16*
X116382800Y-132105400D03*
X117652800Y-132105400D03*
D17*
X115112800Y-132105400D03*
D18*
X134315200Y-107619800D03*
D19*
X134315200Y-110159800D03*
X131775200Y-107619800D03*
X131775200Y-110159800D03*
X129235200Y-107619800D03*
X129235200Y-110159800D03*
X126695200Y-107619800D03*
X126695200Y-110159800D03*
D12*
X135102600Y-126492000D03*
D20*
X135102600Y-116332000D03*
D12*
X130911600Y-126492000D03*
D20*
X130911600Y-116332000D03*
D12*
X126695200Y-126517400D03*
D20*
X126695200Y-116357400D03*
D12*
X152196800Y-127482600D03*
D20*
X142036800Y-127482600D03*
D12*
X152374600Y-132816600D03*
D20*
X142214600Y-132816600D03*
D12*
X141986000Y-114147600D03*
D20*
X152146000Y-114147600D03*
D21*
X117576600Y-140030200D02*
X117246400Y-140030200D01*
X117246400Y-140030200D02*
X114604800Y-137388600D01*
X114604800Y-137388600D02*
X108813600Y-137388600D01*
X117576600Y-140030200D02*
X117576600Y-136702800D01*
X116382800Y-135509000D02*
X116382800Y-132105400D01*
X117576600Y-136702800D02*
X116382800Y-135509000D01*
X131781200Y-151674800D02*
X131781200Y-154248200D01*
X117576600Y-154533600D02*
X117576600Y-140030200D01*
X120294400Y-157251400D02*
X117576600Y-154533600D01*
X128778000Y-157251400D02*
X120294400Y-157251400D01*
X131781200Y-154248200D02*
X128778000Y-157251400D01*
X132801200Y-149134800D02*
X136970800Y-149134800D01*
X142214600Y-143891000D02*
X142214600Y-132816600D01*
X136970800Y-149134800D02*
X142214600Y-143891000D01*
X131781200Y-151674800D02*
X131781200Y-150154800D01*
X131781200Y-150154800D02*
X132801200Y-149134800D01*
X126695200Y-107619800D02*
X126365000Y-107619800D01*
X126365000Y-107619800D02*
X124383800Y-109601000D01*
X124383800Y-124206000D02*
X126695200Y-126517400D01*
X124383800Y-109601000D02*
X124383800Y-124206000D01*
X117652800Y-132105400D02*
X117652800Y-129692400D01*
X114884200Y-126923800D02*
X114884200Y-122275600D01*
X117652800Y-129692400D02*
X114884200Y-126923800D01*
X114884200Y-122275600D02*
X114884200Y-123494800D01*
X114884200Y-123494800D02*
X109347000Y-129032000D01*
X114884200Y-114046000D02*
X114884200Y-122275600D01*
X126695200Y-107619800D02*
X121310400Y-107619800D01*
X121310400Y-107619800D02*
X114884200Y-114046000D01*
X135102600Y-126492000D02*
X137769600Y-126492000D01*
X140157200Y-115976400D02*
X141986000Y-114147600D01*
X140157200Y-124104400D02*
X140157200Y-115976400D01*
X137769600Y-126492000D02*
X140157200Y-124104400D01*
X126695200Y-126517400D02*
X130886200Y-126517400D01*
X130886200Y-126517400D02*
X130911600Y-126492000D01*
X130911600Y-126492000D02*
X135102600Y-126492000D01*
X152374600Y-132816600D02*
X152374600Y-131902200D01*
X144627600Y-130073400D02*
X142036800Y-127482600D01*
X150545800Y-130073400D02*
X144627600Y-130073400D01*
X152374600Y-131902200D02*
X150545800Y-130073400D01*
X128721200Y-149134800D02*
X128721200Y-140798200D01*
X128721200Y-140798200D02*
X142036800Y-127482600D01*
X152196800Y-127482600D02*
X152196800Y-125425200D01*
X148945600Y-122174000D02*
X146939000Y-122174000D01*
X152196800Y-125425200D02*
X148945600Y-122174000D01*
X152146000Y-114147600D02*
X152146000Y-111633000D01*
X127990600Y-108864400D02*
X126695200Y-110159800D01*
X127990600Y-106349800D02*
X127990600Y-108864400D01*
X129387600Y-104952800D02*
X127990600Y-106349800D01*
X145465800Y-104952800D02*
X129387600Y-104952800D01*
X152146000Y-111633000D02*
X145465800Y-104952800D01*
X148209000Y-120904000D02*
X148209000Y-118084600D01*
X148209000Y-118084600D02*
X152146000Y-114147600D01*
X135102600Y-116332000D02*
X135102600Y-113665000D01*
X133045200Y-108889800D02*
X131775200Y-107619800D01*
X133045200Y-111607600D02*
X133045200Y-108889800D01*
X135102600Y-113665000D02*
X133045200Y-111607600D01*
X130911600Y-116332000D02*
X130911600Y-111023400D01*
X130911600Y-111023400D02*
X131775200Y-110159800D01*
X126695200Y-116357400D02*
X126695200Y-112699800D01*
X126695200Y-112699800D02*
X129235200Y-110159800D01*
D22*
G36*
X159265000Y-159265000D02*
X100735000Y-159265000D01*
X100735000Y-156551540D01*
X101214518Y-156551540D01*
X101637616Y-157575515D01*
X102420365Y-158359631D01*
X103443599Y-158784515D01*
X104551540Y-158785482D01*
X105575515Y-158362384D01*
X106359631Y-157579635D01*
X106784515Y-156556401D01*
X106785482Y-155448460D01*
X106362384Y-154424485D01*
X105579635Y-153640369D01*
X104556401Y-153215485D01*
X103448460Y-153214518D01*
X102424485Y-153637616D01*
X101640369Y-154420365D01*
X101215485Y-155443599D01*
X101214518Y-156551540D01*
X100735000Y-156551540D01*
X100735000Y-141037945D01*
X114248461Y-141037945D01*
X114322595Y-141284064D01*
X114859823Y-141477165D01*
X115430054Y-141449978D01*
X115830605Y-141284064D01*
X115904739Y-141037945D01*
X115076600Y-140209805D01*
X114248461Y-141037945D01*
X100735000Y-141037945D01*
X100735000Y-139813423D01*
X113629635Y-139813423D01*
X113656822Y-140383654D01*
X113822736Y-140784205D01*
X114068855Y-140858339D01*
X114896995Y-140030200D01*
X114068855Y-139202061D01*
X113822736Y-139276195D01*
X113629635Y-139813423D01*
X100735000Y-139813423D01*
X100735000Y-132391150D01*
X114027800Y-132391150D01*
X114027800Y-132981710D01*
X114124473Y-133215099D01*
X114303102Y-133393727D01*
X114536491Y-133490400D01*
X114827050Y-133490400D01*
X114985800Y-133331650D01*
X114985800Y-132232400D01*
X114186550Y-132232400D01*
X114027800Y-132391150D01*
X100735000Y-132391150D01*
X100735000Y-131229090D01*
X114027800Y-131229090D01*
X114027800Y-131819650D01*
X114186550Y-131978400D01*
X114985800Y-131978400D01*
X114985800Y-130879150D01*
X114827050Y-130720400D01*
X114536491Y-130720400D01*
X114303102Y-130817073D01*
X114124473Y-130995701D01*
X114027800Y-131229090D01*
X100735000Y-131229090D01*
X100735000Y-128055000D01*
X107316160Y-128055000D01*
X107316160Y-129755000D01*
X107360438Y-129990317D01*
X107499510Y-130206441D01*
X107711710Y-130351431D01*
X107963600Y-130402440D01*
X109663600Y-130402440D01*
X109898917Y-130358162D01*
X110115041Y-130219090D01*
X110260031Y-130006890D01*
X110311040Y-129755000D01*
X110311040Y-129142762D01*
X114124200Y-125329602D01*
X114124200Y-126923800D01*
X114182052Y-127214639D01*
X114346799Y-127461201D01*
X116892800Y-130007202D01*
X116892800Y-130839192D01*
X116798012Y-130775857D01*
X116382800Y-130693266D01*
X115967588Y-130775857D01*
X115912254Y-130812830D01*
X115689109Y-130720400D01*
X115398550Y-130720400D01*
X115239800Y-130879150D01*
X115239800Y-131978400D01*
X115259800Y-131978400D01*
X115259800Y-132232400D01*
X115239800Y-132232400D01*
X115239800Y-133331650D01*
X115398550Y-133490400D01*
X115622800Y-133490400D01*
X115622800Y-135509000D01*
X115680652Y-135799839D01*
X115845399Y-136046401D01*
X116816600Y-137017602D01*
X116816600Y-138525598D01*
X115142201Y-136851199D01*
X114895639Y-136686452D01*
X114604800Y-136628600D01*
X110311040Y-136628600D01*
X110311040Y-136538600D01*
X110266762Y-136303283D01*
X110127690Y-136087159D01*
X109915490Y-135942169D01*
X109663600Y-135891160D01*
X107963600Y-135891160D01*
X107728283Y-135935438D01*
X107512159Y-136074510D01*
X107367169Y-136286710D01*
X107316160Y-136538600D01*
X107316160Y-138238600D01*
X107360438Y-138473917D01*
X107499510Y-138690041D01*
X107711710Y-138835031D01*
X107963600Y-138886040D01*
X109663600Y-138886040D01*
X109898917Y-138841762D01*
X110115041Y-138702690D01*
X110260031Y-138490490D01*
X110311040Y-138238600D01*
X110311040Y-138148600D01*
X114289998Y-138148600D01*
X114750515Y-138609117D01*
X114723146Y-138610422D01*
X114322595Y-138776336D01*
X114248461Y-139022455D01*
X115076600Y-139850595D01*
X115090742Y-139836452D01*
X115270348Y-140016058D01*
X115256205Y-140030200D01*
X116084345Y-140858339D01*
X116131767Y-140844055D01*
X116173438Y-141065517D01*
X116312510Y-141281641D01*
X116524710Y-141426631D01*
X116776600Y-141477640D01*
X116816600Y-141477640D01*
X116816600Y-154533600D01*
X116874452Y-154824439D01*
X117039199Y-155071001D01*
X119756999Y-157788801D01*
X120003561Y-157953548D01*
X120294400Y-158011400D01*
X128778000Y-158011400D01*
X129068839Y-157953548D01*
X129315401Y-157788801D01*
X130552662Y-156551540D01*
X153214518Y-156551540D01*
X153637616Y-157575515D01*
X154420365Y-158359631D01*
X155443599Y-158784515D01*
X156551540Y-158785482D01*
X157575515Y-158362384D01*
X158359631Y-157579635D01*
X158784515Y-156556401D01*
X158785482Y-155448460D01*
X158362384Y-154424485D01*
X157579635Y-153640369D01*
X156556401Y-153215485D01*
X155448460Y-153214518D01*
X154424485Y-153637616D01*
X153640369Y-154420365D01*
X153215485Y-155443599D01*
X153214518Y-156551540D01*
X130552662Y-156551540D01*
X132318601Y-154785601D01*
X132483348Y-154539040D01*
X132527236Y-154318399D01*
X134515899Y-154318399D01*
X134779481Y-154956315D01*
X135267118Y-155444804D01*
X135904573Y-155709499D01*
X136594799Y-155710101D01*
X137232715Y-155446519D01*
X137721204Y-154958882D01*
X137985899Y-154321427D01*
X137986501Y-153631201D01*
X137722919Y-152993285D01*
X137235282Y-152504796D01*
X136597827Y-152240101D01*
X135907601Y-152239499D01*
X135269685Y-152503081D01*
X134781196Y-152990718D01*
X134516501Y-153628173D01*
X134515899Y-154318399D01*
X132527236Y-154318399D01*
X132541200Y-154248200D01*
X132541200Y-152913446D01*
X132593000Y-152892043D01*
X132997024Y-152488723D01*
X133215950Y-151961491D01*
X133216448Y-151390613D01*
X132998443Y-150863000D01*
X132705671Y-150569717D01*
X133085387Y-150570048D01*
X133613000Y-150352043D01*
X134017024Y-149948723D01*
X134039415Y-149894800D01*
X136970800Y-149894800D01*
X137261639Y-149836948D01*
X137508201Y-149672201D01*
X142752001Y-144428401D01*
X142916748Y-144181839D01*
X142974600Y-143891000D01*
X142974600Y-134020267D01*
X143257411Y-133831298D01*
X143568480Y-133365751D01*
X143677713Y-132816600D01*
X143568480Y-132267449D01*
X143257411Y-131801902D01*
X142791864Y-131490833D01*
X142242713Y-131381600D01*
X142186487Y-131381600D01*
X141637336Y-131490833D01*
X141171789Y-131801902D01*
X140860720Y-132267449D01*
X140751487Y-132816600D01*
X140860720Y-133365751D01*
X141171789Y-133831298D01*
X141454600Y-134020267D01*
X141454600Y-143576198D01*
X136655998Y-148374800D01*
X134039846Y-148374800D01*
X134018443Y-148323000D01*
X133615123Y-147918976D01*
X133087891Y-147700050D01*
X132517013Y-147699552D01*
X131989400Y-147917557D01*
X131585376Y-148320877D01*
X131465120Y-148610486D01*
X130940805Y-149134800D01*
X130954948Y-149148942D01*
X130775342Y-149328548D01*
X130761200Y-149314405D01*
X129933061Y-150142545D01*
X129962413Y-150239993D01*
X129645523Y-150239716D01*
X129937024Y-149948723D01*
X130057280Y-149659114D01*
X130581595Y-149134800D01*
X130057194Y-148610400D01*
X129938443Y-148323000D01*
X129742840Y-148127055D01*
X129933061Y-148127055D01*
X130761200Y-148955195D01*
X131589339Y-148127055D01*
X131515205Y-147880936D01*
X130977977Y-147687835D01*
X130407746Y-147715022D01*
X130007195Y-147880936D01*
X129933061Y-148127055D01*
X129742840Y-148127055D01*
X129535123Y-147918976D01*
X129481200Y-147896585D01*
X129481200Y-141113002D01*
X141731698Y-128862504D01*
X142008687Y-128917600D01*
X142064913Y-128917600D01*
X142341901Y-128862504D01*
X144090198Y-130610801D01*
X144213617Y-130693266D01*
X144336761Y-130775548D01*
X144627600Y-130833400D01*
X150230998Y-130833400D01*
X151279631Y-131882033D01*
X151158776Y-132002677D01*
X150939850Y-132529909D01*
X150939352Y-133100787D01*
X151157357Y-133628400D01*
X151560677Y-134032424D01*
X152087909Y-134251350D01*
X152658787Y-134251848D01*
X153186400Y-134033843D01*
X153590424Y-133630523D01*
X153809350Y-133103291D01*
X153809848Y-132532413D01*
X153591843Y-132004800D01*
X153188523Y-131600776D01*
X153024039Y-131532476D01*
X152912001Y-131364799D01*
X151083201Y-129535999D01*
X150836639Y-129371252D01*
X150545800Y-129313400D01*
X144942403Y-129313400D01*
X143435488Y-127806486D01*
X143499913Y-127482600D01*
X143390680Y-126933449D01*
X143079611Y-126467902D01*
X142614064Y-126156833D01*
X142064913Y-126047600D01*
X142008687Y-126047600D01*
X141459536Y-126156833D01*
X140993989Y-126467902D01*
X140682920Y-126933449D01*
X140573687Y-127482600D01*
X140638112Y-127806486D01*
X128183799Y-140260799D01*
X128019052Y-140507361D01*
X127961200Y-140798200D01*
X127961200Y-147896154D01*
X127909400Y-147917557D01*
X127505376Y-148320877D01*
X127286450Y-148848109D01*
X127285952Y-149418987D01*
X127503957Y-149946600D01*
X127790757Y-150233900D01*
X127347746Y-150255022D01*
X126947195Y-150420936D01*
X126873061Y-150667055D01*
X127701200Y-151495195D01*
X128529339Y-150667055D01*
X128499987Y-150569607D01*
X128816877Y-150569884D01*
X128525376Y-150860877D01*
X128405120Y-151150486D01*
X127880805Y-151674800D01*
X128405206Y-152199200D01*
X128523957Y-152486600D01*
X128927277Y-152890624D01*
X129454509Y-153109550D01*
X130025387Y-153110048D01*
X130553000Y-152892043D01*
X130761209Y-152684197D01*
X130967277Y-152890624D01*
X131021200Y-152913015D01*
X131021200Y-153933398D01*
X128463198Y-156491400D01*
X120609202Y-156491400D01*
X118436201Y-154318399D01*
X122515899Y-154318399D01*
X122779481Y-154956315D01*
X123267118Y-155444804D01*
X123904573Y-155709499D01*
X124594799Y-155710101D01*
X125232715Y-155446519D01*
X125721204Y-154958882D01*
X125985899Y-154321427D01*
X125986501Y-153631201D01*
X125722919Y-152993285D01*
X125412721Y-152682545D01*
X126873061Y-152682545D01*
X126947195Y-152928664D01*
X127484423Y-153121765D01*
X128054654Y-153094578D01*
X128455205Y-152928664D01*
X128529339Y-152682545D01*
X127701200Y-151854405D01*
X126873061Y-152682545D01*
X125412721Y-152682545D01*
X125235282Y-152504796D01*
X124597827Y-152240101D01*
X123907601Y-152239499D01*
X123269685Y-152503081D01*
X122781196Y-152990718D01*
X122516501Y-153628173D01*
X122515899Y-154318399D01*
X118436201Y-154318399D01*
X118336600Y-154218798D01*
X118336600Y-151458023D01*
X126254235Y-151458023D01*
X126281422Y-152028254D01*
X126447336Y-152428805D01*
X126693455Y-152502939D01*
X127521595Y-151674800D01*
X126693455Y-150846661D01*
X126447336Y-150920795D01*
X126254235Y-151458023D01*
X118336600Y-151458023D01*
X118336600Y-141477640D01*
X118376600Y-141477640D01*
X118611917Y-141433362D01*
X118828041Y-141294290D01*
X118973031Y-141082090D01*
X119024040Y-140830200D01*
X119024040Y-139230200D01*
X118979762Y-138994883D01*
X118840690Y-138778759D01*
X118628490Y-138633769D01*
X118376600Y-138582760D01*
X118336600Y-138582760D01*
X118336600Y-136702800D01*
X118278748Y-136411961D01*
X118114001Y-136165399D01*
X117142800Y-135194198D01*
X117142800Y-133371608D01*
X117237588Y-133434943D01*
X117652800Y-133517534D01*
X118068012Y-133434943D01*
X118420011Y-133199745D01*
X118655209Y-132847746D01*
X118737800Y-132432534D01*
X118737800Y-131778266D01*
X118655209Y-131363054D01*
X118420011Y-131011055D01*
X118412800Y-131006237D01*
X118412800Y-129692400D01*
X118354948Y-129401561D01*
X118190201Y-129154999D01*
X115644200Y-126608998D01*
X115644200Y-123723040D01*
X115684200Y-123723040D01*
X115919517Y-123678762D01*
X116135641Y-123539690D01*
X116280631Y-123327490D01*
X116289570Y-123283345D01*
X116556061Y-123283345D01*
X116630195Y-123529464D01*
X117167423Y-123722565D01*
X117737654Y-123695378D01*
X118138205Y-123529464D01*
X118212339Y-123283345D01*
X117384200Y-122455205D01*
X116556061Y-123283345D01*
X116289570Y-123283345D01*
X116328846Y-123089399D01*
X116376455Y-123103739D01*
X117204595Y-122275600D01*
X117563805Y-122275600D01*
X118391945Y-123103739D01*
X118638064Y-123029605D01*
X118831165Y-122492377D01*
X118803978Y-121922146D01*
X118638064Y-121521595D01*
X118391945Y-121447461D01*
X117563805Y-122275600D01*
X117204595Y-122275600D01*
X116376455Y-121447461D01*
X116329033Y-121461745D01*
X116292551Y-121267855D01*
X116556061Y-121267855D01*
X117384200Y-122095995D01*
X118212339Y-121267855D01*
X118138205Y-121021736D01*
X117600977Y-120828635D01*
X117030746Y-120855822D01*
X116630195Y-121021736D01*
X116556061Y-121267855D01*
X116292551Y-121267855D01*
X116287362Y-121240283D01*
X116148290Y-121024159D01*
X115936090Y-120879169D01*
X115684200Y-120828160D01*
X115644200Y-120828160D01*
X115644200Y-115493440D01*
X115684200Y-115493440D01*
X115919517Y-115449162D01*
X116135641Y-115310090D01*
X116280631Y-115097890D01*
X116289570Y-115053745D01*
X116556061Y-115053745D01*
X116630195Y-115299864D01*
X117167423Y-115492965D01*
X117737654Y-115465778D01*
X118138205Y-115299864D01*
X118212339Y-115053745D01*
X117384200Y-114225605D01*
X116556061Y-115053745D01*
X116289570Y-115053745D01*
X116328846Y-114859799D01*
X116376455Y-114874139D01*
X117204595Y-114046000D01*
X117563805Y-114046000D01*
X118391945Y-114874139D01*
X118638064Y-114800005D01*
X118831165Y-114262777D01*
X118803978Y-113692546D01*
X118638064Y-113291995D01*
X118391945Y-113217861D01*
X117563805Y-114046000D01*
X117204595Y-114046000D01*
X117190452Y-114031858D01*
X117370058Y-113852252D01*
X117384200Y-113866395D01*
X118212339Y-113038255D01*
X118138205Y-112792136D01*
X117600977Y-112599035D01*
X117396204Y-112608798D01*
X121625202Y-108379800D01*
X124530198Y-108379800D01*
X123846399Y-109063599D01*
X123681652Y-109310161D01*
X123623800Y-109601000D01*
X123623800Y-124206000D01*
X123681652Y-124496839D01*
X123846399Y-124743401D01*
X125281944Y-126178946D01*
X125260450Y-126230709D01*
X125259952Y-126801587D01*
X125477957Y-127329200D01*
X125881277Y-127733224D01*
X126408509Y-127952150D01*
X126979387Y-127952648D01*
X127507000Y-127734643D01*
X127911024Y-127331323D01*
X127933415Y-127277400D01*
X129683449Y-127277400D01*
X129694357Y-127303800D01*
X130097677Y-127707824D01*
X130624909Y-127926750D01*
X131195787Y-127927248D01*
X131723400Y-127709243D01*
X132127424Y-127305923D01*
X132149815Y-127252000D01*
X133863954Y-127252000D01*
X133885357Y-127303800D01*
X134288677Y-127707824D01*
X134815909Y-127926750D01*
X135386787Y-127927248D01*
X135914400Y-127709243D01*
X136318424Y-127305923D01*
X136340815Y-127252000D01*
X137769600Y-127252000D01*
X138060439Y-127194148D01*
X138307001Y-127029401D01*
X140694601Y-124641801D01*
X140859348Y-124395240D01*
X140917200Y-124104400D01*
X140917200Y-120758972D01*
X144520888Y-120758972D01*
X144552783Y-121209375D01*
X144663783Y-121477352D01*
X144878896Y-121514499D01*
X145489395Y-120904000D01*
X144878896Y-120293501D01*
X144663783Y-120330648D01*
X144520888Y-120758972D01*
X140917200Y-120758972D01*
X140917200Y-120113896D01*
X145058501Y-120113896D01*
X145669000Y-120724395D01*
X146279499Y-120113896D01*
X146242352Y-119898783D01*
X145814028Y-119755888D01*
X145363625Y-119787783D01*
X145095648Y-119898783D01*
X145058501Y-120113896D01*
X140917200Y-120113896D01*
X140917200Y-116291202D01*
X141647546Y-115560856D01*
X141699309Y-115582350D01*
X142270187Y-115582848D01*
X142797800Y-115364843D01*
X143201824Y-114961523D01*
X143420750Y-114434291D01*
X143421248Y-113863413D01*
X143203243Y-113335800D01*
X142799923Y-112931776D01*
X142272691Y-112712850D01*
X141701813Y-112712352D01*
X141174200Y-112930357D01*
X140770176Y-113333677D01*
X140551250Y-113860909D01*
X140550752Y-114431787D01*
X140573049Y-114485749D01*
X139619799Y-115438999D01*
X139455052Y-115685561D01*
X139397200Y-115976400D01*
X139397200Y-123789598D01*
X137454798Y-125732000D01*
X136341246Y-125732000D01*
X136319843Y-125680200D01*
X135916523Y-125276176D01*
X135389291Y-125057250D01*
X134818413Y-125056752D01*
X134290800Y-125274757D01*
X133886776Y-125678077D01*
X133864385Y-125732000D01*
X132150246Y-125732000D01*
X132128843Y-125680200D01*
X131725523Y-125276176D01*
X131198291Y-125057250D01*
X130627413Y-125056752D01*
X130099800Y-125274757D01*
X129695776Y-125678077D01*
X129662838Y-125757400D01*
X127933846Y-125757400D01*
X127912443Y-125705600D01*
X127509123Y-125301576D01*
X126981891Y-125082650D01*
X126411013Y-125082152D01*
X126357051Y-125104449D01*
X125143800Y-123891198D01*
X125143800Y-109915802D01*
X125263006Y-109796596D01*
X125196600Y-110130441D01*
X125196600Y-110189159D01*
X125310674Y-110762648D01*
X125635530Y-111248829D01*
X126121711Y-111573685D01*
X126642852Y-111677346D01*
X126157799Y-112162399D01*
X125993052Y-112408961D01*
X125935200Y-112699800D01*
X125935200Y-115144405D01*
X125680502Y-115314589D01*
X125369433Y-115780136D01*
X125260200Y-116329287D01*
X125260200Y-116385513D01*
X125369433Y-116934664D01*
X125680502Y-117400211D01*
X126146049Y-117711280D01*
X126695200Y-117820513D01*
X127244351Y-117711280D01*
X127709898Y-117400211D01*
X128020967Y-116934664D01*
X128130200Y-116385513D01*
X128130200Y-116329287D01*
X128020967Y-115780136D01*
X127709898Y-115314589D01*
X127455200Y-115144405D01*
X127455200Y-113014602D01*
X128857227Y-111612575D01*
X129235200Y-111687759D01*
X129808689Y-111573685D01*
X130151600Y-111344559D01*
X130151600Y-115119005D01*
X129896902Y-115289189D01*
X129585833Y-115754736D01*
X129476600Y-116303887D01*
X129476600Y-116360113D01*
X129585833Y-116909264D01*
X129896902Y-117374811D01*
X130362449Y-117685880D01*
X130911600Y-117795113D01*
X131460751Y-117685880D01*
X131926298Y-117374811D01*
X132237367Y-116909264D01*
X132346600Y-116360113D01*
X132346600Y-116303887D01*
X132237367Y-115754736D01*
X131926298Y-115289189D01*
X131671600Y-115119005D01*
X131671600Y-111667152D01*
X131775200Y-111687759D01*
X132285200Y-111586314D01*
X132285200Y-111607600D01*
X132343052Y-111898439D01*
X132507799Y-112145001D01*
X134342600Y-113979802D01*
X134342600Y-115119005D01*
X134087902Y-115289189D01*
X133776833Y-115754736D01*
X133667600Y-116303887D01*
X133667600Y-116360113D01*
X133776833Y-116909264D01*
X134087902Y-117374811D01*
X134553449Y-117685880D01*
X135102600Y-117795113D01*
X135651751Y-117685880D01*
X136117298Y-117374811D01*
X136428367Y-116909264D01*
X136537600Y-116360113D01*
X136537600Y-116303887D01*
X136428367Y-115754736D01*
X136117298Y-115289189D01*
X135862600Y-115119005D01*
X135862600Y-113665000D01*
X135804748Y-113374161D01*
X135640001Y-113127599D01*
X134068510Y-111556108D01*
X134188200Y-111493617D01*
X134188200Y-110286800D01*
X134442200Y-110286800D01*
X134442200Y-111493617D01*
X134674226Y-111614758D01*
X135090147Y-111442488D01*
X135522021Y-111048290D01*
X135770168Y-110518827D01*
X135649669Y-110286800D01*
X134442200Y-110286800D01*
X134188200Y-110286800D01*
X134168200Y-110286800D01*
X134168200Y-110032800D01*
X134188200Y-110032800D01*
X134188200Y-110012800D01*
X134442200Y-110012800D01*
X134442200Y-110032800D01*
X135649669Y-110032800D01*
X135770168Y-109800773D01*
X135522021Y-109271310D01*
X135335767Y-109101305D01*
X135414117Y-109086562D01*
X135630241Y-108947490D01*
X135775231Y-108735290D01*
X135826240Y-108483400D01*
X135826240Y-106756200D01*
X135781962Y-106520883D01*
X135642890Y-106304759D01*
X135430690Y-106159769D01*
X135178800Y-106108760D01*
X133451600Y-106108760D01*
X133216283Y-106153038D01*
X133000159Y-106292110D01*
X132855169Y-106504310D01*
X132846336Y-106547931D01*
X132834870Y-106530771D01*
X132348689Y-106205915D01*
X131775200Y-106091841D01*
X131201711Y-106205915D01*
X130715530Y-106530771D01*
X130505200Y-106845552D01*
X130294870Y-106530771D01*
X129808689Y-106205915D01*
X129308734Y-106106468D01*
X129702402Y-105712800D01*
X145150998Y-105712800D01*
X151386000Y-111947802D01*
X151386000Y-112943933D01*
X151103189Y-113132902D01*
X150792120Y-113598449D01*
X150682887Y-114147600D01*
X150747312Y-114471486D01*
X147671599Y-117547199D01*
X147506852Y-117793761D01*
X147449000Y-118084600D01*
X147449000Y-119816721D01*
X147257559Y-119939910D01*
X147112569Y-120152110D01*
X147061560Y-120404000D01*
X147061560Y-121039106D01*
X146816394Y-121038892D01*
X146785217Y-120598625D01*
X146674217Y-120330648D01*
X146459104Y-120293501D01*
X145848605Y-120904000D01*
X145862748Y-120918143D01*
X145683143Y-121097748D01*
X145669000Y-121083605D01*
X145058501Y-121694104D01*
X145095648Y-121909217D01*
X145523972Y-122052112D01*
X145804123Y-122032273D01*
X145803803Y-122398775D01*
X145976233Y-122816086D01*
X146295235Y-123135645D01*
X146712244Y-123308803D01*
X147163775Y-123309197D01*
X147581086Y-123136767D01*
X147784207Y-122934000D01*
X148630798Y-122934000D01*
X151436800Y-125740002D01*
X151436800Y-126243954D01*
X151385000Y-126265357D01*
X150980976Y-126668677D01*
X150762050Y-127195909D01*
X150761552Y-127766787D01*
X150979557Y-128294400D01*
X151382877Y-128698424D01*
X151910109Y-128917350D01*
X152480987Y-128917848D01*
X153008600Y-128699843D01*
X153412624Y-128296523D01*
X153631550Y-127769291D01*
X153632048Y-127198413D01*
X153414043Y-126670800D01*
X153010723Y-126266776D01*
X152956800Y-126244385D01*
X152956800Y-125425200D01*
X152898948Y-125134361D01*
X152734201Y-124887799D01*
X149483001Y-121636599D01*
X149330035Y-121534391D01*
X149356440Y-121404000D01*
X149356440Y-120404000D01*
X149312162Y-120168683D01*
X149173090Y-119952559D01*
X148969000Y-119813110D01*
X148969000Y-118399402D01*
X151840898Y-115527504D01*
X152117887Y-115582600D01*
X152174113Y-115582600D01*
X152723264Y-115473367D01*
X153188811Y-115162298D01*
X153499880Y-114696751D01*
X153609113Y-114147600D01*
X153499880Y-113598449D01*
X153188811Y-113132902D01*
X152906000Y-112943933D01*
X152906000Y-111633000D01*
X152848148Y-111342161D01*
X152848148Y-111342160D01*
X152683401Y-111095599D01*
X146139342Y-104551540D01*
X153214518Y-104551540D01*
X153637616Y-105575515D01*
X154420365Y-106359631D01*
X155443599Y-106784515D01*
X156551540Y-106785482D01*
X157575515Y-106362384D01*
X158359631Y-105579635D01*
X158784515Y-104556401D01*
X158785482Y-103448460D01*
X158362384Y-102424485D01*
X157579635Y-101640369D01*
X156556401Y-101215485D01*
X155448460Y-101214518D01*
X154424485Y-101637616D01*
X153640369Y-102420365D01*
X153215485Y-103443599D01*
X153214518Y-104551540D01*
X146139342Y-104551540D01*
X146003201Y-104415399D01*
X145756639Y-104250652D01*
X145465800Y-104192800D01*
X129387600Y-104192800D01*
X129096760Y-104250652D01*
X128850199Y-104415399D01*
X127453199Y-105812399D01*
X127288452Y-106058961D01*
X127259581Y-106204103D01*
X126695200Y-106091841D01*
X126121711Y-106205915D01*
X125635530Y-106530771D01*
X125415680Y-106859800D01*
X121310400Y-106859800D01*
X121019560Y-106917652D01*
X120772999Y-107082399D01*
X115256838Y-112598560D01*
X114084200Y-112598560D01*
X113848883Y-112642838D01*
X113632759Y-112781910D01*
X113487769Y-112994110D01*
X113436760Y-113246000D01*
X113436760Y-114846000D01*
X113481038Y-115081317D01*
X113620110Y-115297441D01*
X113832310Y-115442431D01*
X114084200Y-115493440D01*
X114124200Y-115493440D01*
X114124200Y-120828160D01*
X114084200Y-120828160D01*
X113848883Y-120872438D01*
X113632759Y-121011510D01*
X113487769Y-121223710D01*
X113436760Y-121475600D01*
X113436760Y-123075600D01*
X113481038Y-123310917D01*
X113620110Y-123527041D01*
X113713409Y-123590789D01*
X109857394Y-127446804D01*
X109663600Y-127407560D01*
X107963600Y-127407560D01*
X107728283Y-127451838D01*
X107512159Y-127590910D01*
X107367169Y-127803110D01*
X107316160Y-128055000D01*
X100735000Y-128055000D01*
X100735000Y-120503950D01*
X107328600Y-120503950D01*
X107328600Y-121194510D01*
X107425273Y-121427899D01*
X107603902Y-121606527D01*
X107837291Y-121703200D01*
X108527850Y-121703200D01*
X108686600Y-121544450D01*
X108686600Y-120345200D01*
X108940600Y-120345200D01*
X108940600Y-121544450D01*
X109099350Y-121703200D01*
X109789909Y-121703200D01*
X110023298Y-121606527D01*
X110201927Y-121427899D01*
X110298600Y-121194510D01*
X110298600Y-120503950D01*
X110139850Y-120345200D01*
X108940600Y-120345200D01*
X108686600Y-120345200D01*
X107487350Y-120345200D01*
X107328600Y-120503950D01*
X100735000Y-120503950D01*
X100735000Y-119241890D01*
X107328600Y-119241890D01*
X107328600Y-119932450D01*
X107487350Y-120091200D01*
X108686600Y-120091200D01*
X108686600Y-118891950D01*
X108940600Y-118891950D01*
X108940600Y-120091200D01*
X110139850Y-120091200D01*
X110298600Y-119932450D01*
X110298600Y-119241890D01*
X110201927Y-119008501D01*
X110023298Y-118829873D01*
X109789909Y-118733200D01*
X109099350Y-118733200D01*
X108940600Y-118891950D01*
X108686600Y-118891950D01*
X108527850Y-118733200D01*
X107837291Y-118733200D01*
X107603902Y-118829873D01*
X107425273Y-119008501D01*
X107328600Y-119241890D01*
X100735000Y-119241890D01*
X100735000Y-104551540D01*
X101214518Y-104551540D01*
X101637616Y-105575515D01*
X102420365Y-106359631D01*
X103443599Y-106784515D01*
X104551540Y-106785482D01*
X105575515Y-106362384D01*
X106359631Y-105579635D01*
X106784515Y-104556401D01*
X106785482Y-103448460D01*
X106362384Y-102424485D01*
X105579635Y-101640369D01*
X104556401Y-101215485D01*
X103448460Y-101214518D01*
X102424485Y-101637616D01*
X101640369Y-102420365D01*
X101215485Y-103443599D01*
X101214518Y-104551540D01*
X100735000Y-104551540D01*
X100735000Y-100735000D01*
X159265000Y-100735000D01*
X159265000Y-159265000D01*
X159265000Y-159265000D01*
G37*
X159265000Y-159265000D02*
X100735000Y-159265000D01*
X100735000Y-156551540D01*
X101214518Y-156551540D01*
X101637616Y-157575515D01*
X102420365Y-158359631D01*
X103443599Y-158784515D01*
X104551540Y-158785482D01*
X105575515Y-158362384D01*
X106359631Y-157579635D01*
X106784515Y-156556401D01*
X106785482Y-155448460D01*
X106362384Y-154424485D01*
X105579635Y-153640369D01*
X104556401Y-153215485D01*
X103448460Y-153214518D01*
X102424485Y-153637616D01*
X101640369Y-154420365D01*
X101215485Y-155443599D01*
X101214518Y-156551540D01*
X100735000Y-156551540D01*
X100735000Y-141037945D01*
X114248461Y-141037945D01*
X114322595Y-141284064D01*
X114859823Y-141477165D01*
X115430054Y-141449978D01*
X115830605Y-141284064D01*
X115904739Y-141037945D01*
X115076600Y-140209805D01*
X114248461Y-141037945D01*
X100735000Y-141037945D01*
X100735000Y-139813423D01*
X113629635Y-139813423D01*
X113656822Y-140383654D01*
X113822736Y-140784205D01*
X114068855Y-140858339D01*
X114896995Y-140030200D01*
X114068855Y-139202061D01*
X113822736Y-139276195D01*
X113629635Y-139813423D01*
X100735000Y-139813423D01*
X100735000Y-132391150D01*
X114027800Y-132391150D01*
X114027800Y-132981710D01*
X114124473Y-133215099D01*
X114303102Y-133393727D01*
X114536491Y-133490400D01*
X114827050Y-133490400D01*
X114985800Y-133331650D01*
X114985800Y-132232400D01*
X114186550Y-132232400D01*
X114027800Y-132391150D01*
X100735000Y-132391150D01*
X100735000Y-131229090D01*
X114027800Y-131229090D01*
X114027800Y-131819650D01*
X114186550Y-131978400D01*
X114985800Y-131978400D01*
X114985800Y-130879150D01*
X114827050Y-130720400D01*
X114536491Y-130720400D01*
X114303102Y-130817073D01*
X114124473Y-130995701D01*
X114027800Y-131229090D01*
X100735000Y-131229090D01*
X100735000Y-128055000D01*
X107316160Y-128055000D01*
X107316160Y-129755000D01*
X107360438Y-129990317D01*
X107499510Y-130206441D01*
X107711710Y-130351431D01*
X107963600Y-130402440D01*
X109663600Y-130402440D01*
X109898917Y-130358162D01*
X110115041Y-130219090D01*
X110260031Y-130006890D01*
X110311040Y-129755000D01*
X110311040Y-129142762D01*
X114124200Y-125329602D01*
X114124200Y-126923800D01*
X114182052Y-127214639D01*
X114346799Y-127461201D01*
X116892800Y-130007202D01*
X116892800Y-130839192D01*
X116798012Y-130775857D01*
X116382800Y-130693266D01*
X115967588Y-130775857D01*
X115912254Y-130812830D01*
X115689109Y-130720400D01*
X115398550Y-130720400D01*
X115239800Y-130879150D01*
X115239800Y-131978400D01*
X115259800Y-131978400D01*
X115259800Y-132232400D01*
X115239800Y-132232400D01*
X115239800Y-133331650D01*
X115398550Y-133490400D01*
X115622800Y-133490400D01*
X115622800Y-135509000D01*
X115680652Y-135799839D01*
X115845399Y-136046401D01*
X116816600Y-137017602D01*
X116816600Y-138525598D01*
X115142201Y-136851199D01*
X114895639Y-136686452D01*
X114604800Y-136628600D01*
X110311040Y-136628600D01*
X110311040Y-136538600D01*
X110266762Y-136303283D01*
X110127690Y-136087159D01*
X109915490Y-135942169D01*
X109663600Y-135891160D01*
X107963600Y-135891160D01*
X107728283Y-135935438D01*
X107512159Y-136074510D01*
X107367169Y-136286710D01*
X107316160Y-136538600D01*
X107316160Y-138238600D01*
X107360438Y-138473917D01*
X107499510Y-138690041D01*
X107711710Y-138835031D01*
X107963600Y-138886040D01*
X109663600Y-138886040D01*
X109898917Y-138841762D01*
X110115041Y-138702690D01*
X110260031Y-138490490D01*
X110311040Y-138238600D01*
X110311040Y-138148600D01*
X114289998Y-138148600D01*
X114750515Y-138609117D01*
X114723146Y-138610422D01*
X114322595Y-138776336D01*
X114248461Y-139022455D01*
X115076600Y-139850595D01*
X115090742Y-139836452D01*
X115270348Y-140016058D01*
X115256205Y-140030200D01*
X116084345Y-140858339D01*
X116131767Y-140844055D01*
X116173438Y-141065517D01*
X116312510Y-141281641D01*
X116524710Y-141426631D01*
X116776600Y-141477640D01*
X116816600Y-141477640D01*
X116816600Y-154533600D01*
X116874452Y-154824439D01*
X117039199Y-155071001D01*
X119756999Y-157788801D01*
X120003561Y-157953548D01*
X120294400Y-158011400D01*
X128778000Y-158011400D01*
X129068839Y-157953548D01*
X129315401Y-157788801D01*
X130552662Y-156551540D01*
X153214518Y-156551540D01*
X153637616Y-157575515D01*
X154420365Y-158359631D01*
X155443599Y-158784515D01*
X156551540Y-158785482D01*
X157575515Y-158362384D01*
X158359631Y-157579635D01*
X158784515Y-156556401D01*
X158785482Y-155448460D01*
X158362384Y-154424485D01*
X157579635Y-153640369D01*
X156556401Y-153215485D01*
X155448460Y-153214518D01*
X154424485Y-153637616D01*
X153640369Y-154420365D01*
X153215485Y-155443599D01*
X153214518Y-156551540D01*
X130552662Y-156551540D01*
X132318601Y-154785601D01*
X132483348Y-154539040D01*
X132527236Y-154318399D01*
X134515899Y-154318399D01*
X134779481Y-154956315D01*
X135267118Y-155444804D01*
X135904573Y-155709499D01*
X136594799Y-155710101D01*
X137232715Y-155446519D01*
X137721204Y-154958882D01*
X137985899Y-154321427D01*
X137986501Y-153631201D01*
X137722919Y-152993285D01*
X137235282Y-152504796D01*
X136597827Y-152240101D01*
X135907601Y-152239499D01*
X135269685Y-152503081D01*
X134781196Y-152990718D01*
X134516501Y-153628173D01*
X134515899Y-154318399D01*
X132527236Y-154318399D01*
X132541200Y-154248200D01*
X132541200Y-152913446D01*
X132593000Y-152892043D01*
X132997024Y-152488723D01*
X133215950Y-151961491D01*
X133216448Y-151390613D01*
X132998443Y-150863000D01*
X132705671Y-150569717D01*
X133085387Y-150570048D01*
X133613000Y-150352043D01*
X134017024Y-149948723D01*
X134039415Y-149894800D01*
X136970800Y-149894800D01*
X137261639Y-149836948D01*
X137508201Y-149672201D01*
X142752001Y-144428401D01*
X142916748Y-144181839D01*
X142974600Y-143891000D01*
X142974600Y-134020267D01*
X143257411Y-133831298D01*
X143568480Y-133365751D01*
X143677713Y-132816600D01*
X143568480Y-132267449D01*
X143257411Y-131801902D01*
X142791864Y-131490833D01*
X142242713Y-131381600D01*
X142186487Y-131381600D01*
X141637336Y-131490833D01*
X141171789Y-131801902D01*
X140860720Y-132267449D01*
X140751487Y-132816600D01*
X140860720Y-133365751D01*
X141171789Y-133831298D01*
X141454600Y-134020267D01*
X141454600Y-143576198D01*
X136655998Y-148374800D01*
X134039846Y-148374800D01*
X134018443Y-148323000D01*
X133615123Y-147918976D01*
X133087891Y-147700050D01*
X132517013Y-147699552D01*
X131989400Y-147917557D01*
X131585376Y-148320877D01*
X131465120Y-148610486D01*
X130940805Y-149134800D01*
X130954948Y-149148942D01*
X130775342Y-149328548D01*
X130761200Y-149314405D01*
X129933061Y-150142545D01*
X129962413Y-150239993D01*
X129645523Y-150239716D01*
X129937024Y-149948723D01*
X130057280Y-149659114D01*
X130581595Y-149134800D01*
X130057194Y-148610400D01*
X129938443Y-148323000D01*
X129742840Y-148127055D01*
X129933061Y-148127055D01*
X130761200Y-148955195D01*
X131589339Y-148127055D01*
X131515205Y-147880936D01*
X130977977Y-147687835D01*
X130407746Y-147715022D01*
X130007195Y-147880936D01*
X129933061Y-148127055D01*
X129742840Y-148127055D01*
X129535123Y-147918976D01*
X129481200Y-147896585D01*
X129481200Y-141113002D01*
X141731698Y-128862504D01*
X142008687Y-128917600D01*
X142064913Y-128917600D01*
X142341901Y-128862504D01*
X144090198Y-130610801D01*
X144213617Y-130693266D01*
X144336761Y-130775548D01*
X144627600Y-130833400D01*
X150230998Y-130833400D01*
X151279631Y-131882033D01*
X151158776Y-132002677D01*
X150939850Y-132529909D01*
X150939352Y-133100787D01*
X151157357Y-133628400D01*
X151560677Y-134032424D01*
X152087909Y-134251350D01*
X152658787Y-134251848D01*
X153186400Y-134033843D01*
X153590424Y-133630523D01*
X153809350Y-133103291D01*
X153809848Y-132532413D01*
X153591843Y-132004800D01*
X153188523Y-131600776D01*
X153024039Y-131532476D01*
X152912001Y-131364799D01*
X151083201Y-129535999D01*
X150836639Y-129371252D01*
X150545800Y-129313400D01*
X144942403Y-129313400D01*
X143435488Y-127806486D01*
X143499913Y-127482600D01*
X143390680Y-126933449D01*
X143079611Y-126467902D01*
X142614064Y-126156833D01*
X142064913Y-126047600D01*
X142008687Y-126047600D01*
X141459536Y-126156833D01*
X140993989Y-126467902D01*
X140682920Y-126933449D01*
X140573687Y-127482600D01*
X140638112Y-127806486D01*
X128183799Y-140260799D01*
X128019052Y-140507361D01*
X127961200Y-140798200D01*
X127961200Y-147896154D01*
X127909400Y-147917557D01*
X127505376Y-148320877D01*
X127286450Y-148848109D01*
X127285952Y-149418987D01*
X127503957Y-149946600D01*
X127790757Y-150233900D01*
X127347746Y-150255022D01*
X126947195Y-150420936D01*
X126873061Y-150667055D01*
X127701200Y-151495195D01*
X128529339Y-150667055D01*
X128499987Y-150569607D01*
X128816877Y-150569884D01*
X128525376Y-150860877D01*
X128405120Y-151150486D01*
X127880805Y-151674800D01*
X128405206Y-152199200D01*
X128523957Y-152486600D01*
X128927277Y-152890624D01*
X129454509Y-153109550D01*
X130025387Y-153110048D01*
X130553000Y-152892043D01*
X130761209Y-152684197D01*
X130967277Y-152890624D01*
X131021200Y-152913015D01*
X131021200Y-153933398D01*
X128463198Y-156491400D01*
X120609202Y-156491400D01*
X118436201Y-154318399D01*
X122515899Y-154318399D01*
X122779481Y-154956315D01*
X123267118Y-155444804D01*
X123904573Y-155709499D01*
X124594799Y-155710101D01*
X125232715Y-155446519D01*
X125721204Y-154958882D01*
X125985899Y-154321427D01*
X125986501Y-153631201D01*
X125722919Y-152993285D01*
X125412721Y-152682545D01*
X126873061Y-152682545D01*
X126947195Y-152928664D01*
X127484423Y-153121765D01*
X128054654Y-153094578D01*
X128455205Y-152928664D01*
X128529339Y-152682545D01*
X127701200Y-151854405D01*
X126873061Y-152682545D01*
X125412721Y-152682545D01*
X125235282Y-152504796D01*
X124597827Y-152240101D01*
X123907601Y-152239499D01*
X123269685Y-152503081D01*
X122781196Y-152990718D01*
X122516501Y-153628173D01*
X122515899Y-154318399D01*
X118436201Y-154318399D01*
X118336600Y-154218798D01*
X118336600Y-151458023D01*
X126254235Y-151458023D01*
X126281422Y-152028254D01*
X126447336Y-152428805D01*
X126693455Y-152502939D01*
X127521595Y-151674800D01*
X126693455Y-150846661D01*
X126447336Y-150920795D01*
X126254235Y-151458023D01*
X118336600Y-151458023D01*
X118336600Y-141477640D01*
X118376600Y-141477640D01*
X118611917Y-141433362D01*
X118828041Y-141294290D01*
X118973031Y-141082090D01*
X119024040Y-140830200D01*
X119024040Y-139230200D01*
X118979762Y-138994883D01*
X118840690Y-138778759D01*
X118628490Y-138633769D01*
X118376600Y-138582760D01*
X118336600Y-138582760D01*
X118336600Y-136702800D01*
X118278748Y-136411961D01*
X118114001Y-136165399D01*
X117142800Y-135194198D01*
X117142800Y-133371608D01*
X117237588Y-133434943D01*
X117652800Y-133517534D01*
X118068012Y-133434943D01*
X118420011Y-133199745D01*
X118655209Y-132847746D01*
X118737800Y-132432534D01*
X118737800Y-131778266D01*
X118655209Y-131363054D01*
X118420011Y-131011055D01*
X118412800Y-131006237D01*
X118412800Y-129692400D01*
X118354948Y-129401561D01*
X118190201Y-129154999D01*
X115644200Y-126608998D01*
X115644200Y-123723040D01*
X115684200Y-123723040D01*
X115919517Y-123678762D01*
X116135641Y-123539690D01*
X116280631Y-123327490D01*
X116289570Y-123283345D01*
X116556061Y-123283345D01*
X116630195Y-123529464D01*
X117167423Y-123722565D01*
X117737654Y-123695378D01*
X118138205Y-123529464D01*
X118212339Y-123283345D01*
X117384200Y-122455205D01*
X116556061Y-123283345D01*
X116289570Y-123283345D01*
X116328846Y-123089399D01*
X116376455Y-123103739D01*
X117204595Y-122275600D01*
X117563805Y-122275600D01*
X118391945Y-123103739D01*
X118638064Y-123029605D01*
X118831165Y-122492377D01*
X118803978Y-121922146D01*
X118638064Y-121521595D01*
X118391945Y-121447461D01*
X117563805Y-122275600D01*
X117204595Y-122275600D01*
X116376455Y-121447461D01*
X116329033Y-121461745D01*
X116292551Y-121267855D01*
X116556061Y-121267855D01*
X117384200Y-122095995D01*
X118212339Y-121267855D01*
X118138205Y-121021736D01*
X117600977Y-120828635D01*
X117030746Y-120855822D01*
X116630195Y-121021736D01*
X116556061Y-121267855D01*
X116292551Y-121267855D01*
X116287362Y-121240283D01*
X116148290Y-121024159D01*
X115936090Y-120879169D01*
X115684200Y-120828160D01*
X115644200Y-120828160D01*
X115644200Y-115493440D01*
X115684200Y-115493440D01*
X115919517Y-115449162D01*
X116135641Y-115310090D01*
X116280631Y-115097890D01*
X116289570Y-115053745D01*
X116556061Y-115053745D01*
X116630195Y-115299864D01*
X117167423Y-115492965D01*
X117737654Y-115465778D01*
X118138205Y-115299864D01*
X118212339Y-115053745D01*
X117384200Y-114225605D01*
X116556061Y-115053745D01*
X116289570Y-115053745D01*
X116328846Y-114859799D01*
X116376455Y-114874139D01*
X117204595Y-114046000D01*
X117563805Y-114046000D01*
X118391945Y-114874139D01*
X118638064Y-114800005D01*
X118831165Y-114262777D01*
X118803978Y-113692546D01*
X118638064Y-113291995D01*
X118391945Y-113217861D01*
X117563805Y-114046000D01*
X117204595Y-114046000D01*
X117190452Y-114031858D01*
X117370058Y-113852252D01*
X117384200Y-113866395D01*
X118212339Y-113038255D01*
X118138205Y-112792136D01*
X117600977Y-112599035D01*
X117396204Y-112608798D01*
X121625202Y-108379800D01*
X124530198Y-108379800D01*
X123846399Y-109063599D01*
X123681652Y-109310161D01*
X123623800Y-109601000D01*
X123623800Y-124206000D01*
X123681652Y-124496839D01*
X123846399Y-124743401D01*
X125281944Y-126178946D01*
X125260450Y-126230709D01*
X125259952Y-126801587D01*
X125477957Y-127329200D01*
X125881277Y-127733224D01*
X126408509Y-127952150D01*
X126979387Y-127952648D01*
X127507000Y-127734643D01*
X127911024Y-127331323D01*
X127933415Y-127277400D01*
X129683449Y-127277400D01*
X129694357Y-127303800D01*
X130097677Y-127707824D01*
X130624909Y-127926750D01*
X131195787Y-127927248D01*
X131723400Y-127709243D01*
X132127424Y-127305923D01*
X132149815Y-127252000D01*
X133863954Y-127252000D01*
X133885357Y-127303800D01*
X134288677Y-127707824D01*
X134815909Y-127926750D01*
X135386787Y-127927248D01*
X135914400Y-127709243D01*
X136318424Y-127305923D01*
X136340815Y-127252000D01*
X137769600Y-127252000D01*
X138060439Y-127194148D01*
X138307001Y-127029401D01*
X140694601Y-124641801D01*
X140859348Y-124395240D01*
X140917200Y-124104400D01*
X140917200Y-120758972D01*
X144520888Y-120758972D01*
X144552783Y-121209375D01*
X144663783Y-121477352D01*
X144878896Y-121514499D01*
X145489395Y-120904000D01*
X144878896Y-120293501D01*
X144663783Y-120330648D01*
X144520888Y-120758972D01*
X140917200Y-120758972D01*
X140917200Y-120113896D01*
X145058501Y-120113896D01*
X145669000Y-120724395D01*
X146279499Y-120113896D01*
X146242352Y-119898783D01*
X145814028Y-119755888D01*
X145363625Y-119787783D01*
X145095648Y-119898783D01*
X145058501Y-120113896D01*
X140917200Y-120113896D01*
X140917200Y-116291202D01*
X141647546Y-115560856D01*
X141699309Y-115582350D01*
X142270187Y-115582848D01*
X142797800Y-115364843D01*
X143201824Y-114961523D01*
X143420750Y-114434291D01*
X143421248Y-113863413D01*
X143203243Y-113335800D01*
X142799923Y-112931776D01*
X142272691Y-112712850D01*
X141701813Y-112712352D01*
X141174200Y-112930357D01*
X140770176Y-113333677D01*
X140551250Y-113860909D01*
X140550752Y-114431787D01*
X140573049Y-114485749D01*
X139619799Y-115438999D01*
X139455052Y-115685561D01*
X139397200Y-115976400D01*
X139397200Y-123789598D01*
X137454798Y-125732000D01*
X136341246Y-125732000D01*
X136319843Y-125680200D01*
X135916523Y-125276176D01*
X135389291Y-125057250D01*
X134818413Y-125056752D01*
X134290800Y-125274757D01*
X133886776Y-125678077D01*
X133864385Y-125732000D01*
X132150246Y-125732000D01*
X132128843Y-125680200D01*
X131725523Y-125276176D01*
X131198291Y-125057250D01*
X130627413Y-125056752D01*
X130099800Y-125274757D01*
X129695776Y-125678077D01*
X129662838Y-125757400D01*
X127933846Y-125757400D01*
X127912443Y-125705600D01*
X127509123Y-125301576D01*
X126981891Y-125082650D01*
X126411013Y-125082152D01*
X126357051Y-125104449D01*
X125143800Y-123891198D01*
X125143800Y-109915802D01*
X125263006Y-109796596D01*
X125196600Y-110130441D01*
X125196600Y-110189159D01*
X125310674Y-110762648D01*
X125635530Y-111248829D01*
X126121711Y-111573685D01*
X126642852Y-111677346D01*
X126157799Y-112162399D01*
X125993052Y-112408961D01*
X125935200Y-112699800D01*
X125935200Y-115144405D01*
X125680502Y-115314589D01*
X125369433Y-115780136D01*
X125260200Y-116329287D01*
X125260200Y-116385513D01*
X125369433Y-116934664D01*
X125680502Y-117400211D01*
X126146049Y-117711280D01*
X126695200Y-117820513D01*
X127244351Y-117711280D01*
X127709898Y-117400211D01*
X128020967Y-116934664D01*
X128130200Y-116385513D01*
X128130200Y-116329287D01*
X128020967Y-115780136D01*
X127709898Y-115314589D01*
X127455200Y-115144405D01*
X127455200Y-113014602D01*
X128857227Y-111612575D01*
X129235200Y-111687759D01*
X129808689Y-111573685D01*
X130151600Y-111344559D01*
X130151600Y-115119005D01*
X129896902Y-115289189D01*
X129585833Y-115754736D01*
X129476600Y-116303887D01*
X129476600Y-116360113D01*
X129585833Y-116909264D01*
X129896902Y-117374811D01*
X130362449Y-117685880D01*
X130911600Y-117795113D01*
X131460751Y-117685880D01*
X131926298Y-117374811D01*
X132237367Y-116909264D01*
X132346600Y-116360113D01*
X132346600Y-116303887D01*
X132237367Y-115754736D01*
X131926298Y-115289189D01*
X131671600Y-115119005D01*
X131671600Y-111667152D01*
X131775200Y-111687759D01*
X132285200Y-111586314D01*
X132285200Y-111607600D01*
X132343052Y-111898439D01*
X132507799Y-112145001D01*
X134342600Y-113979802D01*
X134342600Y-115119005D01*
X134087902Y-115289189D01*
X133776833Y-115754736D01*
X133667600Y-116303887D01*
X133667600Y-116360113D01*
X133776833Y-116909264D01*
X134087902Y-117374811D01*
X134553449Y-117685880D01*
X135102600Y-117795113D01*
X135651751Y-117685880D01*
X136117298Y-117374811D01*
X136428367Y-116909264D01*
X136537600Y-116360113D01*
X136537600Y-116303887D01*
X136428367Y-115754736D01*
X136117298Y-115289189D01*
X135862600Y-115119005D01*
X135862600Y-113665000D01*
X135804748Y-113374161D01*
X135640001Y-113127599D01*
X134068510Y-111556108D01*
X134188200Y-111493617D01*
X134188200Y-110286800D01*
X134442200Y-110286800D01*
X134442200Y-111493617D01*
X134674226Y-111614758D01*
X135090147Y-111442488D01*
X135522021Y-111048290D01*
X135770168Y-110518827D01*
X135649669Y-110286800D01*
X134442200Y-110286800D01*
X134188200Y-110286800D01*
X134168200Y-110286800D01*
X134168200Y-110032800D01*
X134188200Y-110032800D01*
X134188200Y-110012800D01*
X134442200Y-110012800D01*
X134442200Y-110032800D01*
X135649669Y-110032800D01*
X135770168Y-109800773D01*
X135522021Y-109271310D01*
X135335767Y-109101305D01*
X135414117Y-109086562D01*
X135630241Y-108947490D01*
X135775231Y-108735290D01*
X135826240Y-108483400D01*
X135826240Y-106756200D01*
X135781962Y-106520883D01*
X135642890Y-106304759D01*
X135430690Y-106159769D01*
X135178800Y-106108760D01*
X133451600Y-106108760D01*
X133216283Y-106153038D01*
X133000159Y-106292110D01*
X132855169Y-106504310D01*
X132846336Y-106547931D01*
X132834870Y-106530771D01*
X132348689Y-106205915D01*
X131775200Y-106091841D01*
X131201711Y-106205915D01*
X130715530Y-106530771D01*
X130505200Y-106845552D01*
X130294870Y-106530771D01*
X129808689Y-106205915D01*
X129308734Y-106106468D01*
X129702402Y-105712800D01*
X145150998Y-105712800D01*
X151386000Y-111947802D01*
X151386000Y-112943933D01*
X151103189Y-113132902D01*
X150792120Y-113598449D01*
X150682887Y-114147600D01*
X150747312Y-114471486D01*
X147671599Y-117547199D01*
X147506852Y-117793761D01*
X147449000Y-118084600D01*
X147449000Y-119816721D01*
X147257559Y-119939910D01*
X147112569Y-120152110D01*
X147061560Y-120404000D01*
X147061560Y-121039106D01*
X146816394Y-121038892D01*
X146785217Y-120598625D01*
X146674217Y-120330648D01*
X146459104Y-120293501D01*
X145848605Y-120904000D01*
X145862748Y-120918143D01*
X145683143Y-121097748D01*
X145669000Y-121083605D01*
X145058501Y-121694104D01*
X145095648Y-121909217D01*
X145523972Y-122052112D01*
X145804123Y-122032273D01*
X145803803Y-122398775D01*
X145976233Y-122816086D01*
X146295235Y-123135645D01*
X146712244Y-123308803D01*
X147163775Y-123309197D01*
X147581086Y-123136767D01*
X147784207Y-122934000D01*
X148630798Y-122934000D01*
X151436800Y-125740002D01*
X151436800Y-126243954D01*
X151385000Y-126265357D01*
X150980976Y-126668677D01*
X150762050Y-127195909D01*
X150761552Y-127766787D01*
X150979557Y-128294400D01*
X151382877Y-128698424D01*
X151910109Y-128917350D01*
X152480987Y-128917848D01*
X153008600Y-128699843D01*
X153412624Y-128296523D01*
X153631550Y-127769291D01*
X153632048Y-127198413D01*
X153414043Y-126670800D01*
X153010723Y-126266776D01*
X152956800Y-126244385D01*
X152956800Y-125425200D01*
X152898948Y-125134361D01*
X152734201Y-124887799D01*
X149483001Y-121636599D01*
X149330035Y-121534391D01*
X149356440Y-121404000D01*
X149356440Y-120404000D01*
X149312162Y-120168683D01*
X149173090Y-119952559D01*
X148969000Y-119813110D01*
X148969000Y-118399402D01*
X151840898Y-115527504D01*
X152117887Y-115582600D01*
X152174113Y-115582600D01*
X152723264Y-115473367D01*
X153188811Y-115162298D01*
X153499880Y-114696751D01*
X153609113Y-114147600D01*
X153499880Y-113598449D01*
X153188811Y-113132902D01*
X152906000Y-112943933D01*
X152906000Y-111633000D01*
X152848148Y-111342161D01*
X152848148Y-111342160D01*
X152683401Y-111095599D01*
X146139342Y-104551540D01*
X153214518Y-104551540D01*
X153637616Y-105575515D01*
X154420365Y-106359631D01*
X155443599Y-106784515D01*
X156551540Y-106785482D01*
X157575515Y-106362384D01*
X158359631Y-105579635D01*
X158784515Y-104556401D01*
X158785482Y-103448460D01*
X158362384Y-102424485D01*
X157579635Y-101640369D01*
X156556401Y-101215485D01*
X155448460Y-101214518D01*
X154424485Y-101637616D01*
X153640369Y-102420365D01*
X153215485Y-103443599D01*
X153214518Y-104551540D01*
X146139342Y-104551540D01*
X146003201Y-104415399D01*
X145756639Y-104250652D01*
X145465800Y-104192800D01*
X129387600Y-104192800D01*
X129096760Y-104250652D01*
X128850199Y-104415399D01*
X127453199Y-105812399D01*
X127288452Y-106058961D01*
X127259581Y-106204103D01*
X126695200Y-106091841D01*
X126121711Y-106205915D01*
X125635530Y-106530771D01*
X125415680Y-106859800D01*
X121310400Y-106859800D01*
X121019560Y-106917652D01*
X120772999Y-107082399D01*
X115256838Y-112598560D01*
X114084200Y-112598560D01*
X113848883Y-112642838D01*
X113632759Y-112781910D01*
X113487769Y-112994110D01*
X113436760Y-113246000D01*
X113436760Y-114846000D01*
X113481038Y-115081317D01*
X113620110Y-115297441D01*
X113832310Y-115442431D01*
X114084200Y-115493440D01*
X114124200Y-115493440D01*
X114124200Y-120828160D01*
X114084200Y-120828160D01*
X113848883Y-120872438D01*
X113632759Y-121011510D01*
X113487769Y-121223710D01*
X113436760Y-121475600D01*
X113436760Y-123075600D01*
X113481038Y-123310917D01*
X113620110Y-123527041D01*
X113713409Y-123590789D01*
X109857394Y-127446804D01*
X109663600Y-127407560D01*
X107963600Y-127407560D01*
X107728283Y-127451838D01*
X107512159Y-127590910D01*
X107367169Y-127803110D01*
X107316160Y-128055000D01*
X100735000Y-128055000D01*
X100735000Y-120503950D01*
X107328600Y-120503950D01*
X107328600Y-121194510D01*
X107425273Y-121427899D01*
X107603902Y-121606527D01*
X107837291Y-121703200D01*
X108527850Y-121703200D01*
X108686600Y-121544450D01*
X108686600Y-120345200D01*
X108940600Y-120345200D01*
X108940600Y-121544450D01*
X109099350Y-121703200D01*
X109789909Y-121703200D01*
X110023298Y-121606527D01*
X110201927Y-121427899D01*
X110298600Y-121194510D01*
X110298600Y-120503950D01*
X110139850Y-120345200D01*
X108940600Y-120345200D01*
X108686600Y-120345200D01*
X107487350Y-120345200D01*
X107328600Y-120503950D01*
X100735000Y-120503950D01*
X100735000Y-119241890D01*
X107328600Y-119241890D01*
X107328600Y-119932450D01*
X107487350Y-120091200D01*
X108686600Y-120091200D01*
X108686600Y-118891950D01*
X108940600Y-118891950D01*
X108940600Y-120091200D01*
X110139850Y-120091200D01*
X110298600Y-119932450D01*
X110298600Y-119241890D01*
X110201927Y-119008501D01*
X110023298Y-118829873D01*
X109789909Y-118733200D01*
X109099350Y-118733200D01*
X108940600Y-118891950D01*
X108686600Y-118891950D01*
X108527850Y-118733200D01*
X107837291Y-118733200D01*
X107603902Y-118829873D01*
X107425273Y-119008501D01*
X107328600Y-119241890D01*
X100735000Y-119241890D01*
X100735000Y-104551540D01*
X101214518Y-104551540D01*
X101637616Y-105575515D01*
X102420365Y-106359631D01*
X103443599Y-106784515D01*
X104551540Y-106785482D01*
X105575515Y-106362384D01*
X106359631Y-105579635D01*
X106784515Y-104556401D01*
X106785482Y-103448460D01*
X106362384Y-102424485D01*
X105579635Y-101640369D01*
X104556401Y-101215485D01*
X103448460Y-101214518D01*
X102424485Y-101637616D01*
X101640369Y-102420365D01*
X101215485Y-103443599D01*
X101214518Y-104551540D01*
X100735000Y-104551540D01*
X100735000Y-100735000D01*
X159265000Y-100735000D01*
X159265000Y-159265000D01*
M02*
