G04 #@! TF.FileFunction,Copper,L2,Bot,Signal*
%FSLAX46Y46*%
G04 Gerber Fmt 4.6, Leading zero omitted, Abs format (unit mm)*
G04 Created by KiCad (PCBNEW 4.0.7) date 12/20/18 21:54:31*
%MOMM*%
%LPD*%
G01*
G04 APERTURE LIST*
%ADD10C,0.100000*%
%ADD11R,1.600000X1.600000*%
%ADD12C,1.600000*%
%ADD13R,1.700000X1.700000*%
%ADD14C,1.000000*%
%ADD15R,1.000000X1.000000*%
%ADD16O,0.900000X1.500000*%
%ADD17R,0.900000X1.500000*%
%ADD18R,1.727200X1.727200*%
%ADD19O,1.727200X1.727200*%
%ADD20O,1.600000X1.600000*%
G04 APERTURE END LIST*
D10*
D11*
X117576600Y-140030200D03*
D12*
X115076600Y-140030200D03*
D11*
X114884200Y-122275600D03*
D12*
X117384200Y-122275600D03*
D11*
X114884200Y-114046000D03*
D12*
X117384200Y-114046000D03*
X132801200Y-149134800D03*
X131781200Y-151674800D03*
X130761200Y-149134800D03*
X129741200Y-151674800D03*
X128721200Y-149134800D03*
X127701200Y-151674800D03*
D13*
X108813600Y-128905000D03*
X108813600Y-137388600D03*
X108813600Y-120218200D03*
D14*
X146939000Y-122174000D03*
X145669000Y-120904000D03*
D15*
X148209000Y-120904000D03*
D16*
X116382800Y-132105400D03*
X117652800Y-132105400D03*
D17*
X115112800Y-132105400D03*
D18*
X134315200Y-107619800D03*
D19*
X134315200Y-110159800D03*
X131775200Y-107619800D03*
X131775200Y-110159800D03*
X129235200Y-107619800D03*
X129235200Y-110159800D03*
X126695200Y-107619800D03*
X126695200Y-110159800D03*
D12*
X135102600Y-126492000D03*
D20*
X135102600Y-116332000D03*
D12*
X130911600Y-126492000D03*
D20*
X130911600Y-116332000D03*
D12*
X126695200Y-126517400D03*
D20*
X126695200Y-116357400D03*
D12*
X152196800Y-127482600D03*
D20*
X142036800Y-127482600D03*
D12*
X152374600Y-132816600D03*
D20*
X142214600Y-132816600D03*
D12*
X141986000Y-114147600D03*
D20*
X152146000Y-114147600D03*
M02*
