G04 #@! TF.FileFunction,Legend,Top*
%FSLAX46Y46*%
G04 Gerber Fmt 4.6, Leading zero omitted, Abs format (unit mm)*
G04 Created by KiCad (PCBNEW 4.0.7) date 12/20/18 21:54:31*
%MOMM*%
%LPD*%
G01*
G04 APERTURE LIST*
%ADD10C,0.100000*%
%ADD11C,0.300000*%
%ADD12C,0.120000*%
%ADD13C,0.203200*%
%ADD14C,0.127000*%
%ADD15C,0.254000*%
%ADD16C,0.152400*%
%ADD17C,0.010000*%
%ADD18C,0.150000*%
%ADD19C,0.025400*%
G04 APERTURE END LIST*
D10*
D11*
X104355429Y-118969344D02*
X105855429Y-118969344D01*
X105855429Y-119326487D01*
X105784000Y-119540772D01*
X105641143Y-119683630D01*
X105498286Y-119755058D01*
X105212571Y-119826487D01*
X104998286Y-119826487D01*
X104712571Y-119755058D01*
X104569714Y-119683630D01*
X104426857Y-119540772D01*
X104355429Y-119326487D01*
X104355429Y-118969344D01*
X104426857Y-120397915D02*
X104355429Y-120612201D01*
X104355429Y-120969344D01*
X104426857Y-121112201D01*
X104498286Y-121183630D01*
X104641143Y-121255058D01*
X104784000Y-121255058D01*
X104926857Y-121183630D01*
X104998286Y-121112201D01*
X105069714Y-120969344D01*
X105141143Y-120683630D01*
X105212571Y-120540772D01*
X105284000Y-120469344D01*
X105426857Y-120397915D01*
X105569714Y-120397915D01*
X105712571Y-120469344D01*
X105784000Y-120540772D01*
X105855429Y-120683630D01*
X105855429Y-121040772D01*
X105784000Y-121255058D01*
X104355429Y-121897915D02*
X105855429Y-121897915D01*
X104784000Y-122397915D01*
X105855429Y-122897915D01*
X104355429Y-122897915D01*
X104355429Y-124469344D02*
X105069714Y-123969344D01*
X104355429Y-123612201D02*
X105855429Y-123612201D01*
X105855429Y-124183629D01*
X105784000Y-124326487D01*
X105712571Y-124397915D01*
X105569714Y-124469344D01*
X105355429Y-124469344D01*
X105212571Y-124397915D01*
X105141143Y-124326487D01*
X105069714Y-124183629D01*
X105069714Y-123612201D01*
X104355429Y-125326487D02*
X104426857Y-125183629D01*
X104569714Y-125112201D01*
X105855429Y-125112201D01*
X104355429Y-126112201D02*
X104426857Y-125969343D01*
X104498286Y-125897915D01*
X104641143Y-125826486D01*
X105069714Y-125826486D01*
X105212571Y-125897915D01*
X105284000Y-125969343D01*
X105355429Y-126112201D01*
X105355429Y-126326486D01*
X105284000Y-126469343D01*
X105212571Y-126540772D01*
X105069714Y-126612201D01*
X104641143Y-126612201D01*
X104498286Y-126540772D01*
X104426857Y-126469343D01*
X104355429Y-126326486D01*
X104355429Y-126112201D01*
X105355429Y-127897915D02*
X104141143Y-127897915D01*
X103998286Y-127826486D01*
X103926857Y-127755058D01*
X103855429Y-127612201D01*
X103855429Y-127397915D01*
X103926857Y-127255058D01*
X104426857Y-127897915D02*
X104355429Y-127755058D01*
X104355429Y-127469344D01*
X104426857Y-127326486D01*
X104498286Y-127255058D01*
X104641143Y-127183629D01*
X105069714Y-127183629D01*
X105212571Y-127255058D01*
X105284000Y-127326486D01*
X105355429Y-127469344D01*
X105355429Y-127755058D01*
X105284000Y-127897915D01*
X105355429Y-129255058D02*
X104141143Y-129255058D01*
X103998286Y-129183629D01*
X103926857Y-129112201D01*
X103855429Y-128969344D01*
X103855429Y-128755058D01*
X103926857Y-128612201D01*
X104426857Y-129255058D02*
X104355429Y-129112201D01*
X104355429Y-128826487D01*
X104426857Y-128683629D01*
X104498286Y-128612201D01*
X104641143Y-128540772D01*
X105069714Y-128540772D01*
X105212571Y-128612201D01*
X105284000Y-128683629D01*
X105355429Y-128826487D01*
X105355429Y-129112201D01*
X105284000Y-129255058D01*
X104426857Y-130540772D02*
X104355429Y-130397915D01*
X104355429Y-130112201D01*
X104426857Y-129969344D01*
X104569714Y-129897915D01*
X105141143Y-129897915D01*
X105284000Y-129969344D01*
X105355429Y-130112201D01*
X105355429Y-130397915D01*
X105284000Y-130540772D01*
X105141143Y-130612201D01*
X104998286Y-130612201D01*
X104855429Y-129897915D01*
X104355429Y-131255058D02*
X105355429Y-131255058D01*
X105069714Y-131255058D02*
X105212571Y-131326486D01*
X105284000Y-131397915D01*
X105355429Y-131540772D01*
X105355429Y-131683629D01*
X105355429Y-133183629D02*
X104355429Y-133540772D01*
X105355429Y-133897914D01*
X105855429Y-134326486D02*
X105855429Y-135255057D01*
X105284000Y-134755057D01*
X105284000Y-134969343D01*
X105212571Y-135112200D01*
X105141143Y-135183629D01*
X104998286Y-135255057D01*
X104641143Y-135255057D01*
X104498286Y-135183629D01*
X104426857Y-135112200D01*
X104355429Y-134969343D01*
X104355429Y-134540771D01*
X104426857Y-134397914D01*
X104498286Y-134326486D01*
X104926857Y-135897914D02*
X104926857Y-137040771D01*
X105855429Y-137540771D02*
X105855429Y-138397914D01*
X104355429Y-137969343D02*
X105855429Y-137969343D01*
X104355429Y-138897914D02*
X105855429Y-138897914D01*
X105141143Y-138897914D02*
X105141143Y-139755057D01*
X104355429Y-139755057D02*
X105855429Y-139755057D01*
X101805429Y-117469344D02*
X102519714Y-116969344D01*
X101805429Y-116612201D02*
X103305429Y-116612201D01*
X103305429Y-117183629D01*
X103234000Y-117326487D01*
X103162571Y-117397915D01*
X103019714Y-117469344D01*
X102805429Y-117469344D01*
X102662571Y-117397915D01*
X102591143Y-117326487D01*
X102519714Y-117183629D01*
X102519714Y-116612201D01*
X101805429Y-118326487D02*
X101876857Y-118183629D01*
X101948286Y-118112201D01*
X102091143Y-118040772D01*
X102519714Y-118040772D01*
X102662571Y-118112201D01*
X102734000Y-118183629D01*
X102805429Y-118326487D01*
X102805429Y-118540772D01*
X102734000Y-118683629D01*
X102662571Y-118755058D01*
X102519714Y-118826487D01*
X102091143Y-118826487D01*
X101948286Y-118755058D01*
X101876857Y-118683629D01*
X101805429Y-118540772D01*
X101805429Y-118326487D01*
X102805429Y-120112201D02*
X101591143Y-120112201D01*
X101448286Y-120040772D01*
X101376857Y-119969344D01*
X101305429Y-119826487D01*
X101305429Y-119612201D01*
X101376857Y-119469344D01*
X101876857Y-120112201D02*
X101805429Y-119969344D01*
X101805429Y-119683630D01*
X101876857Y-119540772D01*
X101948286Y-119469344D01*
X102091143Y-119397915D01*
X102519714Y-119397915D01*
X102662571Y-119469344D01*
X102734000Y-119540772D01*
X102805429Y-119683630D01*
X102805429Y-119969344D01*
X102734000Y-120112201D01*
X101805429Y-120826487D02*
X102805429Y-120826487D01*
X103305429Y-120826487D02*
X103234000Y-120755058D01*
X103162571Y-120826487D01*
X103234000Y-120897915D01*
X103305429Y-120826487D01*
X103162571Y-120826487D01*
X101876857Y-122112201D02*
X101805429Y-121969344D01*
X101805429Y-121683630D01*
X101876857Y-121540773D01*
X102019714Y-121469344D01*
X102591143Y-121469344D01*
X102734000Y-121540773D01*
X102805429Y-121683630D01*
X102805429Y-121969344D01*
X102734000Y-122112201D01*
X102591143Y-122183630D01*
X102448286Y-122183630D01*
X102305429Y-121469344D01*
X101805429Y-122826487D02*
X102805429Y-122826487D01*
X102519714Y-122826487D02*
X102662571Y-122897915D01*
X102734000Y-122969344D01*
X102805429Y-123112201D01*
X102805429Y-123255058D01*
X101805429Y-125755058D02*
X102519714Y-125255058D01*
X101805429Y-124897915D02*
X103305429Y-124897915D01*
X103305429Y-125469343D01*
X103234000Y-125612201D01*
X103162571Y-125683629D01*
X103019714Y-125755058D01*
X102805429Y-125755058D01*
X102662571Y-125683629D01*
X102591143Y-125612201D01*
X102519714Y-125469343D01*
X102519714Y-124897915D01*
X101876857Y-126969343D02*
X101805429Y-126826486D01*
X101805429Y-126540772D01*
X101876857Y-126397915D01*
X102019714Y-126326486D01*
X102591143Y-126326486D01*
X102734000Y-126397915D01*
X102805429Y-126540772D01*
X102805429Y-126826486D01*
X102734000Y-126969343D01*
X102591143Y-127040772D01*
X102448286Y-127040772D01*
X102305429Y-126326486D01*
X101876857Y-128255057D02*
X101805429Y-128112200D01*
X101805429Y-127826486D01*
X101876857Y-127683629D01*
X102019714Y-127612200D01*
X102591143Y-127612200D01*
X102734000Y-127683629D01*
X102805429Y-127826486D01*
X102805429Y-128112200D01*
X102734000Y-128255057D01*
X102591143Y-128326486D01*
X102448286Y-128326486D01*
X102305429Y-127612200D01*
X101805429Y-129612200D02*
X103305429Y-129612200D01*
X101876857Y-129612200D02*
X101805429Y-129469343D01*
X101805429Y-129183629D01*
X101876857Y-129040771D01*
X101948286Y-128969343D01*
X102091143Y-128897914D01*
X102519714Y-128897914D01*
X102662571Y-128969343D01*
X102734000Y-129040771D01*
X102805429Y-129183629D01*
X102805429Y-129469343D01*
X102734000Y-129612200D01*
X101805429Y-130326486D02*
X102805429Y-130326486D01*
X103305429Y-130326486D02*
X103234000Y-130255057D01*
X103162571Y-130326486D01*
X103234000Y-130397914D01*
X103305429Y-130326486D01*
X103162571Y-130326486D01*
X102805429Y-131040772D02*
X101519714Y-131040772D01*
X101376857Y-130969343D01*
X101305429Y-130826486D01*
X101305429Y-130755058D01*
X103305429Y-131040772D02*
X103234000Y-130969343D01*
X103162571Y-131040772D01*
X103234000Y-131112200D01*
X103305429Y-131040772D01*
X103162571Y-131040772D01*
X101805429Y-131755058D02*
X103305429Y-131755058D01*
X102376857Y-131897915D02*
X101805429Y-132326486D01*
X102805429Y-132326486D02*
X102234000Y-131755058D01*
X102376857Y-134112201D02*
X102376857Y-135255058D01*
X103162571Y-137040772D02*
X103234000Y-137112201D01*
X103305429Y-137255058D01*
X103305429Y-137612201D01*
X103234000Y-137755058D01*
X103162571Y-137826487D01*
X103019714Y-137897915D01*
X102876857Y-137897915D01*
X102662571Y-137826487D01*
X101805429Y-136969344D01*
X101805429Y-137897915D01*
X103305429Y-138826486D02*
X103305429Y-138969343D01*
X103234000Y-139112200D01*
X103162571Y-139183629D01*
X103019714Y-139255058D01*
X102734000Y-139326486D01*
X102376857Y-139326486D01*
X102091143Y-139255058D01*
X101948286Y-139183629D01*
X101876857Y-139112200D01*
X101805429Y-138969343D01*
X101805429Y-138826486D01*
X101876857Y-138683629D01*
X101948286Y-138612200D01*
X102091143Y-138540772D01*
X102376857Y-138469343D01*
X102734000Y-138469343D01*
X103019714Y-138540772D01*
X103162571Y-138612200D01*
X103234000Y-138683629D01*
X103305429Y-138826486D01*
X101805429Y-140755057D02*
X101805429Y-139897914D01*
X101805429Y-140326486D02*
X103305429Y-140326486D01*
X103091143Y-140183629D01*
X102948286Y-140040771D01*
X102876857Y-139897914D01*
X102662571Y-141612200D02*
X102734000Y-141469342D01*
X102805429Y-141397914D01*
X102948286Y-141326485D01*
X103019714Y-141326485D01*
X103162571Y-141397914D01*
X103234000Y-141469342D01*
X103305429Y-141612200D01*
X103305429Y-141897914D01*
X103234000Y-142040771D01*
X103162571Y-142112200D01*
X103019714Y-142183628D01*
X102948286Y-142183628D01*
X102805429Y-142112200D01*
X102734000Y-142040771D01*
X102662571Y-141897914D01*
X102662571Y-141612200D01*
X102591143Y-141469342D01*
X102519714Y-141397914D01*
X102376857Y-141326485D01*
X102091143Y-141326485D01*
X101948286Y-141397914D01*
X101876857Y-141469342D01*
X101805429Y-141612200D01*
X101805429Y-141897914D01*
X101876857Y-142040771D01*
X101948286Y-142112200D01*
X102091143Y-142183628D01*
X102376857Y-142183628D01*
X102519714Y-142112200D01*
X102591143Y-142040771D01*
X102662571Y-141897914D01*
X134257171Y-146372686D02*
X132757171Y-146372686D01*
X132757171Y-146015543D01*
X132828600Y-145801258D01*
X132971457Y-145658400D01*
X133114314Y-145586972D01*
X133400029Y-145515543D01*
X133614314Y-145515543D01*
X133900029Y-145586972D01*
X134042886Y-145658400D01*
X134185743Y-145801258D01*
X134257171Y-146015543D01*
X134257171Y-146372686D01*
X134114314Y-144872686D02*
X134185743Y-144801258D01*
X134257171Y-144872686D01*
X134185743Y-144944115D01*
X134114314Y-144872686D01*
X134257171Y-144872686D01*
X134257171Y-143301257D02*
X133542886Y-143801257D01*
X134257171Y-144158400D02*
X132757171Y-144158400D01*
X132757171Y-143586972D01*
X132828600Y-143444114D01*
X132900029Y-143372686D01*
X133042886Y-143301257D01*
X133257171Y-143301257D01*
X133400029Y-143372686D01*
X133471457Y-143444114D01*
X133542886Y-143586972D01*
X133542886Y-144158400D01*
X133471457Y-142658400D02*
X133471457Y-142158400D01*
X134257171Y-141944114D02*
X134257171Y-142658400D01*
X132757171Y-142658400D01*
X132757171Y-141944114D01*
X134400029Y-140301257D02*
X134328600Y-140444114D01*
X134185743Y-140586971D01*
X133971457Y-140801257D01*
X133900029Y-140944114D01*
X133900029Y-141086971D01*
X134257171Y-141015543D02*
X134185743Y-141158400D01*
X134042886Y-141301257D01*
X133757171Y-141372686D01*
X133257171Y-141372686D01*
X132971457Y-141301257D01*
X132828600Y-141158400D01*
X132757171Y-141015543D01*
X132757171Y-140729829D01*
X132828600Y-140586971D01*
X132971457Y-140444114D01*
X133257171Y-140372686D01*
X133757171Y-140372686D01*
X134042886Y-140444114D01*
X134185743Y-140586971D01*
X134257171Y-140729829D01*
X134257171Y-141015543D01*
X134941571Y-144125913D02*
X134941571Y-144840199D01*
X135655857Y-144911628D01*
X135584429Y-144840199D01*
X135513000Y-144697342D01*
X135513000Y-144340199D01*
X135584429Y-144197342D01*
X135655857Y-144125913D01*
X135798714Y-144054485D01*
X136155857Y-144054485D01*
X136298714Y-144125913D01*
X136370143Y-144197342D01*
X136441571Y-144340199D01*
X136441571Y-144697342D01*
X136370143Y-144840199D01*
X136298714Y-144911628D01*
X134941571Y-143625914D02*
X136441571Y-143125914D01*
X134941571Y-142625914D01*
X130822000Y-144068657D02*
X130750571Y-144211514D01*
X130750571Y-144425800D01*
X130822000Y-144640085D01*
X130964857Y-144782943D01*
X131107714Y-144854371D01*
X131393429Y-144925800D01*
X131607714Y-144925800D01*
X131893429Y-144854371D01*
X132036286Y-144782943D01*
X132179143Y-144640085D01*
X132250571Y-144425800D01*
X132250571Y-144282943D01*
X132179143Y-144068657D01*
X132107714Y-143997228D01*
X131607714Y-143997228D01*
X131607714Y-144282943D01*
X132250571Y-143354371D02*
X130750571Y-143354371D01*
X132250571Y-142497228D01*
X130750571Y-142497228D01*
X132250571Y-141782942D02*
X130750571Y-141782942D01*
X130750571Y-141425799D01*
X130822000Y-141211514D01*
X130964857Y-141068656D01*
X131107714Y-140997228D01*
X131393429Y-140925799D01*
X131607714Y-140925799D01*
X131893429Y-140997228D01*
X132036286Y-141068656D01*
X132179143Y-141211514D01*
X132250571Y-141425799D01*
X132250571Y-141782942D01*
X130116971Y-146491971D02*
X128616971Y-146491971D01*
X130116971Y-145634828D01*
X128616971Y-145634828D01*
X129974114Y-144063399D02*
X130045543Y-144134828D01*
X130116971Y-144349114D01*
X130116971Y-144491971D01*
X130045543Y-144706256D01*
X129902686Y-144849114D01*
X129759829Y-144920542D01*
X129474114Y-144991971D01*
X129259829Y-144991971D01*
X128974114Y-144920542D01*
X128831257Y-144849114D01*
X128688400Y-144706256D01*
X128616971Y-144491971D01*
X128616971Y-144349114D01*
X128688400Y-144134828D01*
X128759829Y-144063399D01*
X126407171Y-144940114D02*
X126407171Y-144082971D01*
X127907171Y-144511542D02*
X126407171Y-144511542D01*
X127907171Y-143725828D02*
X126907171Y-142940114D01*
X126907171Y-143725828D02*
X127907171Y-142940114D01*
X127907171Y-142368685D02*
X126407171Y-142368685D01*
X126407171Y-142011542D01*
X126478600Y-141797257D01*
X126621457Y-141654399D01*
X126764314Y-141582971D01*
X127050029Y-141511542D01*
X127264314Y-141511542D01*
X127550029Y-141582971D01*
X127692886Y-141654399D01*
X127835743Y-141797257D01*
X127907171Y-142011542D01*
X127907171Y-142368685D01*
X124345000Y-145618057D02*
X124273571Y-145760914D01*
X124273571Y-145975200D01*
X124345000Y-146189485D01*
X124487857Y-146332343D01*
X124630714Y-146403771D01*
X124916429Y-146475200D01*
X125130714Y-146475200D01*
X125416429Y-146403771D01*
X125559286Y-146332343D01*
X125702143Y-146189485D01*
X125773571Y-145975200D01*
X125773571Y-145832343D01*
X125702143Y-145618057D01*
X125630714Y-145546628D01*
X125130714Y-145546628D01*
X125130714Y-145832343D01*
X125773571Y-144903771D02*
X124273571Y-144903771D01*
X125773571Y-144046628D01*
X124273571Y-144046628D01*
X125773571Y-143332342D02*
X124273571Y-143332342D01*
X124273571Y-142975199D01*
X124345000Y-142760914D01*
X124487857Y-142618056D01*
X124630714Y-142546628D01*
X124916429Y-142475199D01*
X125130714Y-142475199D01*
X125416429Y-142546628D01*
X125559286Y-142618056D01*
X125702143Y-142760914D01*
X125773571Y-142975199D01*
X125773571Y-143332342D01*
D12*
X114020878Y-141209923D02*
G75*
G03X118632180Y-141210200I2305722J1179723D01*
G01*
X114020878Y-138850477D02*
G75*
G02X118632180Y-138850200I2305722J-1179723D01*
G01*
X114020878Y-138850477D02*
G75*
G03X114021020Y-141210200I2305722J-1179723D01*
G01*
X116326600Y-142580200D02*
X116326600Y-137480200D01*
X116286600Y-142580200D02*
X116286600Y-137480200D01*
X116246600Y-142579200D02*
X116246600Y-137481200D01*
X116206600Y-142578200D02*
X116206600Y-137482200D01*
X116166600Y-142576200D02*
X116166600Y-137484200D01*
X116126600Y-142573200D02*
X116126600Y-137487200D01*
X116086600Y-142569200D02*
X116086600Y-137491200D01*
X116046600Y-142565200D02*
X116046600Y-141010200D01*
X116046600Y-139050200D02*
X116046600Y-137495200D01*
X116006600Y-142561200D02*
X116006600Y-141010200D01*
X116006600Y-139050200D02*
X116006600Y-137499200D01*
X115966600Y-142555200D02*
X115966600Y-141010200D01*
X115966600Y-139050200D02*
X115966600Y-137505200D01*
X115926600Y-142549200D02*
X115926600Y-141010200D01*
X115926600Y-139050200D02*
X115926600Y-137511200D01*
X115886600Y-142543200D02*
X115886600Y-141010200D01*
X115886600Y-139050200D02*
X115886600Y-137517200D01*
X115846600Y-142536200D02*
X115846600Y-141010200D01*
X115846600Y-139050200D02*
X115846600Y-137524200D01*
X115806600Y-142528200D02*
X115806600Y-141010200D01*
X115806600Y-139050200D02*
X115806600Y-137532200D01*
X115766600Y-142519200D02*
X115766600Y-141010200D01*
X115766600Y-139050200D02*
X115766600Y-137541200D01*
X115726600Y-142510200D02*
X115726600Y-141010200D01*
X115726600Y-139050200D02*
X115726600Y-137550200D01*
X115686600Y-142500200D02*
X115686600Y-141010200D01*
X115686600Y-139050200D02*
X115686600Y-137560200D01*
X115646600Y-142490200D02*
X115646600Y-141010200D01*
X115646600Y-139050200D02*
X115646600Y-137570200D01*
X115605600Y-142478200D02*
X115605600Y-141010200D01*
X115605600Y-139050200D02*
X115605600Y-137582200D01*
X115565600Y-142466200D02*
X115565600Y-141010200D01*
X115565600Y-139050200D02*
X115565600Y-137594200D01*
X115525600Y-142454200D02*
X115525600Y-141010200D01*
X115525600Y-139050200D02*
X115525600Y-137606200D01*
X115485600Y-142440200D02*
X115485600Y-141010200D01*
X115485600Y-139050200D02*
X115485600Y-137620200D01*
X115445600Y-142426200D02*
X115445600Y-141010200D01*
X115445600Y-139050200D02*
X115445600Y-137634200D01*
X115405600Y-142412200D02*
X115405600Y-141010200D01*
X115405600Y-139050200D02*
X115405600Y-137648200D01*
X115365600Y-142396200D02*
X115365600Y-141010200D01*
X115365600Y-139050200D02*
X115365600Y-137664200D01*
X115325600Y-142380200D02*
X115325600Y-141010200D01*
X115325600Y-139050200D02*
X115325600Y-137680200D01*
X115285600Y-142363200D02*
X115285600Y-141010200D01*
X115285600Y-139050200D02*
X115285600Y-137697200D01*
X115245600Y-142345200D02*
X115245600Y-141010200D01*
X115245600Y-139050200D02*
X115245600Y-137715200D01*
X115205600Y-142326200D02*
X115205600Y-141010200D01*
X115205600Y-139050200D02*
X115205600Y-137734200D01*
X115165600Y-142306200D02*
X115165600Y-141010200D01*
X115165600Y-139050200D02*
X115165600Y-137754200D01*
X115125600Y-142286200D02*
X115125600Y-141010200D01*
X115125600Y-139050200D02*
X115125600Y-137774200D01*
X115085600Y-142264200D02*
X115085600Y-141010200D01*
X115085600Y-139050200D02*
X115085600Y-137796200D01*
X115045600Y-142242200D02*
X115045600Y-141010200D01*
X115045600Y-139050200D02*
X115045600Y-137818200D01*
X115005600Y-142219200D02*
X115005600Y-141010200D01*
X115005600Y-139050200D02*
X115005600Y-137841200D01*
X114965600Y-142195200D02*
X114965600Y-141010200D01*
X114965600Y-139050200D02*
X114965600Y-137865200D01*
X114925600Y-142170200D02*
X114925600Y-141010200D01*
X114925600Y-139050200D02*
X114925600Y-137890200D01*
X114885600Y-142143200D02*
X114885600Y-141010200D01*
X114885600Y-139050200D02*
X114885600Y-137917200D01*
X114845600Y-142116200D02*
X114845600Y-141010200D01*
X114845600Y-139050200D02*
X114845600Y-137944200D01*
X114805600Y-142088200D02*
X114805600Y-141010200D01*
X114805600Y-139050200D02*
X114805600Y-137972200D01*
X114765600Y-142058200D02*
X114765600Y-141010200D01*
X114765600Y-139050200D02*
X114765600Y-138002200D01*
X114725600Y-142027200D02*
X114725600Y-141010200D01*
X114725600Y-139050200D02*
X114725600Y-138033200D01*
X114685600Y-141995200D02*
X114685600Y-141010200D01*
X114685600Y-139050200D02*
X114685600Y-138065200D01*
X114645600Y-141962200D02*
X114645600Y-141010200D01*
X114645600Y-139050200D02*
X114645600Y-138098200D01*
X114605600Y-141927200D02*
X114605600Y-141010200D01*
X114605600Y-139050200D02*
X114605600Y-138133200D01*
X114565600Y-141891200D02*
X114565600Y-141010200D01*
X114565600Y-139050200D02*
X114565600Y-138169200D01*
X114525600Y-141853200D02*
X114525600Y-141010200D01*
X114525600Y-139050200D02*
X114525600Y-138207200D01*
X114485600Y-141813200D02*
X114485600Y-141010200D01*
X114485600Y-139050200D02*
X114485600Y-138247200D01*
X114445600Y-141772200D02*
X114445600Y-141010200D01*
X114445600Y-139050200D02*
X114445600Y-138288200D01*
X114405600Y-141729200D02*
X114405600Y-141010200D01*
X114405600Y-139050200D02*
X114405600Y-138331200D01*
X114365600Y-141684200D02*
X114365600Y-141010200D01*
X114365600Y-139050200D02*
X114365600Y-138376200D01*
X114325600Y-141636200D02*
X114325600Y-141010200D01*
X114325600Y-139050200D02*
X114325600Y-138424200D01*
X114285600Y-141586200D02*
X114285600Y-141010200D01*
X114285600Y-139050200D02*
X114285600Y-138474200D01*
X114245600Y-141534200D02*
X114245600Y-141010200D01*
X114245600Y-139050200D02*
X114245600Y-138526200D01*
X114205600Y-141478200D02*
X114205600Y-141010200D01*
X114205600Y-139050200D02*
X114205600Y-138582200D01*
X114165600Y-141420200D02*
X114165600Y-141010200D01*
X114165600Y-139050200D02*
X114165600Y-138640200D01*
X114125600Y-141357200D02*
X114125600Y-141010200D01*
X114125600Y-139050200D02*
X114125600Y-138703200D01*
X114085600Y-141291200D02*
X114085600Y-138769200D01*
X114045600Y-141219200D02*
X114045600Y-138841200D01*
X114005600Y-141142200D02*
X114005600Y-138918200D01*
X113965600Y-141058200D02*
X113965600Y-139002200D01*
X113925600Y-140964200D02*
X113925600Y-139096200D01*
X113885600Y-140859200D02*
X113885600Y-139201200D01*
X113845600Y-140737200D02*
X113845600Y-139323200D01*
X113805600Y-140589200D02*
X113805600Y-139471200D01*
X113765600Y-140384200D02*
X113765600Y-139676200D01*
X119776600Y-140030200D02*
X118576600Y-140030200D01*
X119176600Y-140680200D02*
X119176600Y-139380200D01*
X118439922Y-121095877D02*
G75*
G03X113828620Y-121095600I-2305722J-1179723D01*
G01*
X118439922Y-123455323D02*
G75*
G02X113828620Y-123455600I-2305722J1179723D01*
G01*
X118439922Y-123455323D02*
G75*
G03X118439780Y-121095600I-2305722J1179723D01*
G01*
X116134200Y-119725600D02*
X116134200Y-124825600D01*
X116174200Y-119725600D02*
X116174200Y-124825600D01*
X116214200Y-119726600D02*
X116214200Y-124824600D01*
X116254200Y-119727600D02*
X116254200Y-124823600D01*
X116294200Y-119729600D02*
X116294200Y-124821600D01*
X116334200Y-119732600D02*
X116334200Y-124818600D01*
X116374200Y-119736600D02*
X116374200Y-124814600D01*
X116414200Y-119740600D02*
X116414200Y-121295600D01*
X116414200Y-123255600D02*
X116414200Y-124810600D01*
X116454200Y-119744600D02*
X116454200Y-121295600D01*
X116454200Y-123255600D02*
X116454200Y-124806600D01*
X116494200Y-119750600D02*
X116494200Y-121295600D01*
X116494200Y-123255600D02*
X116494200Y-124800600D01*
X116534200Y-119756600D02*
X116534200Y-121295600D01*
X116534200Y-123255600D02*
X116534200Y-124794600D01*
X116574200Y-119762600D02*
X116574200Y-121295600D01*
X116574200Y-123255600D02*
X116574200Y-124788600D01*
X116614200Y-119769600D02*
X116614200Y-121295600D01*
X116614200Y-123255600D02*
X116614200Y-124781600D01*
X116654200Y-119777600D02*
X116654200Y-121295600D01*
X116654200Y-123255600D02*
X116654200Y-124773600D01*
X116694200Y-119786600D02*
X116694200Y-121295600D01*
X116694200Y-123255600D02*
X116694200Y-124764600D01*
X116734200Y-119795600D02*
X116734200Y-121295600D01*
X116734200Y-123255600D02*
X116734200Y-124755600D01*
X116774200Y-119805600D02*
X116774200Y-121295600D01*
X116774200Y-123255600D02*
X116774200Y-124745600D01*
X116814200Y-119815600D02*
X116814200Y-121295600D01*
X116814200Y-123255600D02*
X116814200Y-124735600D01*
X116855200Y-119827600D02*
X116855200Y-121295600D01*
X116855200Y-123255600D02*
X116855200Y-124723600D01*
X116895200Y-119839600D02*
X116895200Y-121295600D01*
X116895200Y-123255600D02*
X116895200Y-124711600D01*
X116935200Y-119851600D02*
X116935200Y-121295600D01*
X116935200Y-123255600D02*
X116935200Y-124699600D01*
X116975200Y-119865600D02*
X116975200Y-121295600D01*
X116975200Y-123255600D02*
X116975200Y-124685600D01*
X117015200Y-119879600D02*
X117015200Y-121295600D01*
X117015200Y-123255600D02*
X117015200Y-124671600D01*
X117055200Y-119893600D02*
X117055200Y-121295600D01*
X117055200Y-123255600D02*
X117055200Y-124657600D01*
X117095200Y-119909600D02*
X117095200Y-121295600D01*
X117095200Y-123255600D02*
X117095200Y-124641600D01*
X117135200Y-119925600D02*
X117135200Y-121295600D01*
X117135200Y-123255600D02*
X117135200Y-124625600D01*
X117175200Y-119942600D02*
X117175200Y-121295600D01*
X117175200Y-123255600D02*
X117175200Y-124608600D01*
X117215200Y-119960600D02*
X117215200Y-121295600D01*
X117215200Y-123255600D02*
X117215200Y-124590600D01*
X117255200Y-119979600D02*
X117255200Y-121295600D01*
X117255200Y-123255600D02*
X117255200Y-124571600D01*
X117295200Y-119999600D02*
X117295200Y-121295600D01*
X117295200Y-123255600D02*
X117295200Y-124551600D01*
X117335200Y-120019600D02*
X117335200Y-121295600D01*
X117335200Y-123255600D02*
X117335200Y-124531600D01*
X117375200Y-120041600D02*
X117375200Y-121295600D01*
X117375200Y-123255600D02*
X117375200Y-124509600D01*
X117415200Y-120063600D02*
X117415200Y-121295600D01*
X117415200Y-123255600D02*
X117415200Y-124487600D01*
X117455200Y-120086600D02*
X117455200Y-121295600D01*
X117455200Y-123255600D02*
X117455200Y-124464600D01*
X117495200Y-120110600D02*
X117495200Y-121295600D01*
X117495200Y-123255600D02*
X117495200Y-124440600D01*
X117535200Y-120135600D02*
X117535200Y-121295600D01*
X117535200Y-123255600D02*
X117535200Y-124415600D01*
X117575200Y-120162600D02*
X117575200Y-121295600D01*
X117575200Y-123255600D02*
X117575200Y-124388600D01*
X117615200Y-120189600D02*
X117615200Y-121295600D01*
X117615200Y-123255600D02*
X117615200Y-124361600D01*
X117655200Y-120217600D02*
X117655200Y-121295600D01*
X117655200Y-123255600D02*
X117655200Y-124333600D01*
X117695200Y-120247600D02*
X117695200Y-121295600D01*
X117695200Y-123255600D02*
X117695200Y-124303600D01*
X117735200Y-120278600D02*
X117735200Y-121295600D01*
X117735200Y-123255600D02*
X117735200Y-124272600D01*
X117775200Y-120310600D02*
X117775200Y-121295600D01*
X117775200Y-123255600D02*
X117775200Y-124240600D01*
X117815200Y-120343600D02*
X117815200Y-121295600D01*
X117815200Y-123255600D02*
X117815200Y-124207600D01*
X117855200Y-120378600D02*
X117855200Y-121295600D01*
X117855200Y-123255600D02*
X117855200Y-124172600D01*
X117895200Y-120414600D02*
X117895200Y-121295600D01*
X117895200Y-123255600D02*
X117895200Y-124136600D01*
X117935200Y-120452600D02*
X117935200Y-121295600D01*
X117935200Y-123255600D02*
X117935200Y-124098600D01*
X117975200Y-120492600D02*
X117975200Y-121295600D01*
X117975200Y-123255600D02*
X117975200Y-124058600D01*
X118015200Y-120533600D02*
X118015200Y-121295600D01*
X118015200Y-123255600D02*
X118015200Y-124017600D01*
X118055200Y-120576600D02*
X118055200Y-121295600D01*
X118055200Y-123255600D02*
X118055200Y-123974600D01*
X118095200Y-120621600D02*
X118095200Y-121295600D01*
X118095200Y-123255600D02*
X118095200Y-123929600D01*
X118135200Y-120669600D02*
X118135200Y-121295600D01*
X118135200Y-123255600D02*
X118135200Y-123881600D01*
X118175200Y-120719600D02*
X118175200Y-121295600D01*
X118175200Y-123255600D02*
X118175200Y-123831600D01*
X118215200Y-120771600D02*
X118215200Y-121295600D01*
X118215200Y-123255600D02*
X118215200Y-123779600D01*
X118255200Y-120827600D02*
X118255200Y-121295600D01*
X118255200Y-123255600D02*
X118255200Y-123723600D01*
X118295200Y-120885600D02*
X118295200Y-121295600D01*
X118295200Y-123255600D02*
X118295200Y-123665600D01*
X118335200Y-120948600D02*
X118335200Y-121295600D01*
X118335200Y-123255600D02*
X118335200Y-123602600D01*
X118375200Y-121014600D02*
X118375200Y-123536600D01*
X118415200Y-121086600D02*
X118415200Y-123464600D01*
X118455200Y-121163600D02*
X118455200Y-123387600D01*
X118495200Y-121247600D02*
X118495200Y-123303600D01*
X118535200Y-121341600D02*
X118535200Y-123209600D01*
X118575200Y-121446600D02*
X118575200Y-123104600D01*
X118615200Y-121568600D02*
X118615200Y-122982600D01*
X118655200Y-121716600D02*
X118655200Y-122834600D01*
X118695200Y-121921600D02*
X118695200Y-122629600D01*
X112684200Y-122275600D02*
X113884200Y-122275600D01*
X113284200Y-121625600D02*
X113284200Y-122925600D01*
X118439922Y-112866277D02*
G75*
G03X113828620Y-112866000I-2305722J-1179723D01*
G01*
X118439922Y-115225723D02*
G75*
G02X113828620Y-115226000I-2305722J1179723D01*
G01*
X118439922Y-115225723D02*
G75*
G03X118439780Y-112866000I-2305722J1179723D01*
G01*
X116134200Y-111496000D02*
X116134200Y-116596000D01*
X116174200Y-111496000D02*
X116174200Y-116596000D01*
X116214200Y-111497000D02*
X116214200Y-116595000D01*
X116254200Y-111498000D02*
X116254200Y-116594000D01*
X116294200Y-111500000D02*
X116294200Y-116592000D01*
X116334200Y-111503000D02*
X116334200Y-116589000D01*
X116374200Y-111507000D02*
X116374200Y-116585000D01*
X116414200Y-111511000D02*
X116414200Y-113066000D01*
X116414200Y-115026000D02*
X116414200Y-116581000D01*
X116454200Y-111515000D02*
X116454200Y-113066000D01*
X116454200Y-115026000D02*
X116454200Y-116577000D01*
X116494200Y-111521000D02*
X116494200Y-113066000D01*
X116494200Y-115026000D02*
X116494200Y-116571000D01*
X116534200Y-111527000D02*
X116534200Y-113066000D01*
X116534200Y-115026000D02*
X116534200Y-116565000D01*
X116574200Y-111533000D02*
X116574200Y-113066000D01*
X116574200Y-115026000D02*
X116574200Y-116559000D01*
X116614200Y-111540000D02*
X116614200Y-113066000D01*
X116614200Y-115026000D02*
X116614200Y-116552000D01*
X116654200Y-111548000D02*
X116654200Y-113066000D01*
X116654200Y-115026000D02*
X116654200Y-116544000D01*
X116694200Y-111557000D02*
X116694200Y-113066000D01*
X116694200Y-115026000D02*
X116694200Y-116535000D01*
X116734200Y-111566000D02*
X116734200Y-113066000D01*
X116734200Y-115026000D02*
X116734200Y-116526000D01*
X116774200Y-111576000D02*
X116774200Y-113066000D01*
X116774200Y-115026000D02*
X116774200Y-116516000D01*
X116814200Y-111586000D02*
X116814200Y-113066000D01*
X116814200Y-115026000D02*
X116814200Y-116506000D01*
X116855200Y-111598000D02*
X116855200Y-113066000D01*
X116855200Y-115026000D02*
X116855200Y-116494000D01*
X116895200Y-111610000D02*
X116895200Y-113066000D01*
X116895200Y-115026000D02*
X116895200Y-116482000D01*
X116935200Y-111622000D02*
X116935200Y-113066000D01*
X116935200Y-115026000D02*
X116935200Y-116470000D01*
X116975200Y-111636000D02*
X116975200Y-113066000D01*
X116975200Y-115026000D02*
X116975200Y-116456000D01*
X117015200Y-111650000D02*
X117015200Y-113066000D01*
X117015200Y-115026000D02*
X117015200Y-116442000D01*
X117055200Y-111664000D02*
X117055200Y-113066000D01*
X117055200Y-115026000D02*
X117055200Y-116428000D01*
X117095200Y-111680000D02*
X117095200Y-113066000D01*
X117095200Y-115026000D02*
X117095200Y-116412000D01*
X117135200Y-111696000D02*
X117135200Y-113066000D01*
X117135200Y-115026000D02*
X117135200Y-116396000D01*
X117175200Y-111713000D02*
X117175200Y-113066000D01*
X117175200Y-115026000D02*
X117175200Y-116379000D01*
X117215200Y-111731000D02*
X117215200Y-113066000D01*
X117215200Y-115026000D02*
X117215200Y-116361000D01*
X117255200Y-111750000D02*
X117255200Y-113066000D01*
X117255200Y-115026000D02*
X117255200Y-116342000D01*
X117295200Y-111770000D02*
X117295200Y-113066000D01*
X117295200Y-115026000D02*
X117295200Y-116322000D01*
X117335200Y-111790000D02*
X117335200Y-113066000D01*
X117335200Y-115026000D02*
X117335200Y-116302000D01*
X117375200Y-111812000D02*
X117375200Y-113066000D01*
X117375200Y-115026000D02*
X117375200Y-116280000D01*
X117415200Y-111834000D02*
X117415200Y-113066000D01*
X117415200Y-115026000D02*
X117415200Y-116258000D01*
X117455200Y-111857000D02*
X117455200Y-113066000D01*
X117455200Y-115026000D02*
X117455200Y-116235000D01*
X117495200Y-111881000D02*
X117495200Y-113066000D01*
X117495200Y-115026000D02*
X117495200Y-116211000D01*
X117535200Y-111906000D02*
X117535200Y-113066000D01*
X117535200Y-115026000D02*
X117535200Y-116186000D01*
X117575200Y-111933000D02*
X117575200Y-113066000D01*
X117575200Y-115026000D02*
X117575200Y-116159000D01*
X117615200Y-111960000D02*
X117615200Y-113066000D01*
X117615200Y-115026000D02*
X117615200Y-116132000D01*
X117655200Y-111988000D02*
X117655200Y-113066000D01*
X117655200Y-115026000D02*
X117655200Y-116104000D01*
X117695200Y-112018000D02*
X117695200Y-113066000D01*
X117695200Y-115026000D02*
X117695200Y-116074000D01*
X117735200Y-112049000D02*
X117735200Y-113066000D01*
X117735200Y-115026000D02*
X117735200Y-116043000D01*
X117775200Y-112081000D02*
X117775200Y-113066000D01*
X117775200Y-115026000D02*
X117775200Y-116011000D01*
X117815200Y-112114000D02*
X117815200Y-113066000D01*
X117815200Y-115026000D02*
X117815200Y-115978000D01*
X117855200Y-112149000D02*
X117855200Y-113066000D01*
X117855200Y-115026000D02*
X117855200Y-115943000D01*
X117895200Y-112185000D02*
X117895200Y-113066000D01*
X117895200Y-115026000D02*
X117895200Y-115907000D01*
X117935200Y-112223000D02*
X117935200Y-113066000D01*
X117935200Y-115026000D02*
X117935200Y-115869000D01*
X117975200Y-112263000D02*
X117975200Y-113066000D01*
X117975200Y-115026000D02*
X117975200Y-115829000D01*
X118015200Y-112304000D02*
X118015200Y-113066000D01*
X118015200Y-115026000D02*
X118015200Y-115788000D01*
X118055200Y-112347000D02*
X118055200Y-113066000D01*
X118055200Y-115026000D02*
X118055200Y-115745000D01*
X118095200Y-112392000D02*
X118095200Y-113066000D01*
X118095200Y-115026000D02*
X118095200Y-115700000D01*
X118135200Y-112440000D02*
X118135200Y-113066000D01*
X118135200Y-115026000D02*
X118135200Y-115652000D01*
X118175200Y-112490000D02*
X118175200Y-113066000D01*
X118175200Y-115026000D02*
X118175200Y-115602000D01*
X118215200Y-112542000D02*
X118215200Y-113066000D01*
X118215200Y-115026000D02*
X118215200Y-115550000D01*
X118255200Y-112598000D02*
X118255200Y-113066000D01*
X118255200Y-115026000D02*
X118255200Y-115494000D01*
X118295200Y-112656000D02*
X118295200Y-113066000D01*
X118295200Y-115026000D02*
X118295200Y-115436000D01*
X118335200Y-112719000D02*
X118335200Y-113066000D01*
X118335200Y-115026000D02*
X118335200Y-115373000D01*
X118375200Y-112785000D02*
X118375200Y-115307000D01*
X118415200Y-112857000D02*
X118415200Y-115235000D01*
X118455200Y-112934000D02*
X118455200Y-115158000D01*
X118495200Y-113018000D02*
X118495200Y-115074000D01*
X118535200Y-113112000D02*
X118535200Y-114980000D01*
X118575200Y-113217000D02*
X118575200Y-114875000D01*
X118615200Y-113339000D02*
X118615200Y-114753000D01*
X118655200Y-113487000D02*
X118655200Y-114605000D01*
X118695200Y-113692000D02*
X118695200Y-114400000D01*
X112684200Y-114046000D02*
X113884200Y-114046000D01*
X113284200Y-113396000D02*
X113284200Y-114696000D01*
D13*
X136451200Y-160174800D02*
X136451200Y-161974800D01*
X136451200Y-161974800D02*
X124051200Y-161974800D01*
X124051200Y-161974800D02*
X124051200Y-160174800D01*
D14*
X137356411Y-153974800D02*
G75*
G03X137356411Y-153974800I-1105211J0D01*
G01*
X137845800Y-153974800D02*
X134594600Y-153974800D01*
X136251200Y-152349200D02*
X136251200Y-155600400D01*
X125356411Y-153974800D02*
G75*
G03X125356411Y-153974800I-1105211J0D01*
G01*
X125933200Y-154000200D02*
X122682000Y-154000200D01*
X124251200Y-152349200D02*
X124251200Y-155600400D01*
D12*
X107483600Y-130235000D02*
X110143600Y-130235000D01*
X107483600Y-130175000D02*
X107483600Y-130235000D01*
X110143600Y-130175000D02*
X110143600Y-130235000D01*
X107483600Y-130175000D02*
X110143600Y-130175000D01*
X107483600Y-128905000D02*
X107483600Y-127575000D01*
X107483600Y-127575000D02*
X108813600Y-127575000D01*
X107483600Y-138718600D02*
X110143600Y-138718600D01*
X107483600Y-138658600D02*
X107483600Y-138718600D01*
X110143600Y-138658600D02*
X110143600Y-138718600D01*
X107483600Y-138658600D02*
X110143600Y-138658600D01*
X107483600Y-137388600D02*
X107483600Y-136058600D01*
X107483600Y-136058600D02*
X108813600Y-136058600D01*
X107483600Y-121548200D02*
X110143600Y-121548200D01*
X107483600Y-121488200D02*
X107483600Y-121548200D01*
X110143600Y-121488200D02*
X110143600Y-121548200D01*
X107483600Y-121488200D02*
X110143600Y-121488200D01*
X107483600Y-120218200D02*
X107483600Y-118888200D01*
X107483600Y-118888200D02*
X108813600Y-118888200D01*
X148739000Y-119054000D02*
X145139000Y-119054000D01*
X148777478Y-119065522D02*
G75*
G02X146939000Y-123504000I-1838478J-1838478D01*
G01*
X145100522Y-119065522D02*
G75*
G03X146939000Y-123504000I1838478J-1838478D01*
G01*
X114582800Y-133955400D02*
X118182800Y-133955400D01*
X114544322Y-133943878D02*
G75*
G02X116382800Y-129505400I1838478J1838478D01*
G01*
X118221278Y-133943878D02*
G75*
G03X116382800Y-129505400I-1838478J1838478D01*
G01*
D15*
X137617200Y-105841800D02*
X137617200Y-130479800D01*
X137617200Y-130479800D02*
X123393200Y-130479800D01*
X123393200Y-130479800D02*
X123393200Y-105841800D01*
X123393200Y-105841800D02*
X137617200Y-105841800D01*
D16*
X135585200Y-108889800D02*
X135585200Y-106349800D01*
X135585200Y-106349800D02*
X133045200Y-106349800D01*
X133045200Y-106349800D02*
X125425200Y-106349800D01*
X125425200Y-106349800D02*
X125425200Y-111429800D01*
X125425200Y-111429800D02*
X135585200Y-111429800D01*
X135585200Y-111429800D02*
X135585200Y-108889800D01*
D12*
X133792600Y-124622000D02*
X136412600Y-124622000D01*
X136412600Y-124622000D02*
X136412600Y-118202000D01*
X136412600Y-118202000D02*
X133792600Y-118202000D01*
X133792600Y-118202000D02*
X133792600Y-124622000D01*
X135102600Y-125512000D02*
X135102600Y-124622000D01*
X135102600Y-117312000D02*
X135102600Y-118202000D01*
X129601600Y-124622000D02*
X132221600Y-124622000D01*
X132221600Y-124622000D02*
X132221600Y-118202000D01*
X132221600Y-118202000D02*
X129601600Y-118202000D01*
X129601600Y-118202000D02*
X129601600Y-124622000D01*
X130911600Y-125512000D02*
X130911600Y-124622000D01*
X130911600Y-117312000D02*
X130911600Y-118202000D01*
X125385200Y-124647400D02*
X128005200Y-124647400D01*
X128005200Y-124647400D02*
X128005200Y-118227400D01*
X128005200Y-118227400D02*
X125385200Y-118227400D01*
X125385200Y-118227400D02*
X125385200Y-124647400D01*
X126695200Y-125537400D02*
X126695200Y-124647400D01*
X126695200Y-117337400D02*
X126695200Y-118227400D01*
X150326800Y-128792600D02*
X150326800Y-126172600D01*
X150326800Y-126172600D02*
X143906800Y-126172600D01*
X143906800Y-126172600D02*
X143906800Y-128792600D01*
X143906800Y-128792600D02*
X150326800Y-128792600D01*
X151216800Y-127482600D02*
X150326800Y-127482600D01*
X143016800Y-127482600D02*
X143906800Y-127482600D01*
X150504600Y-134126600D02*
X150504600Y-131506600D01*
X150504600Y-131506600D02*
X144084600Y-131506600D01*
X144084600Y-131506600D02*
X144084600Y-134126600D01*
X144084600Y-134126600D02*
X150504600Y-134126600D01*
X151394600Y-132816600D02*
X150504600Y-132816600D01*
X143194600Y-132816600D02*
X144084600Y-132816600D01*
X143856000Y-112837600D02*
X143856000Y-115457600D01*
X143856000Y-115457600D02*
X150276000Y-115457600D01*
X150276000Y-115457600D02*
X150276000Y-112837600D01*
X150276000Y-112837600D02*
X143856000Y-112837600D01*
X142966000Y-114147600D02*
X143856000Y-114147600D01*
X151166000Y-114147600D02*
X150276000Y-114147600D01*
D17*
G36*
X102397882Y-144259344D02*
X102370232Y-144314801D01*
X102319320Y-144363748D01*
X102300462Y-144377229D01*
X102275785Y-144391914D01*
X102248984Y-144401442D01*
X102213213Y-144406893D01*
X102161631Y-144409347D01*
X102093533Y-144409886D01*
X102000212Y-144407452D01*
X101930143Y-144398994D01*
X101877869Y-144382774D01*
X101837931Y-144357054D01*
X101804871Y-144320097D01*
X101802914Y-144317382D01*
X101782892Y-144280960D01*
X101772985Y-144237102D01*
X101770543Y-144181324D01*
X101770543Y-144090648D01*
X101682517Y-144090610D01*
X101633492Y-144089766D01*
X101604735Y-144084624D01*
X101587489Y-144071187D01*
X101572992Y-144045458D01*
X101570031Y-144039279D01*
X101556152Y-144010364D01*
X101547386Y-143987976D01*
X101546629Y-143971329D01*
X101556777Y-143959636D01*
X101580727Y-143952110D01*
X101621374Y-143947966D01*
X101681614Y-143946415D01*
X101764345Y-143946671D01*
X101872461Y-143947949D01*
X101904800Y-143948348D01*
X102016276Y-143949785D01*
X102089197Y-143951072D01*
X102089197Y-144090571D01*
X102027301Y-144091355D01*
X101986803Y-144094840D01*
X101960092Y-144102724D01*
X101939556Y-144116705D01*
X101929540Y-144126197D01*
X101900233Y-144165004D01*
X101897848Y-144199363D01*
X101922050Y-144234816D01*
X101922943Y-144235714D01*
X101941647Y-144250139D01*
X101967068Y-144258913D01*
X102006216Y-144263339D01*
X102066103Y-144264718D01*
X102079370Y-144264743D01*
X102161899Y-144261412D01*
X102219109Y-144250569D01*
X102254034Y-144230940D01*
X102269706Y-144201250D01*
X102271286Y-144184091D01*
X102263874Y-144143366D01*
X102239470Y-144115432D01*
X102194820Y-144098617D01*
X102126670Y-144091250D01*
X102089197Y-144090571D01*
X102089197Y-143951072D01*
X102102555Y-143951308D01*
X102167467Y-143953277D01*
X102214842Y-143956050D01*
X102248510Y-143959988D01*
X102272302Y-143965449D01*
X102290047Y-143972792D01*
X102305576Y-143982377D01*
X102311419Y-143986487D01*
X102366615Y-144041005D01*
X102397910Y-144109936D01*
X102406635Y-144189672D01*
X102397882Y-144259344D01*
X102397882Y-144259344D01*
G37*
X102397882Y-144259344D02*
X102370232Y-144314801D01*
X102319320Y-144363748D01*
X102300462Y-144377229D01*
X102275785Y-144391914D01*
X102248984Y-144401442D01*
X102213213Y-144406893D01*
X102161631Y-144409347D01*
X102093533Y-144409886D01*
X102000212Y-144407452D01*
X101930143Y-144398994D01*
X101877869Y-144382774D01*
X101837931Y-144357054D01*
X101804871Y-144320097D01*
X101802914Y-144317382D01*
X101782892Y-144280960D01*
X101772985Y-144237102D01*
X101770543Y-144181324D01*
X101770543Y-144090648D01*
X101682517Y-144090610D01*
X101633492Y-144089766D01*
X101604735Y-144084624D01*
X101587489Y-144071187D01*
X101572992Y-144045458D01*
X101570031Y-144039279D01*
X101556152Y-144010364D01*
X101547386Y-143987976D01*
X101546629Y-143971329D01*
X101556777Y-143959636D01*
X101580727Y-143952110D01*
X101621374Y-143947966D01*
X101681614Y-143946415D01*
X101764345Y-143946671D01*
X101872461Y-143947949D01*
X101904800Y-143948348D01*
X102016276Y-143949785D01*
X102089197Y-143951072D01*
X102089197Y-144090571D01*
X102027301Y-144091355D01*
X101986803Y-144094840D01*
X101960092Y-144102724D01*
X101939556Y-144116705D01*
X101929540Y-144126197D01*
X101900233Y-144165004D01*
X101897848Y-144199363D01*
X101922050Y-144234816D01*
X101922943Y-144235714D01*
X101941647Y-144250139D01*
X101967068Y-144258913D01*
X102006216Y-144263339D01*
X102066103Y-144264718D01*
X102079370Y-144264743D01*
X102161899Y-144261412D01*
X102219109Y-144250569D01*
X102254034Y-144230940D01*
X102269706Y-144201250D01*
X102271286Y-144184091D01*
X102263874Y-144143366D01*
X102239470Y-144115432D01*
X102194820Y-144098617D01*
X102126670Y-144091250D01*
X102089197Y-144090571D01*
X102089197Y-143951072D01*
X102102555Y-143951308D01*
X102167467Y-143953277D01*
X102214842Y-143956050D01*
X102248510Y-143959988D01*
X102272302Y-143965449D01*
X102290047Y-143972792D01*
X102305576Y-143982377D01*
X102311419Y-143986487D01*
X102366615Y-144041005D01*
X102397910Y-144109936D01*
X102406635Y-144189672D01*
X102397882Y-144259344D01*
G36*
X102390020Y-145375693D02*
X102363077Y-145422272D01*
X102336334Y-145454657D01*
X102308316Y-145478342D01*
X102274052Y-145494659D01*
X102228573Y-145504939D01*
X102166908Y-145510514D01*
X102084089Y-145512716D01*
X102024554Y-145512971D01*
X101805409Y-145512971D01*
X101777756Y-145451286D01*
X101750103Y-145389600D01*
X101990130Y-145382343D01*
X102079772Y-145379344D01*
X102144838Y-145376198D01*
X102189774Y-145372301D01*
X102219030Y-145367047D01*
X102237052Y-145359831D01*
X102248289Y-145350050D01*
X102250721Y-145346912D01*
X102269717Y-145299361D01*
X102262200Y-145251297D01*
X102242257Y-145222686D01*
X102228125Y-145211047D01*
X102209580Y-145202991D01*
X102181466Y-145197871D01*
X102138627Y-145195041D01*
X102075905Y-145193856D01*
X102010539Y-145193657D01*
X101928532Y-145193618D01*
X101870484Y-145192214D01*
X101831335Y-145187514D01*
X101806020Y-145177587D01*
X101789477Y-145160503D01*
X101776644Y-145134332D01*
X101763309Y-145099375D01*
X101748793Y-145061196D01*
X102006411Y-145065741D01*
X102099281Y-145067571D01*
X102167911Y-145069712D01*
X102217089Y-145072781D01*
X102251602Y-145077394D01*
X102276238Y-145084168D01*
X102295784Y-145093719D01*
X102313030Y-145105234D01*
X102368120Y-145160790D01*
X102399978Y-145228580D01*
X102407609Y-145302313D01*
X102390020Y-145375693D01*
X102390020Y-145375693D01*
G37*
X102390020Y-145375693D02*
X102363077Y-145422272D01*
X102336334Y-145454657D01*
X102308316Y-145478342D01*
X102274052Y-145494659D01*
X102228573Y-145504939D01*
X102166908Y-145510514D01*
X102084089Y-145512716D01*
X102024554Y-145512971D01*
X101805409Y-145512971D01*
X101777756Y-145451286D01*
X101750103Y-145389600D01*
X101990130Y-145382343D01*
X102079772Y-145379344D01*
X102144838Y-145376198D01*
X102189774Y-145372301D01*
X102219030Y-145367047D01*
X102237052Y-145359831D01*
X102248289Y-145350050D01*
X102250721Y-145346912D01*
X102269717Y-145299361D01*
X102262200Y-145251297D01*
X102242257Y-145222686D01*
X102228125Y-145211047D01*
X102209580Y-145202991D01*
X102181466Y-145197871D01*
X102138627Y-145195041D01*
X102075905Y-145193856D01*
X102010539Y-145193657D01*
X101928532Y-145193618D01*
X101870484Y-145192214D01*
X101831335Y-145187514D01*
X101806020Y-145177587D01*
X101789477Y-145160503D01*
X101776644Y-145134332D01*
X101763309Y-145099375D01*
X101748793Y-145061196D01*
X102006411Y-145065741D01*
X102099281Y-145067571D01*
X102167911Y-145069712D01*
X102217089Y-145072781D01*
X102251602Y-145077394D01*
X102276238Y-145084168D01*
X102295784Y-145093719D01*
X102313030Y-145105234D01*
X102368120Y-145160790D01*
X102399978Y-145228580D01*
X102407609Y-145302313D01*
X102390020Y-145375693D01*
G36*
X102395838Y-143700715D02*
X102360067Y-143768745D01*
X102302499Y-143818951D01*
X102265488Y-143836785D01*
X102209918Y-143850663D01*
X102139704Y-143857767D01*
X102063073Y-143858440D01*
X101988248Y-143853027D01*
X101923458Y-143841870D01*
X101876927Y-143825314D01*
X101868913Y-143820226D01*
X101809093Y-143759955D01*
X101773265Y-143688369D01*
X101762780Y-143610692D01*
X101778990Y-143532148D01*
X101788708Y-143510289D01*
X101818657Y-143467722D01*
X101858367Y-143430363D01*
X101863403Y-143426832D01*
X101887676Y-143412481D01*
X101913622Y-143402994D01*
X101947778Y-143397390D01*
X101996681Y-143394686D01*
X102066865Y-143393899D01*
X102082600Y-143393886D01*
X102087608Y-143393922D01*
X102087608Y-143539029D01*
X102021370Y-143539873D01*
X101977414Y-143543196D01*
X101949021Y-143550183D01*
X101929475Y-143562016D01*
X101922943Y-143568057D01*
X101898120Y-143602786D01*
X101899252Y-143636503D01*
X101920784Y-143670595D01*
X101943771Y-143690929D01*
X101977322Y-143702971D01*
X102030231Y-143709734D01*
X102036401Y-143710198D01*
X102132287Y-143711352D01*
X102203501Y-143699288D01*
X102249606Y-143674170D01*
X102270165Y-143636160D01*
X102271286Y-143622592D01*
X102265648Y-143586964D01*
X102246114Y-143562594D01*
X102208758Y-143547693D01*
X102149650Y-143540475D01*
X102087608Y-143539029D01*
X102087608Y-143393922D01*
X102157387Y-143394426D01*
X102209641Y-143396696D01*
X102245851Y-143401668D01*
X102272501Y-143410313D01*
X102296078Y-143423605D01*
X102300462Y-143426543D01*
X102359551Y-143475913D01*
X102393853Y-143529709D01*
X102407469Y-143595202D01*
X102408135Y-143617442D01*
X102395838Y-143700715D01*
X102395838Y-143700715D01*
G37*
X102395838Y-143700715D02*
X102360067Y-143768745D01*
X102302499Y-143818951D01*
X102265488Y-143836785D01*
X102209918Y-143850663D01*
X102139704Y-143857767D01*
X102063073Y-143858440D01*
X101988248Y-143853027D01*
X101923458Y-143841870D01*
X101876927Y-143825314D01*
X101868913Y-143820226D01*
X101809093Y-143759955D01*
X101773265Y-143688369D01*
X101762780Y-143610692D01*
X101778990Y-143532148D01*
X101788708Y-143510289D01*
X101818657Y-143467722D01*
X101858367Y-143430363D01*
X101863403Y-143426832D01*
X101887676Y-143412481D01*
X101913622Y-143402994D01*
X101947778Y-143397390D01*
X101996681Y-143394686D01*
X102066865Y-143393899D01*
X102082600Y-143393886D01*
X102087608Y-143393922D01*
X102087608Y-143539029D01*
X102021370Y-143539873D01*
X101977414Y-143543196D01*
X101949021Y-143550183D01*
X101929475Y-143562016D01*
X101922943Y-143568057D01*
X101898120Y-143602786D01*
X101899252Y-143636503D01*
X101920784Y-143670595D01*
X101943771Y-143690929D01*
X101977322Y-143702971D01*
X102030231Y-143709734D01*
X102036401Y-143710198D01*
X102132287Y-143711352D01*
X102203501Y-143699288D01*
X102249606Y-143674170D01*
X102270165Y-143636160D01*
X102271286Y-143622592D01*
X102265648Y-143586964D01*
X102246114Y-143562594D01*
X102208758Y-143547693D01*
X102149650Y-143540475D01*
X102087608Y-143539029D01*
X102087608Y-143393922D01*
X102157387Y-143394426D01*
X102209641Y-143396696D01*
X102245851Y-143401668D01*
X102272501Y-143410313D01*
X102296078Y-143423605D01*
X102300462Y-143426543D01*
X102359551Y-143475913D01*
X102393853Y-143529709D01*
X102407469Y-143595202D01*
X102408135Y-143617442D01*
X102395838Y-143700715D01*
G36*
X102386561Y-144827903D02*
X102348065Y-144885127D01*
X102292465Y-144929349D01*
X102221714Y-144955767D01*
X102169638Y-144961110D01*
X102147907Y-144960503D01*
X102131269Y-144955422D01*
X102116363Y-144941455D01*
X102099827Y-144914189D01*
X102078302Y-144869212D01*
X102048426Y-144802111D01*
X102048276Y-144801771D01*
X102019987Y-144740007D01*
X101994867Y-144689359D01*
X101975621Y-144655004D01*
X101964952Y-144642118D01*
X101964866Y-144642114D01*
X101941634Y-144653472D01*
X101916026Y-144680031D01*
X101897579Y-144710523D01*
X101893914Y-144725970D01*
X101906588Y-144768115D01*
X101938329Y-144804408D01*
X101973228Y-144822117D01*
X101998955Y-144839152D01*
X102028254Y-144872522D01*
X102053565Y-144911749D01*
X102067329Y-144946356D01*
X102068086Y-144953593D01*
X102055640Y-144961739D01*
X102023828Y-144962230D01*
X101980934Y-144956243D01*
X101935242Y-144944957D01*
X101895039Y-144929550D01*
X101893478Y-144928771D01*
X101828738Y-144882404D01*
X101784703Y-144822311D01*
X101763089Y-144754065D01*
X101765615Y-144683238D01*
X101793996Y-144615404D01*
X101795992Y-144612388D01*
X101844352Y-144559027D01*
X101907448Y-144523940D01*
X101990413Y-144504522D01*
X102013722Y-144501916D01*
X102123745Y-144497301D01*
X102175052Y-144502833D01*
X102175052Y-144642114D01*
X102143047Y-144643924D01*
X102133707Y-144653822D01*
X102140695Y-144678498D01*
X102157213Y-144717395D01*
X102177919Y-144760875D01*
X102178467Y-144761956D01*
X102197851Y-144798809D01*
X102210787Y-144813600D01*
X102224349Y-144809953D01*
X102242168Y-144794595D01*
X102267955Y-144755523D01*
X102269850Y-144713446D01*
X102251083Y-144675703D01*
X102214885Y-144649634D01*
X102175052Y-144642114D01*
X102175052Y-144502833D01*
X102211773Y-144506794D01*
X102281588Y-144531150D01*
X102330498Y-144565056D01*
X102379922Y-144626253D01*
X102404441Y-144693663D01*
X102406003Y-144762480D01*
X102386561Y-144827903D01*
X102386561Y-144827903D01*
G37*
X102386561Y-144827903D02*
X102348065Y-144885127D01*
X102292465Y-144929349D01*
X102221714Y-144955767D01*
X102169638Y-144961110D01*
X102147907Y-144960503D01*
X102131269Y-144955422D01*
X102116363Y-144941455D01*
X102099827Y-144914189D01*
X102078302Y-144869212D01*
X102048426Y-144802111D01*
X102048276Y-144801771D01*
X102019987Y-144740007D01*
X101994867Y-144689359D01*
X101975621Y-144655004D01*
X101964952Y-144642118D01*
X101964866Y-144642114D01*
X101941634Y-144653472D01*
X101916026Y-144680031D01*
X101897579Y-144710523D01*
X101893914Y-144725970D01*
X101906588Y-144768115D01*
X101938329Y-144804408D01*
X101973228Y-144822117D01*
X101998955Y-144839152D01*
X102028254Y-144872522D01*
X102053565Y-144911749D01*
X102067329Y-144946356D01*
X102068086Y-144953593D01*
X102055640Y-144961739D01*
X102023828Y-144962230D01*
X101980934Y-144956243D01*
X101935242Y-144944957D01*
X101895039Y-144929550D01*
X101893478Y-144928771D01*
X101828738Y-144882404D01*
X101784703Y-144822311D01*
X101763089Y-144754065D01*
X101765615Y-144683238D01*
X101793996Y-144615404D01*
X101795992Y-144612388D01*
X101844352Y-144559027D01*
X101907448Y-144523940D01*
X101990413Y-144504522D01*
X102013722Y-144501916D01*
X102123745Y-144497301D01*
X102175052Y-144502833D01*
X102175052Y-144642114D01*
X102143047Y-144643924D01*
X102133707Y-144653822D01*
X102140695Y-144678498D01*
X102157213Y-144717395D01*
X102177919Y-144760875D01*
X102178467Y-144761956D01*
X102197851Y-144798809D01*
X102210787Y-144813600D01*
X102224349Y-144809953D01*
X102242168Y-144794595D01*
X102267955Y-144755523D01*
X102269850Y-144713446D01*
X102251083Y-144675703D01*
X102214885Y-144649634D01*
X102175052Y-144642114D01*
X102175052Y-144502833D01*
X102211773Y-144506794D01*
X102281588Y-144531150D01*
X102330498Y-144565056D01*
X102379922Y-144626253D01*
X102404441Y-144693663D01*
X102406003Y-144762480D01*
X102386561Y-144827903D01*
G36*
X102466511Y-146035486D02*
X102407187Y-146039739D01*
X102372228Y-146044625D01*
X102356980Y-146051395D01*
X102356785Y-146061302D01*
X102358605Y-146064514D01*
X102371785Y-146107244D01*
X102371015Y-146162827D01*
X102357467Y-146219337D01*
X102339939Y-146254682D01*
X102311939Y-146290921D01*
X102280251Y-146317413D01*
X102239987Y-146335599D01*
X102186257Y-146346922D01*
X102114174Y-146352822D01*
X102018849Y-146354743D01*
X102000563Y-146354777D01*
X101795154Y-146354800D01*
X101779220Y-146309091D01*
X101768380Y-146276627D01*
X101763332Y-146258815D01*
X101763286Y-146258291D01*
X101776972Y-146256537D01*
X101814724Y-146255044D01*
X101871576Y-146253926D01*
X101942566Y-146253297D01*
X101985727Y-146253200D01*
X102070827Y-146252998D01*
X102131819Y-146251958D01*
X102173623Y-146249431D01*
X102201158Y-146244764D01*
X102219344Y-146237307D01*
X102233102Y-146226411D01*
X102239727Y-146219607D01*
X102266425Y-146172872D01*
X102268425Y-146121872D01*
X102245845Y-146075601D01*
X102237693Y-146067044D01*
X102222364Y-146054493D01*
X102204182Y-146045788D01*
X102177891Y-146040231D01*
X102138238Y-146037126D01*
X102079968Y-146035776D01*
X101999627Y-146035486D01*
X101795154Y-146035486D01*
X101779220Y-145989777D01*
X101768380Y-145957313D01*
X101763332Y-145939501D01*
X101763286Y-145938977D01*
X101777177Y-145937637D01*
X101816361Y-145936428D01*
X101877100Y-145935401D01*
X101955659Y-145934602D01*
X102048302Y-145934081D01*
X102151291Y-145933886D01*
X102548458Y-145933886D01*
X102568356Y-145981057D01*
X102588253Y-146028229D01*
X102466511Y-146035486D01*
X102466511Y-146035486D01*
G37*
X102466511Y-146035486D02*
X102407187Y-146039739D01*
X102372228Y-146044625D01*
X102356980Y-146051395D01*
X102356785Y-146061302D01*
X102358605Y-146064514D01*
X102371785Y-146107244D01*
X102371015Y-146162827D01*
X102357467Y-146219337D01*
X102339939Y-146254682D01*
X102311939Y-146290921D01*
X102280251Y-146317413D01*
X102239987Y-146335599D01*
X102186257Y-146346922D01*
X102114174Y-146352822D01*
X102018849Y-146354743D01*
X102000563Y-146354777D01*
X101795154Y-146354800D01*
X101779220Y-146309091D01*
X101768380Y-146276627D01*
X101763332Y-146258815D01*
X101763286Y-146258291D01*
X101776972Y-146256537D01*
X101814724Y-146255044D01*
X101871576Y-146253926D01*
X101942566Y-146253297D01*
X101985727Y-146253200D01*
X102070827Y-146252998D01*
X102131819Y-146251958D01*
X102173623Y-146249431D01*
X102201158Y-146244764D01*
X102219344Y-146237307D01*
X102233102Y-146226411D01*
X102239727Y-146219607D01*
X102266425Y-146172872D01*
X102268425Y-146121872D01*
X102245845Y-146075601D01*
X102237693Y-146067044D01*
X102222364Y-146054493D01*
X102204182Y-146045788D01*
X102177891Y-146040231D01*
X102138238Y-146037126D01*
X102079968Y-146035776D01*
X101999627Y-146035486D01*
X101795154Y-146035486D01*
X101779220Y-145989777D01*
X101768380Y-145957313D01*
X101763332Y-145939501D01*
X101763286Y-145938977D01*
X101777177Y-145937637D01*
X101816361Y-145936428D01*
X101877100Y-145935401D01*
X101955659Y-145934602D01*
X102048302Y-145934081D01*
X102151291Y-145933886D01*
X102548458Y-145933886D01*
X102568356Y-145981057D01*
X102588253Y-146028229D01*
X102466511Y-146035486D01*
G36*
X102366832Y-146699344D02*
X102345713Y-146756216D01*
X102345307Y-146756867D01*
X102319420Y-146792040D01*
X102289167Y-146818007D01*
X102249742Y-146836270D01*
X102196338Y-146848332D01*
X102124149Y-146855696D01*
X102028368Y-146859864D01*
X102014722Y-146860229D01*
X101808958Y-146865476D01*
X101786122Y-146821316D01*
X101770690Y-146789363D01*
X101763377Y-146770070D01*
X101763286Y-146769178D01*
X101776778Y-146765839D01*
X101813174Y-146763187D01*
X101866348Y-146761556D01*
X101909407Y-146761200D01*
X101979159Y-146761192D01*
X102022963Y-146758003D01*
X102043856Y-146746888D01*
X102044875Y-146723101D01*
X102029059Y-146681896D01*
X101999985Y-146619686D01*
X101975837Y-146573941D01*
X101954887Y-146550413D01*
X101932053Y-146543496D01*
X101930923Y-146543486D01*
X101891588Y-146554899D01*
X101870338Y-146588692D01*
X101867261Y-146640409D01*
X101867794Y-146677661D01*
X101857065Y-146697303D01*
X101831295Y-146709552D01*
X101798463Y-146716602D01*
X101779834Y-146706442D01*
X101777168Y-146702617D01*
X101766460Y-146666601D01*
X101764944Y-146616166D01*
X101772041Y-146564226D01*
X101785012Y-146527422D01*
X101828215Y-146476538D01*
X101888354Y-146447614D01*
X101935338Y-146441886D01*
X101977718Y-146446257D01*
X102012312Y-146462075D01*
X102043037Y-146493397D01*
X102073810Y-146544278D01*
X102108548Y-146618776D01*
X102110512Y-146623314D01*
X102141513Y-146690421D01*
X102166938Y-146731832D01*
X102189786Y-146749581D01*
X102213055Y-146745707D01*
X102239744Y-146722243D01*
X102245886Y-146715227D01*
X102269700Y-146668230D01*
X102268697Y-146619533D01*
X102245349Y-146577122D01*
X102202125Y-146548984D01*
X102193640Y-146546369D01*
X102152492Y-146520908D01*
X102132672Y-146488601D01*
X102113030Y-146441886D01*
X102163850Y-146441886D01*
X102237718Y-146456096D01*
X102305473Y-146498275D01*
X102328139Y-146520224D01*
X102357231Y-146570117D01*
X102370400Y-146633567D01*
X102366832Y-146699344D01*
X102366832Y-146699344D01*
G37*
X102366832Y-146699344D02*
X102345713Y-146756216D01*
X102345307Y-146756867D01*
X102319420Y-146792040D01*
X102289167Y-146818007D01*
X102249742Y-146836270D01*
X102196338Y-146848332D01*
X102124149Y-146855696D01*
X102028368Y-146859864D01*
X102014722Y-146860229D01*
X101808958Y-146865476D01*
X101786122Y-146821316D01*
X101770690Y-146789363D01*
X101763377Y-146770070D01*
X101763286Y-146769178D01*
X101776778Y-146765839D01*
X101813174Y-146763187D01*
X101866348Y-146761556D01*
X101909407Y-146761200D01*
X101979159Y-146761192D01*
X102022963Y-146758003D01*
X102043856Y-146746888D01*
X102044875Y-146723101D01*
X102029059Y-146681896D01*
X101999985Y-146619686D01*
X101975837Y-146573941D01*
X101954887Y-146550413D01*
X101932053Y-146543496D01*
X101930923Y-146543486D01*
X101891588Y-146554899D01*
X101870338Y-146588692D01*
X101867261Y-146640409D01*
X101867794Y-146677661D01*
X101857065Y-146697303D01*
X101831295Y-146709552D01*
X101798463Y-146716602D01*
X101779834Y-146706442D01*
X101777168Y-146702617D01*
X101766460Y-146666601D01*
X101764944Y-146616166D01*
X101772041Y-146564226D01*
X101785012Y-146527422D01*
X101828215Y-146476538D01*
X101888354Y-146447614D01*
X101935338Y-146441886D01*
X101977718Y-146446257D01*
X102012312Y-146462075D01*
X102043037Y-146493397D01*
X102073810Y-146544278D01*
X102108548Y-146618776D01*
X102110512Y-146623314D01*
X102141513Y-146690421D01*
X102166938Y-146731832D01*
X102189786Y-146749581D01*
X102213055Y-146745707D01*
X102239744Y-146722243D01*
X102245886Y-146715227D01*
X102269700Y-146668230D01*
X102268697Y-146619533D01*
X102245349Y-146577122D01*
X102202125Y-146548984D01*
X102193640Y-146546369D01*
X102152492Y-146520908D01*
X102132672Y-146488601D01*
X102113030Y-146441886D01*
X102163850Y-146441886D01*
X102237718Y-146456096D01*
X102305473Y-146498275D01*
X102328139Y-146520224D01*
X102357231Y-146570117D01*
X102370400Y-146633567D01*
X102366832Y-146699344D01*
G36*
X102368045Y-147189526D02*
X102343716Y-147255458D01*
X102300683Y-147308873D01*
X102270391Y-147329764D01*
X102214806Y-147352539D01*
X102174614Y-147352066D01*
X102147583Y-147328162D01*
X102142987Y-147319317D01*
X102128656Y-147281130D01*
X102132328Y-147261628D01*
X102156393Y-147255022D01*
X102169686Y-147254686D01*
X102218590Y-147242592D01*
X102252801Y-147211071D01*
X102269324Y-147167259D01*
X102265166Y-147118295D01*
X102243573Y-147078494D01*
X102231256Y-147065050D01*
X102216313Y-147055521D01*
X102193725Y-147049085D01*
X102158472Y-147044917D01*
X102105534Y-147042197D01*
X102029893Y-147040102D01*
X102005943Y-147039560D01*
X101924010Y-147037581D01*
X101866345Y-147035331D01*
X101828192Y-147031957D01*
X101804796Y-147026606D01*
X101791402Y-147018424D01*
X101783255Y-147006559D01*
X101779656Y-146998962D01*
X101767348Y-146966702D01*
X101763286Y-146947711D01*
X101776852Y-146941436D01*
X101817866Y-146937606D01*
X101886801Y-146936200D01*
X101984131Y-146937198D01*
X101999143Y-146937508D01*
X102087941Y-146939701D01*
X102152781Y-146942293D01*
X102198733Y-146945982D01*
X102230865Y-146951464D01*
X102254247Y-146959435D01*
X102273948Y-146970593D01*
X102282390Y-146976430D01*
X102319743Y-147009896D01*
X102348797Y-147047327D01*
X102351333Y-147051909D01*
X102371357Y-147119026D01*
X102368045Y-147189526D01*
X102368045Y-147189526D01*
G37*
X102368045Y-147189526D02*
X102343716Y-147255458D01*
X102300683Y-147308873D01*
X102270391Y-147329764D01*
X102214806Y-147352539D01*
X102174614Y-147352066D01*
X102147583Y-147328162D01*
X102142987Y-147319317D01*
X102128656Y-147281130D01*
X102132328Y-147261628D01*
X102156393Y-147255022D01*
X102169686Y-147254686D01*
X102218590Y-147242592D01*
X102252801Y-147211071D01*
X102269324Y-147167259D01*
X102265166Y-147118295D01*
X102243573Y-147078494D01*
X102231256Y-147065050D01*
X102216313Y-147055521D01*
X102193725Y-147049085D01*
X102158472Y-147044917D01*
X102105534Y-147042197D01*
X102029893Y-147040102D01*
X102005943Y-147039560D01*
X101924010Y-147037581D01*
X101866345Y-147035331D01*
X101828192Y-147031957D01*
X101804796Y-147026606D01*
X101791402Y-147018424D01*
X101783255Y-147006559D01*
X101779656Y-146998962D01*
X101767348Y-146966702D01*
X101763286Y-146947711D01*
X101776852Y-146941436D01*
X101817866Y-146937606D01*
X101886801Y-146936200D01*
X101984131Y-146937198D01*
X101999143Y-146937508D01*
X102087941Y-146939701D01*
X102152781Y-146942293D01*
X102198733Y-146945982D01*
X102230865Y-146951464D01*
X102254247Y-146959435D01*
X102273948Y-146970593D01*
X102282390Y-146976430D01*
X102319743Y-147009896D01*
X102348797Y-147047327D01*
X102351333Y-147051909D01*
X102371357Y-147119026D01*
X102368045Y-147189526D01*
G36*
X102252442Y-147849717D02*
X102143963Y-147849533D01*
X102060513Y-147848819D01*
X101998096Y-147847275D01*
X101952715Y-147844601D01*
X101920371Y-147840494D01*
X101897067Y-147834655D01*
X101878805Y-147826782D01*
X101868382Y-147820821D01*
X101811855Y-147771455D01*
X101776423Y-147708864D01*
X101763710Y-147639613D01*
X101775337Y-147570268D01*
X101796232Y-147528975D01*
X101832378Y-147485625D01*
X101876524Y-147456081D01*
X101934338Y-147438255D01*
X102011487Y-147430063D01*
X102068086Y-147428902D01*
X102072153Y-147429058D01*
X102072153Y-147530457D01*
X102007250Y-147531076D01*
X101964286Y-147533914D01*
X101936178Y-147540440D01*
X101915847Y-147552123D01*
X101900512Y-147566083D01*
X101870910Y-147612965D01*
X101868381Y-147663301D01*
X101893095Y-147710876D01*
X101896444Y-147714579D01*
X101913865Y-147730383D01*
X101934591Y-147740293D01*
X101965438Y-147745658D01*
X102013223Y-147747828D01*
X102066052Y-147748171D01*
X102132419Y-147747427D01*
X102176694Y-147744348D01*
X102205791Y-147737661D01*
X102226627Y-147726096D01*
X102237693Y-147716613D01*
X102265602Y-147672560D01*
X102268957Y-147621824D01*
X102247641Y-147573396D01*
X102239727Y-147564050D01*
X102222153Y-147548140D01*
X102201213Y-147538210D01*
X102170018Y-147532878D01*
X102121678Y-147530763D01*
X102072153Y-147530457D01*
X102072153Y-147429058D01*
X102159232Y-147432410D01*
X102227714Y-147444326D01*
X102279200Y-147466735D01*
X102319357Y-147501724D01*
X102339939Y-147528975D01*
X102362175Y-147578507D01*
X102372496Y-147635916D01*
X102369733Y-147689282D01*
X102358588Y-147719143D01*
X102355417Y-147730861D01*
X102367243Y-147738637D01*
X102398934Y-147744065D01*
X102447207Y-147748171D01*
X102500971Y-147752667D01*
X102533318Y-147758913D01*
X102551815Y-147770276D01*
X102564030Y-147790128D01*
X102569438Y-147802600D01*
X102589199Y-147849771D01*
X102252442Y-147849717D01*
X102252442Y-147849717D01*
G37*
X102252442Y-147849717D02*
X102143963Y-147849533D01*
X102060513Y-147848819D01*
X101998096Y-147847275D01*
X101952715Y-147844601D01*
X101920371Y-147840494D01*
X101897067Y-147834655D01*
X101878805Y-147826782D01*
X101868382Y-147820821D01*
X101811855Y-147771455D01*
X101776423Y-147708864D01*
X101763710Y-147639613D01*
X101775337Y-147570268D01*
X101796232Y-147528975D01*
X101832378Y-147485625D01*
X101876524Y-147456081D01*
X101934338Y-147438255D01*
X102011487Y-147430063D01*
X102068086Y-147428902D01*
X102072153Y-147429058D01*
X102072153Y-147530457D01*
X102007250Y-147531076D01*
X101964286Y-147533914D01*
X101936178Y-147540440D01*
X101915847Y-147552123D01*
X101900512Y-147566083D01*
X101870910Y-147612965D01*
X101868381Y-147663301D01*
X101893095Y-147710876D01*
X101896444Y-147714579D01*
X101913865Y-147730383D01*
X101934591Y-147740293D01*
X101965438Y-147745658D01*
X102013223Y-147747828D01*
X102066052Y-147748171D01*
X102132419Y-147747427D01*
X102176694Y-147744348D01*
X102205791Y-147737661D01*
X102226627Y-147726096D01*
X102237693Y-147716613D01*
X102265602Y-147672560D01*
X102268957Y-147621824D01*
X102247641Y-147573396D01*
X102239727Y-147564050D01*
X102222153Y-147548140D01*
X102201213Y-147538210D01*
X102170018Y-147532878D01*
X102121678Y-147530763D01*
X102072153Y-147530457D01*
X102072153Y-147429058D01*
X102159232Y-147432410D01*
X102227714Y-147444326D01*
X102279200Y-147466735D01*
X102319357Y-147501724D01*
X102339939Y-147528975D01*
X102362175Y-147578507D01*
X102372496Y-147635916D01*
X102369733Y-147689282D01*
X102358588Y-147719143D01*
X102355417Y-147730861D01*
X102367243Y-147738637D01*
X102398934Y-147744065D01*
X102447207Y-147748171D01*
X102500971Y-147752667D01*
X102533318Y-147758913D01*
X102551815Y-147770276D01*
X102564030Y-147790128D01*
X102569438Y-147802600D01*
X102589199Y-147849771D01*
X102252442Y-147849717D01*
G36*
X102359137Y-148439433D02*
X102320950Y-148441648D01*
X102262914Y-148443384D01*
X102189620Y-148444499D01*
X102112745Y-148444857D01*
X101852604Y-148444857D01*
X101806673Y-148398926D01*
X101778371Y-148367275D01*
X101766907Y-148339490D01*
X101767632Y-148301515D01*
X101769479Y-148286440D01*
X101774852Y-148239326D01*
X101777931Y-148200356D01*
X101778215Y-148190857D01*
X101776355Y-148158833D01*
X101771686Y-148113032D01*
X101769479Y-148095274D01*
X101766065Y-148051657D01*
X101773480Y-148022345D01*
X101796373Y-147993280D01*
X101806673Y-147982788D01*
X101852604Y-147936857D01*
X102339198Y-147936857D01*
X102356042Y-147973826D01*
X102368518Y-148005659D01*
X102372886Y-148024283D01*
X102359082Y-148029058D01*
X102320514Y-148033521D01*
X102261444Y-148037375D01*
X102186137Y-148040322D01*
X102122514Y-148041743D01*
X101872143Y-148045714D01*
X101867244Y-148080359D01*
X101870669Y-148111868D01*
X101881759Y-148127308D01*
X101902492Y-148131623D01*
X101946655Y-148135308D01*
X102008654Y-148138069D01*
X102082891Y-148139612D01*
X102121094Y-148139835D01*
X102341017Y-148140057D01*
X102356951Y-148185766D01*
X102367785Y-148218118D01*
X102372838Y-148235715D01*
X102372886Y-148236223D01*
X102359152Y-148237988D01*
X102321070Y-148239929D01*
X102263318Y-148241882D01*
X102190573Y-148243684D01*
X102122514Y-148244943D01*
X101872143Y-148248914D01*
X101872143Y-148336000D01*
X102100560Y-148339996D01*
X102328978Y-148343992D01*
X102350932Y-148386447D01*
X102366007Y-148417792D01*
X102372849Y-148436344D01*
X102372886Y-148436879D01*
X102359137Y-148439433D01*
X102359137Y-148439433D01*
G37*
X102359137Y-148439433D02*
X102320950Y-148441648D01*
X102262914Y-148443384D01*
X102189620Y-148444499D01*
X102112745Y-148444857D01*
X101852604Y-148444857D01*
X101806673Y-148398926D01*
X101778371Y-148367275D01*
X101766907Y-148339490D01*
X101767632Y-148301515D01*
X101769479Y-148286440D01*
X101774852Y-148239326D01*
X101777931Y-148200356D01*
X101778215Y-148190857D01*
X101776355Y-148158833D01*
X101771686Y-148113032D01*
X101769479Y-148095274D01*
X101766065Y-148051657D01*
X101773480Y-148022345D01*
X101796373Y-147993280D01*
X101806673Y-147982788D01*
X101852604Y-147936857D01*
X102339198Y-147936857D01*
X102356042Y-147973826D01*
X102368518Y-148005659D01*
X102372886Y-148024283D01*
X102359082Y-148029058D01*
X102320514Y-148033521D01*
X102261444Y-148037375D01*
X102186137Y-148040322D01*
X102122514Y-148041743D01*
X101872143Y-148045714D01*
X101867244Y-148080359D01*
X101870669Y-148111868D01*
X101881759Y-148127308D01*
X101902492Y-148131623D01*
X101946655Y-148135308D01*
X102008654Y-148138069D01*
X102082891Y-148139612D01*
X102121094Y-148139835D01*
X102341017Y-148140057D01*
X102356951Y-148185766D01*
X102367785Y-148218118D01*
X102372838Y-148235715D01*
X102372886Y-148236223D01*
X102359152Y-148237988D01*
X102321070Y-148239929D01*
X102263318Y-148241882D01*
X102190573Y-148243684D01*
X102122514Y-148244943D01*
X101872143Y-148248914D01*
X101872143Y-148336000D01*
X102100560Y-148339996D01*
X102328978Y-148343992D01*
X102350932Y-148386447D01*
X102366007Y-148417792D01*
X102372849Y-148436344D01*
X102372886Y-148436879D01*
X102359137Y-148439433D01*
G36*
X102361465Y-148804476D02*
X102342456Y-148846267D01*
X102319422Y-148879069D01*
X102293667Y-148903103D01*
X102260442Y-148919697D01*
X102215000Y-148930177D01*
X102152593Y-148935871D01*
X102068473Y-148938107D01*
X102013079Y-148938343D01*
X101796974Y-148938343D01*
X101780130Y-148901374D01*
X101767819Y-148872256D01*
X101763286Y-148857831D01*
X101776775Y-148855072D01*
X101813147Y-148852882D01*
X101866258Y-148851542D01*
X101908428Y-148851257D01*
X101969353Y-148850034D01*
X102017685Y-148846736D01*
X102047282Y-148841921D01*
X102053571Y-148838096D01*
X102047148Y-148812383D01*
X102030675Y-148772018D01*
X102008342Y-148725279D01*
X101984343Y-148680445D01*
X101962870Y-148645793D01*
X101948115Y-148629602D01*
X101947955Y-148629538D01*
X101920648Y-148630930D01*
X101894581Y-148643418D01*
X101873408Y-148665343D01*
X101866326Y-148697343D01*
X101867151Y-148724692D01*
X101867758Y-148763426D01*
X101858684Y-148783758D01*
X101834708Y-148795969D01*
X101830187Y-148797509D01*
X101795994Y-148802803D01*
X101775232Y-148788647D01*
X101765338Y-148751748D01*
X101763508Y-148711889D01*
X101777073Y-148640162D01*
X101796445Y-148603032D01*
X101841955Y-148557176D01*
X101897817Y-148532856D01*
X101956843Y-148530673D01*
X102011847Y-148551229D01*
X102046314Y-148582149D01*
X102065611Y-148613020D01*
X102090041Y-148661542D01*
X102114815Y-148718085D01*
X102118601Y-148727510D01*
X102146009Y-148789619D01*
X102170166Y-148825422D01*
X102194181Y-148836937D01*
X102221165Y-148826180D01*
X102242257Y-148807714D01*
X102268228Y-148764069D01*
X102270176Y-148716046D01*
X102250163Y-148672006D01*
X102210249Y-148640309D01*
X102199952Y-148636149D01*
X102162076Y-148611927D01*
X102133958Y-148576565D01*
X102110883Y-148531943D01*
X102176315Y-148531943D01*
X102216294Y-148534569D01*
X102247803Y-148545830D01*
X102281422Y-148570799D01*
X102307316Y-148594769D01*
X102343983Y-148632041D01*
X102363679Y-148661001D01*
X102371580Y-148692105D01*
X102372886Y-148727313D01*
X102361465Y-148804476D01*
X102361465Y-148804476D01*
G37*
X102361465Y-148804476D02*
X102342456Y-148846267D01*
X102319422Y-148879069D01*
X102293667Y-148903103D01*
X102260442Y-148919697D01*
X102215000Y-148930177D01*
X102152593Y-148935871D01*
X102068473Y-148938107D01*
X102013079Y-148938343D01*
X101796974Y-148938343D01*
X101780130Y-148901374D01*
X101767819Y-148872256D01*
X101763286Y-148857831D01*
X101776775Y-148855072D01*
X101813147Y-148852882D01*
X101866258Y-148851542D01*
X101908428Y-148851257D01*
X101969353Y-148850034D01*
X102017685Y-148846736D01*
X102047282Y-148841921D01*
X102053571Y-148838096D01*
X102047148Y-148812383D01*
X102030675Y-148772018D01*
X102008342Y-148725279D01*
X101984343Y-148680445D01*
X101962870Y-148645793D01*
X101948115Y-148629602D01*
X101947955Y-148629538D01*
X101920648Y-148630930D01*
X101894581Y-148643418D01*
X101873408Y-148665343D01*
X101866326Y-148697343D01*
X101867151Y-148724692D01*
X101867758Y-148763426D01*
X101858684Y-148783758D01*
X101834708Y-148795969D01*
X101830187Y-148797509D01*
X101795994Y-148802803D01*
X101775232Y-148788647D01*
X101765338Y-148751748D01*
X101763508Y-148711889D01*
X101777073Y-148640162D01*
X101796445Y-148603032D01*
X101841955Y-148557176D01*
X101897817Y-148532856D01*
X101956843Y-148530673D01*
X102011847Y-148551229D01*
X102046314Y-148582149D01*
X102065611Y-148613020D01*
X102090041Y-148661542D01*
X102114815Y-148718085D01*
X102118601Y-148727510D01*
X102146009Y-148789619D01*
X102170166Y-148825422D01*
X102194181Y-148836937D01*
X102221165Y-148826180D01*
X102242257Y-148807714D01*
X102268228Y-148764069D01*
X102270176Y-148716046D01*
X102250163Y-148672006D01*
X102210249Y-148640309D01*
X102199952Y-148636149D01*
X102162076Y-148611927D01*
X102133958Y-148576565D01*
X102110883Y-148531943D01*
X102176315Y-148531943D01*
X102216294Y-148534569D01*
X102247803Y-148545830D01*
X102281422Y-148570799D01*
X102307316Y-148594769D01*
X102343983Y-148632041D01*
X102363679Y-148661001D01*
X102371580Y-148692105D01*
X102372886Y-148727313D01*
X102361465Y-148804476D01*
G36*
X102359048Y-149312200D02*
X102351466Y-149329548D01*
X102318672Y-149370956D01*
X102271253Y-149406365D01*
X102220649Y-149428264D01*
X102195702Y-149431829D01*
X102160873Y-149419879D01*
X102142443Y-149393667D01*
X102131284Y-149365564D01*
X102129228Y-149352695D01*
X102144151Y-149346429D01*
X102176625Y-149334056D01*
X102191298Y-149328628D01*
X102242056Y-149298190D01*
X102267373Y-149254120D01*
X102266594Y-149197610D01*
X102265597Y-149193425D01*
X102251293Y-149163255D01*
X102223407Y-149141076D01*
X102178513Y-149125927D01*
X102113185Y-149116850D01*
X102023996Y-149112886D01*
X101976539Y-149112514D01*
X101901729Y-149112330D01*
X101850731Y-149111122D01*
X101818329Y-149107909D01*
X101799305Y-149101709D01*
X101788444Y-149091540D01*
X101780528Y-149076419D01*
X101780130Y-149075546D01*
X101767819Y-149046428D01*
X101763286Y-149032003D01*
X101776991Y-149029786D01*
X101814875Y-149027889D01*
X101872085Y-149026447D01*
X101943773Y-149025598D01*
X101996235Y-149025429D01*
X102097753Y-149026292D01*
X102174768Y-149029670D01*
X102231777Y-149036742D01*
X102273274Y-149048688D01*
X102303757Y-149066690D01*
X102327720Y-149091927D01*
X102344445Y-149116847D01*
X102366703Y-149176771D01*
X102371724Y-149246511D01*
X102359048Y-149312200D01*
X102359048Y-149312200D01*
G37*
X102359048Y-149312200D02*
X102351466Y-149329548D01*
X102318672Y-149370956D01*
X102271253Y-149406365D01*
X102220649Y-149428264D01*
X102195702Y-149431829D01*
X102160873Y-149419879D01*
X102142443Y-149393667D01*
X102131284Y-149365564D01*
X102129228Y-149352695D01*
X102144151Y-149346429D01*
X102176625Y-149334056D01*
X102191298Y-149328628D01*
X102242056Y-149298190D01*
X102267373Y-149254120D01*
X102266594Y-149197610D01*
X102265597Y-149193425D01*
X102251293Y-149163255D01*
X102223407Y-149141076D01*
X102178513Y-149125927D01*
X102113185Y-149116850D01*
X102023996Y-149112886D01*
X101976539Y-149112514D01*
X101901729Y-149112330D01*
X101850731Y-149111122D01*
X101818329Y-149107909D01*
X101799305Y-149101709D01*
X101788444Y-149091540D01*
X101780528Y-149076419D01*
X101780130Y-149075546D01*
X101767819Y-149046428D01*
X101763286Y-149032003D01*
X101776991Y-149029786D01*
X101814875Y-149027889D01*
X101872085Y-149026447D01*
X101943773Y-149025598D01*
X101996235Y-149025429D01*
X102097753Y-149026292D01*
X102174768Y-149029670D01*
X102231777Y-149036742D01*
X102273274Y-149048688D01*
X102303757Y-149066690D01*
X102327720Y-149091927D01*
X102344445Y-149116847D01*
X102366703Y-149176771D01*
X102371724Y-149246511D01*
X102359048Y-149312200D01*
G36*
X102350834Y-149813195D02*
X102313303Y-149870621D01*
X102279704Y-149898319D01*
X102218736Y-149920262D01*
X102170492Y-149922005D01*
X102105984Y-149918057D01*
X102040866Y-149769286D01*
X102007598Y-149696949D01*
X101980836Y-149649684D01*
X101957656Y-149625107D01*
X101935133Y-149620837D01*
X101910345Y-149634489D01*
X101893914Y-149649543D01*
X101867565Y-149693346D01*
X101865719Y-149740989D01*
X101886254Y-149784745D01*
X101927048Y-149816889D01*
X101941453Y-149822638D01*
X101986444Y-149850176D01*
X102005618Y-149881858D01*
X102022021Y-149925314D01*
X101959834Y-149925314D01*
X101917517Y-149921472D01*
X101881831Y-149906423D01*
X101840857Y-149874880D01*
X101835533Y-149870192D01*
X101799080Y-149835106D01*
X101779517Y-149804947D01*
X101770517Y-149767215D01*
X101767570Y-149735935D01*
X101766835Y-149679985D01*
X101776140Y-149640155D01*
X101789954Y-149615308D01*
X101820333Y-149576256D01*
X101853187Y-149549225D01*
X101894506Y-149532117D01*
X101950279Y-149522838D01*
X102026495Y-149519293D01*
X102065178Y-149519010D01*
X102111553Y-149519972D01*
X102111553Y-149607607D01*
X102086674Y-149608623D01*
X102082600Y-149611156D01*
X102088135Y-149627874D01*
X102102783Y-149663849D01*
X102123610Y-149711931D01*
X102128086Y-149721986D01*
X102158986Y-149782752D01*
X102186143Y-149816232D01*
X102211580Y-149823590D01*
X102237319Y-149805991D01*
X102248691Y-149791456D01*
X102271436Y-149739010D01*
X102267678Y-149689922D01*
X102239916Y-149648827D01*
X102190648Y-149620358D01*
X102151543Y-149611231D01*
X102111553Y-149607607D01*
X102111553Y-149519972D01*
X102155551Y-149520885D01*
X102222416Y-149527796D01*
X102271105Y-149541484D01*
X102306951Y-149563696D01*
X102335287Y-149596174D01*
X102344445Y-149610333D01*
X102368293Y-149674653D01*
X102369794Y-149745073D01*
X102350834Y-149813195D01*
X102350834Y-149813195D01*
G37*
X102350834Y-149813195D02*
X102313303Y-149870621D01*
X102279704Y-149898319D01*
X102218736Y-149920262D01*
X102170492Y-149922005D01*
X102105984Y-149918057D01*
X102040866Y-149769286D01*
X102007598Y-149696949D01*
X101980836Y-149649684D01*
X101957656Y-149625107D01*
X101935133Y-149620837D01*
X101910345Y-149634489D01*
X101893914Y-149649543D01*
X101867565Y-149693346D01*
X101865719Y-149740989D01*
X101886254Y-149784745D01*
X101927048Y-149816889D01*
X101941453Y-149822638D01*
X101986444Y-149850176D01*
X102005618Y-149881858D01*
X102022021Y-149925314D01*
X101959834Y-149925314D01*
X101917517Y-149921472D01*
X101881831Y-149906423D01*
X101840857Y-149874880D01*
X101835533Y-149870192D01*
X101799080Y-149835106D01*
X101779517Y-149804947D01*
X101770517Y-149767215D01*
X101767570Y-149735935D01*
X101766835Y-149679985D01*
X101776140Y-149640155D01*
X101789954Y-149615308D01*
X101820333Y-149576256D01*
X101853187Y-149549225D01*
X101894506Y-149532117D01*
X101950279Y-149522838D01*
X102026495Y-149519293D01*
X102065178Y-149519010D01*
X102111553Y-149519972D01*
X102111553Y-149607607D01*
X102086674Y-149608623D01*
X102082600Y-149611156D01*
X102088135Y-149627874D01*
X102102783Y-149663849D01*
X102123610Y-149711931D01*
X102128086Y-149721986D01*
X102158986Y-149782752D01*
X102186143Y-149816232D01*
X102211580Y-149823590D01*
X102237319Y-149805991D01*
X102248691Y-149791456D01*
X102271436Y-149739010D01*
X102267678Y-149689922D01*
X102239916Y-149648827D01*
X102190648Y-149620358D01*
X102151543Y-149611231D01*
X102111553Y-149607607D01*
X102111553Y-149519972D01*
X102155551Y-149520885D01*
X102222416Y-149527796D01*
X102271105Y-149541484D01*
X102306951Y-149563696D01*
X102335287Y-149596174D01*
X102344445Y-149610333D01*
X102368293Y-149674653D01*
X102369794Y-149745073D01*
X102350834Y-149813195D01*
G36*
X107075452Y-146763510D02*
X107075022Y-146842054D01*
X107073858Y-146898898D01*
X107071593Y-146937705D01*
X107067860Y-146962138D01*
X107062294Y-146975862D01*
X107054527Y-146982540D01*
X107044195Y-146985836D01*
X107042857Y-146986156D01*
X107018721Y-146991162D01*
X106971099Y-147000429D01*
X106905059Y-147012992D01*
X106825672Y-147027887D01*
X106738004Y-147044151D01*
X106734925Y-147044719D01*
X106649011Y-147061010D01*
X106573104Y-147076252D01*
X106511755Y-147089461D01*
X106469518Y-147099654D01*
X106450945Y-147105848D01*
X106450616Y-147106143D01*
X106441547Y-147124388D01*
X106426433Y-147162005D01*
X106408538Y-147210871D01*
X106408442Y-147211143D01*
X106385307Y-147272693D01*
X106355835Y-147345257D01*
X106326203Y-147413657D01*
X106324738Y-147416894D01*
X106274174Y-147528302D01*
X106442640Y-147774999D01*
X106493997Y-147850677D01*
X106539911Y-147919231D01*
X106577770Y-147976688D01*
X106604963Y-148019076D01*
X106618879Y-148042425D01*
X106619911Y-148044642D01*
X106615316Y-148061610D01*
X106593145Y-148093301D01*
X106552353Y-148140952D01*
X106491895Y-148205798D01*
X106427573Y-148271997D01*
X106364188Y-148335814D01*
X106306349Y-148392929D01*
X106257625Y-148439905D01*
X106221590Y-148473303D01*
X106201816Y-148489685D01*
X106200798Y-148490294D01*
X106187228Y-148492105D01*
X106165067Y-148485283D01*
X106131322Y-148468140D01*
X106083000Y-148438993D01*
X106017108Y-148396155D01*
X105932283Y-148339048D01*
X105857623Y-148288366D01*
X105790660Y-148243061D01*
X105735284Y-148205750D01*
X105695380Y-148179052D01*
X105674838Y-148165585D01*
X105673444Y-148164737D01*
X105653762Y-148166381D01*
X105615507Y-148178845D01*
X105565911Y-148199648D01*
X105550072Y-148207062D01*
X105479510Y-148239414D01*
X105399447Y-148273928D01*
X105330171Y-148301965D01*
X105278755Y-148322168D01*
X105239681Y-148338215D01*
X105219259Y-148347488D01*
X105217686Y-148348641D01*
X105215079Y-148365696D01*
X105207937Y-148405898D01*
X105197277Y-148463902D01*
X105184115Y-148534363D01*
X105169467Y-148611935D01*
X105154351Y-148691272D01*
X105139782Y-148767031D01*
X105126778Y-148833864D01*
X105116355Y-148886428D01*
X105109530Y-148919376D01*
X105107601Y-148927457D01*
X105102838Y-148935805D01*
X105092082Y-148942106D01*
X105071702Y-148946645D01*
X105038066Y-148949704D01*
X104987545Y-148951567D01*
X104916508Y-148952518D01*
X104821324Y-148952840D01*
X104782308Y-148952857D01*
X104465001Y-148952857D01*
X104449961Y-148876657D01*
X104441805Y-148834263D01*
X104429901Y-148771000D01*
X104415684Y-148694562D01*
X104400590Y-148612643D01*
X104396445Y-148590000D01*
X104381747Y-148514406D01*
X104367295Y-148448553D01*
X104354425Y-148397966D01*
X104344478Y-148368174D01*
X104341513Y-148363212D01*
X104320517Y-148351026D01*
X104279833Y-148333553D01*
X104227478Y-148314177D01*
X104216200Y-148310334D01*
X104146277Y-148284939D01*
X104067382Y-148253417D01*
X103996534Y-148222569D01*
X103996205Y-148222417D01*
X103885067Y-148171047D01*
X103636547Y-148339999D01*
X103388028Y-148508952D01*
X103170742Y-148292029D01*
X103106074Y-148226419D01*
X103049067Y-148166579D01*
X103002767Y-148115867D01*
X102970216Y-148077646D01*
X102954457Y-148055275D01*
X102953457Y-148052066D01*
X102961331Y-148033226D01*
X102983222Y-147994780D01*
X103016533Y-147940930D01*
X103058669Y-147875876D01*
X103105857Y-147805540D01*
X103153990Y-147734155D01*
X103195872Y-147670508D01*
X103228929Y-147618641D01*
X103250582Y-147582595D01*
X103258257Y-147566467D01*
X103251763Y-147546789D01*
X103234650Y-147509475D01*
X103210474Y-147462221D01*
X103207787Y-147457212D01*
X103175873Y-147393577D01*
X103160221Y-147349941D01*
X103160055Y-147322802D01*
X103174596Y-147308657D01*
X103174800Y-147308575D01*
X103192021Y-147301505D01*
X103232901Y-147284642D01*
X103294275Y-147259295D01*
X103372981Y-147226771D01*
X103465853Y-147188378D01*
X103569728Y-147145422D01*
X103670298Y-147103822D01*
X103781284Y-147058104D01*
X103884097Y-147016126D01*
X103975585Y-146979148D01*
X104052599Y-146948427D01*
X104111985Y-146925222D01*
X104150591Y-146910790D01*
X104165000Y-146906343D01*
X104181528Y-146917496D01*
X104207870Y-146946669D01*
X104236913Y-146985571D01*
X104328761Y-147096357D01*
X104434041Y-147182951D01*
X104550534Y-147244316D01*
X104676024Y-147279415D01*
X104808293Y-147287208D01*
X104869343Y-147281543D01*
X104996005Y-147250678D01*
X105107859Y-147197520D01*
X105203799Y-147125367D01*
X105282724Y-147037517D01*
X105343530Y-146937265D01*
X105385113Y-146827910D01*
X105406372Y-146712747D01*
X105406201Y-146595075D01*
X105383499Y-146478190D01*
X105337162Y-146365389D01*
X105266087Y-146259969D01*
X105225889Y-146215968D01*
X105122671Y-146131579D01*
X105009875Y-146072822D01*
X104890790Y-146039304D01*
X104768705Y-146030635D01*
X104646907Y-146046423D01*
X104528684Y-146086278D01*
X104417325Y-146149807D01*
X104316116Y-146236621D01*
X104236913Y-146333629D01*
X104206638Y-146374037D01*
X104180581Y-146402582D01*
X104164975Y-146412857D01*
X104147957Y-146407477D01*
X104107300Y-146392175D01*
X104046158Y-146368212D01*
X103967681Y-146336844D01*
X103875020Y-146299332D01*
X103771328Y-146256933D01*
X103670274Y-146215263D01*
X103559193Y-146169290D01*
X103456259Y-146126707D01*
X103364635Y-146088821D01*
X103287484Y-146056940D01*
X103227969Y-146032371D01*
X103189256Y-146016420D01*
X103174800Y-146010510D01*
X103160115Y-145996548D01*
X103160158Y-145969540D01*
X103175701Y-145926013D01*
X103207516Y-145862490D01*
X103207787Y-145861988D01*
X103232477Y-145814160D01*
X103250462Y-145775497D01*
X103258186Y-145753695D01*
X103258257Y-145752733D01*
X103250422Y-145736321D01*
X103228635Y-145700087D01*
X103195472Y-145648074D01*
X103153509Y-145584325D01*
X103105857Y-145513660D01*
X103057609Y-145441716D01*
X103015649Y-145376874D01*
X102982573Y-145323335D01*
X102960979Y-145285297D01*
X102953457Y-145267133D01*
X102963343Y-145250408D01*
X102990974Y-145216780D01*
X103033305Y-145169610D01*
X103087295Y-145112258D01*
X103149901Y-145048084D01*
X103170817Y-145027097D01*
X103388177Y-144810099D01*
X103630580Y-144975268D01*
X103705019Y-145025464D01*
X103771828Y-145069519D01*
X103827135Y-145104962D01*
X103867071Y-145129319D01*
X103887764Y-145140122D01*
X103889237Y-145140438D01*
X103908742Y-145134743D01*
X103947978Y-145119426D01*
X104000370Y-145097137D01*
X104035445Y-145081493D01*
X104102599Y-145052241D01*
X104170442Y-145024694D01*
X104227766Y-145003337D01*
X104245228Y-144997535D01*
X104291862Y-144981052D01*
X104327895Y-144964940D01*
X104341513Y-144956090D01*
X104349848Y-144936560D01*
X104361663Y-144893934D01*
X104375619Y-144833745D01*
X104390378Y-144761522D01*
X104396445Y-144729200D01*
X104411527Y-144647122D01*
X104426131Y-144568395D01*
X104438820Y-144500709D01*
X104448158Y-144451760D01*
X104449961Y-144442543D01*
X104465001Y-144366343D01*
X104782308Y-144366343D01*
X104886646Y-144366514D01*
X104965587Y-144367216D01*
X105022762Y-144368734D01*
X105061801Y-144371349D01*
X105086335Y-144375346D01*
X105099995Y-144381009D01*
X105106411Y-144388620D01*
X105107601Y-144391743D01*
X105111820Y-144410578D01*
X105120238Y-144452188D01*
X105131839Y-144511230D01*
X105145605Y-144582357D01*
X105160520Y-144660225D01*
X105175568Y-144739487D01*
X105189731Y-144814798D01*
X105201994Y-144880813D01*
X105211339Y-144932187D01*
X105216750Y-144963575D01*
X105217686Y-144970559D01*
X105230204Y-144976885D01*
X105263554Y-144990890D01*
X105311423Y-145009955D01*
X105330171Y-145017234D01*
X105402605Y-145046596D01*
X105482630Y-145081171D01*
X105550072Y-145112137D01*
X105601641Y-145134923D01*
X105644015Y-145150082D01*
X105669966Y-145155142D01*
X105673444Y-145154336D01*
X105689864Y-145143641D01*
X105726383Y-145119220D01*
X105779113Y-145083695D01*
X105844165Y-145039687D01*
X105917649Y-144989817D01*
X105932155Y-144979956D01*
X106018096Y-144922092D01*
X106083539Y-144879556D01*
X106131496Y-144850654D01*
X106164980Y-144833690D01*
X106187005Y-144826967D01*
X106200583Y-144828790D01*
X106200669Y-144828836D01*
X106218503Y-144843186D01*
X106252983Y-144874923D01*
X106300532Y-144920610D01*
X106357578Y-144976804D01*
X106420545Y-145040068D01*
X106427573Y-145047202D01*
X106504780Y-145126930D01*
X106561470Y-145188457D01*
X106598690Y-145233021D01*
X106617485Y-145261857D01*
X106619911Y-145274558D01*
X106609329Y-145293094D01*
X106584884Y-145331561D01*
X106549188Y-145385986D01*
X106504853Y-145452398D01*
X106454489Y-145526825D01*
X106442640Y-145544201D01*
X106274174Y-145790897D01*
X106324738Y-145902306D01*
X106354205Y-145970057D01*
X106383841Y-146042783D01*
X106407470Y-146105303D01*
X106408442Y-146108057D01*
X106426343Y-146156960D01*
X106441480Y-146194657D01*
X106450590Y-146213025D01*
X106450616Y-146213056D01*
X106467083Y-146218885D01*
X106507581Y-146228792D01*
X106567558Y-146241795D01*
X106642460Y-146256909D01*
X106727736Y-146273152D01*
X106734925Y-146274481D01*
X106822786Y-146290775D01*
X106902540Y-146305733D01*
X106969119Y-146318391D01*
X107017453Y-146327786D01*
X107042475Y-146332954D01*
X107042857Y-146333044D01*
X107053501Y-146336189D01*
X107061538Y-146342304D01*
X107067333Y-146355053D01*
X107071253Y-146378100D01*
X107073665Y-146415109D01*
X107074935Y-146469744D01*
X107075429Y-146545667D01*
X107075514Y-146646544D01*
X107075514Y-146659600D01*
X107075452Y-146763510D01*
X107075452Y-146763510D01*
G37*
X107075452Y-146763510D02*
X107075022Y-146842054D01*
X107073858Y-146898898D01*
X107071593Y-146937705D01*
X107067860Y-146962138D01*
X107062294Y-146975862D01*
X107054527Y-146982540D01*
X107044195Y-146985836D01*
X107042857Y-146986156D01*
X107018721Y-146991162D01*
X106971099Y-147000429D01*
X106905059Y-147012992D01*
X106825672Y-147027887D01*
X106738004Y-147044151D01*
X106734925Y-147044719D01*
X106649011Y-147061010D01*
X106573104Y-147076252D01*
X106511755Y-147089461D01*
X106469518Y-147099654D01*
X106450945Y-147105848D01*
X106450616Y-147106143D01*
X106441547Y-147124388D01*
X106426433Y-147162005D01*
X106408538Y-147210871D01*
X106408442Y-147211143D01*
X106385307Y-147272693D01*
X106355835Y-147345257D01*
X106326203Y-147413657D01*
X106324738Y-147416894D01*
X106274174Y-147528302D01*
X106442640Y-147774999D01*
X106493997Y-147850677D01*
X106539911Y-147919231D01*
X106577770Y-147976688D01*
X106604963Y-148019076D01*
X106618879Y-148042425D01*
X106619911Y-148044642D01*
X106615316Y-148061610D01*
X106593145Y-148093301D01*
X106552353Y-148140952D01*
X106491895Y-148205798D01*
X106427573Y-148271997D01*
X106364188Y-148335814D01*
X106306349Y-148392929D01*
X106257625Y-148439905D01*
X106221590Y-148473303D01*
X106201816Y-148489685D01*
X106200798Y-148490294D01*
X106187228Y-148492105D01*
X106165067Y-148485283D01*
X106131322Y-148468140D01*
X106083000Y-148438993D01*
X106017108Y-148396155D01*
X105932283Y-148339048D01*
X105857623Y-148288366D01*
X105790660Y-148243061D01*
X105735284Y-148205750D01*
X105695380Y-148179052D01*
X105674838Y-148165585D01*
X105673444Y-148164737D01*
X105653762Y-148166381D01*
X105615507Y-148178845D01*
X105565911Y-148199648D01*
X105550072Y-148207062D01*
X105479510Y-148239414D01*
X105399447Y-148273928D01*
X105330171Y-148301965D01*
X105278755Y-148322168D01*
X105239681Y-148338215D01*
X105219259Y-148347488D01*
X105217686Y-148348641D01*
X105215079Y-148365696D01*
X105207937Y-148405898D01*
X105197277Y-148463902D01*
X105184115Y-148534363D01*
X105169467Y-148611935D01*
X105154351Y-148691272D01*
X105139782Y-148767031D01*
X105126778Y-148833864D01*
X105116355Y-148886428D01*
X105109530Y-148919376D01*
X105107601Y-148927457D01*
X105102838Y-148935805D01*
X105092082Y-148942106D01*
X105071702Y-148946645D01*
X105038066Y-148949704D01*
X104987545Y-148951567D01*
X104916508Y-148952518D01*
X104821324Y-148952840D01*
X104782308Y-148952857D01*
X104465001Y-148952857D01*
X104449961Y-148876657D01*
X104441805Y-148834263D01*
X104429901Y-148771000D01*
X104415684Y-148694562D01*
X104400590Y-148612643D01*
X104396445Y-148590000D01*
X104381747Y-148514406D01*
X104367295Y-148448553D01*
X104354425Y-148397966D01*
X104344478Y-148368174D01*
X104341513Y-148363212D01*
X104320517Y-148351026D01*
X104279833Y-148333553D01*
X104227478Y-148314177D01*
X104216200Y-148310334D01*
X104146277Y-148284939D01*
X104067382Y-148253417D01*
X103996534Y-148222569D01*
X103996205Y-148222417D01*
X103885067Y-148171047D01*
X103636547Y-148339999D01*
X103388028Y-148508952D01*
X103170742Y-148292029D01*
X103106074Y-148226419D01*
X103049067Y-148166579D01*
X103002767Y-148115867D01*
X102970216Y-148077646D01*
X102954457Y-148055275D01*
X102953457Y-148052066D01*
X102961331Y-148033226D01*
X102983222Y-147994780D01*
X103016533Y-147940930D01*
X103058669Y-147875876D01*
X103105857Y-147805540D01*
X103153990Y-147734155D01*
X103195872Y-147670508D01*
X103228929Y-147618641D01*
X103250582Y-147582595D01*
X103258257Y-147566467D01*
X103251763Y-147546789D01*
X103234650Y-147509475D01*
X103210474Y-147462221D01*
X103207787Y-147457212D01*
X103175873Y-147393577D01*
X103160221Y-147349941D01*
X103160055Y-147322802D01*
X103174596Y-147308657D01*
X103174800Y-147308575D01*
X103192021Y-147301505D01*
X103232901Y-147284642D01*
X103294275Y-147259295D01*
X103372981Y-147226771D01*
X103465853Y-147188378D01*
X103569728Y-147145422D01*
X103670298Y-147103822D01*
X103781284Y-147058104D01*
X103884097Y-147016126D01*
X103975585Y-146979148D01*
X104052599Y-146948427D01*
X104111985Y-146925222D01*
X104150591Y-146910790D01*
X104165000Y-146906343D01*
X104181528Y-146917496D01*
X104207870Y-146946669D01*
X104236913Y-146985571D01*
X104328761Y-147096357D01*
X104434041Y-147182951D01*
X104550534Y-147244316D01*
X104676024Y-147279415D01*
X104808293Y-147287208D01*
X104869343Y-147281543D01*
X104996005Y-147250678D01*
X105107859Y-147197520D01*
X105203799Y-147125367D01*
X105282724Y-147037517D01*
X105343530Y-146937265D01*
X105385113Y-146827910D01*
X105406372Y-146712747D01*
X105406201Y-146595075D01*
X105383499Y-146478190D01*
X105337162Y-146365389D01*
X105266087Y-146259969D01*
X105225889Y-146215968D01*
X105122671Y-146131579D01*
X105009875Y-146072822D01*
X104890790Y-146039304D01*
X104768705Y-146030635D01*
X104646907Y-146046423D01*
X104528684Y-146086278D01*
X104417325Y-146149807D01*
X104316116Y-146236621D01*
X104236913Y-146333629D01*
X104206638Y-146374037D01*
X104180581Y-146402582D01*
X104164975Y-146412857D01*
X104147957Y-146407477D01*
X104107300Y-146392175D01*
X104046158Y-146368212D01*
X103967681Y-146336844D01*
X103875020Y-146299332D01*
X103771328Y-146256933D01*
X103670274Y-146215263D01*
X103559193Y-146169290D01*
X103456259Y-146126707D01*
X103364635Y-146088821D01*
X103287484Y-146056940D01*
X103227969Y-146032371D01*
X103189256Y-146016420D01*
X103174800Y-146010510D01*
X103160115Y-145996548D01*
X103160158Y-145969540D01*
X103175701Y-145926013D01*
X103207516Y-145862490D01*
X103207787Y-145861988D01*
X103232477Y-145814160D01*
X103250462Y-145775497D01*
X103258186Y-145753695D01*
X103258257Y-145752733D01*
X103250422Y-145736321D01*
X103228635Y-145700087D01*
X103195472Y-145648074D01*
X103153509Y-145584325D01*
X103105857Y-145513660D01*
X103057609Y-145441716D01*
X103015649Y-145376874D01*
X102982573Y-145323335D01*
X102960979Y-145285297D01*
X102953457Y-145267133D01*
X102963343Y-145250408D01*
X102990974Y-145216780D01*
X103033305Y-145169610D01*
X103087295Y-145112258D01*
X103149901Y-145048084D01*
X103170817Y-145027097D01*
X103388177Y-144810099D01*
X103630580Y-144975268D01*
X103705019Y-145025464D01*
X103771828Y-145069519D01*
X103827135Y-145104962D01*
X103867071Y-145129319D01*
X103887764Y-145140122D01*
X103889237Y-145140438D01*
X103908742Y-145134743D01*
X103947978Y-145119426D01*
X104000370Y-145097137D01*
X104035445Y-145081493D01*
X104102599Y-145052241D01*
X104170442Y-145024694D01*
X104227766Y-145003337D01*
X104245228Y-144997535D01*
X104291862Y-144981052D01*
X104327895Y-144964940D01*
X104341513Y-144956090D01*
X104349848Y-144936560D01*
X104361663Y-144893934D01*
X104375619Y-144833745D01*
X104390378Y-144761522D01*
X104396445Y-144729200D01*
X104411527Y-144647122D01*
X104426131Y-144568395D01*
X104438820Y-144500709D01*
X104448158Y-144451760D01*
X104449961Y-144442543D01*
X104465001Y-144366343D01*
X104782308Y-144366343D01*
X104886646Y-144366514D01*
X104965587Y-144367216D01*
X105022762Y-144368734D01*
X105061801Y-144371349D01*
X105086335Y-144375346D01*
X105099995Y-144381009D01*
X105106411Y-144388620D01*
X105107601Y-144391743D01*
X105111820Y-144410578D01*
X105120238Y-144452188D01*
X105131839Y-144511230D01*
X105145605Y-144582357D01*
X105160520Y-144660225D01*
X105175568Y-144739487D01*
X105189731Y-144814798D01*
X105201994Y-144880813D01*
X105211339Y-144932187D01*
X105216750Y-144963575D01*
X105217686Y-144970559D01*
X105230204Y-144976885D01*
X105263554Y-144990890D01*
X105311423Y-145009955D01*
X105330171Y-145017234D01*
X105402605Y-145046596D01*
X105482630Y-145081171D01*
X105550072Y-145112137D01*
X105601641Y-145134923D01*
X105644015Y-145150082D01*
X105669966Y-145155142D01*
X105673444Y-145154336D01*
X105689864Y-145143641D01*
X105726383Y-145119220D01*
X105779113Y-145083695D01*
X105844165Y-145039687D01*
X105917649Y-144989817D01*
X105932155Y-144979956D01*
X106018096Y-144922092D01*
X106083539Y-144879556D01*
X106131496Y-144850654D01*
X106164980Y-144833690D01*
X106187005Y-144826967D01*
X106200583Y-144828790D01*
X106200669Y-144828836D01*
X106218503Y-144843186D01*
X106252983Y-144874923D01*
X106300532Y-144920610D01*
X106357578Y-144976804D01*
X106420545Y-145040068D01*
X106427573Y-145047202D01*
X106504780Y-145126930D01*
X106561470Y-145188457D01*
X106598690Y-145233021D01*
X106617485Y-145261857D01*
X106619911Y-145274558D01*
X106609329Y-145293094D01*
X106584884Y-145331561D01*
X106549188Y-145385986D01*
X106504853Y-145452398D01*
X106454489Y-145526825D01*
X106442640Y-145544201D01*
X106274174Y-145790897D01*
X106324738Y-145902306D01*
X106354205Y-145970057D01*
X106383841Y-146042783D01*
X106407470Y-146105303D01*
X106408442Y-146108057D01*
X106426343Y-146156960D01*
X106441480Y-146194657D01*
X106450590Y-146213025D01*
X106450616Y-146213056D01*
X106467083Y-146218885D01*
X106507581Y-146228792D01*
X106567558Y-146241795D01*
X106642460Y-146256909D01*
X106727736Y-146273152D01*
X106734925Y-146274481D01*
X106822786Y-146290775D01*
X106902540Y-146305733D01*
X106969119Y-146318391D01*
X107017453Y-146327786D01*
X107042475Y-146332954D01*
X107042857Y-146333044D01*
X107053501Y-146336189D01*
X107061538Y-146342304D01*
X107067333Y-146355053D01*
X107071253Y-146378100D01*
X107073665Y-146415109D01*
X107074935Y-146469744D01*
X107075429Y-146545667D01*
X107075514Y-146646544D01*
X107075514Y-146659600D01*
X107075452Y-146763510D01*
D18*
X120788134Y-139650743D02*
X120740515Y-139698362D01*
X120597658Y-139745981D01*
X120502420Y-139745981D01*
X120359562Y-139698362D01*
X120264324Y-139603124D01*
X120216705Y-139507886D01*
X120169086Y-139317410D01*
X120169086Y-139174552D01*
X120216705Y-138984076D01*
X120264324Y-138888838D01*
X120359562Y-138793600D01*
X120502420Y-138745981D01*
X120597658Y-138745981D01*
X120740515Y-138793600D01*
X120788134Y-138841219D01*
X121740515Y-139745981D02*
X121169086Y-139745981D01*
X121454800Y-139745981D02*
X121454800Y-138745981D01*
X121359562Y-138888838D01*
X121264324Y-138984076D01*
X121169086Y-139031695D01*
X120486562Y-141777981D02*
X119915133Y-141777981D01*
X120200847Y-141777981D02*
X120200847Y-140777981D01*
X120105609Y-140920838D01*
X120010371Y-141016076D01*
X119915133Y-141063695D01*
X121343705Y-141111314D02*
X121343705Y-141777981D01*
X120915133Y-141111314D02*
X120915133Y-141635124D01*
X120962752Y-141730362D01*
X121057990Y-141777981D01*
X121200848Y-141777981D01*
X121296086Y-141730362D01*
X121343705Y-141682743D01*
X122153229Y-141254171D02*
X121819895Y-141254171D01*
X121819895Y-141777981D02*
X121819895Y-140777981D01*
X122296086Y-140777981D01*
X119899134Y-121438943D02*
X119851515Y-121486562D01*
X119708658Y-121534181D01*
X119613420Y-121534181D01*
X119470562Y-121486562D01*
X119375324Y-121391324D01*
X119327705Y-121296086D01*
X119280086Y-121105610D01*
X119280086Y-120962752D01*
X119327705Y-120772276D01*
X119375324Y-120677038D01*
X119470562Y-120581800D01*
X119613420Y-120534181D01*
X119708658Y-120534181D01*
X119851515Y-120581800D01*
X119899134Y-120629419D01*
X120280086Y-120629419D02*
X120327705Y-120581800D01*
X120422943Y-120534181D01*
X120661039Y-120534181D01*
X120756277Y-120581800D01*
X120803896Y-120629419D01*
X120851515Y-120724657D01*
X120851515Y-120819895D01*
X120803896Y-120962752D01*
X120232467Y-121534181D01*
X120851515Y-121534181D01*
X119200848Y-122280419D02*
X119248467Y-122232800D01*
X119343705Y-122185181D01*
X119581801Y-122185181D01*
X119677039Y-122232800D01*
X119724658Y-122280419D01*
X119772277Y-122375657D01*
X119772277Y-122470895D01*
X119724658Y-122613752D01*
X119153229Y-123185181D01*
X119772277Y-123185181D01*
X120200848Y-123089943D02*
X120248467Y-123137562D01*
X120200848Y-123185181D01*
X120153229Y-123137562D01*
X120200848Y-123089943D01*
X120200848Y-123185181D01*
X120629419Y-122280419D02*
X120677038Y-122232800D01*
X120772276Y-122185181D01*
X121010372Y-122185181D01*
X121105610Y-122232800D01*
X121153229Y-122280419D01*
X121200848Y-122375657D01*
X121200848Y-122470895D01*
X121153229Y-122613752D01*
X120581800Y-123185181D01*
X121200848Y-123185181D01*
X122057991Y-122518514D02*
X122057991Y-123185181D01*
X121629419Y-122518514D02*
X121629419Y-123042324D01*
X121677038Y-123137562D01*
X121772276Y-123185181D01*
X121915134Y-123185181D01*
X122010372Y-123137562D01*
X122057991Y-123089943D01*
X122867515Y-122661371D02*
X122534181Y-122661371D01*
X122534181Y-123185181D02*
X122534181Y-122185181D01*
X123010372Y-122185181D01*
X119924534Y-114479343D02*
X119876915Y-114526962D01*
X119734058Y-114574581D01*
X119638820Y-114574581D01*
X119495962Y-114526962D01*
X119400724Y-114431724D01*
X119353105Y-114336486D01*
X119305486Y-114146010D01*
X119305486Y-114003152D01*
X119353105Y-113812676D01*
X119400724Y-113717438D01*
X119495962Y-113622200D01*
X119638820Y-113574581D01*
X119734058Y-113574581D01*
X119876915Y-113622200D01*
X119924534Y-113669819D01*
X120257867Y-113574581D02*
X120876915Y-113574581D01*
X120543581Y-113955533D01*
X120686439Y-113955533D01*
X120781677Y-114003152D01*
X120829296Y-114050771D01*
X120876915Y-114146010D01*
X120876915Y-114384105D01*
X120829296Y-114479343D01*
X120781677Y-114526962D01*
X120686439Y-114574581D01*
X120400724Y-114574581D01*
X120305486Y-114526962D01*
X120257867Y-114479343D01*
X119286591Y-116327181D02*
X118715162Y-116327181D01*
X119000876Y-116327181D02*
X119000876Y-115327181D01*
X118905638Y-115470038D01*
X118810400Y-115565276D01*
X118715162Y-115612895D01*
X119905638Y-115327181D02*
X120000877Y-115327181D01*
X120096115Y-115374800D01*
X120143734Y-115422419D01*
X120191353Y-115517657D01*
X120238972Y-115708133D01*
X120238972Y-115946229D01*
X120191353Y-116136705D01*
X120143734Y-116231943D01*
X120096115Y-116279562D01*
X120000877Y-116327181D01*
X119905638Y-116327181D01*
X119810400Y-116279562D01*
X119762781Y-116231943D01*
X119715162Y-116136705D01*
X119667543Y-115946229D01*
X119667543Y-115708133D01*
X119715162Y-115517657D01*
X119762781Y-115422419D01*
X119810400Y-115374800D01*
X119905638Y-115327181D01*
X120858019Y-115327181D02*
X120953258Y-115327181D01*
X121048496Y-115374800D01*
X121096115Y-115422419D01*
X121143734Y-115517657D01*
X121191353Y-115708133D01*
X121191353Y-115946229D01*
X121143734Y-116136705D01*
X121096115Y-116231943D01*
X121048496Y-116279562D01*
X120953258Y-116327181D01*
X120858019Y-116327181D01*
X120762781Y-116279562D01*
X120715162Y-116231943D01*
X120667543Y-116136705D01*
X120619924Y-115946229D01*
X120619924Y-115708133D01*
X120667543Y-115517657D01*
X120715162Y-115422419D01*
X120762781Y-115374800D01*
X120858019Y-115327181D01*
X121810400Y-115327181D02*
X121905639Y-115327181D01*
X122000877Y-115374800D01*
X122048496Y-115422419D01*
X122096115Y-115517657D01*
X122143734Y-115708133D01*
X122143734Y-115946229D01*
X122096115Y-116136705D01*
X122048496Y-116231943D01*
X122000877Y-116279562D01*
X121905639Y-116327181D01*
X121810400Y-116327181D01*
X121715162Y-116279562D01*
X121667543Y-116231943D01*
X121619924Y-116136705D01*
X121572305Y-115946229D01*
X121572305Y-115708133D01*
X121619924Y-115517657D01*
X121667543Y-115422419D01*
X121715162Y-115374800D01*
X121810400Y-115327181D01*
X123000877Y-115660514D02*
X123000877Y-116327181D01*
X122572305Y-115660514D02*
X122572305Y-116184324D01*
X122619924Y-116279562D01*
X122715162Y-116327181D01*
X122858020Y-116327181D01*
X122953258Y-116279562D01*
X123000877Y-116231943D01*
X123810401Y-115803371D02*
X123477067Y-115803371D01*
X123477067Y-116327181D02*
X123477067Y-115327181D01*
X123953258Y-115327181D01*
D19*
X130115733Y-158070248D02*
X130115733Y-158360533D01*
X130096381Y-158418590D01*
X130057676Y-158457295D01*
X129999619Y-158476648D01*
X129960914Y-158476648D01*
X130522133Y-158476648D02*
X130289905Y-158476648D01*
X130406019Y-158476648D02*
X130406019Y-158070248D01*
X130367314Y-158128305D01*
X130328609Y-158167010D01*
X130289905Y-158186362D01*
X129390018Y-157181248D02*
X129254552Y-156987724D01*
X129157790Y-157181248D02*
X129157790Y-156774848D01*
X129312609Y-156774848D01*
X129351314Y-156794200D01*
X129370666Y-156813552D01*
X129390018Y-156852257D01*
X129390018Y-156910314D01*
X129370666Y-156949019D01*
X129351314Y-156968371D01*
X129312609Y-156987724D01*
X129157790Y-156987724D01*
X129680304Y-156774848D02*
X129680304Y-157065133D01*
X129660952Y-157123190D01*
X129622247Y-157161895D01*
X129564190Y-157181248D01*
X129525485Y-157181248D01*
X130086704Y-157181248D02*
X129854476Y-157181248D01*
X129970590Y-157181248D02*
X129970590Y-156774848D01*
X129931885Y-156832905D01*
X129893180Y-156871610D01*
X129854476Y-156890962D01*
X130473752Y-157181248D02*
X130241524Y-157181248D01*
X130357638Y-157181248D02*
X130357638Y-156774848D01*
X130318933Y-156832905D01*
X130280228Y-156871610D01*
X130241524Y-156890962D01*
X130647924Y-157026429D02*
X130957562Y-157026429D01*
X131325257Y-156774848D02*
X131247848Y-156774848D01*
X131209143Y-156794200D01*
X131189791Y-156813552D01*
X131151086Y-156871610D01*
X131131734Y-156949019D01*
X131131734Y-157103838D01*
X131151086Y-157142543D01*
X131170438Y-157161895D01*
X131209143Y-157181248D01*
X131286553Y-157181248D01*
X131325257Y-157161895D01*
X131344610Y-157142543D01*
X131363962Y-157103838D01*
X131363962Y-157007076D01*
X131344610Y-156968371D01*
X131325257Y-156949019D01*
X131286553Y-156929667D01*
X131209143Y-156929667D01*
X131170438Y-156949019D01*
X131151086Y-156968371D01*
X131131734Y-157007076D01*
D18*
X107623124Y-130687381D02*
X108242172Y-130687381D01*
X107908838Y-131068333D01*
X108051696Y-131068333D01*
X108146934Y-131115952D01*
X108194553Y-131163571D01*
X108242172Y-131258810D01*
X108242172Y-131496905D01*
X108194553Y-131592143D01*
X108146934Y-131639762D01*
X108051696Y-131687381D01*
X107765981Y-131687381D01*
X107670743Y-131639762D01*
X107623124Y-131592143D01*
X108575505Y-131020714D02*
X108813600Y-131687381D01*
X109051696Y-131020714D01*
X109337410Y-130687381D02*
X109956458Y-130687381D01*
X109623124Y-131068333D01*
X109765982Y-131068333D01*
X109861220Y-131115952D01*
X109908839Y-131163571D01*
X109956458Y-131258810D01*
X109956458Y-131496905D01*
X109908839Y-131592143D01*
X109861220Y-131639762D01*
X109765982Y-131687381D01*
X109480267Y-131687381D01*
X109385029Y-131639762D01*
X109337410Y-131592143D01*
X108623124Y-139170981D02*
X108146933Y-139170981D01*
X108099314Y-139647171D01*
X108146933Y-139599552D01*
X108242171Y-139551933D01*
X108480267Y-139551933D01*
X108575505Y-139599552D01*
X108623124Y-139647171D01*
X108670743Y-139742410D01*
X108670743Y-139980505D01*
X108623124Y-140075743D01*
X108575505Y-140123362D01*
X108480267Y-140170981D01*
X108242171Y-140170981D01*
X108146933Y-140123362D01*
X108099314Y-140075743D01*
X108956457Y-139170981D02*
X109289790Y-140170981D01*
X109623124Y-139170981D01*
X108051696Y-122048200D02*
X107956458Y-122000581D01*
X107813601Y-122000581D01*
X107670743Y-122048200D01*
X107575505Y-122143438D01*
X107527886Y-122238676D01*
X107480267Y-122429152D01*
X107480267Y-122572010D01*
X107527886Y-122762486D01*
X107575505Y-122857724D01*
X107670743Y-122952962D01*
X107813601Y-123000581D01*
X107908839Y-123000581D01*
X108051696Y-122952962D01*
X108099315Y-122905343D01*
X108099315Y-122572010D01*
X107908839Y-122572010D01*
X108527886Y-123000581D02*
X108527886Y-122000581D01*
X109099315Y-123000581D01*
X109099315Y-122000581D01*
X109575505Y-123000581D02*
X109575505Y-122000581D01*
X109813600Y-122000581D01*
X109956458Y-122048200D01*
X110051696Y-122143438D01*
X110099315Y-122238676D01*
X110146934Y-122429152D01*
X110146934Y-122572010D01*
X110099315Y-122762486D01*
X110051696Y-122857724D01*
X109956458Y-122952962D01*
X109813600Y-123000581D01*
X109575505Y-123000581D01*
X142576562Y-121705619D02*
X142481324Y-121658000D01*
X142386086Y-121562762D01*
X142243229Y-121419905D01*
X142147990Y-121372286D01*
X142052752Y-121372286D01*
X142100371Y-121610381D02*
X142005133Y-121562762D01*
X141909895Y-121467524D01*
X141862276Y-121277048D01*
X141862276Y-120943714D01*
X141909895Y-120753238D01*
X142005133Y-120658000D01*
X142100371Y-120610381D01*
X142290848Y-120610381D01*
X142386086Y-120658000D01*
X142481324Y-120753238D01*
X142528943Y-120943714D01*
X142528943Y-121277048D01*
X142481324Y-121467524D01*
X142386086Y-121562762D01*
X142290848Y-121610381D01*
X142100371Y-121610381D01*
X143481324Y-121610381D02*
X142909895Y-121610381D01*
X143195609Y-121610381D02*
X143195609Y-120610381D01*
X143100371Y-120753238D01*
X143005133Y-120848476D01*
X142909895Y-120896095D01*
X150644458Y-121010371D02*
X150787315Y-121057990D01*
X150834934Y-121105610D01*
X150882553Y-121200848D01*
X150882553Y-121343705D01*
X150834934Y-121438943D01*
X150787315Y-121486562D01*
X150692077Y-121534181D01*
X150311124Y-121534181D01*
X150311124Y-120534181D01*
X150644458Y-120534181D01*
X150739696Y-120581800D01*
X150787315Y-120629419D01*
X150834934Y-120724657D01*
X150834934Y-120819895D01*
X150787315Y-120915133D01*
X150739696Y-120962752D01*
X150644458Y-121010371D01*
X150311124Y-121010371D01*
X151882553Y-121438943D02*
X151834934Y-121486562D01*
X151692077Y-121534181D01*
X151596839Y-121534181D01*
X151453981Y-121486562D01*
X151358743Y-121391324D01*
X151311124Y-121296086D01*
X151263505Y-121105610D01*
X151263505Y-120962752D01*
X151311124Y-120772276D01*
X151358743Y-120677038D01*
X151453981Y-120581800D01*
X151596839Y-120534181D01*
X151692077Y-120534181D01*
X151834934Y-120581800D01*
X151882553Y-120629419D01*
X152787315Y-120534181D02*
X152311124Y-120534181D01*
X152263505Y-121010371D01*
X152311124Y-120962752D01*
X152406362Y-120915133D01*
X152644458Y-120915133D01*
X152739696Y-120962752D01*
X152787315Y-121010371D01*
X152834934Y-121105610D01*
X152834934Y-121343705D01*
X152787315Y-121438943D01*
X152739696Y-121486562D01*
X152644458Y-121534181D01*
X152406362Y-121534181D01*
X152311124Y-121486562D01*
X152263505Y-121438943D01*
X153692077Y-120867514D02*
X153692077Y-121534181D01*
X153453981Y-120486562D02*
X153215886Y-121200848D01*
X153834934Y-121200848D01*
X154120648Y-120534181D02*
X154787315Y-120534181D01*
X154358743Y-121534181D01*
X119481695Y-131176781D02*
X119481695Y-131986305D01*
X119529314Y-132081543D01*
X119576933Y-132129162D01*
X119672171Y-132176781D01*
X119862648Y-132176781D01*
X119957886Y-132129162D01*
X120005505Y-132081543D01*
X120053124Y-131986305D01*
X120053124Y-131176781D01*
X121053124Y-132176781D02*
X120481695Y-132176781D01*
X120767409Y-132176781D02*
X120767409Y-131176781D01*
X120672171Y-131319638D01*
X120576933Y-131414876D01*
X120481695Y-131462495D01*
X119490314Y-133624581D02*
X119490314Y-132624581D01*
X119823648Y-133338867D01*
X120156981Y-132624581D01*
X120156981Y-133624581D01*
X121204600Y-133529343D02*
X121156981Y-133576962D01*
X121014124Y-133624581D01*
X120918886Y-133624581D01*
X120776028Y-133576962D01*
X120680790Y-133481724D01*
X120633171Y-133386486D01*
X120585552Y-133196010D01*
X120585552Y-133053152D01*
X120633171Y-132862676D01*
X120680790Y-132767438D01*
X120776028Y-132672200D01*
X120918886Y-132624581D01*
X121014124Y-132624581D01*
X121156981Y-132672200D01*
X121204600Y-132719819D01*
X121633171Y-133624581D02*
X121633171Y-132624581D01*
X122014124Y-132624581D01*
X122109362Y-132672200D01*
X122156981Y-132719819D01*
X122204600Y-132815057D01*
X122204600Y-132957914D01*
X122156981Y-133053152D01*
X122109362Y-133100771D01*
X122014124Y-133148390D01*
X121633171Y-133148390D01*
X123156981Y-133624581D02*
X122585552Y-133624581D01*
X122871266Y-133624581D02*
X122871266Y-132624581D01*
X122776028Y-132767438D01*
X122680790Y-132862676D01*
X122585552Y-132910295D01*
X123490314Y-132624581D02*
X124156981Y-132624581D01*
X123728409Y-133624581D01*
X124728409Y-132624581D02*
X124823648Y-132624581D01*
X124918886Y-132672200D01*
X124966505Y-132719819D01*
X125014124Y-132815057D01*
X125061743Y-133005533D01*
X125061743Y-133243629D01*
X125014124Y-133434105D01*
X124966505Y-133529343D01*
X124918886Y-133576962D01*
X124823648Y-133624581D01*
X124728409Y-133624581D01*
X124633171Y-133576962D01*
X124585552Y-133529343D01*
X124537933Y-133434105D01*
X124490314Y-133243629D01*
X124490314Y-133005533D01*
X124537933Y-132815057D01*
X124585552Y-132719819D01*
X124633171Y-132672200D01*
X124728409Y-132624581D01*
X125680790Y-132624581D02*
X125776029Y-132624581D01*
X125871267Y-132672200D01*
X125918886Y-132719819D01*
X125966505Y-132815057D01*
X126014124Y-133005533D01*
X126014124Y-133243629D01*
X125966505Y-133434105D01*
X125918886Y-133529343D01*
X125871267Y-133576962D01*
X125776029Y-133624581D01*
X125680790Y-133624581D01*
X125585552Y-133576962D01*
X125537933Y-133529343D01*
X125490314Y-133434105D01*
X125442695Y-133243629D01*
X125442695Y-133005533D01*
X125490314Y-132815057D01*
X125537933Y-132719819D01*
X125585552Y-132672200D01*
X125680790Y-132624581D01*
X126442695Y-133243629D02*
X127204600Y-133243629D01*
X127585552Y-132624581D02*
X128204600Y-132624581D01*
X127871266Y-133005533D01*
X128014124Y-133005533D01*
X128109362Y-133053152D01*
X128156981Y-133100771D01*
X128204600Y-133196010D01*
X128204600Y-133434105D01*
X128156981Y-133529343D01*
X128109362Y-133576962D01*
X128014124Y-133624581D01*
X127728409Y-133624581D01*
X127633171Y-133576962D01*
X127585552Y-133529343D01*
X128537933Y-132624581D02*
X129156981Y-132624581D01*
X128823647Y-133005533D01*
X128966505Y-133005533D01*
X129061743Y-133053152D01*
X129109362Y-133100771D01*
X129156981Y-133196010D01*
X129156981Y-133434105D01*
X129109362Y-133529343D01*
X129061743Y-133576962D01*
X128966505Y-133624581D01*
X128680790Y-133624581D01*
X128585552Y-133576962D01*
X128537933Y-133529343D01*
X129776028Y-132624581D02*
X129871267Y-132624581D01*
X129966505Y-132672200D01*
X130014124Y-132719819D01*
X130061743Y-132815057D01*
X130109362Y-133005533D01*
X130109362Y-133243629D01*
X130061743Y-133434105D01*
X130014124Y-133529343D01*
X129966505Y-133576962D01*
X129871267Y-133624581D01*
X129776028Y-133624581D01*
X129680790Y-133576962D01*
X129633171Y-133529343D01*
X129585552Y-133434105D01*
X129537933Y-133243629D01*
X129537933Y-133005533D01*
X129585552Y-132815057D01*
X129633171Y-132719819D01*
X129680790Y-132672200D01*
X129776028Y-132624581D01*
X130490314Y-132719819D02*
X130537933Y-132672200D01*
X130633171Y-132624581D01*
X130871267Y-132624581D01*
X130966505Y-132672200D01*
X131014124Y-132719819D01*
X131061743Y-132815057D01*
X131061743Y-132910295D01*
X131014124Y-133053152D01*
X130442695Y-133624581D01*
X131061743Y-133624581D01*
X131490314Y-133100771D02*
X131823648Y-133100771D01*
X131966505Y-133624581D02*
X131490314Y-133624581D01*
X131490314Y-132624581D01*
X131966505Y-132624581D01*
X138339581Y-108635705D02*
X139149105Y-108635705D01*
X139244343Y-108588086D01*
X139291962Y-108540467D01*
X139339581Y-108445229D01*
X139339581Y-108254752D01*
X139291962Y-108159514D01*
X139244343Y-108111895D01*
X139149105Y-108064276D01*
X138339581Y-108064276D01*
X138434819Y-107635705D02*
X138387200Y-107588086D01*
X138339581Y-107492848D01*
X138339581Y-107254752D01*
X138387200Y-107159514D01*
X138434819Y-107111895D01*
X138530057Y-107064276D01*
X138625295Y-107064276D01*
X138768152Y-107111895D01*
X139339581Y-107683324D01*
X139339581Y-107064276D01*
X127895695Y-104652771D02*
X128229029Y-104652771D01*
X128371886Y-105176581D02*
X127895695Y-105176581D01*
X127895695Y-104176581D01*
X128371886Y-104176581D01*
X128752838Y-105128962D02*
X128895695Y-105176581D01*
X129133791Y-105176581D01*
X129229029Y-105128962D01*
X129276648Y-105081343D01*
X129324267Y-104986105D01*
X129324267Y-104890867D01*
X129276648Y-104795629D01*
X129229029Y-104748010D01*
X129133791Y-104700390D01*
X128943314Y-104652771D01*
X128848076Y-104605152D01*
X128800457Y-104557533D01*
X128752838Y-104462295D01*
X128752838Y-104367057D01*
X128800457Y-104271819D01*
X128848076Y-104224200D01*
X128943314Y-104176581D01*
X129181410Y-104176581D01*
X129324267Y-104224200D01*
X129752838Y-105176581D02*
X129752838Y-104176581D01*
X130133791Y-104176581D01*
X130229029Y-104224200D01*
X130276648Y-104271819D01*
X130324267Y-104367057D01*
X130324267Y-104509914D01*
X130276648Y-104605152D01*
X130229029Y-104652771D01*
X130133791Y-104700390D01*
X129752838Y-104700390D01*
X130752838Y-104795629D02*
X131514743Y-104795629D01*
X132181409Y-104176581D02*
X132276648Y-104176581D01*
X132371886Y-104224200D01*
X132419505Y-104271819D01*
X132467124Y-104367057D01*
X132514743Y-104557533D01*
X132514743Y-104795629D01*
X132467124Y-104986105D01*
X132419505Y-105081343D01*
X132371886Y-105128962D01*
X132276648Y-105176581D01*
X132181409Y-105176581D01*
X132086171Y-105128962D01*
X132038552Y-105081343D01*
X131990933Y-104986105D01*
X131943314Y-104795629D01*
X131943314Y-104557533D01*
X131990933Y-104367057D01*
X132038552Y-104271819D01*
X132086171Y-104224200D01*
X132181409Y-104176581D01*
X133467124Y-105176581D02*
X132895695Y-105176581D01*
X133181409Y-105176581D02*
X133181409Y-104176581D01*
X133086171Y-104319438D01*
X132990933Y-104414676D01*
X132895695Y-104462295D01*
X135478781Y-129224066D02*
X135002590Y-129557400D01*
X135478781Y-129795495D02*
X134478781Y-129795495D01*
X134478781Y-129414542D01*
X134526400Y-129319304D01*
X134574019Y-129271685D01*
X134669257Y-129224066D01*
X134812114Y-129224066D01*
X134907352Y-129271685D01*
X134954971Y-129319304D01*
X135002590Y-129414542D01*
X135002590Y-129795495D01*
X134812114Y-128366923D02*
X135478781Y-128366923D01*
X134431162Y-128605019D02*
X135145448Y-128843114D01*
X135145448Y-128224066D01*
X135453381Y-114209438D02*
X135453381Y-114780867D01*
X135453381Y-114495153D02*
X134453381Y-114495153D01*
X134596238Y-114590391D01*
X134691476Y-114685629D01*
X134739095Y-114780867D01*
X134453381Y-113590391D02*
X134453381Y-113495152D01*
X134501000Y-113399914D01*
X134548619Y-113352295D01*
X134643857Y-113304676D01*
X134834333Y-113257057D01*
X135072429Y-113257057D01*
X135262905Y-113304676D01*
X135358143Y-113352295D01*
X135405762Y-113399914D01*
X135453381Y-113495152D01*
X135453381Y-113590391D01*
X135405762Y-113685629D01*
X135358143Y-113733248D01*
X135262905Y-113780867D01*
X135072429Y-113828486D01*
X134834333Y-113828486D01*
X134643857Y-113780867D01*
X134548619Y-113733248D01*
X134501000Y-113685629D01*
X134453381Y-113590391D01*
X135453381Y-112828486D02*
X134453381Y-112828486D01*
X135072429Y-112733248D02*
X135453381Y-112447533D01*
X134786714Y-112447533D02*
X135167667Y-112828486D01*
X131287781Y-129224066D02*
X130811590Y-129557400D01*
X131287781Y-129795495D02*
X130287781Y-129795495D01*
X130287781Y-129414542D01*
X130335400Y-129319304D01*
X130383019Y-129271685D01*
X130478257Y-129224066D01*
X130621114Y-129224066D01*
X130716352Y-129271685D01*
X130763971Y-129319304D01*
X130811590Y-129414542D01*
X130811590Y-129795495D01*
X130287781Y-128319304D02*
X130287781Y-128795495D01*
X130763971Y-128843114D01*
X130716352Y-128795495D01*
X130668733Y-128700257D01*
X130668733Y-128462161D01*
X130716352Y-128366923D01*
X130763971Y-128319304D01*
X130859210Y-128271685D01*
X131097305Y-128271685D01*
X131192543Y-128319304D01*
X131240162Y-128366923D01*
X131287781Y-128462161D01*
X131287781Y-128700257D01*
X131240162Y-128795495D01*
X131192543Y-128843114D01*
X131287781Y-114285638D02*
X131287781Y-114857067D01*
X131287781Y-114571353D02*
X130287781Y-114571353D01*
X130430638Y-114666591D01*
X130525876Y-114761829D01*
X130573495Y-114857067D01*
X130287781Y-113666591D02*
X130287781Y-113571352D01*
X130335400Y-113476114D01*
X130383019Y-113428495D01*
X130478257Y-113380876D01*
X130668733Y-113333257D01*
X130906829Y-113333257D01*
X131097305Y-113380876D01*
X131192543Y-113428495D01*
X131240162Y-113476114D01*
X131287781Y-113571352D01*
X131287781Y-113666591D01*
X131240162Y-113761829D01*
X131192543Y-113809448D01*
X131097305Y-113857067D01*
X130906829Y-113904686D01*
X130668733Y-113904686D01*
X130478257Y-113857067D01*
X130383019Y-113809448D01*
X130335400Y-113761829D01*
X130287781Y-113666591D01*
X131287781Y-112904686D02*
X130287781Y-112904686D01*
X130906829Y-112809448D02*
X131287781Y-112523733D01*
X130621114Y-112523733D02*
X131002067Y-112904686D01*
X127223781Y-129224066D02*
X126747590Y-129557400D01*
X127223781Y-129795495D02*
X126223781Y-129795495D01*
X126223781Y-129414542D01*
X126271400Y-129319304D01*
X126319019Y-129271685D01*
X126414257Y-129224066D01*
X126557114Y-129224066D01*
X126652352Y-129271685D01*
X126699971Y-129319304D01*
X126747590Y-129414542D01*
X126747590Y-129795495D01*
X126223781Y-128366923D02*
X126223781Y-128557400D01*
X126271400Y-128652638D01*
X126319019Y-128700257D01*
X126461876Y-128795495D01*
X126652352Y-128843114D01*
X127033305Y-128843114D01*
X127128543Y-128795495D01*
X127176162Y-128747876D01*
X127223781Y-128652638D01*
X127223781Y-128462161D01*
X127176162Y-128366923D01*
X127128543Y-128319304D01*
X127033305Y-128271685D01*
X126795210Y-128271685D01*
X126699971Y-128319304D01*
X126652352Y-128366923D01*
X126604733Y-128462161D01*
X126604733Y-128652638D01*
X126652352Y-128747876D01*
X126699971Y-128795495D01*
X126795210Y-128843114D01*
X127096781Y-114209438D02*
X127096781Y-114780867D01*
X127096781Y-114495153D02*
X126096781Y-114495153D01*
X126239638Y-114590391D01*
X126334876Y-114685629D01*
X126382495Y-114780867D01*
X126096781Y-113590391D02*
X126096781Y-113495152D01*
X126144400Y-113399914D01*
X126192019Y-113352295D01*
X126287257Y-113304676D01*
X126477733Y-113257057D01*
X126715829Y-113257057D01*
X126906305Y-113304676D01*
X127001543Y-113352295D01*
X127049162Y-113399914D01*
X127096781Y-113495152D01*
X127096781Y-113590391D01*
X127049162Y-113685629D01*
X127001543Y-113733248D01*
X126906305Y-113780867D01*
X126715829Y-113828486D01*
X126477733Y-113828486D01*
X126287257Y-113780867D01*
X126192019Y-113733248D01*
X126144400Y-113685629D01*
X126096781Y-113590391D01*
X127096781Y-112828486D02*
X126096781Y-112828486D01*
X126715829Y-112733248D02*
X127096781Y-112447533D01*
X126430114Y-112447533D02*
X126811067Y-112828486D01*
X139533334Y-127884181D02*
X139200000Y-127407990D01*
X138961905Y-127884181D02*
X138961905Y-126884181D01*
X139342858Y-126884181D01*
X139438096Y-126931800D01*
X139485715Y-126979419D01*
X139533334Y-127074657D01*
X139533334Y-127217514D01*
X139485715Y-127312752D01*
X139438096Y-127360371D01*
X139342858Y-127407990D01*
X138961905Y-127407990D01*
X140485715Y-127884181D02*
X139914286Y-127884181D01*
X140200000Y-127884181D02*
X140200000Y-126884181D01*
X140104762Y-127027038D01*
X140009524Y-127122276D01*
X139914286Y-127169895D01*
X154795553Y-127858781D02*
X154224124Y-127858781D01*
X154509838Y-127858781D02*
X154509838Y-126858781D01*
X154414600Y-127001638D01*
X154319362Y-127096876D01*
X154224124Y-127144495D01*
X155224124Y-127858781D02*
X155224124Y-126858781D01*
X155319362Y-127477829D02*
X155605077Y-127858781D01*
X155605077Y-127192114D02*
X155224124Y-127573067D01*
X139533334Y-133218181D02*
X139200000Y-132741990D01*
X138961905Y-133218181D02*
X138961905Y-132218181D01*
X139342858Y-132218181D01*
X139438096Y-132265800D01*
X139485715Y-132313419D01*
X139533334Y-132408657D01*
X139533334Y-132551514D01*
X139485715Y-132646752D01*
X139438096Y-132694371D01*
X139342858Y-132741990D01*
X138961905Y-132741990D01*
X139914286Y-132313419D02*
X139961905Y-132265800D01*
X140057143Y-132218181D01*
X140295239Y-132218181D01*
X140390477Y-132265800D01*
X140438096Y-132313419D01*
X140485715Y-132408657D01*
X140485715Y-132503895D01*
X140438096Y-132646752D01*
X139866667Y-133218181D01*
X140485715Y-133218181D01*
X154195638Y-132211819D02*
X154243257Y-132164200D01*
X154338495Y-132116581D01*
X154576591Y-132116581D01*
X154671829Y-132164200D01*
X154719448Y-132211819D01*
X154767067Y-132307057D01*
X154767067Y-132402295D01*
X154719448Y-132545152D01*
X154148019Y-133116581D01*
X154767067Y-133116581D01*
X155195638Y-133021343D02*
X155243257Y-133068962D01*
X155195638Y-133116581D01*
X155148019Y-133068962D01*
X155195638Y-133021343D01*
X155195638Y-133116581D01*
X155624209Y-132211819D02*
X155671828Y-132164200D01*
X155767066Y-132116581D01*
X156005162Y-132116581D01*
X156100400Y-132164200D01*
X156148019Y-132211819D01*
X156195638Y-132307057D01*
X156195638Y-132402295D01*
X156148019Y-132545152D01*
X155576590Y-133116581D01*
X156195638Y-133116581D01*
X156624209Y-133116581D02*
X156624209Y-132116581D01*
X156719447Y-132735629D02*
X157005162Y-133116581D01*
X157005162Y-132449914D02*
X156624209Y-132830867D01*
X139279334Y-114574581D02*
X138946000Y-114098390D01*
X138707905Y-114574581D02*
X138707905Y-113574581D01*
X139088858Y-113574581D01*
X139184096Y-113622200D01*
X139231715Y-113669819D01*
X139279334Y-113765057D01*
X139279334Y-113907914D01*
X139231715Y-114003152D01*
X139184096Y-114050771D01*
X139088858Y-114098390D01*
X138707905Y-114098390D01*
X139612667Y-113574581D02*
X140231715Y-113574581D01*
X139898381Y-113955533D01*
X140041239Y-113955533D01*
X140136477Y-114003152D01*
X140184096Y-114050771D01*
X140231715Y-114146010D01*
X140231715Y-114384105D01*
X140184096Y-114479343D01*
X140136477Y-114526962D01*
X140041239Y-114574581D01*
X139755524Y-114574581D01*
X139660286Y-114526962D01*
X139612667Y-114479343D01*
X154017838Y-113619019D02*
X154065457Y-113571400D01*
X154160695Y-113523781D01*
X154398791Y-113523781D01*
X154494029Y-113571400D01*
X154541648Y-113619019D01*
X154589267Y-113714257D01*
X154589267Y-113809495D01*
X154541648Y-113952352D01*
X153970219Y-114523781D01*
X154589267Y-114523781D01*
X155017838Y-114428543D02*
X155065457Y-114476162D01*
X155017838Y-114523781D01*
X154970219Y-114476162D01*
X155017838Y-114428543D01*
X155017838Y-114523781D01*
X155446409Y-113619019D02*
X155494028Y-113571400D01*
X155589266Y-113523781D01*
X155827362Y-113523781D01*
X155922600Y-113571400D01*
X155970219Y-113619019D01*
X156017838Y-113714257D01*
X156017838Y-113809495D01*
X155970219Y-113952352D01*
X155398790Y-114523781D01*
X156017838Y-114523781D01*
X156446409Y-114523781D02*
X156446409Y-113523781D01*
X156541647Y-114142829D02*
X156827362Y-114523781D01*
X156827362Y-113857114D02*
X156446409Y-114238067D01*
M02*
